<?xml version="1.0" encoding="UTF-8" standalone="no"?>
<!DOCTYPE svg PUBLIC "-//W3C//DTD SVG 1.1//EN" "http://www.w3.org/Graphics/SVG/1.1/DTD/svg11.dtd">
<!-- Created with Vectornator (http://vectornator.io/) -->
<svg height="100%" stroke-miterlimit="10" style="fill-rule:nonzero;clip-rule:evenodd;stroke-linecap:round;stroke-linejoin:round;" version="1.1" viewBox="0 0 462.412 327.315" width="100%" xml:space="preserve" xmlns="http://www.w3.org/2000/svg" xmlns:vectornator="http://vectornator.io" xmlns:xlink="http://www.w3.org/1999/xlink">
<defs/>
<g id="Layer-1" vectornator:layerName="Layer 1">
<path d="M132.749 190.732L131.245 190.78C130.653 191.868 129.645 193.804 128.733 195.308L128.109 196.492L128.013 196.492C128.125 195.66 128.397 193.868 128.397 192.812C128.397 191.484 128.061 190.7 127.165 190.7C126.253 190.7 125.485 191.5 125.053 192.332L125.357 192.572C125.773 192.06 126.093 191.852 126.509 191.852C127.309 191.852 127.437 193.196 127.437 194.092C127.437 195.036 127.389 196.204 127.277 197.452C126.605 198.716 125.629 199.932 125.629 200.86C125.629 201.548 126.029 201.708 126.685 201.724C127.485 200.62 127.933 198.508 128.173 197.548C129.821 195.404 131.357 193.116 132.765 190.988L132.749 190.732Z" fill="#ed230d" opacity="1" stroke="none" vectornator:layerName="Text 4"/>
<path d="M294.631 171.671L293.127 171.719C292.535 172.807 291.527 174.743 290.615 176.247L289.991 177.431L289.895 177.431C290.007 176.599 290.279 174.807 290.279 173.751C290.279 172.423 289.943 171.639 289.047 171.639C288.135 171.639 287.367 172.439 286.935 173.271L287.239 173.511C287.655 172.999 287.975 172.791 288.391 172.791C289.191 172.791 289.319 174.135 289.319 175.031C289.319 175.975 289.271 177.143 289.159 178.391C288.487 179.655 287.511 180.871 287.511 181.799C287.511 182.487 287.911 182.647 288.567 182.663C289.367 181.559 289.815 179.447 290.055 178.487C291.703 176.343 293.239 174.055 294.647 171.927L294.631 171.671Z" fill="#ed230d" opacity="1" stroke="none" vectornator:layerName="Text 14"/>
<g fill="#ed230d" opacity="1" stroke="none" vectornator:layerName="Text 6">
<path d="M131.769 137.584L130.23 142.983C130.73 142.462 131.166 142.105 131.538 141.912C131.911 141.72 132.3 141.623 132.706 141.623C133.279 141.623 133.748 141.813 134.112 142.194C134.477 142.574 134.659 143.089 134.659 143.74C134.659 144.579 134.42 145.414 133.941 146.244C133.461 147.075 132.86 147.722 132.136 148.186C131.412 148.649 130.698 148.881 129.995 148.881C129.209 148.881 128.401 148.587 127.573 147.998L129.948 139.819C130.131 139.188 130.222 138.819 130.222 138.709C130.222 138.574 130.18 138.472 130.097 138.404C129.977 138.311 129.8 138.264 129.566 138.264C129.456 138.264 129.289 138.282 129.066 138.319L129.066 138.022L131.769 137.584ZM128.745 148.084C129.266 148.371 129.724 148.514 130.12 148.514C130.579 148.514 131.054 148.346 131.546 148.01C132.038 147.674 132.465 147.108 132.827 146.311C133.189 145.514 133.37 144.709 133.37 143.897C133.37 143.418 133.252 143.043 133.015 142.772C132.778 142.501 132.498 142.365 132.175 142.365C131.691 142.365 131.217 142.559 130.753 142.947C130.289 143.335 129.959 143.876 129.761 144.569L128.745 148.084Z"/>
<path d="M142.159 151.99L141.894 152.115C141.274 150.933 140.829 149.889 140.558 148.983C140.349 148.274 140.245 147.561 140.245 146.842C140.245 145.165 140.633 143.662 141.409 142.334C142.362 140.709 143.907 139.126 146.042 137.584L146.23 137.858C145.266 138.571 144.48 139.371 143.87 140.256C143.11 141.36 142.487 142.694 142.003 144.256C141.519 145.819 141.276 147.24 141.276 148.522C141.276 149.501 141.571 150.657 142.159 151.99Z"/>
<path d="M150.284 141.623L149.808 144.022L149.519 144.022C149.493 143.324 149.344 142.816 149.073 142.498C148.802 142.181 148.467 142.022 148.066 142.022C147.743 142.022 147.486 142.11 147.296 142.287C147.106 142.464 147.011 142.678 147.011 142.928C147.011 143.1 147.049 143.264 147.124 143.42C147.2 143.576 147.365 143.795 147.62 144.076C148.297 144.816 148.735 145.373 148.933 145.748C149.131 146.123 149.23 146.477 149.23 146.811C149.23 147.352 149.004 147.833 148.554 148.252C148.103 148.671 147.534 148.881 146.847 148.881C146.472 148.881 146.039 148.793 145.55 148.615C145.378 148.553 145.245 148.522 145.151 148.522C144.917 148.522 144.74 148.641 144.62 148.881L144.331 148.881L144.808 146.35L145.097 146.35C145.128 147.141 145.292 147.701 145.589 148.029C145.886 148.358 146.292 148.522 146.808 148.522C147.204 148.522 147.517 148.411 147.749 148.19C147.981 147.968 148.097 147.696 148.097 147.373C148.097 147.165 148.055 146.972 147.972 146.795C147.826 146.483 147.52 146.05 147.054 145.498C146.588 144.946 146.288 144.532 146.155 144.256C146.023 143.98 145.956 143.704 145.956 143.428C145.956 142.923 146.14 142.496 146.507 142.147C146.874 141.798 147.347 141.623 147.925 141.623C148.092 141.623 148.243 141.636 148.378 141.662C148.451 141.678 148.621 141.737 148.89 141.838C149.158 141.94 149.336 141.99 149.425 141.99C149.649 141.99 149.836 141.868 149.987 141.623L150.284 141.623Z"/>
<path d="M158.105 144.069C158.105 144.85 157.898 145.623 157.483 146.389C157.069 147.154 156.493 147.761 155.753 148.209C155.013 148.657 154.295 148.881 153.597 148.881C152.883 148.881 152.301 148.653 151.851 148.197C151.4 147.742 151.175 147.152 151.175 146.428C151.175 145.662 151.395 144.894 151.835 144.123C152.275 143.352 152.864 142.743 153.601 142.295C154.338 141.847 155.05 141.623 155.737 141.623C156.425 141.623 156.991 141.85 157.437 142.303C157.882 142.756 158.105 143.345 158.105 144.069ZM156.808 143.529C156.808 143.045 156.689 142.674 156.452 142.416C156.215 142.158 155.909 142.029 155.534 142.029C154.769 142.029 154.064 142.578 153.421 143.674C152.778 144.77 152.456 145.86 152.456 146.944C152.456 147.438 152.581 147.82 152.831 148.088C153.081 148.356 153.396 148.49 153.776 148.49C154.511 148.49 155.2 147.945 155.843 146.854C156.486 145.763 156.808 144.654 156.808 143.529Z"/>
<path d="M167.042 142.108L166.816 142.92L165.511 142.92C165.61 143.201 165.659 143.464 165.659 143.709C165.659 144.397 165.368 145.009 164.784 145.545C164.196 146.082 163.388 146.378 162.362 146.436C161.81 146.602 161.396 146.8 161.12 147.029C161.016 147.113 160.964 147.199 160.964 147.287C160.964 147.391 161.011 147.487 161.105 147.572C161.198 147.658 161.435 147.746 161.816 147.834L163.331 148.186C164.17 148.384 164.724 148.618 164.995 148.889C165.261 149.165 165.394 149.483 165.394 149.842C165.394 150.269 165.236 150.66 164.921 151.014C164.606 151.368 164.145 151.645 163.538 151.846C162.931 152.046 162.261 152.147 161.526 152.147C160.881 152.147 160.292 152.07 159.761 151.916C159.23 151.763 158.849 151.556 158.62 151.295C158.391 151.035 158.276 150.766 158.276 150.49C158.276 150.266 158.351 150.033 158.499 149.791C158.648 149.549 158.834 149.35 159.058 149.194C159.198 149.095 159.597 148.86 160.253 148.49C160.013 148.303 159.894 148.097 159.894 147.873C159.894 147.665 159.999 147.444 160.21 147.209C160.421 146.975 160.868 146.717 161.55 146.436C160.977 146.326 160.523 146.087 160.187 145.717C159.851 145.347 159.683 144.936 159.683 144.483C159.683 143.743 160.007 143.082 160.655 142.498C161.304 141.915 162.167 141.623 163.245 141.623C163.636 141.623 163.956 141.662 164.206 141.74C164.456 141.819 164.698 141.941 164.933 142.108L167.042 142.108ZM164.331 143.334C164.331 142.918 164.215 142.589 163.983 142.35C163.752 142.11 163.448 141.99 163.073 141.99C162.485 141.99 161.999 142.286 161.616 142.877C161.233 143.468 161.042 144.084 161.042 144.725C161.042 145.126 161.164 145.454 161.409 145.709C161.654 145.964 161.951 146.092 162.3 146.092C162.576 146.092 162.843 146.016 163.101 145.865C163.358 145.714 163.576 145.506 163.753 145.24C163.93 144.975 164.071 144.636 164.175 144.225C164.279 143.813 164.331 143.516 164.331 143.334ZM160.589 148.694C160.167 148.886 159.848 149.134 159.632 149.436C159.416 149.738 159.308 150.035 159.308 150.326C159.308 150.67 159.464 150.954 159.776 151.178C160.224 151.501 160.881 151.662 161.745 151.662C162.49 151.662 163.127 151.536 163.655 151.283C164.184 151.031 164.448 150.704 164.448 150.303C164.448 150.1 164.351 149.907 164.155 149.725C163.96 149.543 163.581 149.394 163.019 149.279C162.711 149.217 161.901 149.022 160.589 148.694Z"/>
<path d="M169.034 137.733L169.3 137.584C169.92 138.761 170.362 139.803 170.628 140.709C170.842 141.418 170.948 142.131 170.948 142.85C170.948 144.532 170.56 146.035 169.784 147.358C168.826 148.988 167.282 150.574 165.151 152.115L164.964 151.873C165.927 151.154 166.714 150.355 167.323 149.475C168.084 148.371 168.706 147.036 169.191 145.471C169.675 143.906 169.917 142.483 169.917 141.201C169.917 140.222 169.623 139.066 169.034 137.733Z"/>
</g>
<g fill="#1a00ff" opacity="1" stroke="none" vectornator:layerName="Text 15">
<path d="M177.042 207.422L175.519 212.719L175.347 213.43C175.331 213.498 175.323 213.555 175.323 213.602C175.323 213.685 175.349 213.758 175.401 213.821C175.443 213.867 175.495 213.891 175.558 213.891C175.625 213.891 175.714 213.849 175.823 213.766C176.026 213.615 176.297 213.302 176.636 212.828L176.901 213.016C176.542 213.558 176.172 213.97 175.792 214.254C175.412 214.538 175.06 214.68 174.737 214.68C174.513 214.68 174.345 214.624 174.233 214.512C174.121 214.4 174.066 214.237 174.066 214.024C174.066 213.768 174.123 213.433 174.237 213.016L174.401 212.43C173.719 213.321 173.092 213.943 172.519 214.297C172.107 214.552 171.704 214.68 171.308 214.68C170.927 214.68 170.599 214.522 170.323 214.207C170.047 213.892 169.909 213.459 169.909 212.906C169.909 212.078 170.158 211.205 170.655 210.285C171.153 209.366 171.784 208.63 172.55 208.078C173.149 207.641 173.714 207.422 174.245 207.422C174.563 207.422 174.827 207.505 175.038 207.672C175.249 207.839 175.409 208.115 175.519 208.5L175.8 207.61L177.042 207.422ZM174.261 207.828C173.927 207.828 173.573 207.985 173.198 208.297C172.667 208.74 172.194 209.396 171.78 210.266C171.366 211.136 171.159 211.922 171.159 212.625C171.159 212.979 171.248 213.259 171.425 213.465C171.602 213.671 171.805 213.774 172.034 213.774C172.602 213.774 173.219 213.354 173.886 212.516C174.776 211.401 175.222 210.258 175.222 209.086C175.222 208.643 175.136 208.323 174.964 208.125C174.792 207.927 174.558 207.828 174.261 207.828Z"/>
<path d="M184.542 217.789L184.276 217.914C183.657 216.732 183.211 215.688 182.941 214.781C182.732 214.073 182.628 213.36 182.628 212.641C182.628 210.964 183.016 209.461 183.792 208.133C184.745 206.508 186.289 204.925 188.425 203.383L188.612 203.656C187.649 204.37 186.862 205.169 186.253 206.055C185.493 207.159 184.87 208.492 184.386 210.055C183.901 211.617 183.659 213.039 183.659 214.321C183.659 215.3 183.954 216.456 184.542 217.789Z"/>
<path d="M192.667 207.422L192.191 209.821L191.901 209.821C191.875 209.123 191.727 208.615 191.456 208.297C191.185 207.979 190.849 207.821 190.448 207.821C190.125 207.821 189.869 207.909 189.679 208.086C189.489 208.263 189.394 208.477 189.394 208.727C189.394 208.899 189.431 209.063 189.507 209.219C189.582 209.375 189.748 209.594 190.003 209.875C190.68 210.615 191.118 211.172 191.316 211.547C191.513 211.922 191.612 212.276 191.612 212.61C191.612 213.151 191.387 213.632 190.937 214.051C190.486 214.47 189.917 214.68 189.23 214.68C188.855 214.68 188.422 214.591 187.933 214.414C187.761 214.352 187.628 214.321 187.534 214.321C187.3 214.321 187.123 214.44 187.003 214.68L186.714 214.68L187.191 212.149L187.48 212.149C187.511 212.94 187.675 213.5 187.972 213.828C188.269 214.156 188.675 214.321 189.191 214.321C189.586 214.321 189.9 214.21 190.132 213.988C190.364 213.767 190.48 213.495 190.48 213.172C190.48 212.964 190.438 212.771 190.355 212.594C190.209 212.281 189.903 211.849 189.437 211.297C188.97 210.745 188.671 210.331 188.538 210.055C188.405 209.779 188.339 209.503 188.339 209.227C188.339 208.722 188.523 208.294 188.89 207.946C189.257 207.597 189.73 207.422 190.308 207.422C190.474 207.422 190.625 207.435 190.761 207.461C190.834 207.477 191.004 207.535 191.273 207.637C191.541 207.738 191.719 207.789 191.808 207.789C192.032 207.789 192.219 207.667 192.37 207.422L192.667 207.422Z"/>
<path d="M197.245 205.485L196.636 207.61L197.862 207.61L197.73 208.102L196.511 208.102L195.167 212.711C195.021 213.206 194.948 213.526 194.948 213.672C194.948 213.761 194.969 213.828 195.011 213.875C195.052 213.922 195.102 213.946 195.159 213.946C195.289 213.946 195.461 213.854 195.675 213.672C195.8 213.568 196.079 213.248 196.511 212.711L196.769 212.906C196.289 213.604 195.836 214.097 195.409 214.383C195.118 214.581 194.823 214.68 194.526 214.68C194.297 214.68 194.11 214.608 193.964 214.465C193.818 214.322 193.745 214.138 193.745 213.914C193.745 213.633 193.829 213.203 193.995 212.625L195.3 208.102L194.12 208.102L194.198 207.797C194.771 207.641 195.248 207.408 195.628 207.098C196.008 206.788 196.433 206.25 196.901 205.485L197.245 205.485Z"/>
<path d="M204.237 207.422L204.776 213.281C205.683 212.219 206.407 211.222 206.948 210.289C207.266 209.742 207.425 209.347 207.425 209.102C207.425 208.987 207.399 208.886 207.347 208.797C207.326 208.75 207.244 208.681 207.101 208.59C206.957 208.499 206.857 208.405 206.8 208.309C206.743 208.212 206.714 208.11 206.714 208C206.714 207.839 206.774 207.702 206.894 207.59C207.013 207.478 207.167 207.422 207.355 207.422C207.568 207.422 207.749 207.502 207.898 207.66C208.046 207.819 208.12 208.031 208.12 208.297C208.12 208.568 208.081 208.821 208.003 209.055C207.847 209.503 207.542 210.081 207.089 210.789C206.537 211.638 205.968 212.426 205.382 213.153C204.796 213.879 204.36 214.388 204.073 214.68L203.784 214.68L203.276 209.274L200.05 214.68L199.706 214.68C199.67 212.456 199.558 210.701 199.37 209.414C199.292 208.878 199.162 208.526 198.98 208.36C198.849 208.24 198.651 208.18 198.386 208.18C198.235 208.18 198.042 208.196 197.808 208.227L197.808 207.946L200.05 207.422C200.362 208.292 200.566 209.628 200.659 211.43C200.691 212.112 200.717 212.542 200.737 212.719L203.948 207.422L204.237 207.422Z"/>
<path d="M210.534 203.531L210.8 203.383C211.42 204.56 211.862 205.602 212.128 206.508C212.342 207.216 212.448 207.93 212.448 208.649C212.448 210.331 212.06 211.834 211.284 213.156C210.326 214.787 208.782 216.373 206.651 217.914L206.464 217.672C207.427 216.953 208.214 216.154 208.823 215.274C209.584 214.169 210.206 212.835 210.691 211.27C211.175 209.705 211.417 208.281 211.417 207C211.417 206.021 211.123 204.865 210.534 203.531Z"/>
</g>
<g fill="#ed230d" opacity="1" stroke="none" vectornator:layerName="Text 16">
<path d="M373.107 75.5085C372.565 76.1596 372.019 76.6374 371.467 76.9421C370.914 77.2468 370.331 77.3992 369.717 77.3992C368.977 77.3992 368.4 77.1908 367.986 76.7742C367.572 76.3575 367.365 75.7976 367.365 75.0945C367.365 74.2976 367.588 73.5137 368.033 72.7429C368.478 71.9721 369.077 71.3458 369.83 70.864C370.582 70.3822 371.321 70.1413 372.045 70.1413C372.612 70.1413 373.037 70.2598 373.318 70.4968C373.599 70.7338 373.74 71.0242 373.74 71.3679C373.74 71.6908 373.641 71.9669 373.443 72.196C373.297 72.3731 373.118 72.4617 372.904 72.4617C372.743 72.4617 372.608 72.4096 372.502 72.3054C372.395 72.2012 372.342 72.071 372.342 71.9148C372.342 71.8158 372.361 71.7247 372.4 71.6413C372.439 71.558 372.52 71.4577 372.642 71.3406C372.765 71.2234 372.839 71.1387 372.865 71.0867C372.891 71.0346 372.904 70.9799 372.904 70.9226C372.904 70.8132 372.855 70.7221 372.756 70.6492C372.605 70.545 372.391 70.4929 372.115 70.4929C371.605 70.4929 371.099 70.6726 370.599 71.032C370.099 71.3913 369.672 71.9018 369.318 72.5632C368.891 73.3653 368.677 74.1674 368.677 74.9695C368.677 75.5007 368.828 75.9213 369.131 76.2312C369.433 76.5411 369.844 76.696 370.365 76.696C370.766 76.696 371.163 76.5958 371.556 76.3952C371.95 76.1947 372.391 75.8314 372.881 75.3054L373.107 75.5085Z"/>
<path d="M381.037 80.5085L380.771 80.6335C380.151 79.4512 379.706 78.407 379.435 77.5007C379.227 76.7924 379.123 76.0788 379.123 75.3601C379.123 73.683 379.511 72.1804 380.287 70.8523C381.24 69.2273 382.784 67.6439 384.92 66.1023L385.107 66.3757C384.144 67.0893 383.357 67.8887 382.748 68.7742C381.987 69.8783 381.365 71.2117 380.881 72.7742C380.396 74.3367 380.154 75.7585 380.154 77.0398C380.154 78.0189 380.448 79.1752 381.037 80.5085Z"/>
<path d="M392.013 66.1023L389.326 75.321C389.18 75.821 389.107 76.1492 389.107 76.3054C389.107 76.3575 389.129 76.407 389.174 76.4538C389.218 76.5007 389.263 76.5242 389.31 76.5242C389.378 76.5242 389.459 76.4903 389.552 76.4226C389.73 76.2976 390.026 75.9851 390.443 75.4851L390.709 75.6492C390.334 76.17 389.955 76.5919 389.572 76.9148C389.189 77.2377 388.831 77.3992 388.498 77.3992C388.321 77.3992 388.175 77.3367 388.06 77.2117C387.946 77.0867 387.888 76.9096 387.888 76.6804C387.888 76.3835 387.967 75.9851 388.123 75.4851L388.427 74.5163C387.672 75.683 386.985 76.4903 386.365 76.9382C385.938 77.2455 385.529 77.3992 385.138 77.3992C384.743 77.3992 384.397 77.2234 384.103 76.8718C383.809 76.5202 383.662 76.0424 383.662 75.4382C383.662 74.6622 383.909 73.834 384.404 72.9538C384.899 72.0736 385.552 71.3575 386.365 70.8054C387.006 70.3627 387.594 70.1413 388.131 70.1413C388.412 70.1413 388.654 70.1986 388.857 70.3132C389.06 70.4278 389.261 70.6179 389.459 70.8835L390.224 68.1648C390.282 67.9721 390.328 67.8184 390.365 67.7038C390.427 67.4955 390.459 67.3236 390.459 67.1882C390.459 67.0788 390.42 66.9877 390.342 66.9148C390.232 66.8262 390.092 66.782 389.92 66.782C389.8 66.782 389.602 66.8002 389.326 66.8367L389.326 66.5476L392.013 66.1023ZM389.115 71.6492C389.115 71.3158 389.019 71.0476 388.826 70.8445C388.633 70.6413 388.388 70.5398 388.092 70.5398C387.435 70.5398 386.752 71.0814 386.041 72.1648C385.33 73.2481 384.974 74.2846 384.974 75.2742C384.974 75.6648 385.06 75.963 385.232 76.1687C385.404 76.3744 385.61 76.4773 385.849 76.4773C386.391 76.4773 387.071 75.8913 387.888 74.7195C388.706 73.5476 389.115 72.5242 389.115 71.6492Z"/>
<path d="M392.193 70.5788L394.888 70.1413L393.763 73.9382C394.675 72.3809 395.503 71.2924 396.248 70.6726C396.67 70.3184 397.013 70.1413 397.279 70.1413C397.451 70.1413 397.586 70.1921 397.685 70.2937C397.784 70.3952 397.834 70.5424 397.834 70.7351C397.834 71.0788 397.745 71.407 397.568 71.7195C397.443 71.9538 397.263 72.071 397.029 72.071C396.909 72.071 396.806 72.032 396.72 71.9538C396.634 71.8757 396.581 71.7559 396.56 71.5945C396.55 71.4955 396.526 71.4304 396.49 71.3992C396.448 71.3575 396.399 71.3367 396.342 71.3367C396.253 71.3367 396.17 71.3575 396.092 71.3992C395.956 71.4721 395.75 71.6752 395.474 72.0085C395.042 72.5189 394.573 73.1804 394.068 73.9929C393.849 74.3367 393.662 74.7247 393.506 75.157C393.287 75.7507 393.162 76.1075 393.131 76.2273L392.881 77.2117L391.685 77.2117L393.131 72.3601C393.297 71.7976 393.381 71.3965 393.381 71.157C393.381 71.0632 393.342 70.9851 393.263 70.9226C393.159 70.8393 393.021 70.7976 392.849 70.7976C392.74 70.7976 392.539 70.821 392.248 70.8679L392.193 70.5788Z"/>
<path d="M401.162 67.0398C401.381 67.0398 401.565 67.1153 401.717 67.2663C401.868 67.4174 401.943 67.6023 401.943 67.821C401.943 68.0346 401.866 68.2182 401.713 68.3718C401.559 68.5255 401.375 68.6023 401.162 68.6023C400.948 68.6023 400.765 68.5255 400.611 68.3718C400.457 68.2182 400.381 68.0346 400.381 67.821C400.381 67.6023 400.456 67.4174 400.607 67.2663C400.758 67.1153 400.943 67.0398 401.162 67.0398ZM401.263 70.1413L399.717 75.6179C399.612 75.9877 399.56 76.209 399.56 76.282C399.56 76.3653 399.585 76.433 399.634 76.4851C399.684 76.5372 399.743 76.5632 399.81 76.5632C399.888 76.5632 399.982 76.5215 400.092 76.4382C400.388 76.2038 400.688 75.8705 400.99 75.4382L401.263 75.6179C400.909 76.1596 400.493 76.6153 400.013 76.9851C399.659 77.2611 399.321 77.3992 398.998 77.3992C398.784 77.3992 398.61 77.3354 398.474 77.2077C398.339 77.0801 398.271 76.92 398.271 76.7273C398.271 76.5346 398.336 76.2143 398.467 75.7663L399.482 72.2663C399.649 71.6934 399.732 71.334 399.732 71.1882C399.732 71.0736 399.692 70.9799 399.611 70.907C399.53 70.834 399.42 70.7976 399.279 70.7976C399.164 70.7976 398.927 70.8262 398.568 70.8835L398.568 70.5788L401.263 70.1413Z"/>
<path d="M406.771 70.3288L406.631 70.8445L405.49 70.8445L404.631 74.2585C404.25 75.7637 403.868 76.9278 403.482 77.7507C402.935 78.9122 402.347 79.7143 401.717 80.157C401.237 80.4955 400.758 80.6648 400.279 80.6648C399.967 80.6648 399.701 80.571 399.482 80.3835C399.321 80.2533 399.24 80.084 399.24 79.8757C399.24 79.709 399.306 79.5645 399.439 79.4421C399.572 79.3197 399.735 79.2585 399.927 79.2585C400.068 79.2585 400.187 79.3028 400.283 79.3913C400.379 79.4799 400.427 79.5814 400.427 79.696C400.427 79.8106 400.373 79.9174 400.263 80.0163C400.18 80.0893 400.138 80.1439 400.138 80.1804C400.138 80.2273 400.157 80.2637 400.193 80.2898C400.24 80.3262 400.313 80.3445 400.412 80.3445C400.636 80.3445 400.871 80.2742 401.119 80.1335C401.366 79.9929 401.586 79.7833 401.779 79.5046C401.972 79.226 402.154 78.8236 402.326 78.2976C402.399 78.0788 402.594 77.3575 402.912 76.1335L404.271 70.8445L402.912 70.8445L403.021 70.3288C403.453 70.3288 403.756 70.2989 403.927 70.239C404.099 70.1791 404.257 70.0645 404.4 69.8952C404.543 69.726 404.73 69.4096 404.959 68.946C405.266 68.321 405.56 67.8367 405.842 67.4929C406.227 67.0294 406.632 66.6817 407.056 66.4499C407.481 66.2182 407.881 66.1023 408.256 66.1023C408.651 66.1023 408.969 66.2025 409.209 66.4031C409.448 66.6036 409.568 66.821 409.568 67.0554C409.568 67.2377 409.508 67.3913 409.388 67.5163C409.269 67.6413 409.115 67.7038 408.927 67.7038C408.766 67.7038 408.634 67.657 408.533 67.5632C408.431 67.4695 408.381 67.3575 408.381 67.2273C408.381 67.1439 408.414 67.0411 408.482 66.9187C408.55 66.7963 408.584 66.7143 408.584 66.6726C408.584 66.5997 408.56 66.545 408.513 66.5085C408.446 66.4564 408.347 66.4304 408.217 66.4304C407.888 66.4304 407.594 66.5346 407.334 66.7429C406.985 67.0189 406.672 67.4512 406.396 68.0398C406.256 68.3471 405.998 69.1101 405.623 70.3288L406.771 70.3288Z"/>
<path d="M410.631 68.2038L410.021 70.3288L411.248 70.3288L411.115 70.821L409.896 70.821L408.552 75.4304C408.407 75.9252 408.334 76.2455 408.334 76.3913C408.334 76.4799 408.355 76.5476 408.396 76.5945C408.438 76.6413 408.487 76.6648 408.545 76.6648C408.675 76.6648 408.847 76.5736 409.06 76.3913C409.185 76.2872 409.464 75.9669 409.896 75.4304L410.154 75.6257C409.675 76.3236 409.222 76.8158 408.795 77.1023C408.503 77.3002 408.209 77.3992 407.912 77.3992C407.683 77.3992 407.495 77.3275 407.349 77.1843C407.203 77.0411 407.131 76.8575 407.131 76.6335C407.131 76.3523 407.214 75.9226 407.381 75.3445L408.685 70.821L407.506 70.821L407.584 70.5163C408.157 70.3601 408.633 70.127 409.013 69.8171C409.394 69.5072 409.818 68.9695 410.287 68.2038L410.631 68.2038Z"/>
<path d="M413.248 66.2507L413.513 66.1023C414.133 67.2794 414.576 68.321 414.842 69.2273C415.055 69.9356 415.162 70.6492 415.162 71.3679C415.162 73.0502 414.774 74.5528 413.998 75.8757C413.039 77.5059 411.495 79.0919 409.365 80.6335L409.177 80.3913C410.141 79.6726 410.927 78.8731 411.537 77.9929C412.297 76.8887 412.92 75.5541 413.404 73.989C413.888 72.4239 414.131 71.0007 414.131 69.7195C414.131 68.7403 413.836 67.584 413.248 66.2507Z"/>
</g>
<path d="M310.758 89.697C310.614 88.801 310.31 87.345 308.758 87.345C306.55 87.345 304.982 89.329 304.982 92.273C304.982 94.113 305.51 95.233 306.822 95.233C307.99 95.233 309.062 93.985 310.006 92.465L310.134 92.465C310.086 92.993 310.006 93.441 310.006 93.825C310.006 94.609 310.278 95.185 311.03 95.185C312.326 95.185 312.934 94.017 313.174 93.617L312.918 93.361C312.614 93.697 312.31 93.985 311.83 93.985C310.982 93.985 310.982 92.433 310.982 91.281C310.982 91.217 310.982 91.153 310.982 91.105C310.982 91.041 311.766 89.969 312.982 88.273C313.094 88.113 313.334 87.825 313.446 87.697L313.43 87.457L312.102 87.489C311.798 87.905 311.238 88.801 310.854 89.697L310.758 89.697ZM307.174 93.825C306.438 93.825 305.718 93.297 305.718 91.905C305.718 89.761 306.95 88.673 308.678 88.673C309.702 88.673 310.23 89.121 310.23 90.113C310.23 90.369 310.214 90.561 310.198 90.673C310.07 91.777 308.79 93.825 307.174 93.825Z" fill="#ed230d" opacity="1" stroke="none" vectornator:layerName="Text 3"/>
<path d="M357.769 129.618C357.785 128.322 356.937 127.538 355.769 127.538C352.201 127.538 351.209 132.402 350.361 137.042C350.025 138.834 349.673 140.642 349.289 142.434L349.481 142.466C351.161 142.418 351.209 140.882 351.289 138.978C351.305 138.546 351.321 138.114 351.353 137.666L351.465 137.666C351.801 138.258 352.425 139.186 353.657 139.186C355.177 139.186 357.033 138.402 357.033 135.842C357.033 134.226 356.025 133.106 355.097 132.754L355.097 132.69C356.377 132.194 357.769 131.298 357.769 129.618ZM353.481 137.938C352.297 137.938 351.577 137.154 351.577 135.906C351.577 134.226 352.169 128.77 355.321 128.77C356.009 128.77 356.585 129.186 356.585 130.178C356.585 131.874 354.729 132.354 354.329 132.354C354.297 132.354 353.577 132.29 353.449 132.29C353.193 132.29 353.017 132.626 353.017 132.978C353.017 133.33 353.209 133.65 353.369 133.65C353.561 133.65 353.993 133.378 354.569 133.026C354.905 133.266 355.961 133.986 355.961 135.65C355.961 137.714 354.505 137.938 353.481 137.938Z" fill="#ed230d" opacity="1" stroke="none" vectornator:layerName="Text 12"/>
<g fill="#ed230d" opacity="1" stroke="none" vectornator:layerName="Text 10">
<path d="M346.276 33.5264L345.799 35.9249L345.51 35.9249C345.484 35.2269 345.335 34.7191 345.065 34.4014C344.794 34.0837 344.458 33.9249 344.057 33.9249C343.734 33.9249 343.477 34.0134 343.287 34.1905C343.097 34.3676 343.002 34.5811 343.002 34.8311C343.002 35.003 343.04 35.1671 343.115 35.3233C343.191 35.4796 343.356 35.6983 343.611 35.9796C344.289 36.7191 344.726 37.2764 344.924 37.6514C345.122 38.0264 345.221 38.3806 345.221 38.7139C345.221 39.2556 344.996 39.7361 344.545 40.1553C344.095 40.5746 343.526 40.7842 342.838 40.7842C342.463 40.7842 342.031 40.6957 341.541 40.5186C341.369 40.4561 341.236 40.4249 341.143 40.4249C340.908 40.4249 340.731 40.5447 340.611 40.7842L340.322 40.7842L340.799 38.253L341.088 38.253C341.119 39.0447 341.283 39.6046 341.58 39.9327C341.877 40.2608 342.283 40.4249 342.799 40.4249C343.195 40.4249 343.509 40.3142 343.74 40.0928C343.972 39.8715 344.088 39.5993 344.088 39.2764C344.088 39.0681 344.046 38.8754 343.963 38.6983C343.817 38.3858 343.511 37.9535 343.045 37.4014C342.579 36.8493 342.279 36.4353 342.147 36.1592C342.014 35.8832 341.947 35.6072 341.947 35.3311C341.947 34.8259 342.131 34.3988 342.498 34.0499C342.865 33.7009 343.338 33.5264 343.916 33.5264C344.083 33.5264 344.234 33.5394 344.369 33.5655C344.442 33.5811 344.613 33.6397 344.881 33.7413C345.149 33.8428 345.328 33.8936 345.416 33.8936C345.64 33.8936 345.828 33.7712 345.979 33.5264L346.276 33.5264Z"/>
<path d="M348.604 37.6514C348.567 37.9118 348.549 38.128 348.549 38.2999C348.549 38.7634 348.713 39.1579 349.041 39.4835C349.369 39.809 349.768 39.9717 350.236 39.9717C350.611 39.9717 350.972 39.8949 351.319 39.7413C351.665 39.5876 352.179 39.2478 352.861 38.7217L353.026 38.9483C351.791 40.1723 350.614 40.7842 349.494 40.7842C348.734 40.7842 348.161 40.5447 347.776 40.0655C347.39 39.5863 347.197 39.0577 347.197 38.4796C347.197 37.7035 347.437 36.9092 347.916 36.0967C348.395 35.2842 348.997 34.6527 349.721 34.2022C350.445 33.7517 351.19 33.5264 351.955 33.5264C352.507 33.5264 352.916 33.6384 353.182 33.8624C353.447 34.0863 353.58 34.3519 353.58 34.6592C353.58 35.0915 353.408 35.5056 353.065 35.9014C352.611 36.4171 351.945 36.8337 351.065 37.1514C350.481 37.365 349.661 37.5316 348.604 37.6514ZM348.658 37.2686C349.429 37.1801 350.057 37.029 350.541 36.8155C351.182 36.529 351.662 36.1866 351.983 35.7881C352.303 35.3897 352.463 35.0108 352.463 34.6514C352.463 34.4327 352.394 34.2556 352.256 34.1202C352.118 33.9848 351.921 33.9171 351.666 33.9171C351.135 33.9171 350.571 34.1996 349.975 34.7647C349.378 35.3298 348.94 36.1644 348.658 37.2686Z"/>
<path d="M357.955 31.5889L357.346 33.7139L358.572 33.7139L358.44 34.2061L357.221 34.2061L355.877 38.8155C355.731 39.3103 355.658 39.6306 355.658 39.7764C355.658 39.865 355.679 39.9327 355.721 39.9796C355.763 40.0264 355.812 40.0499 355.869 40.0499C355.999 40.0499 356.171 39.9587 356.385 39.7764C356.51 39.6723 356.789 39.3519 357.221 38.8155L357.479 39.0108C356.999 39.7087 356.546 40.2009 356.119 40.4874C355.828 40.6853 355.533 40.7842 355.236 40.7842C355.007 40.7842 354.82 40.7126 354.674 40.5694C354.528 40.4262 354.455 40.2426 354.455 40.0186C354.455 39.7374 354.539 39.3077 354.705 38.7296L356.01 34.2061L354.83 34.2061L354.908 33.9014C355.481 33.7452 355.958 33.5121 356.338 33.2022C356.718 32.8923 357.143 32.3546 357.611 31.5889L357.955 31.5889Z"/>
</g>
<g fill="#ed230d" opacity="1" stroke="none" vectornator:layerName="Text 11">
<path d="M320.655 70.7507C320.113 71.4018 319.566 71.8796 319.014 72.1843C318.462 72.489 317.878 72.6413 317.264 72.6413C316.524 72.6413 315.948 72.433 315.533 72.0163C315.119 71.5997 314.912 71.0398 314.912 70.3367C314.912 69.5398 315.135 68.7559 315.58 67.9851C316.026 67.2143 316.625 66.588 317.377 66.1062C318.13 65.6244 318.868 65.3835 319.592 65.3835C320.16 65.3835 320.584 65.502 320.865 65.739C321.147 65.976 321.287 66.2663 321.287 66.6101C321.287 66.933 321.188 67.209 320.99 67.4382C320.845 67.6153 320.665 67.7038 320.451 67.7038C320.29 67.7038 320.156 67.6518 320.049 67.5476C319.942 67.4434 319.889 67.3132 319.889 67.157C319.889 67.058 319.908 66.9669 319.948 66.8835C319.987 66.8002 320.067 66.6999 320.19 66.5827C320.312 66.4656 320.386 66.3809 320.412 66.3288C320.438 66.2768 320.451 66.2221 320.451 66.1648C320.451 66.0554 320.402 65.9643 320.303 65.8913C320.152 65.7872 319.938 65.7351 319.662 65.7351C319.152 65.7351 318.647 65.9148 318.147 66.2742C317.647 66.6335 317.22 67.1439 316.865 67.8054C316.438 68.6075 316.225 69.4096 316.225 70.2117C316.225 70.7429 316.376 71.1635 316.678 71.4734C316.98 71.7833 317.392 71.9382 317.912 71.9382C318.313 71.9382 318.711 71.838 319.104 71.6374C319.497 71.4369 319.938 71.0736 320.428 70.5476L320.655 70.7507Z"/>
<path d="M328.975 67.8288C328.975 68.6101 328.768 69.3835 328.354 70.1492C327.94 70.9148 327.363 71.5215 326.623 71.9695C325.884 72.4174 325.165 72.6413 324.467 72.6413C323.753 72.6413 323.171 72.4135 322.721 71.9577C322.27 71.502 322.045 70.9122 322.045 70.1882C322.045 69.4226 322.265 68.6544 322.705 67.8835C323.145 67.1127 323.734 66.5033 324.471 66.0554C325.208 65.6075 325.92 65.3835 326.608 65.3835C327.295 65.3835 327.862 65.6101 328.307 66.0632C328.752 66.5163 328.975 67.1049 328.975 67.8288ZM327.678 67.2898C327.678 66.8054 327.559 66.4343 327.323 66.1765C327.086 65.9187 326.78 65.7898 326.405 65.7898C325.639 65.7898 324.934 66.338 324.291 67.4343C323.648 68.5307 323.326 69.6205 323.326 70.7038C323.326 71.1986 323.451 71.5801 323.701 71.8484C323.951 72.1166 324.267 72.2507 324.647 72.2507C325.381 72.2507 326.07 71.7051 326.713 70.614C327.356 69.5229 327.678 68.4148 327.678 67.2898Z"/>
<path d="M337.912 65.8679L337.686 66.6804L336.381 66.6804C336.48 66.9617 336.53 67.2247 336.53 67.4695C336.53 68.157 336.238 68.7689 335.655 69.3054C335.066 69.8419 334.259 70.1387 333.233 70.196C332.681 70.3627 332.267 70.5606 331.99 70.7898C331.886 70.8731 331.834 70.959 331.834 71.0476C331.834 71.1518 331.881 71.2468 331.975 71.3327C332.069 71.4187 332.306 71.5059 332.686 71.5945L334.201 71.946C335.04 72.1439 335.595 72.3783 335.865 72.6492C336.131 72.9252 336.264 73.2429 336.264 73.6023C336.264 74.0294 336.106 74.42 335.791 74.7742C335.476 75.1283 335.015 75.4057 334.408 75.6062C333.802 75.8067 333.131 75.907 332.397 75.907C331.751 75.907 331.162 75.8301 330.631 75.6765C330.1 75.5229 329.72 75.3158 329.49 75.0554C329.261 74.795 329.147 74.5268 329.147 74.2507C329.147 74.0268 329.221 73.7937 329.369 73.5515C329.518 73.3093 329.704 73.1101 329.928 72.9538C330.069 72.8549 330.467 72.6205 331.123 72.2507C330.884 72.0632 330.764 71.8575 330.764 71.6335C330.764 71.4252 330.869 71.2038 331.08 70.9695C331.291 70.7351 331.738 70.4773 332.42 70.196C331.847 70.0867 331.393 69.8471 331.057 69.4773C330.721 69.1075 330.553 68.696 330.553 68.2429C330.553 67.5033 330.877 66.8419 331.526 66.2585C332.174 65.6752 333.037 65.3835 334.115 65.3835C334.506 65.3835 334.826 65.4226 335.076 65.5007C335.326 65.5788 335.569 65.7012 335.803 65.8679L337.912 65.8679ZM335.201 67.0945C335.201 66.6778 335.086 66.3497 334.854 66.1101C334.622 65.8705 334.319 65.7507 333.944 65.7507C333.355 65.7507 332.869 66.0463 332.487 66.6374C332.104 67.2286 331.912 67.8445 331.912 68.4851C331.912 68.8861 332.035 69.2143 332.28 69.4695C332.524 69.7247 332.821 69.8523 333.17 69.8523C333.446 69.8523 333.713 69.7768 333.971 69.6257C334.229 69.4747 334.446 69.2663 334.623 69.0007C334.8 68.7351 334.941 68.3965 335.045 67.9851C335.149 67.5736 335.201 67.2768 335.201 67.0945ZM331.459 72.4538C331.037 72.6465 330.718 72.8939 330.502 73.196C330.286 73.4981 330.178 73.795 330.178 74.0867C330.178 74.4304 330.334 74.7143 330.647 74.9382C331.095 75.2611 331.751 75.4226 332.615 75.4226C333.36 75.4226 333.997 75.2963 334.526 75.0437C335.054 74.7911 335.319 74.4643 335.319 74.0632C335.319 73.8601 335.221 73.6674 335.026 73.4851C334.83 73.3028 334.451 73.1544 333.889 73.0398C333.582 72.9773 332.772 72.782 331.459 72.4538Z"/>
</g>
<g fill="#ed230d" opacity="1" stroke="none" vectornator:layerName="Text 17">
<path d="M388.539 140.248C387.998 140.899 387.451 141.377 386.899 141.682C386.347 141.987 385.763 142.139 385.149 142.139C384.409 142.139 383.832 141.931 383.418 141.514C383.004 141.097 382.797 140.537 382.797 139.834C382.797 139.037 383.02 138.253 383.465 137.483C383.911 136.712 384.509 136.085 385.262 135.604C386.015 135.122 386.753 134.881 387.477 134.881C388.045 134.881 388.469 135 388.75 135.237C389.032 135.474 389.172 135.764 389.172 136.108C389.172 136.431 389.073 136.707 388.875 136.936C388.73 137.113 388.55 137.201 388.336 137.201C388.175 137.201 388.041 137.149 387.934 137.045C387.827 136.941 387.774 136.811 387.774 136.654C387.774 136.556 387.793 136.464 387.832 136.381C387.871 136.298 387.952 136.197 388.075 136.08C388.197 135.963 388.271 135.878 388.297 135.826C388.323 135.774 388.336 135.72 388.336 135.662C388.336 135.553 388.287 135.462 388.188 135.389C388.037 135.285 387.823 135.233 387.547 135.233C387.037 135.233 386.532 135.412 386.032 135.772C385.532 136.131 385.105 136.641 384.75 137.303C384.323 138.105 384.11 138.907 384.11 139.709C384.11 140.24 384.261 140.661 384.563 140.971C384.865 141.281 385.276 141.436 385.797 141.436C386.198 141.436 386.595 141.335 386.989 141.135C387.382 140.934 387.823 140.571 388.313 140.045L388.539 140.248Z"/>
<path d="M396.86 137.326C396.86 138.108 396.653 138.881 396.239 139.647C395.825 140.412 395.248 141.019 394.508 141.467C393.769 141.915 393.05 142.139 392.352 142.139C391.638 142.139 391.056 141.911 390.606 141.455C390.155 141 389.93 140.41 389.93 139.686C389.93 138.92 390.15 138.152 390.59 137.381C391.03 136.61 391.619 136.001 392.356 135.553C393.093 135.105 393.805 134.881 394.493 134.881C395.18 134.881 395.746 135.108 396.192 135.561C396.637 136.014 396.86 136.602 396.86 137.326ZM395.563 136.787C395.563 136.303 395.444 135.932 395.207 135.674C394.97 135.416 394.664 135.287 394.289 135.287C393.524 135.287 392.819 135.835 392.176 136.932C391.533 138.028 391.211 139.118 391.211 140.201C391.211 140.696 391.336 141.078 391.586 141.346C391.836 141.614 392.151 141.748 392.532 141.748C393.266 141.748 393.955 141.203 394.598 140.112C395.241 139.02 395.563 137.912 395.563 136.787Z"/>
<path d="M405.797 135.365L405.571 136.178L404.266 136.178C404.365 136.459 404.414 136.722 404.414 136.967C404.414 137.654 404.123 138.266 403.539 138.803C402.951 139.339 402.144 139.636 401.118 139.694C400.565 139.86 400.151 140.058 399.875 140.287C399.771 140.371 399.719 140.457 399.719 140.545C399.719 140.649 399.766 140.744 399.86 140.83C399.954 140.916 400.19 141.003 400.571 141.092L402.086 141.444C402.925 141.641 403.48 141.876 403.75 142.147C404.016 142.423 404.149 142.74 404.149 143.1C404.149 143.527 403.991 143.918 403.676 144.272C403.361 144.626 402.9 144.903 402.293 145.104C401.687 145.304 401.016 145.404 400.282 145.404C399.636 145.404 399.047 145.328 398.516 145.174C397.985 145.02 397.605 144.813 397.375 144.553C397.146 144.293 397.032 144.024 397.032 143.748C397.032 143.524 397.106 143.291 397.254 143.049C397.403 142.807 397.589 142.608 397.813 142.451C397.954 142.352 398.352 142.118 399.008 141.748C398.769 141.561 398.649 141.355 398.649 141.131C398.649 140.923 398.754 140.701 398.965 140.467C399.176 140.233 399.623 139.975 400.305 139.694C399.732 139.584 399.278 139.345 398.942 138.975C398.606 138.605 398.438 138.194 398.438 137.74C398.438 137.001 398.762 136.339 399.411 135.756C400.059 135.173 400.922 134.881 402 134.881C402.391 134.881 402.711 134.92 402.961 134.998C403.211 135.076 403.454 135.199 403.688 135.365L405.797 135.365ZM403.086 136.592C403.086 136.175 402.97 135.847 402.739 135.608C402.507 135.368 402.204 135.248 401.829 135.248C401.24 135.248 400.754 135.544 400.371 136.135C399.989 136.726 399.797 137.342 399.797 137.983C399.797 138.384 399.92 138.712 400.164 138.967C400.409 139.222 400.706 139.35 401.055 139.35C401.331 139.35 401.598 139.274 401.856 139.123C402.114 138.972 402.331 138.764 402.508 138.498C402.685 138.233 402.826 137.894 402.93 137.483C403.034 137.071 403.086 136.774 403.086 136.592ZM399.344 141.951C398.922 142.144 398.603 142.391 398.387 142.694C398.171 142.996 398.063 143.293 398.063 143.584C398.063 143.928 398.219 144.212 398.532 144.436C398.98 144.759 399.636 144.92 400.5 144.92C401.245 144.92 401.882 144.794 402.411 144.541C402.939 144.289 403.204 143.962 403.204 143.561C403.204 143.358 403.106 143.165 402.911 142.983C402.715 142.8 402.336 142.652 401.774 142.537C401.467 142.475 400.657 142.279 399.344 141.951Z"/>
</g>
<g fill="#ed230d" opacity="1" stroke="none" vectornator:layerName="Text 13">
<path d="M395.364 196.597C394.822 197.248 394.275 197.726 393.723 198.031C393.171 198.335 392.587 198.488 391.973 198.488C391.233 198.488 390.657 198.279 390.242 197.863C389.828 197.446 389.621 196.886 389.621 196.183C389.621 195.386 389.844 194.602 390.289 193.831C390.735 193.06 391.334 192.434 392.086 191.952C392.839 191.471 393.577 191.23 394.301 191.23C394.869 191.23 395.293 191.348 395.574 191.585C395.856 191.822 395.996 192.113 395.996 192.456C395.996 192.779 395.897 193.055 395.699 193.284C395.554 193.461 395.374 193.55 395.16 193.55C394.999 193.55 394.865 193.498 394.758 193.394C394.651 193.29 394.598 193.159 394.598 193.003C394.598 192.904 394.617 192.813 394.657 192.73C394.696 192.646 394.776 192.546 394.899 192.429C395.021 192.312 395.095 192.227 395.121 192.175C395.147 192.123 395.16 192.068 395.16 192.011C395.16 191.902 395.111 191.81 395.012 191.738C394.861 191.633 394.647 191.581 394.371 191.581C393.861 191.581 393.356 191.761 392.856 192.12C392.356 192.48 391.929 192.99 391.574 193.652C391.147 194.454 390.934 195.256 390.934 196.058C390.934 196.589 391.085 197.01 391.387 197.32C391.689 197.629 392.101 197.784 392.621 197.784C393.022 197.784 393.42 197.684 393.813 197.484C394.206 197.283 394.647 196.92 395.137 196.394L395.364 196.597Z"/>
<path d="M400.442 189.292L399.832 191.417L401.059 191.417L400.926 191.909L399.707 191.909L398.364 196.519C398.218 197.014 398.145 197.334 398.145 197.48C398.145 197.568 398.166 197.636 398.207 197.683C398.249 197.73 398.298 197.753 398.356 197.753C398.486 197.753 398.658 197.662 398.871 197.48C398.996 197.376 399.275 197.055 399.707 196.519L399.965 196.714C399.486 197.412 399.033 197.904 398.606 198.191C398.314 198.389 398.02 198.488 397.723 198.488C397.494 198.488 397.306 198.416 397.16 198.273C397.015 198.129 396.942 197.946 396.942 197.722C396.942 197.441 397.025 197.011 397.192 196.433L398.496 191.909L397.317 191.909L397.395 191.605C397.968 191.448 398.444 191.215 398.824 190.906C399.205 190.596 399.629 190.058 400.098 189.292L400.442 189.292Z"/>
<path d="M406.535 191.23L406.059 193.628L405.77 193.628C405.744 192.93 405.595 192.422 405.324 192.105C405.054 191.787 404.718 191.628 404.317 191.628C403.994 191.628 403.737 191.717 403.547 191.894C403.357 192.071 403.262 192.284 403.262 192.534C403.262 192.706 403.3 192.87 403.375 193.027C403.451 193.183 403.616 193.402 403.871 193.683C404.548 194.422 404.986 194.98 405.184 195.355C405.382 195.73 405.481 196.084 405.481 196.417C405.481 196.959 405.255 197.439 404.805 197.859C404.354 198.278 403.785 198.488 403.098 198.488C402.723 198.488 402.291 198.399 401.801 198.222C401.629 198.159 401.496 198.128 401.403 198.128C401.168 198.128 400.991 198.248 400.871 198.488L400.582 198.488L401.059 195.956L401.348 195.956C401.379 196.748 401.543 197.308 401.84 197.636C402.137 197.964 402.543 198.128 403.059 198.128C403.455 198.128 403.768 198.017 404 197.796C404.232 197.575 404.348 197.303 404.348 196.98C404.348 196.771 404.306 196.579 404.223 196.402C404.077 196.089 403.771 195.657 403.305 195.105C402.839 194.553 402.539 194.139 402.407 193.863C402.274 193.586 402.207 193.31 402.207 193.034C402.207 192.529 402.391 192.102 402.758 191.753C403.125 191.404 403.598 191.23 404.176 191.23C404.343 191.23 404.494 191.243 404.629 191.269C404.702 191.284 404.873 191.343 405.141 191.445C405.409 191.546 405.587 191.597 405.676 191.597C405.9 191.597 406.087 191.475 406.239 191.23L406.535 191.23Z"/>
</g>
<path d="M378.493 86.8011L378.493 191.489" fill="none" opacity="1" stroke="#141414" stroke-linecap="butt" stroke-linejoin="miter" stroke-width="1" vectornator:layerName="Curve 16"/>
<path d="M309.228 21.7002L309.228 40.6946L309.228 74.0703" fill="none" opacity="1" stroke="#141414" stroke-linecap="butt" stroke-linejoin="miter" stroke-width="1" vectornator:layerName="Curve 23"/>
<path d="M37.8402 236.51L309.228 74.0703" fill="none" opacity="1" stroke="#ed230d" stroke-linecap="round" stroke-linejoin="miter" stroke-width="3" vectornator:layerName="Curve 5"/>
<path d="M378.493 138.015L309.228 74.0703" fill="none" opacity="1" stroke="#ed230d" stroke-linecap="round" stroke-linejoin="miter" stroke-width="3" vectornator:layerName="Curve 21"/>
<path d="M107.279 300.454L378.493 138.015" fill="none" opacity="1" stroke="#ed230d" stroke-linecap="round" stroke-linejoin="miter" stroke-width="3" vectornator:layerName="Curve 31"/>
<path d="M107.279 300.454L38.0147 236.51" fill="none" opacity="1" stroke="#ed230d" stroke-linecap="round" stroke-linejoin="miter" stroke-width="3" vectornator:layerName="Curve 32"/>
<path d="M279.611 92.5459C279.518 92.3937 279.427 92.2407 279.336 92.087" fill="none" opacity="1" stroke="#ed230d" stroke-linecap="butt" stroke-linejoin="miter" stroke-width="1" vectornator:layerName="Curve 26"/>
<path d="M309.228 39.8758C328.37 39.8758 343.887 55.3931 343.887 74.5346C343.887 93.6761 328.37 109.193 309.228 109.193C296.683 109.193 285.695 102.528 279.611 92.5459" fill="none" opacity="1" stroke="#ed230d" stroke-linecap="butt" stroke-linejoin="miter" stroke-width="1" vectornator:layerName="Curve 27"/>
<path d="M378.339 105.161C397.48 105.161 412.998 120.678 412.998 139.82C412.998 158.961 397.48 174.479 378.339 174.479C365.794 174.479 354.805 167.813 348.722 157.831" fill="none" opacity="1" stroke="#ed230d" stroke-linecap="butt" stroke-linejoin="miter" stroke-width="1" vectornator:layerName="Curve 35"/>
<path d="M309.228 29.6892C333.739 29.6892 353.609 49.5593 353.609 74.0703C353.609 85.6748 349.156 96.239 341.864 104.147" fill="none" opacity="1" stroke="#ed230d" stroke-linecap="butt" stroke-linejoin="miter" stroke-width="1" vectornator:layerName="Curve 28"/>
<path d="M134.281 179.428C139.36 187.927 143.301 197.184 145.894 206.99" fill="none" opacity="1" stroke="#ed230d" stroke-linecap="butt" stroke-linejoin="miter" stroke-width="1" vectornator:layerName="Curve 33"/>
<path d="M285.163 194.591C280.071 186.1 276.117 176.848 273.51 167.047" fill="none" opacity="1" stroke="#ed230d" stroke-linecap="butt" stroke-linejoin="miter" stroke-width="1" vectornator:layerName="Curve 34"/>
<path d="M345.161 147.825C344.297 144.902 343.834 141.815 343.834 138.624C343.834 129.57 347.559 121.355 353.609 115.331" fill="none" opacity="1" stroke="#ed230d" stroke-linecap="butt" stroke-linejoin="miter" stroke-width="1" vectornator:layerName="Oval 3"/>
<path d="M378.493 93.741C403.942 93.741 424.572 114.371 424.572 139.82C424.572 165.269 403.942 185.899 378.493 185.899C361.56 185.899 346.76 176.765 338.752 163.156C336.736 159.73 335.15 156.021 334.069 152.102" fill="none" opacity="1" stroke="#ed230d" stroke-linecap="butt" stroke-linejoin="miter" stroke-width="1" vectornator:layerName="Curve 30"/>
<path d="M286.602 87.4763C286.469 87.2533 286.34 87.0282 286.214 86.8011" fill="none" opacity="1" stroke="#ed230d" stroke-linecap="butt" stroke-linejoin="miter" stroke-width="1.23672" vectornator:layerName="Curve 24"/>
<path d="M328.633 91.8172C323.825 97.0712 316.911 100.366 309.228 100.366C299.602 100.366 291.184 95.1936 286.602 87.4763" fill="none" opacity="1" stroke="#ed230d" stroke-linecap="butt" stroke-linejoin="miter" stroke-width="1" vectornator:layerName="Curve 25"/>
<path d="M213.408 185.952L220.816 177.19L228.223 168.429L219.848 184.145L235.176 193.209L213.408 185.952Z" fill="#1a00ff" fill-rule="nonzero" opacity="1" stroke="none" vectornator:layerName="Star 2"/>
<g opacity="1" vectornator:layerName="Group 1">
<path d="M364.998 125.581L353.657 123.845L342.316 122.109L360.092 121.035L359.808 103.229L364.998 125.581Z" fill="#ed230d" fill-rule="nonzero" opacity="1" stroke="none" vectornator:layerName="Star 3"/>
<path d="M358.03 119.125L346.689 117.389L335.348 115.653L353.124 114.579L352.841 96.7733L358.03 119.125Z" fill="#ed230d" fill-rule="nonzero" opacity="1" stroke="none" vectornator:layerName="Star 4"/>
<path d="M351.062 112.669L339.721 110.933L328.38 109.197L346.156 108.123L345.873 90.3174L351.062 112.669Z" fill="#ed230d" fill-rule="nonzero" opacity="1" stroke="none" vectornator:layerName="Star 5"/>
</g>
<g opacity="1" vectornator:layerName="Group 3">
<path d="M82.874 277.481L71.5331 275.745L60.1922 274.009L77.9681 272.936L77.6846 255.13L82.874 277.481Z" fill="#ed230d" fill-rule="nonzero" opacity="1" stroke="none" vectornator:layerName="Star 3"/>
<path d="M75.9062 271.025L64.5653 269.289L53.2244 267.553L71.0003 266.48L70.7168 248.674L75.9062 271.025Z" fill="#ed230d" fill-rule="nonzero" opacity="1" stroke="none" vectornator:layerName="Star 4"/>
<path d="M68.9384 264.569L57.5975 262.833L46.2567 261.097L64.0325 260.024L63.749 242.218L68.9384 264.569Z" fill="#ed230d" fill-rule="nonzero" opacity="1" stroke="none" vectornator:layerName="Star 5"/>
</g>
<g opacity="1" vectornator:layerName="Group 2">
<path d="M182.084 150.041L186.986 139.669L191.889 129.296L187.841 146.638L204.987 151.451L182.084 150.041Z" fill="#ed230d" fill-rule="nonzero" opacity="1" stroke="none" vectornator:layerName="Star 4"/>
<path d="M190.261 145.208L195.163 134.835L200.066 124.462L196.018 141.804L213.163 146.617L190.261 145.208Z" fill="#ed230d" fill-rule="nonzero" opacity="1" stroke="none" vectornator:layerName="Star 5"/>
</g>
<g opacity="1" vectornator:layerName="Group 4">
<path d="M215.666 235.1L220.569 224.727L225.471 214.354L221.423 231.696L238.569 236.51L215.666 235.1Z" fill="#ed230d" fill-rule="nonzero" opacity="1" stroke="none" vectornator:layerName="Star 4"/>
<path d="M223.843 230.266L228.746 219.893L233.648 209.52L229.6 226.862L246.746 231.676L223.843 230.266Z" fill="#ed230d" fill-rule="nonzero" opacity="1" stroke="none" vectornator:layerName="Star 5"/>
</g>
<path d="M344.565 147.825L378.493 138.015" fill="none" opacity="1" stroke="#1a00ff" stroke-linecap="round" stroke-linejoin="miter" stroke-width="3" vectornator:layerName="Curve 29"/>
<path d="M37.8402 236.51L344.565 147.825" fill="none" opacity="1" stroke="#1a00ff" stroke-linecap="round" stroke-linejoin="miter" stroke-width="3" vectornator:layerName="Curve 22"/>
</g>
</svg>
