<?xml version="1.0" encoding="UTF-8" standalone="no"?>
<!DOCTYPE svg PUBLIC "-//W3C//DTD SVG 1.1//EN" "http://www.w3.org/Graphics/SVG/1.1/DTD/svg11.dtd">
<!-- Created with Vectornator (http://vectornator.io/) -->
<svg height="100%" stroke-miterlimit="10" style="fill-rule:nonzero;clip-rule:evenodd;stroke-linecap:round;stroke-linejoin:round;" version="1.1" viewBox="0 0 327.315 462.412" width="100%" xml:space="preserve" xmlns="http://www.w3.org/2000/svg" xmlns:vectornator="http://vectornator.io" xmlns:xlink="http://www.w3.org/1999/xlink">
<defs/>
<clipPath id="ArtboardFrame">
<rect height="462.412" width="327.315" x="0" y="0"/>
</clipPath>
<g clip-path="url(#ArtboardFrame)" id="Layer-1" vectornator:layerName="Layer 1">
<path d="M327.315 0C327.315 0 207.105-45.4058 173.196 0C146.974 35.1131 145.673 92.1223 145.237 115.292C144.246 167.86 188.25 184.355 182.142 205.481C176.033 226.607 181.154 266.257 187.355 276.597C198.49 295.163 220.405 287.319 243.286 303.111C256.849 312.472 260.627 325.183 257.5 340.32C249.097 380.991 233.188 370.814 218.539 403.417C214.688 411.988 207.317 449.54 207.879 462.412C208.375 473.787 208.915 472.717 210.755 473.787C242.433 492.217 327.315 462.412 327.315 462.412" fill="#a9e0ff" fill-rule="nonzero" opacity="1" stroke="#000000" stroke-linecap="butt" stroke-linejoin="miter" stroke-width="1" vectornator:layerName="Curve 21"/>
<path d="M364.234 0.396954C364.234 0.396954 274.373-26.0905 224.275 0.396954C184.791 21.2721 182.593 92.5193 182.156 115.689C181.165 168.257 231.304 197.079 225.196 218.205C219.088 239.331 212.655 249.597 218.943 259.885C222.89 266.344 257.157 275.24 280.038 291.031C293.601 300.392 303.164 312.177 300.036 327.314C291.633 367.985 272.641 366.382 257.992 398.985C254.14 407.557 235.331 454.069 244.798 462.809C246.267 464.165 247.935 465.372 249.775 466.443C281.453 484.872 364.234 462.809 364.234 462.809" fill="#fff0b1" fill-rule="nonzero" opacity="1" stroke="#000000" stroke-linecap="butt" stroke-linejoin="miter" stroke-width="1" vectornator:layerName="Curve 22"/>
<path d="M298.687 218.107L310.3 218.107L310.3 275.021L298.687 275.021L298.687 218.107Z" fill="#dddddd" fill-rule="nonzero" opacity="1" stroke="#000000" stroke-linecap="butt" stroke-linejoin="miter" stroke-width="1" vectornator:layerName="Rectangle 1"/>
<path d="M304.562 263.396L308.271 271.06L316.687 272.349L310.545 278.245L311.919 286.647L304.414 282.627L296.847 286.531L298.351 278.151L292.3 272.161L300.735 271.001L304.562 263.396Z" fill="#dddddd" fill-rule="nonzero" opacity="1" stroke="#000000" stroke-linecap="butt" stroke-linejoin="miter" stroke-width="1" vectornator:layerName="Star 1"/>
<path d="M114.748 429.025C114.748 429.025 108.27 413.116 107.871 401.978C107.439 389.911 109.983 377.809 109.983 377.809C109.983 377.809 117.685 387.485 122.71 398.464C127.349 408.598 128.693 425.723 128.693 425.723L114.748 429.025Z" fill="#dddddd" fill-rule="nonzero" opacity="1" stroke="#000000" stroke-linecap="butt" stroke-linejoin="miter" stroke-width="1" vectornator:layerName="Curve 1"/>
<path d="M68.2727 220.248C68.2727 220.248 61.7945 204.339 61.3958 193.201C60.9638 181.134 63.5081 169.032 63.5081 169.032C63.5081 169.032 71.2096 178.708 76.2351 189.687C80.8735 199.821 82.2177 216.946 82.2177 216.946L68.2727 220.248Z" fill="#dddddd" fill-rule="nonzero" opacity="1" stroke="#000000" stroke-linecap="butt" stroke-linejoin="miter" stroke-width="1" vectornator:layerName="Curve 20"/>
<path d="M117.21 375.456C136.297 376.726 142.019 392.95 142.019 392.95" fill="none" opacity="1" stroke="#ed230d" stroke-linecap="butt" stroke-linejoin="miter" stroke-width="1" vectornator:layerName="Curve 7"/>
<path d="M96.4951 315.286C107.459 310.215 117.21 310.215 117.21 310.215" fill="none" opacity="1" stroke="#ed230d" stroke-linecap="butt" stroke-linejoin="miter" stroke-width="1" vectornator:layerName="Curve 18"/>
<path d="M257.188 26.3661C276.275 27.6363 281.997 43.8601 281.997 43.8601" fill="none" opacity="1" stroke="#1a00ff" stroke-linecap="butt" stroke-linejoin="miter" stroke-width="1" vectornator:layerName="Curve 17"/>
<path d="M70.2163 172.642C99.7356 173.918 93.7133 202.739 93.7133 202.739" fill="none" opacity="1" stroke="#ed230d" stroke-linecap="butt" stroke-linejoin="miter" stroke-width="1" vectornator:layerName="Curve 10"/>
<path d="M130.235 386.68C130.001 385.224 129.507 382.858 126.985 382.858C123.397 382.858 120.849 386.082 120.849 390.866C120.849 393.856 121.707 395.676 123.839 395.676C125.737 395.676 127.479 393.648 129.013 391.178L129.221 391.178C129.143 392.036 129.013 392.764 129.013 393.388C129.013 394.662 129.455 395.598 130.677 395.598C132.783 395.598 133.771 393.7 134.161 393.05L133.745 392.634C133.251 393.18 132.757 393.648 131.977 393.648C130.599 393.648 130.599 391.126 130.599 389.254C130.599 389.15 130.599 389.046 130.599 388.968C130.599 388.864 131.873 387.122 133.849 384.366C134.031 384.106 134.421 383.638 134.603 383.43L134.577 383.04L132.419 383.092C131.925 383.768 131.015 385.224 130.391 386.68L130.235 386.68ZM124.411 393.388C123.215 393.388 122.045 392.53 122.045 390.268C122.045 386.784 124.047 385.016 126.855 385.016C128.519 385.016 129.377 385.744 129.377 387.356C129.377 387.772 129.351 388.084 129.325 388.266C129.117 390.06 127.037 393.388 124.411 393.388Z" fill="#ed230d" opacity="1" stroke="none" vectornator:layerName="Text 1"/>
<path d="M115.658 317.917L113.214 317.995C112.252 319.763 110.614 322.909 109.132 325.353L108.118 327.277L107.962 327.277C108.144 325.925 108.586 323.013 108.586 321.297C108.586 319.139 108.04 317.865 106.584 317.865C105.102 317.865 103.854 319.165 103.152 320.517L103.646 320.907C104.322 320.075 104.842 319.737 105.518 319.737C106.818 319.737 107.026 321.921 107.026 323.377C107.026 324.911 106.948 326.809 106.766 328.837C105.674 330.891 104.088 332.867 104.088 334.375C104.088 335.493 104.738 335.753 105.804 335.779C107.104 333.985 107.832 330.553 108.222 328.993C110.9 325.509 113.396 321.791 115.684 318.333L115.658 317.917Z" fill="#ed230d" opacity="1" stroke="none" vectornator:layerName="Text 4"/>
<path d="M85.7828 285.058L81.4156 300.038C81.1786 300.851 81.0601 301.384 81.0601 301.638C81.0601 301.723 81.0961 301.803 81.168 301.879C81.2399 301.955 81.314 301.993 81.3902 301.993C81.5002 301.993 81.6314 301.938 81.7837 301.828C82.0715 301.625 82.5539 301.117 83.231 300.305L83.6626 300.572C83.0533 301.418 82.4375 302.103 81.8155 302.628C81.1934 303.153 80.6115 303.415 80.0699 303.415C79.7821 303.415 79.5451 303.314 79.3589 303.111C79.1727 302.908 79.0796 302.62 79.0796 302.247C79.0796 301.765 79.2066 301.117 79.4605 300.305L79.9556 298.731C78.7284 300.627 77.6112 301.938 76.604 302.666C75.91 303.166 75.2456 303.415 74.6109 303.415C73.9677 303.415 73.4069 303.13 72.9288 302.558C72.4506 301.987 72.2115 301.211 72.2115 300.229C72.2115 298.968 72.6135 297.622 73.4175 296.192C74.2216 294.761 75.2837 293.598 76.604 292.7C77.6451 291.981 78.6014 291.621 79.4732 291.621C79.9302 291.621 80.3238 291.714 80.6538 291.901C80.9839 292.087 81.3098 292.396 81.6314 292.827L82.8755 288.409C82.9686 288.096 83.0448 287.847 83.104 287.66C83.2056 287.322 83.2564 287.043 83.2564 286.823C83.2564 286.645 83.1929 286.497 83.066 286.378C82.8882 286.234 82.6597 286.162 82.3804 286.162C82.1858 286.162 81.8641 286.192 81.4156 286.251L81.4156 285.782L85.7828 285.058ZM81.0728 294.072C81.0728 293.53 80.9162 293.094 80.6031 292.764C80.2899 292.434 79.8921 292.269 79.4097 292.269C78.3433 292.269 77.2325 293.149 76.0772 294.909C74.9219 296.67 74.3443 298.354 74.3443 299.962C74.3443 300.597 74.4839 301.082 74.7632 301.416C75.0425 301.75 75.3768 301.917 75.7662 301.917C76.6464 301.917 77.7509 300.965 79.0796 299.061C80.4084 297.157 81.0728 295.493 81.0728 294.072Z" fill="#ed230d" opacity="1" stroke="none" vectornator:layerName="Text 6"/>
<path d="M154.438 420.332L145.209 420.332L143.592 424.093C143.194 425.019 142.995 425.711 142.995 426.168C142.995 426.531 143.167 426.85 143.513 427.126C143.859 427.401 144.606 427.58 145.754 427.662L145.754 428.312L138.249 428.312L138.249 427.662C139.245 427.486 139.889 427.258 140.182 426.976C140.78 426.414 141.442 425.271 142.168 423.549L150.553 403.931L151.168 403.931L159.465 423.759C160.133 425.353 160.74 426.387 161.285 426.862C161.83 427.337 162.588 427.603 163.561 427.662L163.561 428.312L154.157 428.312L154.157 427.662C155.106 427.615 155.748 427.457 156.082 427.187C156.416 426.918 156.583 426.59 156.583 426.203C156.583 425.687 156.348 424.873 155.879 423.759L154.438 420.332ZM153.946 419.031L149.903 409.398L145.754 419.031L153.946 419.031Z" fill="#000000" opacity="1" stroke="none" vectornator:layerName="Text 8"/>
<path d="M48.0996 160.335C49.7519 160.687 50.9882 161.249 51.8085 162.023C52.9453 163.101 53.5136 164.419 53.5136 165.978C53.5136 167.161 53.1386 168.295 52.3886 169.379C51.6386 170.463 50.6103 171.254 49.3037 171.752C47.997 172.25 46.0019 172.499 43.3183 172.499L32.0683 172.499L32.0683 171.849L32.9648 171.849C33.9609 171.849 34.6757 171.532 35.1093 170.9C35.3788 170.489 35.5136 169.616 35.5136 168.28L35.5136 152.882C35.5136 151.405 35.3437 150.474 35.0038 150.087C34.5468 149.571 33.8671 149.314 32.9648 149.314L32.0683 149.314L32.0683 148.663L42.3691 148.663C44.291 148.663 45.832 148.804 46.9921 149.085C48.7499 149.507 50.0917 150.254 51.0175 151.326C51.9433 152.399 52.4062 153.632 52.4062 155.027C52.4062 156.222 52.0429 157.291 51.3163 158.235C50.5898 159.178 49.5175 159.878 48.0996 160.335ZM38.8886 159.386C39.3222 159.468 39.8173 159.529 40.374 159.57C40.9306 159.611 41.5429 159.632 42.2109 159.632C43.9218 159.632 45.2079 159.447 46.0693 159.078C46.9306 158.709 47.5898 158.144 48.0468 157.382C48.5038 156.62 48.7324 155.788 48.7324 154.886C48.7324 153.491 48.164 152.302 47.0273 151.318C45.8906 150.333 44.2324 149.841 42.0527 149.841C40.8808 149.841 39.8261 149.97 38.8886 150.228L38.8886 159.386ZM38.8886 170.777C40.248 171.093 41.5898 171.251 42.914 171.251C45.0351 171.251 46.6523 170.774 47.7656 169.819C48.8788 168.863 49.4355 167.683 49.4355 166.277C49.4355 165.351 49.1835 164.46 48.6796 163.605C48.1757 162.749 47.3554 162.075 46.2187 161.583C45.082 161.091 43.6757 160.845 41.9999 160.845C41.2734 160.845 40.6523 160.857 40.1367 160.88C39.621 160.903 39.205 160.944 38.8886 161.003L38.8886 170.777Z" fill="#000000" opacity="1" stroke="none" vectornator:layerName="Text 9"/>
<path d="M271.754 163.394L267.387 178.375C267.15 179.187 267.032 179.72 267.032 179.974C267.032 180.059 267.068 180.139 267.14 180.215C267.212 180.292 267.286 180.33 267.362 180.33C267.472 180.33 267.603 180.275 267.755 180.165C268.043 179.962 268.526 179.454 269.203 178.641L269.634 178.908C269.025 179.754 268.409 180.44 267.787 180.965C267.165 181.489 266.583 181.752 266.041 181.752C265.754 181.752 265.517 181.65 265.331 181.447C265.144 181.244 265.051 180.956 265.051 180.584C265.051 180.101 265.178 179.454 265.432 178.641L265.927 177.067C264.7 178.963 263.583 180.275 262.576 181.003C261.882 181.502 261.217 181.752 260.583 181.752C259.939 181.752 259.379 181.466 258.9 180.895C258.422 180.323 258.183 179.547 258.183 178.565C258.183 177.304 258.585 175.958 259.389 174.528C260.193 173.098 261.255 171.934 262.576 171.037C263.617 170.317 264.573 169.958 265.445 169.958C265.902 169.958 266.295 170.051 266.625 170.237C266.956 170.423 267.281 170.732 267.603 171.164L268.847 166.746C268.94 166.433 269.016 166.183 269.076 165.997C269.177 165.658 269.228 165.379 269.228 165.159C269.228 164.981 269.165 164.833 269.038 164.715C268.86 164.571 268.631 164.499 268.352 164.499C268.157 164.499 267.836 164.528 267.387 164.588L267.387 164.118L271.754 163.394ZM267.044 172.408C267.044 171.866 266.888 171.43 266.575 171.1C266.262 170.77 265.864 170.605 265.381 170.605C264.315 170.605 263.204 171.485 262.049 173.246C260.894 175.006 260.316 176.69 260.316 178.298C260.316 178.933 260.456 179.418 260.735 179.752C261.014 180.086 261.348 180.254 261.738 180.254C262.618 180.254 263.722 179.301 265.051 177.397C266.38 175.493 267.044 173.83 267.044 172.408Z" fill="#1a00ff" opacity="1" stroke="none" vectornator:layerName="Text 7"/>
<path d="M283.779 180.447C294.743 175.376 304.494 175.376 304.494 175.376" fill="none" opacity="1" stroke="#1a00ff" stroke-linecap="butt" stroke-linejoin="miter" stroke-width="1" vectornator:layerName="Curve 19"/>
<path d="M302.942 181.078L300.498 181.156C299.536 182.924 297.898 186.07 296.416 188.514L295.402 190.438L295.246 190.438C295.428 189.086 295.87 186.174 295.87 184.458C295.87 182.3 295.324 181.026 293.868 181.026C292.386 181.026 291.138 182.326 290.436 183.678L290.93 184.068C291.606 183.236 292.126 182.898 292.802 182.898C294.102 182.898 294.31 185.082 294.31 186.538C294.31 188.072 294.232 189.97 294.05 191.998C292.958 194.052 291.372 196.028 291.372 197.536C291.372 198.654 292.022 198.914 293.088 198.94C294.388 197.146 295.116 193.714 295.506 192.154C298.184 188.67 300.68 184.952 302.968 181.494L302.942 181.078Z" fill="#1a00ff" opacity="1" stroke="none" vectornator:layerName="Text 5"/>
<path d="M269.478 38.7341C269.244 37.2781 268.75 34.9121 266.228 34.9121C262.64 34.9121 260.092 38.1361 260.092 42.9201C260.092 45.9101 260.95 47.7301 263.082 47.7301C264.98 47.7301 266.722 45.7021 268.256 43.2321L268.464 43.2321C268.386 44.0901 268.256 44.8181 268.256 45.4421C268.256 46.7161 268.698 47.6521 269.92 47.6521C272.026 47.6521 273.014 45.7541 273.404 45.1041L272.988 44.6881C272.494 45.2341 272 45.7021 271.22 45.7021C269.842 45.7021 269.842 43.1801 269.842 41.3081C269.842 41.2041 269.842 41.1001 269.842 41.0221C269.842 40.9181 271.116 39.1761 273.092 36.4201C273.274 36.1601 273.664 35.6921 273.846 35.4841L273.82 35.0941L271.662 35.1461C271.168 35.8221 270.258 37.2781 269.634 38.7341L269.478 38.7341ZM263.654 45.4421C262.458 45.4421 261.288 44.5841 261.288 42.3221C261.288 38.8381 263.29 37.0701 266.098 37.0701C267.762 37.0701 268.62 37.7981 268.62 39.4101C268.62 39.8261 268.594 40.1381 268.568 40.3201C268.36 42.1141 266.28 45.4421 263.654 45.4421Z" fill="#1a00ff" opacity="1" stroke="none" vectornator:layerName="Text 3"/>
<path d="M111.123 180.38C111.149 178.274 109.771 177 107.873 177C102.075 177 100.463 184.904 99.0853 192.444C98.5393 195.356 97.9673 198.294 97.3433 201.206L97.6553 201.258C100.385 201.18 100.463 198.684 100.593 195.59C100.619 194.888 100.645 194.186 100.697 193.458L100.879 193.458C101.425 194.42 102.439 195.928 104.441 195.928C106.911 195.928 109.927 194.654 109.927 190.494C109.927 187.868 108.289 186.048 106.781 185.476L106.781 185.372C108.861 184.566 111.123 183.11 111.123 180.38ZM104.155 193.9C102.231 193.9 101.061 192.626 101.061 190.598C101.061 187.868 102.023 179.002 107.145 179.002C108.263 179.002 109.199 179.678 109.199 181.29C109.199 184.046 106.183 184.826 105.533 184.826C105.481 184.826 104.311 184.722 104.103 184.722C103.687 184.722 103.401 185.268 103.401 185.84C103.401 186.412 103.713 186.932 103.973 186.932C104.285 186.932 104.987 186.49 105.923 185.918C106.469 186.308 108.185 187.478 108.185 190.182C108.185 193.536 105.819 193.9 104.155 193.9Z" fill="#ed230d" opacity="1" stroke="none" vectornator:layerName="Text 2"/>
<path d="M70.2163 125.884L70.2163 263.396" fill="none" opacity="1" stroke="#141414" stroke-linecap="butt" stroke-linejoin="miter" stroke-width="1" vectornator:layerName="Curve 11"/>
<path d="M117.21 302.215L117.21 455.015" fill="none" opacity="1" stroke="#141414" stroke-linecap="butt" stroke-linejoin="miter" stroke-width="1" vectornator:layerName="Curve 12"/>
<path d="M304.494 154.642L304.494 338.973" fill="none" opacity="1" stroke="#141414" stroke-linecap="butt" stroke-linejoin="miter" stroke-width="1" vectornator:layerName="Curve 15"/>
<path d="M257.5 7.39667L257.5 130.19" fill="none" opacity="1" stroke="#141414" stroke-linecap="butt" stroke-linejoin="miter" stroke-width="1" vectornator:layerName="Curve 16"/>
<path d="M70.2163 442.728L304.494 276.597" fill="none" opacity="1" stroke="#ed230d" stroke-linecap="round" stroke-linejoin="miter" stroke-width="3" vectornator:layerName="Curve 2"/>
<path d="M17.3921 234.302L178.756 117.883L294.447 35.1131" fill="none" opacity="1" stroke="#1a00ff" stroke-linecap="round" stroke-linejoin="miter" stroke-width="3" vectornator:layerName="Curve 14"/>
<path d="M10.6274 175.376L304.494 276.597" fill="none" opacity="1" stroke="#ed230d" stroke-linecap="round" stroke-linejoin="miter" stroke-width="3" vectornator:layerName="Curve 5"/>
<g opacity="1" vectornator:layerName="Curve 3">
<path d="M72.4631 204.687C76.4266 222.783 117.21 408.991 117.21 408.991" fill="none" stroke="#ed230d" stroke-linecap="round" stroke-linejoin="miter" stroke-width="3"/>
<g fill="#ed230d" stroke="none">
<path d="M73.0247 207.251L84.9665 212.697L70.2166 194.43L64.4527 217.19L73.0247 207.251Z" fill="#ed230d"/>
</g>
</g>
<g opacity="1" vectornator:layerName="Curve 13">
<path d="M259.747 72.2918C263.71 90.3882 304.494 276.597 304.494 276.597" fill="none" stroke="#1a00ff" stroke-linecap="round" stroke-linejoin="miter" stroke-width="3"/>
<g fill="#1a00ff" stroke="none">
<path d="M260.308 74.8561L272.25 80.3022L257.5 62.035L251.736 84.7952L260.308 74.8561Z" fill="#1a00ff"/>
</g>
</g>
</g>
</svg>
