<?xml version="1.0" encoding="UTF-8" standalone="no"?>
<!DOCTYPE svg PUBLIC "-//W3C//DTD SVG 1.1//EN" "http://www.w3.org/Graphics/SVG/1.1/DTD/svg11.dtd">
<!-- Created with Vectornator (http://vectornator.io/) -->
<svg height="100%" stroke-miterlimit="10" style="fill-rule:nonzero;clip-rule:evenodd;stroke-linecap:round;stroke-linejoin:round;" version="1.1" viewBox="0 0 198.45 198.45" width="100%" xml:space="preserve" xmlns="http://www.w3.org/2000/svg" xmlns:vectornator="http://vectornator.io" xmlns:xlink="http://www.w3.org/1999/xlink">
<defs/>
<g id="Layer-1" vectornator:layerName="Layer 1">
<g opacity="1" vectornator:layerName="Group 2">
<path d="M165.464 46.4032L159.1 46.4032L151.032 35.2586C150.434 35.2821 149.948 35.2938 149.573 35.2938C149.421 35.2938 149.257 35.2909 149.081 35.285C148.905 35.2792 148.723 35.2704 148.536 35.2586L148.536 42.1844C148.536 43.6844 148.7 44.6161 149.028 44.9793C149.473 45.495 150.141 45.7528 151.032 45.7528L151.964 45.7528L151.964 46.4032L141.751 46.4032L141.751 45.7528L142.647 45.7528C143.655 45.7528 144.376 45.4247 144.809 44.7684C145.055 44.4051 145.178 43.5438 145.178 42.1844L145.178 26.786C145.178 25.286 145.014 24.3543 144.686 23.9911C144.229 23.4754 143.549 23.2176 142.647 23.2176L141.751 23.2176L141.751 22.5672L150.434 22.5672C152.965 22.5672 154.832 22.7518 156.033 23.1209C157.234 23.4901 158.254 24.1698 159.091 25.16C159.929 26.1502 160.348 27.3309 160.348 28.702C160.348 30.1668 159.871 31.4383 158.916 32.5165C157.961 33.5946 156.481 34.3563 154.477 34.8016L159.399 41.6395C160.524 43.2098 161.491 44.2528 162.299 44.7684C163.108 45.284 164.163 45.6122 165.464 45.7528L165.464 46.4032ZM148.536 34.1512C148.758 34.1512 148.952 34.1542 149.116 34.16C149.28 34.1659 149.415 34.1688 149.52 34.1688C151.794 34.1688 153.507 33.6766 154.662 32.6922C155.816 31.7079 156.393 30.454 156.393 28.9305C156.393 27.4422 155.927 26.2323 154.996 25.3006C154.064 24.369 152.831 23.9032 151.296 23.9032C150.616 23.9032 149.696 24.0145 148.536 24.2372L148.536 34.1512Z" fill="#000000" opacity="1" stroke="none" vectornator:layerName="Text 9"/>
<path d="M115.933 22.5672L115.933 23.2176C115.312 23.2176 114.808 23.329 114.421 23.5516C114.035 23.7743 113.665 24.1903 113.314 24.7997C113.079 25.2098 112.71 26.1883 112.206 27.7352L105.562 46.9481L104.859 46.9481L99.4271 31.7079L94.0307 46.9481L93.3979 46.9481L86.3139 27.1551C85.7865 25.6786 85.4525 24.8055 85.3119 24.536C85.0775 24.0907 84.7582 23.7596 84.3539 23.5428C83.9496 23.326 83.4018 23.2176 82.7104 23.2176L82.7104 22.5672L91.5346 22.5672L91.5346 23.2176L91.1127 23.2176C90.4916 23.2176 90.017 23.3583 89.6889 23.6395C89.3607 23.9208 89.1967 24.2606 89.1967 24.659C89.1967 25.0692 89.4545 26.0125 89.9701 27.4891L94.6635 40.8661L98.6186 29.493L97.9154 27.4891L97.3529 25.8895C97.1068 25.3036 96.8314 24.7879 96.5268 24.3426C96.3744 24.12 96.1869 23.9325 95.9643 23.7801C95.6713 23.5692 95.3783 23.4168 95.0854 23.3231C94.8627 23.2528 94.5111 23.2176 94.0307 23.2176L94.0307 22.5672L103.312 22.5672L103.312 23.2176L102.679 23.2176C102.023 23.2176 101.542 23.3583 101.238 23.6395C100.933 23.9208 100.781 24.3016 100.781 24.7821C100.781 25.3797 101.044 26.4227 101.572 27.911L106.142 40.8661L110.677 27.7352C111.193 26.2821 111.451 25.2743 111.451 24.7118C111.451 24.4422 111.366 24.1903 111.196 23.9559C111.026 23.7215 110.812 23.5575 110.554 23.4637C110.109 23.2997 109.529 23.2176 108.814 23.2176L108.814 22.5672L115.933 22.5672Z" fill="#000000" opacity="1" stroke="none" vectornator:layerName="Text 11"/>
<path d="M54.4054 22.0223L55.0206 29.5458L54.4054 29.5458C53.7843 27.6708 52.9816 26.2586 51.9972 25.3094C50.5792 23.9383 48.757 23.2528 46.5304 23.2528C43.4952 23.2528 41.1867 24.454 39.6046 26.8563C38.2804 28.8836 37.6183 31.2977 37.6183 34.0985C37.6183 36.3719 38.0577 38.4461 38.9367 40.3211C39.8156 42.1961 40.9669 43.5702 42.3908 44.4432C43.8146 45.3163 45.2765 45.7528 46.7765 45.7528C47.6554 45.7528 48.505 45.6415 49.3253 45.4188C50.1456 45.1961 50.9367 44.868 51.6984 44.4344L51.6984 37.5438C51.6984 36.3485 51.6076 35.5663 51.4259 35.1971C51.2443 34.828 50.963 34.5467 50.5822 34.3534C50.2013 34.16 49.5304 34.0633 48.5695 34.0633L48.5695 33.3954L57.798 33.3954L57.798 34.0633L57.3585 34.0633C56.4445 34.0633 55.8175 34.368 55.4777 34.9774C55.2433 35.411 55.1261 36.2665 55.1261 37.5438L55.1261 44.8387C53.7785 45.5653 52.4484 46.0985 51.1359 46.4383C49.8234 46.7782 48.3644 46.9481 46.7589 46.9481C42.1535 46.9481 38.6554 45.4715 36.2648 42.5184C34.4718 40.3036 33.5753 37.7489 33.5753 34.8543C33.5753 32.7567 34.0792 30.7469 35.087 28.825C36.2824 26.5399 37.923 24.7821 40.0089 23.5516C41.755 22.5321 43.8175 22.0223 46.1964 22.0223C47.0636 22.0223 47.8517 22.0926 48.5607 22.2333C49.2697 22.3739 50.2745 22.6844 51.5753 23.1649C52.2316 23.411 52.671 23.534 52.8937 23.534C53.1163 23.534 53.3068 23.4315 53.465 23.2264C53.6232 23.0213 53.7199 22.62 53.755 22.0223L54.4054 22.0223Z" fill="#000000" opacity="1" stroke="none" vectornator:layerName="Text 10"/>
</g>
<g fill="#000000" opacity="1" stroke="none" vectornator:layerName="Text 14">
<path d="M67.3031 177.08L67.3031 177.514L60.4945 177.514L60.4945 177.08L61.057 177.08C61.7133 177.08 62.1898 176.889 62.4867 176.506C62.6742 176.256 62.768 175.654 62.768 174.701L62.768 164.435C62.768 163.631 62.7172 163.1 62.6156 162.842C62.5375 162.646 62.3773 162.478 62.1352 162.338C61.7914 162.15 61.432 162.057 61.057 162.057L60.4945 162.057L60.4945 161.623L67.3031 161.623L67.3031 162.057L66.7289 162.057C66.0805 162.057 65.6078 162.248 65.3109 162.631C65.1156 162.881 65.018 163.482 65.018 164.435L65.018 174.701C65.018 175.506 65.0687 176.037 65.1703 176.295C65.2484 176.49 65.4125 176.658 65.6625 176.799C65.9984 176.986 66.3539 177.08 66.7289 177.08L67.3031 177.08Z"/>
<path d="M75.5766 166.463L75.5766 170.119L75.1898 170.119C74.893 168.971 74.5121 168.189 74.0473 167.775C73.5824 167.361 72.9906 167.154 72.2719 167.154C71.725 167.154 71.2836 167.299 70.9477 167.588C70.6117 167.877 70.4437 168.197 70.4437 168.549C70.4437 168.986 70.5687 169.361 70.8187 169.674C71.0609 169.994 71.5531 170.334 72.2953 170.693L74.0062 171.525C75.5922 172.299 76.3852 173.318 76.3852 174.584C76.3852 175.56 76.016 176.348 75.2777 176.945C74.5395 177.543 73.7133 177.842 72.7992 177.842C72.143 177.842 71.393 177.725 70.5492 177.49C70.2914 177.412 70.0805 177.373 69.9164 177.373C69.7367 177.373 69.5961 177.475 69.4945 177.678L69.1078 177.678L69.1078 173.846L69.4945 173.846C69.7133 174.939 70.1312 175.764 70.7484 176.318C71.3656 176.873 72.057 177.15 72.8227 177.15C73.3617 177.15 73.8012 176.992 74.141 176.676C74.4809 176.359 74.6508 175.978 74.6508 175.533C74.6508 174.994 74.4613 174.541 74.0824 174.174C73.7035 173.807 72.9477 173.342 71.8148 172.779C70.682 172.217 69.9398 171.709 69.5883 171.256C69.2367 170.81 69.0609 170.248 69.0609 169.568C69.0609 168.685 69.3637 167.947 69.9691 167.353C70.5746 166.76 71.3578 166.463 72.3187 166.463C72.7406 166.463 73.2523 166.553 73.8539 166.732C74.2523 166.85 74.518 166.908 74.6508 166.908C74.7758 166.908 74.8734 166.881 74.9437 166.826C75.0141 166.771 75.0961 166.65 75.1898 166.463L75.5766 166.463Z"/>
<path d="M83.2289 166.463C84.8539 166.463 86.1586 167.08 87.143 168.314C87.9789 169.369 88.3969 170.58 88.3969 171.947C88.3969 172.908 88.1664 173.881 87.7055 174.865C87.2445 175.85 86.6098 176.592 85.8012 177.092C84.9926 177.592 84.0922 177.842 83.1 177.842C81.4828 177.842 80.1977 177.197 79.2445 175.908C78.4398 174.822 78.0375 173.603 78.0375 172.252C78.0375 171.268 78.2816 170.289 78.7699 169.316C79.2582 168.344 79.9008 167.625 80.6977 167.16C81.4945 166.695 82.3383 166.463 83.2289 166.463ZM82.8656 167.225C82.4516 167.225 82.0355 167.348 81.6176 167.594C81.1996 167.84 80.8617 168.271 80.6039 168.889C80.3461 169.506 80.2172 170.299 80.2172 171.268C80.2172 172.83 80.5277 174.178 81.1488 175.31C81.7699 176.443 82.5883 177.01 83.6039 177.01C84.3617 177.01 84.9867 176.697 85.4789 176.072C85.9711 175.447 86.2172 174.373 86.2172 172.85C86.2172 170.943 85.807 169.443 84.9867 168.35C84.432 167.6 83.725 167.225 82.8656 167.225Z"/>
<path d="M96.682 182.213L96.682 182.646C95.5023 182.053 94.518 181.357 93.7289 180.56C92.6039 179.428 91.7367 178.092 91.1273 176.553C90.518 175.014 90.2133 173.416 90.2133 171.76C90.2133 169.338 90.8109 167.129 92.0062 165.133C93.2016 163.137 94.7602 161.709 96.682 160.85L96.682 161.342C95.7211 161.873 94.932 162.6 94.3148 163.521C93.6977 164.443 93.2367 165.611 92.932 167.025C92.6273 168.439 92.475 169.916 92.475 171.455C92.475 173.127 92.6039 174.646 92.8617 176.014C93.0648 177.092 93.3109 177.957 93.6 178.609C93.8891 179.262 94.2777 179.889 94.766 180.49C95.2543 181.092 95.893 181.666 96.682 182.213Z"/>
<path d="M100.034 163.182L103.901 161.295L104.287 161.295L104.287 174.713C104.287 175.603 104.325 176.158 104.399 176.377C104.473 176.596 104.627 176.764 104.862 176.881C105.096 176.998 105.573 177.064 106.291 177.08L106.291 177.514L100.315 177.514L100.315 177.08C101.065 177.064 101.549 177 101.768 176.887C101.987 176.773 102.139 176.621 102.225 176.43C102.311 176.238 102.354 175.666 102.354 174.713L102.354 166.135C102.354 164.978 102.315 164.236 102.237 163.908C102.182 163.658 102.082 163.475 101.938 163.357C101.793 163.24 101.62 163.182 101.416 163.182C101.127 163.182 100.725 163.303 100.209 163.545L100.034 163.182Z"/>
<path d="M109.76 161.342L109.76 160.85C110.948 161.435 111.936 162.127 112.725 162.924C113.842 164.064 114.705 165.402 115.315 166.937C115.924 168.473 116.229 170.072 116.229 171.736C116.229 174.158 115.633 176.367 114.442 178.363C113.25 180.359 111.69 181.787 109.76 182.646L109.76 182.213C110.721 181.674 111.512 180.945 112.133 180.027C112.754 179.109 113.215 177.941 113.516 176.523C113.817 175.105 113.967 173.627 113.967 172.088C113.967 170.424 113.838 168.904 113.58 167.529C113.385 166.451 113.141 165.588 112.848 164.939C112.555 164.291 112.166 163.666 111.682 163.064C111.198 162.463 110.557 161.889 109.76 161.342Z"/>
<path d="M128.381 171.654L128.381 173.318L126.248 173.318L126.248 177.514L124.315 177.514L124.315 173.318L117.588 173.318L117.588 171.818L124.959 161.295L126.248 161.295L126.248 171.654L128.381 171.654ZM124.315 171.654L124.315 163.768L118.737 171.654L124.315 171.654Z"/>
<path d="M136.901 166.463L136.901 170.119L136.514 170.119C136.217 168.971 135.836 168.189 135.371 167.775C134.907 167.361 134.315 167.154 133.596 167.154C133.049 167.154 132.608 167.299 132.272 167.588C131.936 167.877 131.768 168.197 131.768 168.549C131.768 168.986 131.893 169.361 132.143 169.674C132.385 169.994 132.877 170.334 133.62 170.693L135.33 171.525C136.916 172.299 137.709 173.318 137.709 174.584C137.709 175.56 137.34 176.348 136.602 176.945C135.864 177.543 135.038 177.842 134.123 177.842C133.467 177.842 132.717 177.725 131.873 177.49C131.616 177.412 131.405 177.373 131.241 177.373C131.061 177.373 130.92 177.475 130.819 177.678L130.432 177.678L130.432 173.846L130.819 173.846C131.038 174.939 131.455 175.764 132.073 176.318C132.69 176.873 133.381 177.15 134.147 177.15C134.686 177.15 135.125 176.992 135.465 176.676C135.805 176.359 135.975 175.978 135.975 175.533C135.975 174.994 135.786 174.541 135.407 174.174C135.028 173.807 134.272 173.342 133.139 172.779C132.006 172.217 131.264 171.709 130.912 171.256C130.561 170.81 130.385 170.248 130.385 169.568C130.385 168.685 130.688 167.947 131.293 167.353C131.899 166.76 132.682 166.463 133.643 166.463C134.065 166.463 134.577 166.553 135.178 166.732C135.577 166.85 135.842 166.908 135.975 166.908C136.1 166.908 136.198 166.881 136.268 166.826C136.338 166.771 136.42 166.65 136.514 166.463L136.901 166.463Z"/>
</g>
<g opacity="1" vectornator:layerName="Group 3">
<g fill="#000000" opacity="1" stroke="none" vectornator:layerName="Text 12">
<path d="M136.008 68.7667C136.008 66.9542 136.282 65.3936 136.829 64.085C137.376 62.7764 138.102 61.8018 139.008 61.1612C139.712 60.6534 140.438 60.3995 141.188 60.3995C142.407 60.3995 143.501 61.0206 144.469 62.2628C145.68 63.8018 146.286 65.8878 146.286 68.5206C146.286 70.3643 146.02 71.9307 145.489 73.2198C144.958 74.5089 144.28 75.4444 143.456 76.0264C142.632 76.6085 141.837 76.8995 141.071 76.8995C139.555 76.8995 138.294 76.0049 137.286 74.2159C136.434 72.7081 136.008 70.8917 136.008 68.7667ZM138.305 69.0596C138.305 71.2471 138.575 73.0323 139.114 74.4151C139.559 75.5792 140.223 76.1612 141.106 76.1612C141.528 76.1612 141.965 75.9717 142.419 75.5928C142.872 75.2139 143.215 74.5792 143.45 73.6885C143.809 72.3448 143.989 70.4503 143.989 68.0049C143.989 66.1924 143.801 64.6807 143.426 63.4698C143.145 62.5714 142.782 61.9346 142.337 61.5596C142.016 61.3018 141.63 61.1729 141.176 61.1729C140.645 61.1729 140.173 61.4112 139.758 61.8878C139.196 62.5362 138.813 63.5557 138.61 64.9464C138.407 66.337 138.305 67.7081 138.305 69.0596Z"/>
<path d="M158.309 70.7589L158.309 72.4229L156.176 72.4229L156.176 76.6182L154.243 76.6182L154.243 72.4229L147.516 72.4229L147.516 70.9229L154.887 60.3995L156.176 60.3995L156.176 70.7589L158.309 70.7589ZM154.243 70.7589L154.243 62.8721L148.665 70.7589L154.243 70.7589Z"/>
<path d="M161.954 62.2862L165.821 60.3995L166.208 60.3995L166.208 73.8174C166.208 74.7081 166.245 75.2628 166.319 75.4815C166.393 75.7003 166.548 75.8682 166.782 75.9854C167.016 76.1026 167.493 76.169 168.212 76.1846L168.212 76.6182L162.235 76.6182L162.235 76.1846C162.985 76.169 163.469 76.1046 163.688 75.9913C163.907 75.878 164.059 75.7257 164.145 75.5342C164.231 75.3428 164.274 74.7706 164.274 73.8174L164.274 65.2393C164.274 64.0831 164.235 63.3409 164.157 63.0128C164.102 62.7628 164.003 62.5792 163.858 62.462C163.714 62.3448 163.54 62.2862 163.337 62.2862C163.048 62.2862 162.645 62.4073 162.13 62.6495L161.954 62.2862Z"/>
</g>
<g fill="#000000" opacity="1" stroke="none" vectornator:layerName="Text 13">
<path d="M28.1759 68.7667C28.1759 66.9542 28.4494 65.3936 28.9962 64.085C29.5431 62.7764 30.2697 61.8018 31.1759 61.1612C31.879 60.6534 32.6056 60.3995 33.3556 60.3995C34.5744 60.3995 35.6681 61.0206 36.6369 62.2628C37.8478 63.8018 38.4533 65.8878 38.4533 68.5206C38.4533 70.3643 38.1876 71.9307 37.6564 73.2198C37.1251 74.5089 36.4474 75.4444 35.6232 76.0264C34.799 76.6085 34.004 76.8995 33.2384 76.8995C31.7228 76.8995 30.4611 76.0049 29.4533 74.2159C28.6017 72.7081 28.1759 70.8917 28.1759 68.7667ZM30.4728 69.0596C30.4728 71.2471 30.7423 73.0323 31.2814 74.4151C31.7267 75.5792 32.3908 76.1612 33.2736 76.1612C33.6954 76.1612 34.1329 75.9717 34.5861 75.5928C35.0392 75.2139 35.3829 74.5792 35.6173 73.6885C35.9767 72.3448 36.1564 70.4503 36.1564 68.0049C36.1564 66.1924 35.9689 64.6807 35.5939 63.4698C35.3126 62.5714 34.9494 61.9346 34.504 61.5596C34.1837 61.3018 33.797 61.1729 33.3439 61.1729C32.8126 61.1729 32.34 61.4112 31.9259 61.8878C31.3634 62.5362 30.9806 63.5557 30.7775 64.9464C30.5744 66.337 30.4728 67.7081 30.4728 69.0596Z"/>
<path d="M40.5275 63.751C40.9806 62.6807 41.5529 61.8546 42.2443 61.2725C42.9357 60.6905 43.797 60.3995 44.8283 60.3995C46.1017 60.3995 47.0783 60.8135 47.7579 61.6417C48.2736 62.2589 48.5314 62.919 48.5314 63.6221C48.5314 64.7784 47.8048 65.9737 46.3517 67.2081C47.3283 67.5909 48.0665 68.1378 48.5665 68.8487C49.0665 69.5596 49.3165 70.3956 49.3165 71.3565C49.3165 72.7315 48.879 73.9229 48.004 74.9307C46.8634 76.2432 45.2111 76.8995 43.047 76.8995C41.9767 76.8995 41.2482 76.7667 40.8615 76.501C40.4747 76.2354 40.2814 75.9503 40.2814 75.6456C40.2814 75.419 40.3732 75.2198 40.5568 75.0479C40.7404 74.876 40.9611 74.7901 41.2189 74.7901C41.4142 74.7901 41.6134 74.8214 41.8165 74.8839C41.9494 74.9229 42.2501 75.0655 42.7189 75.3116C43.1876 75.5577 43.5119 75.7042 43.6915 75.751C43.9806 75.837 44.2892 75.8799 44.6173 75.8799C45.4142 75.8799 46.1076 75.5714 46.6974 74.9542C47.2872 74.337 47.5822 73.6065 47.5822 72.7628C47.5822 72.1456 47.4454 71.544 47.172 70.9581C46.9689 70.5206 46.7462 70.1885 46.504 69.962C46.1681 69.6495 45.7072 69.3663 45.1212 69.1124C44.5353 68.8585 43.9376 68.7315 43.3283 68.7315L42.9533 68.7315L42.9533 68.3799C43.5704 68.3018 44.1896 68.0792 44.8107 67.712C45.4318 67.3448 45.8829 66.9034 46.1642 66.3878C46.4454 65.8721 46.5861 65.3057 46.5861 64.6885C46.5861 63.8839 46.3341 63.2335 45.8302 62.7374C45.3263 62.2413 44.6994 61.9932 43.9494 61.9932C42.7384 61.9932 41.7267 62.6417 40.9142 63.9385L40.5275 63.751Z"/>
<path d="M52.5744 76.9464L52.5744 76.5128C53.59 76.4971 54.5353 76.2608 55.4103 75.8038C56.2853 75.3467 57.131 74.5479 57.9474 73.4073C58.7638 72.2667 59.3322 71.0128 59.6525 69.6456C58.4259 70.4346 57.3165 70.8292 56.3244 70.8292C55.2072 70.8292 54.2501 70.3975 53.4533 69.5342C52.6564 68.671 52.2579 67.5245 52.2579 66.0948C52.2579 64.7042 52.6564 63.4659 53.4533 62.3799C54.4142 61.0596 55.6681 60.3995 57.215 60.3995C58.5197 60.3995 59.6369 60.9385 60.5665 62.0167C61.7072 63.3526 62.2775 65.001 62.2775 66.962C62.2775 68.7276 61.8439 70.3741 60.9767 71.9014C60.1095 73.4288 58.9025 74.6964 57.3556 75.7042C56.0978 76.5323 54.7267 76.9464 53.2423 76.9464L52.5744 76.9464ZM59.84 68.7784C59.9806 67.7628 60.0509 66.9503 60.0509 66.3409C60.0509 65.5831 59.922 64.7647 59.6642 63.8858C59.4064 63.0069 59.0411 62.3331 58.5685 61.8643C58.0958 61.3956 57.5587 61.1612 56.9572 61.1612C56.2619 61.1612 55.6525 61.4737 55.129 62.0987C54.6056 62.7237 54.3439 63.6534 54.3439 64.8878C54.3439 66.5362 54.6915 67.8253 55.3869 68.7549C55.8947 69.4268 56.5197 69.7628 57.2619 69.7628C57.6212 69.7628 58.047 69.6768 58.5392 69.5049C59.0314 69.3331 59.465 69.0909 59.84 68.7784Z"/>
</g>
</g>
<g opacity="1" vectornator:layerName="Curve 21">
<path d="M99.225 75.9205C99.225 80.3173 99.225 116.517 99.225 116.517" fill="none" stroke="#000000" stroke-linecap="round" stroke-linejoin="miter" stroke-width="3"/>
<g fill="#000000" stroke="none">
<path d="M99.225 78.5455L109.725 86.4205L99.225 65.4205L88.725 86.4205L99.225 78.5455Z" fill="#000000"/>
</g>
</g>
<g opacity="1" vectornator:layerName="Group 1">
<path d="M60.9966 14.3231L99.225 156.127" fill="none" opacity="1" stroke="#000000" stroke-linecap="round" stroke-linejoin="miter" stroke-width="3" vectornator:layerName="Curve 23"/>
<path d="M137.453 14.3231L99.225 156.127" fill="none" opacity="1" stroke="#000000" stroke-linecap="round" stroke-linejoin="miter" stroke-width="3" vectornator:layerName="Curve 24"/>
</g>
</g>
</svg>
