<?xml version="1.0" encoding="UTF-8" standalone="no"?>
<!DOCTYPE svg PUBLIC "-//W3C//DTD SVG 1.1//EN" "http://www.w3.org/Graphics/SVG/1.1/DTD/svg11.dtd">
<!-- Created with Vectornator (http://vectornator.io/) -->
<svg height="100%" stroke-miterlimit="10" style="fill-rule:nonzero;clip-rule:evenodd;stroke-linecap:round;stroke-linejoin:round;" version="1.1" viewBox="0 0 198.45 198.45" width="100%" xml:space="preserve" xmlns="http://www.w3.org/2000/svg" xmlns:vectornator="http://vectornator.io" xmlns:xlink="http://www.w3.org/1999/xlink">
<defs/>
<g id="Layer-1" vectornator:layerName="Layer 1">
<g opacity="1" vectornator:layerName="Group 2">
<path d="M165.464 176.597L159.1 176.597L151.032 165.453C150.434 165.476 149.948 165.488 149.573 165.488C149.421 165.488 149.257 165.485 149.081 165.479C148.905 165.473 148.723 165.464 148.536 165.453L148.536 172.378C148.536 173.878 148.7 174.81 149.028 175.173C149.473 175.689 150.141 175.947 151.032 175.947L151.964 175.947L151.964 176.597L141.751 176.597L141.751 175.947L142.647 175.947C143.655 175.947 144.376 175.619 144.809 174.962C145.055 174.599 145.178 173.738 145.178 172.378L145.178 156.98C145.178 155.48 145.014 154.548 144.686 154.185C144.229 153.669 143.549 153.411 142.647 153.411L141.751 153.411L141.751 152.761L150.434 152.761C152.965 152.761 154.832 152.946 156.033 153.315C157.234 153.684 158.254 154.364 159.091 155.354C159.929 156.344 160.348 157.525 160.348 158.896C160.348 160.361 159.871 161.632 158.916 162.71C157.961 163.788 156.481 164.55 154.477 164.995L159.399 171.833C160.524 173.404 161.491 174.447 162.299 174.962C163.108 175.478 164.163 175.806 165.464 175.947L165.464 176.597ZM148.536 164.345C148.758 164.345 148.952 164.348 149.116 164.354C149.28 164.36 149.415 164.363 149.52 164.363C151.794 164.363 153.507 163.87 154.662 162.886C155.816 161.902 156.393 160.648 156.393 159.124C156.393 157.636 155.927 156.426 154.996 155.495C154.064 154.563 152.831 154.097 151.296 154.097C150.616 154.097 149.696 154.208 148.536 154.431L148.536 164.345Z" fill="#000000" opacity="1" stroke="none" vectornator:layerName="Text 9"/>
<path d="M115.933 152.761L115.933 153.411C115.312 153.411 114.808 153.523 114.421 153.745C114.035 153.968 113.665 154.384 113.314 154.994C113.079 155.404 112.71 156.382 112.206 157.929L105.562 177.142L104.859 177.142L99.4271 161.902L94.0307 177.142L93.3979 177.142L86.3139 157.349C85.7865 155.872 85.4525 154.999 85.3119 154.73C85.0775 154.285 84.7582 153.953 84.3539 153.737C83.9496 153.52 83.4018 153.411 82.7104 153.411L82.7104 152.761L91.5346 152.761L91.5346 153.411L91.1127 153.411C90.4916 153.411 90.017 153.552 89.6889 153.833C89.3607 154.115 89.1967 154.454 89.1967 154.853C89.1967 155.263 89.4545 156.206 89.9701 157.683L94.6635 171.06L98.6186 159.687L97.9154 157.683L97.3529 156.083C97.1068 155.497 96.8314 154.982 96.5268 154.536C96.3744 154.314 96.1869 154.126 95.9643 153.974C95.6713 153.763 95.3783 153.611 95.0854 153.517C94.8627 153.447 94.5111 153.411 94.0307 153.411L94.0307 152.761L103.312 152.761L103.312 153.411L102.679 153.411C102.023 153.411 101.542 153.552 101.238 153.833C100.933 154.115 100.781 154.495 100.781 154.976C100.781 155.574 101.044 156.617 101.572 158.105L106.142 171.06L110.677 157.929C111.193 156.476 111.451 155.468 111.451 154.906C111.451 154.636 111.366 154.384 111.196 154.15C111.026 153.915 110.812 153.751 110.554 153.658C110.109 153.494 109.529 153.411 108.814 153.411L108.814 152.761L115.933 152.761Z" fill="#000000" opacity="1" stroke="none" vectornator:layerName="Text 11"/>
<path d="M54.4054 152.216L55.0206 159.74L54.4054 159.74C53.7843 157.865 52.9816 156.453 51.9972 155.503C50.5792 154.132 48.757 153.447 46.5304 153.447C43.4952 153.447 41.1867 154.648 39.6046 157.05C38.2804 159.078 37.6183 161.492 37.6183 164.292C37.6183 166.566 38.0577 168.64 38.9367 170.515C39.8156 172.39 40.9669 173.764 42.3908 174.637C43.8146 175.51 45.2765 175.947 46.7765 175.947C47.6554 175.947 48.505 175.835 49.3253 175.613C50.1456 175.39 50.9367 175.062 51.6984 174.628L51.6984 167.738C51.6984 166.542 51.6076 165.76 51.4259 165.391C51.2443 165.022 50.963 164.741 50.5822 164.547C50.2013 164.354 49.5304 164.257 48.5695 164.257L48.5695 163.589L57.798 163.589L57.798 164.257L57.3585 164.257C56.4445 164.257 55.8175 164.562 55.4777 165.171C55.2433 165.605 55.1261 166.46 55.1261 167.738L55.1261 175.033C53.7785 175.759 52.4484 176.292 51.1359 176.632C49.8234 176.972 48.3644 177.142 46.7589 177.142C42.1535 177.142 38.6554 175.665 36.2648 172.712C34.4718 170.497 33.5753 167.943 33.5753 165.048C33.5753 162.951 34.0792 160.941 35.087 159.019C36.2824 156.734 37.923 154.976 40.0089 153.745C41.755 152.726 43.8175 152.216 46.1964 152.216C47.0636 152.216 47.8517 152.286 48.5607 152.427C49.2697 152.568 50.2745 152.878 51.5753 153.359C52.2316 153.605 52.671 153.728 52.8937 153.728C53.1163 153.728 53.3068 153.625 53.465 153.42C53.6232 153.215 53.7199 152.814 53.755 152.216L54.4054 152.216Z" fill="#000000" opacity="1" stroke="none" vectornator:layerName="Text 10"/>
</g>
<g fill="#000000" opacity="1" stroke="none" vectornator:layerName="Text 14">
<path d="M63.4652 20.6864L63.4652 26.9325L66.3598 26.9325C67.0238 26.9325 67.5102 26.786 67.8188 26.493C68.1273 26.2 68.3324 25.62 68.434 24.7528L68.8676 24.7528L68.8676 30.1317L68.434 30.1317C68.4262 29.5145 68.3461 29.0614 68.1938 28.7723C68.0414 28.4833 67.8305 28.2665 67.5609 28.1219C67.2914 27.9774 66.891 27.9051 66.3598 27.9051L63.4652 27.9051L63.4652 32.8973C63.4652 33.702 63.516 34.2333 63.6176 34.4911C63.6957 34.6864 63.8598 34.8543 64.1098 34.995C64.4535 35.1825 64.8129 35.2762 65.1879 35.2762L65.7621 35.2762L65.7621 35.7098L58.9418 35.7098L58.9418 35.2762L59.5043 35.2762C60.1605 35.2762 60.6371 35.0848 60.934 34.702C61.1215 34.452 61.2152 33.8504 61.2152 32.8973L61.2152 22.6317C61.2152 21.827 61.1645 21.2958 61.0629 21.0379C60.9848 20.8426 60.8246 20.6747 60.5824 20.534C60.2465 20.3465 59.8871 20.2528 59.5043 20.2528L58.9418 20.2528L58.9418 19.8192L70.766 19.8192L70.9184 23.3114L70.5082 23.3114C70.3051 22.5692 70.0688 22.0243 69.7992 21.6766C69.5297 21.329 69.1977 21.077 68.8031 20.9208C68.4086 20.7645 67.7973 20.6864 66.9691 20.6864L63.4652 20.6864Z"/>
<path d="M76.3441 19.0458L76.3441 33.284C76.3441 33.9559 76.393 34.4012 76.4906 34.62C76.5883 34.8387 76.7387 35.0047 76.9418 35.118C77.1449 35.2313 77.5238 35.2879 78.0785 35.2879L78.0785 35.7098L72.8168 35.7098L72.8168 35.2879C73.309 35.2879 73.6449 35.2372 73.8246 35.1356C74.0043 35.034 74.1449 34.8661 74.2465 34.6317C74.348 34.3973 74.3988 33.9481 74.3988 33.284L74.3988 23.534C74.3988 22.3231 74.3715 21.579 74.3168 21.3016C74.2621 21.0243 74.1742 20.8348 74.0531 20.7333C73.932 20.6317 73.7777 20.5809 73.5902 20.5809C73.3871 20.5809 73.1293 20.6434 72.8168 20.7684L72.6176 20.3583L75.8168 19.0458L76.3441 19.0458Z"/>
<path d="M86.0238 40.409L86.0238 40.8426C84.8441 40.2489 83.8598 39.5536 83.0707 38.7567C81.9457 37.6239 81.0785 36.2879 80.4691 34.7489C79.8598 33.2098 79.5551 31.6122 79.5551 29.9559C79.5551 27.534 80.1527 25.325 81.348 23.329C82.5434 21.3329 84.102 19.9051 86.0238 19.0458L86.0238 19.5379C85.0629 20.0692 84.2738 20.7958 83.6566 21.7176C83.0395 22.6395 82.5785 23.8075 82.2738 25.2215C81.9691 26.6356 81.8168 28.1122 81.8168 29.6512C81.8168 31.3231 81.9457 32.8426 82.2035 34.2098C82.4066 35.2879 82.6527 36.1532 82.9418 36.8055C83.2309 37.4579 83.6195 38.0848 84.1078 38.6864C84.5961 39.2879 85.2348 39.8622 86.0238 40.409Z"/>
<path d="M97.7309 29.8504L97.7309 31.5145L95.598 31.5145L95.598 35.7098L93.6645 35.7098L93.6645 31.5145L86.9379 31.5145L86.9379 30.0145L94.309 19.4911L95.598 19.4911L95.598 29.8504L97.7309 29.8504ZM93.6645 29.8504L93.6645 21.9637L88.0863 29.8504L93.6645 29.8504Z"/>
<path d="M99.102 19.5379L99.102 19.0458C100.289 19.6317 101.278 20.3231 102.067 21.12C103.184 22.2606 104.047 23.5985 104.657 25.1336C105.266 26.6688 105.571 28.2684 105.571 29.9325C105.571 32.3543 104.975 34.5633 103.784 36.5594C102.592 38.5555 101.032 39.9833 99.102 40.8426L99.102 40.409C100.063 39.87 100.854 39.1415 101.475 38.2235C102.096 37.3055 102.557 36.1375 102.858 34.7196C103.159 33.3016 103.309 31.8231 103.309 30.284C103.309 28.62 103.18 27.1004 102.922 25.7254C102.727 24.6473 102.483 23.784 102.19 23.1356C101.897 22.4872 101.508 21.8622 101.024 21.2606C100.539 20.659 99.8988 20.0848 99.102 19.5379Z"/>
<path d="M109.368 21.3778L113.235 19.4911L113.621 19.4911L113.621 32.909C113.621 33.7997 113.659 34.3543 113.733 34.5731C113.807 34.7918 113.961 34.9598 114.196 35.077C114.43 35.1942 114.907 35.2606 115.625 35.2762L115.625 35.7098L109.649 35.7098L109.649 35.2762C110.399 35.2606 110.883 35.1961 111.102 35.0829C111.321 34.9696 111.473 34.8172 111.559 34.6258C111.645 34.4344 111.688 33.8622 111.688 32.909L111.688 24.3309C111.688 23.1747 111.649 22.4325 111.571 22.1043C111.516 21.8543 111.416 21.6708 111.272 21.5536C111.127 21.4364 110.954 21.3778 110.75 21.3778C110.461 21.3778 110.059 21.4989 109.543 21.7411L109.368 21.3778Z"/>
<path d="M128.973 19.8192L128.059 21.8114L123.278 21.8114L122.235 23.9442C124.305 24.2489 125.946 25.0184 127.157 26.2528C128.196 27.3153 128.715 28.5653 128.715 30.0028C128.715 30.8387 128.545 31.6122 128.205 32.3231C127.866 33.034 127.438 33.6395 126.922 34.1395C126.407 34.6395 125.832 35.0418 125.2 35.3465C124.301 35.7762 123.379 35.9911 122.434 35.9911C121.481 35.9911 120.788 35.829 120.354 35.5047C119.92 35.1805 119.704 34.8231 119.704 34.4325C119.704 34.2137 119.793 34.0204 119.973 33.8524C120.153 33.6844 120.379 33.6004 120.653 33.6004C120.856 33.6004 121.034 33.6317 121.186 33.6942C121.338 33.7567 121.598 33.9168 121.965 34.1747C122.551 34.5809 123.145 34.784 123.746 34.784C124.661 34.784 125.463 34.4383 126.155 33.7469C126.846 33.0555 127.192 32.2137 127.192 31.2215C127.192 30.2606 126.883 29.3641 126.266 28.5321C125.649 27.7 124.797 27.0575 123.711 26.6043C122.86 26.2528 121.7 26.0497 120.231 25.995L123.278 19.8192L128.973 19.8192Z"/>
<path d="M138.243 24.659L138.243 28.3153L137.856 28.3153C137.559 27.1668 137.178 26.3856 136.713 25.9715C136.248 25.5575 135.657 25.3504 134.938 25.3504C134.391 25.3504 133.95 25.495 133.614 25.784C133.278 26.0731 133.11 26.3934 133.11 26.745C133.11 27.1825 133.235 27.5575 133.485 27.87C133.727 28.1903 134.219 28.5301 134.961 28.8895L136.672 29.7215C138.258 30.495 139.051 31.5145 139.051 32.7801C139.051 33.7567 138.682 34.5438 137.944 35.1415C137.205 35.7391 136.379 36.0379 135.465 36.0379C134.809 36.0379 134.059 35.9208 133.215 35.6864C132.957 35.6083 132.746 35.5692 132.582 35.5692C132.403 35.5692 132.262 35.6708 132.161 35.8739L131.774 35.8739L131.774 32.0418L132.161 32.0418C132.379 33.1356 132.797 33.9598 133.414 34.5145C134.032 35.0692 134.723 35.3465 135.489 35.3465C136.028 35.3465 136.467 35.1883 136.807 34.8719C137.147 34.5555 137.317 34.1747 137.317 33.7293C137.317 33.1903 137.127 32.7372 136.748 32.37C136.37 32.0028 135.614 31.5379 134.481 30.9754C133.348 30.4129 132.606 29.9051 132.254 29.452C131.903 29.0067 131.727 28.4442 131.727 27.7645C131.727 26.8817 132.03 26.1434 132.635 25.5497C133.241 24.9559 134.024 24.659 134.985 24.659C135.407 24.659 135.918 24.7489 136.52 24.9286C136.918 25.0458 137.184 25.1043 137.317 25.1043C137.442 25.1043 137.539 25.077 137.61 25.0223C137.68 24.9676 137.762 24.8465 137.856 24.659L138.243 24.659Z"/>
</g>
<g opacity="1" vectornator:layerName="Group 3">
<g fill="#000000" opacity="1" stroke="none" vectornator:layerName="Text 12">
<path d="M146.145 131.553L145.032 134.612L135.657 134.612L135.657 134.178C138.415 131.662 140.356 129.608 141.481 128.014C142.606 126.42 143.169 124.963 143.169 123.643C143.169 122.635 142.86 121.807 142.243 121.159C141.626 120.51 140.887 120.186 140.028 120.186C139.247 120.186 138.546 120.414 137.924 120.871C137.303 121.329 136.844 121.998 136.548 122.881L136.114 122.881C136.309 121.436 136.811 120.327 137.62 119.553C138.428 118.78 139.438 118.393 140.649 118.393C141.938 118.393 143.014 118.807 143.878 119.635C144.741 120.463 145.173 121.44 145.173 122.565C145.173 123.37 144.985 124.174 144.61 124.979C144.032 126.245 143.094 127.584 141.798 128.998C139.852 131.123 138.637 132.405 138.153 132.842L142.301 132.842C143.145 132.842 143.737 132.811 144.077 132.748C144.417 132.686 144.723 132.559 144.997 132.368C145.27 132.176 145.508 131.905 145.712 131.553L146.145 131.553Z"/>
<path d="M149.954 120.28L153.821 118.393L154.208 118.393L154.208 131.811C154.208 132.702 154.245 133.256 154.319 133.475C154.393 133.694 154.548 133.862 154.782 133.979C155.016 134.096 155.493 134.162 156.212 134.178L156.212 134.612L150.235 134.612L150.235 134.178C150.985 134.162 151.469 134.098 151.688 133.985C151.907 133.871 152.059 133.719 152.145 133.528C152.231 133.336 152.274 132.764 152.274 131.811L152.274 123.233C152.274 122.077 152.235 121.334 152.157 121.006C152.102 120.756 152.003 120.573 151.858 120.455C151.714 120.338 151.54 120.28 151.337 120.28C151.048 120.28 150.645 120.401 150.13 120.643L149.954 120.28Z"/>
<path d="M170.145 131.553L169.032 134.612L159.657 134.612L159.657 134.178C162.415 131.662 164.356 129.608 165.481 128.014C166.606 126.42 167.169 124.963 167.169 123.643C167.169 122.635 166.86 121.807 166.243 121.159C165.626 120.51 164.887 120.186 164.028 120.186C163.247 120.186 162.546 120.414 161.924 120.871C161.303 121.329 160.844 121.998 160.548 122.881L160.114 122.881C160.309 121.436 160.811 120.327 161.62 119.553C162.428 118.78 163.438 118.393 164.649 118.393C165.938 118.393 167.014 118.807 167.878 119.635C168.741 120.463 169.173 121.44 169.173 122.565C169.173 123.37 168.985 124.174 168.61 124.979C168.032 126.245 167.094 127.584 165.798 128.998C163.852 131.123 162.637 132.405 162.153 132.842L166.301 132.842C167.145 132.842 167.737 132.811 168.077 132.748C168.417 132.686 168.723 132.559 168.997 132.368C169.27 132.176 169.508 131.905 169.712 131.553L170.145 131.553Z"/>
</g>
<g fill="#000000" opacity="1" stroke="none" vectornator:layerName="Text 13">
<path d="M38.3126 131.553L37.1994 134.612L27.8244 134.612L27.8244 134.178C30.5822 131.662 32.5236 129.608 33.6486 128.014C34.7736 126.42 35.3361 124.963 35.3361 123.643C35.3361 122.635 35.0275 121.807 34.4103 121.159C33.7931 120.51 33.0548 120.186 32.1954 120.186C31.4142 120.186 30.713 120.414 30.0919 120.871C29.4708 121.329 29.0119 121.998 28.715 122.881L28.2814 122.881C28.4767 121.436 28.9786 120.327 29.7872 119.553C30.5958 118.78 31.6056 118.393 32.8165 118.393C34.1056 118.393 35.1818 118.807 36.0451 119.635C36.9083 120.463 37.34 121.44 37.34 122.565C37.34 123.37 37.1525 124.174 36.7775 124.979C36.1994 126.245 35.2619 127.584 33.965 128.998C32.0197 131.123 30.8048 132.405 30.3204 132.842L34.4689 132.842C35.3126 132.842 35.9044 132.811 36.2443 132.748C36.5841 132.686 36.8908 132.559 37.1642 132.368C37.4376 132.176 37.6759 131.905 37.879 131.553L38.3126 131.553Z"/>
<path d="M42.1212 120.28L45.9884 118.393L46.3751 118.393L46.3751 131.811C46.3751 132.702 46.4122 133.256 46.4865 133.475C46.5607 133.694 46.715 133.862 46.9494 133.979C47.1837 134.096 47.6603 134.162 48.379 134.178L48.379 134.612L42.4025 134.612L42.4025 134.178C43.1525 134.162 43.6369 134.098 43.8556 133.985C44.0744 133.871 44.2267 133.719 44.3126 133.528C44.3986 133.336 44.4415 132.764 44.4415 131.811L44.4415 123.233C44.4415 122.077 44.4025 121.334 44.3244 121.006C44.2697 120.756 44.1701 120.573 44.0255 120.455C43.881 120.338 43.7072 120.28 43.504 120.28C43.215 120.28 42.8126 120.401 42.297 120.643L42.1212 120.28Z"/>
<path d="M53.7228 118.721L62.2423 118.721L62.2423 119.166L56.9454 134.94L55.6329 134.94L60.379 120.631L56.0079 120.631C55.1251 120.631 54.4962 120.737 54.1212 120.948C53.465 121.307 52.9376 121.862 52.5392 122.612L52.1994 122.483L53.7228 118.721Z"/>
</g>
</g>
<g opacity="1" vectornator:layerName="Curve 21">
<path d="M99.225 103.921C99.225 108.317 99.225 144.517 99.225 144.517" fill="none" stroke="#000000" stroke-linecap="round" stroke-linejoin="miter" stroke-width="3"/>
<g fill="#000000" stroke="none">
<path d="M99.225 106.546L109.725 114.421L99.225 93.4205L88.725 114.421L99.225 106.546Z" fill="#000000"/>
</g>
</g>
<g opacity="1" vectornator:layerName="Group 1">
<path d="M60.9966 184.127L99.225 42.3231" fill="none" opacity="1" stroke="#000000" stroke-linecap="round" stroke-linejoin="miter" stroke-width="3" vectornator:layerName="Curve 23"/>
<path d="M137.453 184.127L99.225 42.3231" fill="none" opacity="1" stroke="#000000" stroke-linecap="round" stroke-linejoin="miter" stroke-width="3" vectornator:layerName="Curve 24"/>
</g>
</g>
</svg>
