<?xml version="1.0" encoding="UTF-8" standalone="no"?>
<!DOCTYPE svg PUBLIC "-//W3C//DTD SVG 1.1//EN" "http://www.w3.org/Graphics/SVG/1.1/DTD/svg11.dtd">
<!-- Created with Vectornator (http://vectornator.io/) -->
<svg height="100%" stroke-miterlimit="10" style="fill-rule:nonzero;clip-rule:evenodd;stroke-linecap:round;stroke-linejoin:round;" version="1.1" viewBox="0 0 586.958 595.35" width="100%" xml:space="preserve" xmlns="http://www.w3.org/2000/svg" xmlns:vectornator="http://vectornator.io" xmlns:xlink="http://www.w3.org/1999/xlink">
<defs/>
<g id="Sloop-rig" vectornator:layerName="Sloop rig">
<path d="M130.472 468.315L335.615 24.8591L335.615 468.315L130.472 468.315Z" fill="#dddddd" fill-rule="nonzero" opacity="1" stroke="#000000" stroke-linecap="butt" stroke-linejoin="miter" stroke-width="1" vectornator:layerName="Mainsail"/>
<path d="M518.379 532.02L341.285 30.9226L341.285 458.845L518.379 532.02Z" fill="#dddddd" fill-rule="nonzero" opacity="1" stroke="#000000" stroke-linecap="butt" stroke-linejoin="miter" stroke-width="1" vectornator:layerName="Jib"/>
<path d="M335.615 19.5851L341.285 19.5851L341.285 544.448L335.615 544.448L335.615 19.5851Z" fill="#dddddd" fill-rule="nonzero" opacity="1" stroke="#000000" stroke-linecap="butt" stroke-linejoin="miter" stroke-width="3" vectornator:layerName="Mast mast"/>
<path d="M127.874 468.315L335.615 468.315L335.615 473.985L127.874 473.985L127.874 468.315Z" fill="#dddddd" fill-rule="nonzero" opacity="1" stroke="#000000" stroke-linecap="butt" stroke-linejoin="miter" stroke-width="3" vectornator:layerName="Boom"/>
<path d="M338.45 19.5851L83.5812 544.448" fill="none" opacity="1" stroke="#000000" stroke-linecap="butt" stroke-linejoin="miter" stroke-width="1" vectornator:layerName="Curve 1"/>
<g fill="#000000" opacity="1" stroke="none" vectornator:layerName="Text 4">
<path d="M205.255 420.168L189.904 386.74L189.904 413.283C189.904 415.725 190.167 417.248 190.695 417.853C191.417 418.674 192.56 419.084 194.122 419.084L195.529 419.084L195.529 420.168L181.7 420.168L181.7 419.084L183.107 419.084C184.786 419.084 185.978 418.576 186.681 417.56C187.111 416.935 187.325 415.51 187.325 413.283L187.325 387.326C187.325 385.568 187.13 384.299 186.74 383.517C186.466 382.951 185.963 382.477 185.231 382.097C184.498 381.716 183.322 381.525 181.7 381.525L181.7 380.441L192.95 380.441L207.365 411.525L221.544 380.441L232.794 380.441L232.794 381.525L231.417 381.525C229.718 381.525 228.517 382.033 227.814 383.049C227.384 383.674 227.169 385.1 227.169 387.326L227.169 413.283C227.169 415.725 227.443 417.248 227.99 417.853C228.712 418.674 229.855 419.084 231.417 419.084L232.794 419.084L232.794 420.168L215.919 420.168L215.919 419.084L217.325 419.084C219.025 419.084 220.216 418.576 220.9 417.56C221.329 416.935 221.544 415.51 221.544 413.283L221.544 386.74L206.222 420.168L205.255 420.168Z"/>
<path d="M251.134 416.301C248.38 418.43 246.652 419.66 245.949 419.992C244.894 420.48 243.771 420.725 242.579 420.725C240.724 420.725 239.196 420.09 237.994 418.82C236.793 417.551 236.193 415.881 236.193 413.81C236.193 412.502 236.486 411.369 237.072 410.412C237.872 409.084 239.264 407.834 241.246 406.662C243.229 405.49 246.525 404.064 251.134 402.385L251.134 401.33C251.134 398.654 250.709 396.818 249.86 395.822C249.01 394.826 247.775 394.328 246.154 394.328C244.923 394.328 243.947 394.66 243.224 395.324C242.482 395.988 242.111 396.75 242.111 397.609L242.169 399.309C242.169 400.207 241.94 400.9 241.481 401.389C241.022 401.877 240.421 402.121 239.679 402.121C238.956 402.121 238.365 401.867 237.907 401.359C237.448 400.851 237.218 400.158 237.218 399.279C237.218 397.6 238.077 396.057 239.796 394.65C241.515 393.244 243.927 392.541 247.032 392.541C249.415 392.541 251.368 392.941 252.892 393.742C254.044 394.348 254.894 395.295 255.441 396.584C255.792 397.424 255.968 399.142 255.968 401.74L255.968 410.851C255.968 413.41 256.017 414.977 256.115 415.554C256.212 416.13 256.373 416.516 256.598 416.711C256.823 416.906 257.081 417.004 257.374 417.004C257.687 417.004 257.96 416.935 258.195 416.799C258.605 416.545 259.396 415.832 260.568 414.66L260.568 416.301C258.38 419.23 256.29 420.695 254.298 420.695C253.341 420.695 252.579 420.363 252.013 419.699C251.447 419.035 251.154 417.902 251.134 416.301ZM251.134 414.396L251.134 404.172C248.185 405.344 246.281 406.174 245.421 406.662C243.878 407.521 242.775 408.42 242.111 409.357C241.447 410.295 241.115 411.32 241.115 412.434C241.115 413.84 241.534 415.007 242.374 415.934C243.214 416.862 244.181 417.326 245.275 417.326C246.759 417.326 248.712 416.35 251.134 414.396Z"/>
<path d="M269.386 378.508C270.206 378.508 270.905 378.796 271.481 379.372C272.057 379.948 272.345 380.646 272.345 381.467C272.345 382.287 272.057 382.99 271.481 383.576C270.905 384.162 270.206 384.455 269.386 384.455C268.566 384.455 267.863 384.162 267.277 383.576C266.691 382.99 266.398 382.287 266.398 381.467C266.398 380.646 266.686 379.948 267.262 379.372C267.838 378.796 268.546 378.508 269.386 378.508ZM271.818 392.541L271.818 414.103C271.818 415.783 271.94 416.901 272.184 417.458C272.428 418.015 272.789 418.43 273.268 418.703C273.746 418.976 274.62 419.113 275.89 419.113L275.89 420.168L262.853 420.168L262.853 419.113C264.161 419.113 265.04 418.986 265.49 418.732C265.939 418.478 266.295 418.059 266.559 417.473C266.823 416.887 266.954 415.764 266.954 414.103L266.954 403.762C266.954 400.851 266.866 398.967 266.691 398.107C266.554 397.482 266.339 397.048 266.046 396.804C265.753 396.559 265.353 396.437 264.845 396.437C264.298 396.437 263.634 396.584 262.853 396.877L262.443 395.822L270.529 392.541L271.818 392.541Z"/>
<path d="M287.052 398.225C290.197 394.435 293.195 392.541 296.046 392.541C297.511 392.541 298.771 392.907 299.825 393.64C300.88 394.372 301.72 395.578 302.345 397.258C302.775 398.43 302.99 400.226 302.99 402.648L302.99 414.103C302.99 415.803 303.126 416.955 303.4 417.56C303.615 418.049 303.961 418.43 304.44 418.703C304.918 418.976 305.802 419.113 307.091 419.113L307.091 420.168L293.82 420.168L293.82 419.113L294.376 419.113C295.626 419.113 296.5 418.923 296.998 418.542C297.496 418.161 297.843 417.6 298.038 416.857C298.116 416.564 298.156 415.646 298.156 414.103L298.156 403.117C298.156 400.676 297.838 398.903 297.203 397.8C296.569 396.696 295.499 396.144 293.995 396.144C291.671 396.144 289.357 397.414 287.052 399.953L287.052 414.103C287.052 415.92 287.159 417.043 287.374 417.473C287.648 418.039 288.024 418.454 288.502 418.718C288.981 418.981 289.952 419.113 291.417 419.113L291.417 420.168L278.146 420.168L278.146 419.113L278.732 419.113C280.099 419.113 281.022 418.767 281.5 418.073C281.979 417.38 282.218 416.057 282.218 414.103L282.218 404.142C282.218 400.92 282.145 398.957 281.998 398.254C281.852 397.551 281.627 397.072 281.324 396.818C281.022 396.564 280.616 396.437 280.109 396.437C279.562 396.437 278.907 396.584 278.146 396.877L277.706 395.822L285.792 392.541L287.052 392.541L287.052 398.225Z"/>
<path d="M314.855 414.484C315.773 414.484 316.544 414.802 317.169 415.436C317.794 416.071 318.107 416.838 318.107 417.736C318.107 418.635 317.789 419.401 317.155 420.036C316.52 420.671 315.753 420.988 314.855 420.988C313.956 420.988 313.19 420.671 312.555 420.036C311.92 419.401 311.603 418.635 311.603 417.736C311.603 416.818 311.92 416.047 312.555 415.422C313.19 414.797 313.956 414.484 314.855 414.484Z"/>
</g>
<g fill="#000000" opacity="1" stroke="none" vectornator:layerName="Text 5">
<path d="M369.241 381.525L369.241 380.441L386.262 380.441L386.262 381.525L384.827 381.525C383.206 381.525 382.024 382.004 381.282 382.961C380.813 383.586 380.579 385.09 380.579 387.473L380.579 406.896C380.579 409.885 380.252 412.307 379.597 414.162C378.943 416.017 377.815 417.634 376.214 419.011C374.612 420.388 372.678 421.076 370.413 421.076C368.577 421.076 367.132 420.622 366.077 419.714C365.022 418.806 364.495 417.766 364.495 416.594C364.495 415.637 364.739 414.914 365.227 414.426C365.872 413.82 366.624 413.517 367.483 413.517C368.108 413.517 368.67 413.723 369.168 414.133C369.666 414.543 370.296 415.637 371.057 417.414C371.507 418.469 372.083 418.996 372.786 418.996C373.313 418.996 373.806 418.674 374.265 418.029C374.724 417.385 374.954 416.242 374.954 414.601L374.954 387.473C374.954 385.461 374.827 384.133 374.573 383.488C374.378 383 373.968 382.58 373.343 382.228C372.503 381.76 371.614 381.525 370.677 381.525L369.241 381.525Z"/>
<path d="M395.315 378.508C396.136 378.508 396.834 378.796 397.41 379.372C397.986 379.948 398.274 380.646 398.274 381.467C398.274 382.287 397.986 382.99 397.41 383.576C396.834 384.162 396.136 384.455 395.315 384.455C394.495 384.455 393.792 384.162 393.206 383.576C392.62 382.99 392.327 382.287 392.327 381.467C392.327 380.646 392.615 379.948 393.191 379.372C393.767 378.796 394.475 378.508 395.315 378.508ZM397.747 392.541L397.747 414.103C397.747 415.783 397.869 416.901 398.113 417.458C398.357 418.015 398.719 418.43 399.197 418.703C399.676 418.976 400.55 419.113 401.819 419.113L401.819 420.168L388.782 420.168L388.782 419.113C390.091 419.113 390.969 418.986 391.419 418.732C391.868 418.478 392.224 418.059 392.488 417.473C392.752 416.887 392.884 415.764 392.884 414.103L392.884 403.762C392.884 400.851 392.796 398.967 392.62 398.107C392.483 397.482 392.268 397.048 391.975 396.804C391.682 396.559 391.282 396.437 390.774 396.437C390.227 396.437 389.563 396.584 388.782 396.877L388.372 395.822L396.458 392.541L397.747 392.541Z"/>
<path d="M412.512 397.961C415.11 394.348 417.913 392.541 420.921 392.541C423.675 392.541 426.077 393.718 428.128 396.071C430.178 398.425 431.204 401.642 431.204 405.725C431.204 410.49 429.622 414.328 426.458 417.238C423.743 419.738 420.716 420.988 417.376 420.988C415.813 420.988 414.226 420.705 412.615 420.139C411.004 419.572 409.358 418.723 407.678 417.59L407.678 389.787C407.678 386.74 407.605 384.865 407.459 384.162C407.312 383.459 407.083 382.98 406.77 382.726C406.458 382.473 406.067 382.346 405.598 382.346C405.052 382.346 404.368 382.502 403.548 382.814L403.137 381.789L411.194 378.508L412.512 378.508L412.512 397.961ZM412.512 399.836L412.512 415.891C413.509 416.867 414.539 417.604 415.603 418.102C416.668 418.601 417.757 418.85 418.87 418.85C420.647 418.85 422.303 417.873 423.836 415.92C425.369 413.967 426.136 411.125 426.136 407.394C426.136 403.957 425.369 401.315 423.836 399.47C422.303 397.624 420.559 396.701 418.606 396.701C417.571 396.701 416.536 396.965 415.501 397.492C414.719 397.883 413.723 398.664 412.512 399.836Z"/>
</g>
</g>
<g id="Cutter-rig" vectornator:layerName="Cutter rig" visibility="hidden">
<path d="M131.081 468.315L312.615 24.8591L312.615 468.315L131.081 468.315Z" fill="#dddddd" fill-rule="nonzero" opacity="1" stroke="#000000" stroke-linecap="butt" stroke-linejoin="miter" stroke-width="1" vectornator:layerName="Mainsail"/>
<path d="M518.379 532.02L318.285 30.9226L318.285 431.027L518.379 532.02Z" fill="#dddddd" fill-rule="nonzero" opacity="1" stroke="#000000" stroke-linecap="butt" stroke-linejoin="miter" stroke-width="1" vectornator:layerName="Jib"/>
<path d="M452.74 532.02L318.285 203.549L318.285 465.819L452.74 532.02Z" fill="#dddddd" fill-rule="nonzero" opacity="1" stroke="#000000" stroke-linecap="butt" stroke-linejoin="miter" stroke-width="1" vectornator:layerName="Staysail"/>
<path d="M312.615 19.5851L318.285 19.5851L318.285 544.448L312.615 544.448L312.615 19.5851Z" fill="#dddddd" fill-rule="nonzero" opacity="1" stroke="#000000" stroke-linecap="butt" stroke-linejoin="miter" stroke-width="3" vectornator:layerName="Main mast"/>
<path d="M128.782 468.315L312.615 468.315L312.615 473.985L128.782 473.985L128.782 468.315Z" fill="#dddddd" fill-rule="nonzero" opacity="1" stroke="#000000" stroke-linecap="butt" stroke-linejoin="miter" stroke-width="3" vectornator:layerName="Boom"/>
<g opacity="1" vectornator:layerName="Group 1">
<g fill="#000000" opacity="1" stroke="none" vectornator:layerName="Text 2">
<path d="M377.94 383.082L365.402 388.703L364.959 387.714C367.221 386.314 368.879 384.881 369.934 383.413C370.988 381.945 371.59 380.257 371.741 378.348C371.891 376.44 371.599 374.666 370.864 373.027C370.033 371.173 368.78 369.894 367.105 369.189C365.43 368.485 363.871 368.456 362.427 369.103C361.322 369.599 360.487 370.433 359.922 371.607C359.08 373.311 358.476 376.739 358.11 381.89C357.81 386.092 357.453 389.029 357.037 390.703C356.621 392.377 355.903 393.844 354.884 395.104C353.864 396.363 352.633 397.317 351.189 397.964C348.445 399.194 345.601 399.19 342.66 397.951C339.718 396.712 337.496 394.418 335.993 391.067C335.522 390.016 335.159 388.99 334.904 387.992C334.745 387.399 334.557 386.108 334.34 384.119C334.122 382.13 333.909 380.903 333.702 380.44C333.502 379.994 333.21 379.702 332.827 379.564C332.444 379.425 331.806 379.481 330.912 379.732L330.469 378.743L342.9 373.17L343.343 374.159C340.949 375.789 339.281 377.286 338.341 378.649C337.4 380.013 336.864 381.693 336.731 383.689C336.599 385.685 336.964 387.646 337.827 389.571C338.826 391.799 340.203 393.295 341.958 394.06C343.714 394.824 345.394 394.847 346.998 394.128C347.889 393.729 348.679 393.08 349.368 392.183C350.057 391.285 350.562 390.144 350.883 388.758C351.106 387.824 351.391 385.416 351.739 381.536C352.086 377.656 352.483 374.829 352.93 373.056C353.376 371.283 354.071 369.778 355.015 368.541C355.959 367.305 357.18 366.351 358.677 365.68C361.279 364.513 363.968 364.507 366.743 365.66C369.518 366.813 371.596 368.931 372.979 372.014C373.842 373.939 374.284 376.191 374.306 378.771C374.308 379.969 374.401 380.773 374.585 381.183C374.792 381.646 375.1 381.963 375.508 382.133C375.916 382.304 376.579 382.29 377.497 382.093L377.94 383.082Z"/>
<path d="M379.747 399.288L371.701 402.895L374.265 408.616L372.394 409.455L369.829 403.734L353.95 410.853C352.364 411.564 351.396 412.271 351.047 412.973C350.699 413.675 350.684 414.383 351.004 415.096C351.267 415.684 351.706 416.172 352.319 416.561C352.932 416.95 353.663 417.136 354.511 417.119L354.979 418.162C352.952 418.321 351.243 418.028 349.849 417.283C348.455 416.538 347.487 415.559 346.944 414.347C346.576 413.527 346.444 412.624 346.547 411.636C346.65 410.648 347.041 409.777 347.719 409.023C348.398 408.269 349.62 407.497 351.384 406.706L367.852 399.323L366.114 395.447L366.996 395.051C367.828 395.856 368.941 396.561 370.336 397.166C371.731 397.771 373.25 398.187 374.893 398.414C375.754 398.521 377.248 398.536 379.376 398.459L379.747 399.288Z"/>
<path d="M360.593 434.266C357.524 432.624 355.694 431.55 355.103 431.045C354.226 430.282 353.544 429.357 353.057 428.27C352.298 426.577 352.252 424.922 352.919 423.307C353.586 421.692 354.864 420.46 356.753 419.614C357.947 419.078 359.101 418.882 360.214 419.025C361.753 419.213 363.463 419.971 365.344 421.301C367.224 422.63 369.873 425.055 373.291 428.574L374.254 428.142C376.696 427.047 378.197 425.909 378.758 424.726C379.32 423.543 379.269 422.212 378.606 420.733C378.102 419.61 377.4 418.855 376.498 418.467C375.589 418.062 374.742 418.035 373.958 418.386L372.431 419.135C371.611 419.502 370.885 419.576 370.251 419.357C369.618 419.138 369.15 418.69 368.846 418.013C368.55 417.353 368.54 416.71 368.816 416.084C369.092 415.457 369.63 414.964 370.432 414.605C371.965 413.918 373.725 414.071 375.711 415.064C377.697 416.057 379.326 417.97 380.596 420.804C381.571 422.978 382.004 424.924 381.897 426.642C381.816 427.941 381.299 429.104 380.346 430.13C379.724 430.795 378.227 431.658 375.857 432.721L367.543 436.448C365.208 437.495 363.798 438.181 363.312 438.505C362.826 438.83 362.54 439.135 362.454 439.42C362.368 439.705 362.384 439.981 362.504 440.248C362.632 440.533 362.806 440.755 363.027 440.913C363.426 441.183 364.401 441.613 365.949 442.203L364.452 442.874C360.884 442.077 358.692 440.769 357.877 438.951C357.486 438.078 357.477 437.247 357.852 436.458C358.226 435.67 359.14 434.939 360.593 434.266ZM362.331 433.487L371.661 429.305C369.385 427.093 367.848 425.695 367.051 425.11C365.636 424.054 364.365 423.414 363.238 423.192C362.111 422.97 361.039 423.086 360.023 423.541C358.74 424.117 357.847 424.977 357.344 426.123C356.841 427.269 356.813 428.341 357.26 429.339C357.868 430.694 359.558 432.076 362.331 433.487Z"/>
<path d="M385.603 433.906L390.72 445.321L389.731 445.765L389.48 445.203C389.12 444.401 388.677 443.878 388.149 443.633C387.622 443.387 387.1 443.381 386.583 443.612C385.888 443.924 385.057 444.649 384.091 445.789L374.413 457.287L390.397 456.703C391.264 456.679 392.053 456.507 392.766 456.187C393.087 456.043 393.3 455.873 393.404 455.676C393.536 455.446 393.592 455.153 393.572 454.798C393.552 454.443 393.371 453.883 393.027 453.116L394.016 452.673L397.588 460.64L396.598 461.083C396.232 460.456 395.861 460.012 395.488 459.751C395.114 459.49 394.537 459.278 393.757 459.114C393.436 459.065 392.614 459.07 391.291 459.128L362.387 460.11C359.585 460.211 357.228 459.753 355.317 458.736C353.406 457.72 352.127 456.49 351.48 455.047C351.009 453.995 350.924 452.995 351.227 452.046C351.529 451.097 352.072 450.447 352.856 450.096C353.605 449.76 354.316 449.735 354.99 450.022C355.665 450.308 356.193 450.879 356.577 451.734C356.841 452.323 357.004 453.213 357.067 454.404C357.12 455.237 357.186 455.742 357.266 455.921C357.505 456.455 358.043 456.915 358.879 457.3C359.716 457.685 361.071 457.843 362.944 457.773L367.974 457.606L382.504 440.529C382.936 440.014 383.431 439.278 383.987 438.323C384.411 437.598 384.666 437.044 384.752 436.663C384.853 436.126 384.807 435.354 384.614 434.35L385.603 433.906Z"/>
<path d="M379.904 472.902C380.279 473.739 380.305 474.573 379.982 475.403C379.658 476.233 379.087 476.832 378.267 477.199C377.447 477.567 376.618 477.591 375.779 477.271C374.94 476.952 374.337 476.382 373.969 475.562C373.602 474.742 373.578 473.913 373.897 473.074C374.217 472.235 374.786 471.632 375.606 471.264C376.444 470.889 377.278 470.863 378.108 471.186C378.938 471.51 379.536 472.082 379.904 472.902Z"/>
</g>
</g>
<g fill="#000000" opacity="1" stroke="none" vectornator:layerName="Text 4">
<path d="M191.015 444.844L175.664 411.416L175.664 437.959C175.664 440.4 175.928 441.924 176.455 442.529C177.178 443.35 178.32 443.76 179.883 443.76L181.289 443.76L181.289 444.844L167.461 444.844L167.461 443.76L168.867 443.76C170.547 443.76 171.738 443.252 172.441 442.236C172.871 441.611 173.086 440.186 173.086 437.959L173.086 412.002C173.086 410.244 172.89 408.975 172.5 408.193C172.226 407.627 171.723 407.153 170.991 406.772C170.259 406.392 169.082 406.201 167.461 406.201L167.461 405.117L178.711 405.117L193.125 436.201L207.304 405.117L218.554 405.117L218.554 406.201L217.178 406.201C215.478 406.201 214.277 406.709 213.574 407.725C213.144 408.35 212.929 409.775 212.929 412.002L212.929 437.959C212.929 440.4 213.203 441.924 213.75 442.529C214.472 443.35 215.615 443.76 217.178 443.76L218.554 443.76L218.554 444.844L201.679 444.844L201.679 443.76L203.086 443.76C204.785 443.76 205.976 443.252 206.66 442.236C207.09 441.611 207.304 440.186 207.304 437.959L207.304 411.416L191.982 444.844L191.015 444.844Z"/>
<path d="M236.894 440.977C234.14 443.105 232.412 444.336 231.709 444.668C230.654 445.156 229.531 445.4 228.34 445.4C226.484 445.4 224.956 444.766 223.755 443.496C222.554 442.227 221.953 440.557 221.953 438.486C221.953 437.178 222.246 436.045 222.832 435.088C223.633 433.76 225.024 432.51 227.007 431.338C228.989 430.166 232.285 428.74 236.894 427.061L236.894 426.006C236.894 423.33 236.47 421.494 235.62 420.498C234.77 419.502 233.535 419.004 231.914 419.004C230.683 419.004 229.707 419.336 228.984 420C228.242 420.664 227.871 421.426 227.871 422.285L227.929 423.984C227.929 424.883 227.7 425.576 227.241 426.064C226.782 426.553 226.181 426.797 225.439 426.797C224.717 426.797 224.126 426.543 223.667 426.035C223.208 425.527 222.978 424.834 222.978 423.955C222.978 422.275 223.838 420.732 225.556 419.326C227.275 417.92 229.687 417.217 232.793 417.217C235.176 417.217 237.129 417.617 238.652 418.418C239.804 419.023 240.654 419.971 241.201 421.26C241.553 422.1 241.728 423.818 241.728 426.416L241.728 435.527C241.728 438.086 241.777 439.653 241.875 440.23C241.972 440.806 242.134 441.191 242.358 441.387C242.583 441.582 242.842 441.68 243.135 441.68C243.447 441.68 243.721 441.611 243.955 441.475C244.365 441.221 245.156 440.508 246.328 439.336L246.328 440.977C244.14 443.906 242.051 445.371 240.058 445.371C239.101 445.371 238.34 445.039 237.773 444.375C237.207 443.711 236.914 442.578 236.894 440.977ZM236.894 439.072L236.894 428.848C233.945 430.02 232.041 430.85 231.181 431.338C229.638 432.197 228.535 433.096 227.871 434.033C227.207 434.971 226.875 435.996 226.875 437.109C226.875 438.516 227.295 439.683 228.135 440.61C228.974 441.538 229.941 442.002 231.035 442.002C232.519 442.002 234.472 441.025 236.894 439.072Z"/>
<path d="M255.146 403.184C255.967 403.184 256.665 403.472 257.241 404.048C257.817 404.624 258.105 405.322 258.105 406.143C258.105 406.963 257.817 407.666 257.241 408.252C256.665 408.838 255.967 409.131 255.146 409.131C254.326 409.131 253.623 408.838 253.037 408.252C252.451 407.666 252.158 406.963 252.158 406.143C252.158 405.322 252.446 404.624 253.022 404.048C253.598 403.472 254.306 403.184 255.146 403.184ZM257.578 417.217L257.578 438.779C257.578 440.459 257.7 441.577 257.944 442.134C258.188 442.69 258.55 443.105 259.028 443.379C259.507 443.652 260.381 443.789 261.65 443.789L261.65 444.844L248.613 444.844L248.613 443.789C249.922 443.789 250.801 443.662 251.25 443.408C251.699 443.154 252.055 442.734 252.319 442.148C252.583 441.563 252.715 440.439 252.715 438.779L252.715 428.438C252.715 425.527 252.627 423.643 252.451 422.783C252.314 422.158 252.099 421.724 251.806 421.48C251.513 421.235 251.113 421.113 250.605 421.113C250.058 421.113 249.394 421.26 248.613 421.553L248.203 420.498L256.289 417.217L257.578 417.217Z"/>
<path d="M272.812 422.9C275.957 419.111 278.955 417.217 281.806 417.217C283.271 417.217 284.531 417.583 285.586 418.315C286.64 419.048 287.48 420.254 288.105 421.934C288.535 423.105 288.75 424.902 288.75 427.324L288.75 438.779C288.75 440.479 288.887 441.631 289.16 442.236C289.375 442.725 289.721 443.105 290.2 443.379C290.679 443.652 291.562 443.789 292.851 443.789L292.851 444.844L279.58 444.844L279.58 443.789L280.137 443.789C281.387 443.789 282.261 443.599 282.759 443.218C283.257 442.837 283.603 442.275 283.799 441.533C283.877 441.24 283.916 440.322 283.916 438.779L283.916 427.793C283.916 425.352 283.598 423.579 282.964 422.476C282.329 421.372 281.26 420.82 279.756 420.82C277.431 420.82 275.117 422.09 272.812 424.629L272.812 438.779C272.812 440.596 272.92 441.719 273.135 442.148C273.408 442.715 273.784 443.13 274.262 443.394C274.741 443.657 275.713 443.789 277.178 443.789L277.178 444.844L263.906 444.844L263.906 443.789L264.492 443.789C265.859 443.789 266.782 443.442 267.261 442.749C267.739 442.056 267.978 440.732 267.978 438.779L267.978 428.818C267.978 425.596 267.905 423.633 267.759 422.93C267.612 422.227 267.387 421.748 267.085 421.494C266.782 421.24 266.377 421.113 265.869 421.113C265.322 421.113 264.668 421.26 263.906 421.553L263.467 420.498L271.553 417.217L272.812 417.217L272.812 422.9Z"/>
<path d="M300.615 439.16C301.533 439.16 302.304 439.478 302.929 440.112C303.554 440.747 303.867 441.514 303.867 442.412C303.867 443.311 303.55 444.077 302.915 444.712C302.28 445.347 301.513 445.664 300.615 445.664C299.717 445.664 298.95 445.347 298.315 444.712C297.68 444.077 297.363 443.311 297.363 442.412C297.363 441.494 297.68 440.723 298.315 440.098C298.95 439.473 299.717 439.16 300.615 439.16Z"/>
</g>
<g fill="#000000" opacity="1" stroke="none" vectornator:layerName="Text 3">
<path d="M406.344 279.469L411.647 292.272L410.645 292.687L410.354 291.983C410.159 291.514 409.668 290.914 408.879 290.184C408.09 289.454 407.155 288.879 406.073 288.461C404.99 288.042 403.35 287.654 401.151 287.296L383.546 284.218L374.343 288.03C372.087 288.964 370.784 289.799 370.434 290.536C369.96 291.536 370.03 292.776 370.642 294.255L371.136 295.446L370.134 295.861L363.677 280.27L364.679 279.855L365.217 281.155C365.859 282.707 366.784 283.613 367.992 283.874C368.734 284.032 370.133 283.685 372.19 282.833L380.879 279.234L392.083 262.798C393.394 260.86 394.188 259.585 394.463 258.974C394.739 258.363 394.916 257.26 394.994 255.663C395.025 255.227 394.899 254.666 394.615 253.981L395.616 253.566L402.118 269.265L401.117 269.68L400.78 268.868C400.429 268.02 399.907 267.321 399.215 266.773C398.523 266.225 397.78 266.115 396.986 266.444C396.336 266.713 395.391 267.749 394.151 269.552L385.495 282.111L399.791 284.625C401.936 285.005 403.423 285.024 404.253 284.68C404.758 284.471 405.155 284.153 405.444 283.727C405.732 283.301 405.889 282.797 405.912 282.217C405.936 281.636 405.746 280.859 405.343 279.884L406.344 279.469Z"/>
<path d="M383.09 317.037C380.069 315.307 378.271 314.181 377.695 313.658C376.84 312.871 376.185 311.926 375.729 310.826C375.019 309.111 375.021 307.457 375.734 305.861C376.448 304.266 377.761 303.072 379.673 302.28C380.882 301.779 382.041 301.616 383.149 301.791C384.683 302.023 386.37 302.83 388.211 304.213C390.053 305.597 392.631 308.096 395.947 311.712L396.921 311.308C399.393 310.285 400.927 309.19 401.522 308.024C402.117 306.858 402.105 305.526 401.485 304.028C401.014 302.891 400.333 302.116 399.443 301.702C398.546 301.271 397.7 301.219 396.906 301.548L395.359 302.252C394.528 302.596 393.8 302.649 393.173 302.412C392.547 302.175 392.091 301.714 391.807 301.028C391.531 300.36 391.539 299.717 391.833 299.099C392.126 298.48 392.679 298.003 393.491 297.667C395.043 297.024 396.797 297.228 398.754 298.278C400.711 299.327 402.284 301.287 403.472 304.156C404.384 306.358 404.761 308.315 404.604 310.029C404.486 311.326 403.936 312.473 402.954 313.471C402.312 314.118 400.792 314.938 398.392 315.932L389.974 319.418C387.61 320.397 386.18 321.042 385.686 321.352C385.191 321.663 384.896 321.96 384.801 322.242C384.707 322.524 384.716 322.8 384.828 323.071C384.947 323.36 385.115 323.586 385.331 323.751C385.723 324.032 386.684 324.49 388.215 325.125L386.699 325.752C383.155 324.852 381.002 323.482 380.24 321.642C379.874 320.757 379.889 319.927 380.286 319.149C380.683 318.372 381.617 317.668 383.09 317.037ZM384.849 316.308L394.296 312.396C392.084 310.119 390.589 308.678 389.809 308.071C388.425 306.974 387.172 306.298 386.052 306.043C384.932 305.788 383.857 305.874 382.829 306.3C381.53 306.838 380.612 307.673 380.076 308.803C379.54 309.934 379.482 311.005 379.9 312.016C380.468 313.387 382.118 314.818 384.849 316.308Z"/>
<path d="M407.155 327.904C411.859 329.359 414.757 331.404 415.848 334.039C416.408 335.392 416.552 336.696 416.279 337.951C416.006 339.205 415.213 340.443 413.9 341.663C412.982 342.508 411.404 343.394 409.166 344.321L398.583 348.704C397.013 349.354 396.001 349.921 395.546 350.406C395.177 350.791 394.958 351.257 394.888 351.804C394.819 352.35 395.03 353.219 395.524 354.41L394.549 354.814L389.471 342.552L390.446 342.149L390.659 342.663C391.137 343.818 391.647 344.553 392.19 344.867C392.732 345.181 393.384 345.287 394.144 345.183C394.445 345.143 395.308 344.828 396.733 344.238L406.883 340.034C409.139 339.1 410.655 338.129 411.432 337.12C412.208 336.111 412.309 334.912 411.734 333.523C410.844 331.375 408.786 329.723 405.558 328.565L392.485 333.979C390.806 334.674 389.81 335.203 389.495 335.566C389.076 336.036 388.837 336.542 388.776 337.085C388.716 337.628 388.966 338.576 389.526 339.929L388.552 340.333L383.474 328.071L384.448 327.668L384.672 328.209C385.196 329.472 385.869 330.192 386.693 330.369C387.516 330.546 388.83 330.26 390.635 329.513L399.838 325.702C402.815 324.469 404.601 323.65 405.194 323.246C405.788 322.841 406.144 322.451 406.263 322.074C406.382 321.697 406.344 321.274 406.149 320.805C405.94 320.3 405.555 319.751 404.992 319.159L405.799 318.35L411.924 324.565L412.406 325.729L407.155 327.904Z"/>
<path d="M436.895 348.185L412.21 358.408L420.587 362.327C422.367 363.154 423.464 363.609 423.879 363.691C424.155 363.745 424.402 363.728 424.618 363.638C424.979 363.489 425.229 363.211 425.367 362.805C425.505 362.399 425.451 361.845 425.203 361.145L426.069 360.786L430.53 371.559L429.664 371.918C429.015 370.453 428.28 369.315 427.457 368.503C426.635 367.692 425.449 366.92 423.898 366.188L415.39 362.26L409.986 371.95C408.498 374.637 407.584 376.411 407.243 377.271C406.753 378.489 406.517 379.475 406.533 380.229C406.54 380.755 406.775 381.577 407.238 382.696L406.263 383.099L401.275 371.054L402.25 370.651C402.552 371.329 402.848 371.751 403.138 371.916C403.428 372.081 403.745 372.093 404.088 371.951C404.503 371.779 405.021 371.141 405.643 370.038L412.21 358.408L403.981 361.816C402.375 362.481 401.366 363.031 400.954 363.466C400.543 363.901 400.314 364.37 400.27 364.875C400.225 365.38 400.481 366.331 401.039 367.727L400.064 368.131L394.841 355.518L395.815 355.114C396.338 356.377 396.884 357.261 397.452 357.766C397.808 358.062 398.234 358.224 398.731 358.251C399.439 358.275 400.523 357.984 401.985 357.379L424.559 348.03C427.428 346.841 429.157 346.051 429.745 345.66C430.334 345.268 430.69 344.878 430.814 344.488C430.938 344.098 430.903 343.669 430.709 343.2C430.552 342.821 430.163 342.316 429.542 341.685L430.299 340.833L436.38 346.94L436.895 348.185Z"/>
<path d="M424.028 382.274C420.34 383.781 417.822 385.87 416.476 388.541C415.131 391.213 414.962 393.766 415.971 396.202C416.644 397.826 417.675 399.053 419.065 399.884C420.455 400.714 422.401 401.086 424.903 401.002L424.709 402.065C422.08 402.71 419.373 402.541 416.588 401.559C413.803 400.578 411.843 398.715 410.707 395.972C409.474 392.995 409.578 389.966 411.018 386.885C412.459 383.805 415.137 381.454 419.053 379.832C423.294 378.076 427.051 377.794 430.324 378.985C433.597 380.177 435.914 382.415 437.274 385.699C438.425 388.478 438.455 391.14 437.363 393.685C436.271 396.23 434.192 398.138 431.124 399.408L424.028 382.274ZM425.598 381.624L430.351 393.101C431.902 392.353 432.942 391.7 433.472 391.142C434.296 390.273 434.811 389.272 435.019 388.139C435.226 387.007 435.128 385.954 434.725 384.979C434.105 383.481 432.968 382.383 431.314 381.683C429.661 380.983 427.756 380.963 425.598 381.624Z"/>
<path d="M434.218 406.879C430.529 408.385 428.012 410.474 426.666 413.145C425.32 415.817 425.152 418.371 426.161 420.807C426.833 422.431 427.865 423.658 429.255 424.488C430.645 425.318 432.591 425.691 435.093 425.606L434.899 426.669C432.27 427.314 429.563 427.146 426.778 426.164C423.993 425.182 422.033 423.32 420.897 420.577C419.664 417.599 419.767 414.57 421.208 411.49C422.649 408.409 425.327 406.058 429.243 404.436C433.483 402.68 437.24 402.398 440.514 403.59C443.787 404.781 446.104 407.019 447.464 410.303C448.615 413.082 448.645 415.744 447.553 418.289C446.461 420.834 444.382 422.742 441.314 424.012L434.218 406.879ZM435.788 406.228L440.541 417.705C442.091 416.957 443.132 416.304 443.662 415.747C444.486 414.877 445.001 413.876 445.209 412.744C445.416 411.611 445.318 410.558 444.915 409.583C444.294 408.086 443.157 406.987 441.504 406.287C439.851 405.587 437.945 405.568 435.788 406.228Z"/>
</g>
<path d="M315.45 19.5851L83.5812 544.448" fill="none" opacity="1" stroke="#000000" stroke-linecap="butt" stroke-linejoin="miter" stroke-width="1" vectornator:layerName="Curve 1"/>
</g>
<g id="Ketch-rig" vectornator:layerName="Ketch rig" visibility="hidden">
<path d="M236.683 474.378L362.298 30.9226L362.298 474.378L236.683 474.378Z" fill="#dddddd" fill-rule="nonzero" opacity="1" stroke="#000000" stroke-linecap="butt" stroke-linejoin="miter" stroke-width="1" vectornator:layerName="Mainsail"/>
<path d="M207.335 197.731L84.2445 538.693" fill="none" opacity="1" stroke="#000000" stroke-linecap="butt" stroke-linejoin="miter" stroke-width="1" vectornator:layerName="Curve 2"/>
<path d="M207.335 197.731L289.735 538.693" fill="none" opacity="1" stroke="#000000" stroke-linecap="butt" stroke-linejoin="miter" stroke-width="1" vectornator:layerName="Curve 3"/>
<path d="M365.133 19.6611L210.17 520.761" fill="none" opacity="1" stroke="#000000" stroke-linecap="butt" stroke-linejoin="miter" stroke-width="1" vectornator:layerName="Curve 4"/>
<path d="M518.379 532.02L367.968 30.9226L367.968 459.105L518.379 532.02Z" fill="#dddddd" fill-rule="nonzero" opacity="1" stroke="#000000" stroke-linecap="butt" stroke-linejoin="miter" stroke-width="1" vectornator:layerName="Jib"/>
<path d="M362.298 19.6611L367.968 19.6611L367.968 544.524L362.298 544.524L362.298 19.6611Z" fill="#dddddd" fill-rule="nonzero" opacity="1" stroke="#000000" stroke-linecap="butt" stroke-linejoin="miter" stroke-width="3" vectornator:layerName="Main mast"/>
<path d="M204.5 197.731L210.17 197.731L210.17 544.524L204.5 544.524L204.5 197.731Z" fill="#dddddd" fill-rule="nonzero" opacity="1" stroke="#000000" stroke-linecap="butt" stroke-linejoin="miter" stroke-width="3" vectornator:layerName="Mizzen mast"/>
<path d="M236.683 474.378L362.298 474.378L362.298 480.048L236.683 480.048L236.683 474.378Z" fill="#dddddd" fill-rule="nonzero" opacity="1" stroke="#000000" stroke-linecap="butt" stroke-linejoin="miter" stroke-width="3" vectornator:layerName="Boom"/>
<path d="M116.969 474.378L204.5 205.716L204.5 474.378L116.969 474.378Z" fill="#dddddd" fill-rule="nonzero" opacity="1" stroke="#000000" stroke-linecap="butt" stroke-linejoin="miter" stroke-width="1" vectornator:layerName="Mainsail 1"/>
<path d="M116.969 474.378L204.5 474.378L204.5 480.048L116.969 480.048L116.969 474.378Z" fill="#dddddd" fill-rule="nonzero" opacity="1" stroke="#000000" stroke-linecap="butt" stroke-linejoin="miter" stroke-width="3" vectornator:layerName="Boom 1"/>
<path d="M207.335 197.731L365.133 19.6611" fill="none" opacity="1" stroke="#000000" stroke-linecap="butt" stroke-linejoin="miter" stroke-width="1" vectornator:layerName="Curve 1"/>
<g fill="#000000" opacity="1" stroke="none" vectornator:layerName="Text 3">
<path d="M405.532 347.278L405.532 346.809L412.908 346.809L412.908 347.278L412.286 347.278C411.583 347.278 411.071 347.486 410.75 347.9C410.547 348.171 410.445 348.823 410.445 349.855L410.445 358.272C410.445 359.567 410.303 360.617 410.02 361.421C409.736 362.225 409.247 362.925 408.553 363.522C407.859 364.119 407.022 364.417 406.04 364.417C405.244 364.417 404.618 364.22 404.161 363.827C403.704 363.433 403.475 362.982 403.475 362.475C403.475 362.06 403.581 361.747 403.793 361.535C404.072 361.273 404.398 361.142 404.77 361.142C405.041 361.142 405.284 361.23 405.5 361.408C405.716 361.586 405.989 362.06 406.319 362.83C406.514 363.287 406.763 363.516 407.068 363.516C407.297 363.516 407.51 363.376 407.709 363.097C407.908 362.817 408.008 362.322 408.008 361.611L408.008 349.855C408.008 348.984 407.953 348.408 407.843 348.129C407.758 347.917 407.58 347.735 407.309 347.583C406.945 347.38 406.56 347.278 406.154 347.278L405.532 347.278Z"/>
<path d="M416.831 345.971C417.186 345.971 417.489 346.095 417.739 346.345C417.988 346.595 418.113 346.897 418.113 347.253C418.113 347.608 417.988 347.913 417.739 348.167C417.489 348.421 417.186 348.548 416.831 348.548C416.475 348.548 416.171 348.421 415.917 348.167C415.663 347.913 415.536 347.608 415.536 347.253C415.536 346.897 415.661 346.595 415.91 346.345C416.16 346.095 416.467 345.971 416.831 345.971ZM417.885 352.052L417.885 361.395C417.885 362.123 417.937 362.608 418.043 362.849C418.149 363.09 418.306 363.27 418.513 363.389C418.72 363.507 419.099 363.566 419.649 363.566L419.649 364.023L414 364.023L414 363.566C414.567 363.566 414.948 363.511 415.142 363.401C415.337 363.291 415.491 363.109 415.606 362.855C415.72 362.601 415.777 362.115 415.777 361.395L415.777 356.914C415.777 355.653 415.739 354.836 415.663 354.464C415.604 354.193 415.511 354.005 415.384 353.899C415.257 353.793 415.083 353.74 414.863 353.74C414.626 353.74 414.338 353.804 414 353.931L413.822 353.474L417.326 352.052L417.885 352.052Z"/>
<path d="M424.283 354.4C425.409 352.835 426.623 352.052 427.927 352.052C429.12 352.052 430.161 352.562 431.05 353.581C431.938 354.601 432.383 355.996 432.383 357.765C432.383 359.83 431.697 361.493 430.326 362.754C429.15 363.837 427.838 364.379 426.39 364.379C425.713 364.379 425.026 364.256 424.327 364.011C423.629 363.765 422.916 363.397 422.188 362.906L422.188 350.858C422.188 349.538 422.157 348.725 422.093 348.421C422.03 348.116 421.93 347.909 421.795 347.799C421.659 347.689 421.49 347.634 421.287 347.634C421.05 347.634 420.754 347.701 420.398 347.837L420.22 347.392L423.712 345.971L424.283 345.971L424.283 354.4ZM424.283 355.213L424.283 362.17C424.715 362.593 425.161 362.913 425.622 363.128C426.084 363.344 426.555 363.452 427.038 363.452C427.808 363.452 428.525 363.029 429.19 362.183C429.854 361.336 430.186 360.105 430.186 358.488C430.186 356.999 429.854 355.854 429.19 355.054C428.525 354.254 427.77 353.854 426.924 353.854C426.475 353.854 426.026 353.969 425.578 354.197C425.239 354.366 424.808 354.705 424.283 355.213Z"/>
</g>
<g fill="#000000" opacity="1" stroke="none" vectornator:layerName="Text 4">
<path d="M276.449 407.725L269.797 393.24L269.797 404.742C269.797 405.8 269.911 406.46 270.14 406.722C270.453 407.078 270.948 407.255 271.625 407.255L272.234 407.255L272.234 407.725L266.242 407.725L266.242 407.255L266.852 407.255C267.58 407.255 268.096 407.035 268.4 406.595C268.587 406.324 268.68 405.707 268.68 404.742L268.68 393.494C268.68 392.732 268.595 392.182 268.426 391.843C268.307 391.598 268.089 391.393 267.772 391.228C267.455 391.062 266.945 390.98 266.242 390.98L266.242 390.51L271.117 390.51L277.363 403.98L283.508 390.51L288.383 390.51L288.383 390.98L287.786 390.98C287.05 390.98 286.529 391.2 286.225 391.64C286.039 391.911 285.945 392.529 285.945 393.494L285.945 404.742C285.945 405.8 286.064 406.46 286.301 406.722C286.614 407.078 287.109 407.255 287.786 407.255L288.383 407.255L288.383 407.725L281.07 407.725L281.07 407.255L281.68 407.255C282.416 407.255 282.932 407.035 283.229 406.595C283.415 406.324 283.508 405.707 283.508 404.742L283.508 393.24L276.868 407.725L276.449 407.725Z"/>
<path d="M296.33 406.049C295.137 406.972 294.388 407.505 294.083 407.649C293.626 407.861 293.139 407.966 292.623 407.966C291.819 407.966 291.157 407.691 290.636 407.141C290.116 406.591 289.856 405.867 289.856 404.97C289.856 404.403 289.983 403.912 290.236 403.498C290.583 402.922 291.186 402.38 292.046 401.873C292.905 401.365 294.333 400.747 296.33 400.019L296.33 399.562C296.33 398.403 296.146 397.607 295.778 397.175C295.41 396.744 294.874 396.528 294.172 396.528C293.639 396.528 293.216 396.672 292.902 396.959C292.581 397.247 292.42 397.577 292.42 397.95L292.445 398.686C292.445 399.075 292.346 399.376 292.147 399.587C291.948 399.799 291.688 399.905 291.366 399.905C291.053 399.905 290.797 399.795 290.598 399.575C290.399 399.355 290.3 399.054 290.3 398.673C290.3 397.945 290.672 397.277 291.417 396.667C292.162 396.058 293.207 395.753 294.553 395.753C295.585 395.753 296.432 395.927 297.092 396.274C297.591 396.536 297.959 396.947 298.196 397.505C298.349 397.869 298.425 398.614 298.425 399.74L298.425 403.688C298.425 404.797 298.446 405.476 298.488 405.726C298.531 405.975 298.601 406.142 298.698 406.227C298.795 406.312 298.907 406.354 299.034 406.354C299.17 406.354 299.288 406.324 299.39 406.265C299.567 406.155 299.91 405.846 300.418 405.338L300.418 406.049C299.47 407.319 298.565 407.954 297.701 407.954C297.287 407.954 296.956 407.81 296.711 407.522C296.466 407.234 296.339 406.743 296.33 406.049ZM296.33 405.224L296.33 400.793C295.052 401.301 294.227 401.661 293.855 401.873C293.186 402.245 292.708 402.634 292.42 403.041C292.132 403.447 291.988 403.891 291.988 404.374C291.988 404.983 292.17 405.489 292.534 405.891C292.898 406.293 293.317 406.494 293.791 406.494C294.434 406.494 295.281 406.07 296.33 405.224Z"/>
<path d="M304.239 389.672C304.595 389.672 304.897 389.797 305.147 390.047C305.397 390.297 305.522 390.599 305.522 390.955C305.522 391.31 305.397 391.615 305.147 391.869C304.897 392.123 304.595 392.25 304.239 392.25C303.884 392.25 303.579 392.123 303.325 391.869C303.071 391.615 302.944 391.31 302.944 390.955C302.944 390.599 303.069 390.297 303.319 390.047C303.569 389.797 303.875 389.672 304.239 389.672ZM305.293 395.753L305.293 405.097C305.293 405.825 305.346 406.31 305.452 406.551C305.558 406.792 305.714 406.972 305.921 407.09C306.129 407.209 306.508 407.268 307.058 407.268L307.058 407.725L301.408 407.725L301.408 407.268C301.975 407.268 302.356 407.213 302.551 407.103C302.746 406.993 302.9 406.811 303.014 406.557C303.129 406.303 303.186 405.817 303.186 405.097L303.186 400.616C303.186 399.355 303.148 398.538 303.071 398.166C303.012 397.895 302.919 397.706 302.792 397.601C302.665 397.495 302.492 397.442 302.272 397.442C302.035 397.442 301.747 397.505 301.408 397.632L301.231 397.175L304.734 395.753L305.293 395.753Z"/>
<path d="M311.895 398.216C313.257 396.574 314.556 395.753 315.792 395.753C316.427 395.753 316.973 395.912 317.43 396.229C317.887 396.547 318.251 397.069 318.522 397.797C318.708 398.305 318.801 399.084 318.801 400.133L318.801 405.097C318.801 405.833 318.86 406.333 318.979 406.595C319.072 406.807 319.222 406.972 319.429 407.09C319.637 407.209 320.02 407.268 320.578 407.268L320.578 407.725L314.827 407.725L314.827 407.268L315.068 407.268C315.61 407.268 315.989 407.186 316.205 407.021C316.421 406.855 316.571 406.612 316.655 406.291C316.689 406.164 316.706 405.766 316.706 405.097L316.706 400.336C316.706 399.278 316.569 398.51 316.294 398.032C316.018 397.554 315.555 397.315 314.903 397.315C313.896 397.315 312.893 397.865 311.895 398.965L311.895 405.097C311.895 405.884 311.941 406.371 312.034 406.557C312.153 406.803 312.316 406.982 312.523 407.097C312.73 407.211 313.151 407.268 313.786 407.268L313.786 407.725L308.035 407.725L308.035 407.268L308.289 407.268C308.882 407.268 309.282 407.118 309.489 406.817C309.696 406.517 309.8 405.944 309.8 405.097L309.8 400.781C309.8 399.384 309.768 398.534 309.705 398.229C309.641 397.924 309.544 397.717 309.413 397.607C309.282 397.497 309.106 397.442 308.886 397.442C308.649 397.442 308.365 397.505 308.035 397.632L307.845 397.175L311.349 395.753L311.895 395.753L311.895 398.216Z"/>
<path d="M329.021 395.753L329.021 399.714L328.602 399.714C328.28 398.47 327.867 397.624 327.364 397.175C326.86 396.727 326.219 396.502 325.441 396.502C324.848 396.502 324.37 396.659 324.006 396.972C323.642 397.285 323.46 397.632 323.46 398.013C323.46 398.487 323.595 398.893 323.866 399.232C324.129 399.579 324.662 399.947 325.466 400.336L327.319 401.238C329.038 402.076 329.897 403.18 329.897 404.551C329.897 405.609 329.497 406.462 328.697 407.109C327.897 407.757 327.002 408.081 326.012 408.081C325.301 408.081 324.488 407.954 323.574 407.7C323.295 407.615 323.067 407.573 322.889 407.573C322.694 407.573 322.542 407.683 322.432 407.903L322.013 407.903L322.013 403.751L322.432 403.751C322.669 404.936 323.122 405.829 323.79 406.43C324.459 407.031 325.208 407.332 326.037 407.332C326.621 407.332 327.097 407.16 327.465 406.817C327.834 406.475 328.018 406.062 328.018 405.58C328.018 404.996 327.812 404.505 327.402 404.107C326.991 403.709 326.173 403.206 324.945 402.596C323.718 401.987 322.914 401.437 322.533 400.946C322.152 400.463 321.962 399.854 321.962 399.118C321.962 398.161 322.29 397.361 322.946 396.718C323.602 396.075 324.45 395.753 325.491 395.753C325.948 395.753 326.503 395.851 327.154 396.045C327.586 396.172 327.874 396.236 328.018 396.236C328.153 396.236 328.259 396.206 328.335 396.147C328.411 396.088 328.5 395.957 328.602 395.753L329.021 395.753Z"/>
<path d="M338.212 406.049C337.019 406.972 336.27 407.505 335.965 407.649C335.508 407.861 335.021 407.966 334.505 407.966C333.701 407.966 333.039 407.691 332.518 407.141C331.998 406.591 331.737 405.867 331.737 404.97C331.737 404.403 331.864 403.912 332.118 403.498C332.465 402.922 333.068 402.38 333.927 401.873C334.786 401.365 336.215 400.747 338.212 400.019L338.212 399.562C338.212 398.403 338.028 397.607 337.66 397.175C337.292 396.744 336.756 396.528 336.054 396.528C335.521 396.528 335.097 396.672 334.784 396.959C334.463 397.247 334.302 397.577 334.302 397.95L334.327 398.686C334.327 399.075 334.228 399.376 334.029 399.587C333.83 399.799 333.57 399.905 333.248 399.905C332.935 399.905 332.679 399.795 332.48 399.575C332.281 399.355 332.182 399.054 332.182 398.673C332.182 397.945 332.554 397.277 333.299 396.667C334.044 396.058 335.089 395.753 336.435 395.753C337.467 395.753 338.314 395.927 338.974 396.274C339.473 396.536 339.841 396.947 340.078 397.505C340.231 397.869 340.307 398.614 340.307 399.74L340.307 403.688C340.307 404.797 340.328 405.476 340.37 405.726C340.413 405.975 340.482 406.142 340.58 406.227C340.677 406.312 340.789 406.354 340.916 406.354C341.052 406.354 341.17 406.324 341.272 406.265C341.449 406.155 341.792 405.846 342.3 405.338L342.3 406.049C341.352 407.319 340.446 407.954 339.583 407.954C339.168 407.954 338.838 407.81 338.593 407.522C338.347 407.234 338.22 406.743 338.212 406.049ZM338.212 405.224L338.212 400.793C336.934 401.301 336.109 401.661 335.736 401.873C335.068 402.245 334.59 402.634 334.302 403.041C334.014 403.447 333.87 403.891 333.87 404.374C333.87 404.983 334.052 405.489 334.416 405.891C334.78 406.293 335.199 406.494 335.673 406.494C336.316 406.494 337.163 406.07 338.212 405.224Z"/>
<path d="M346.121 389.672C346.477 389.672 346.779 389.797 347.029 390.047C347.279 390.297 347.403 390.599 347.403 390.955C347.403 391.31 347.279 391.615 347.029 391.869C346.779 392.123 346.477 392.25 346.121 392.25C345.766 392.25 345.461 392.123 345.207 391.869C344.953 391.615 344.826 391.31 344.826 390.955C344.826 390.599 344.951 390.297 345.201 390.047C345.45 389.797 345.757 389.672 346.121 389.672ZM347.175 395.753L347.175 405.097C347.175 405.825 347.228 406.31 347.334 406.551C347.439 406.792 347.596 406.972 347.803 407.09C348.011 407.209 348.389 407.268 348.94 407.268L348.94 407.725L343.29 407.725L343.29 407.268C343.857 407.268 344.238 407.213 344.433 407.103C344.627 406.993 344.782 406.811 344.896 406.557C345.01 406.303 345.067 405.817 345.067 405.097L345.067 400.616C345.067 399.355 345.029 398.538 344.953 398.166C344.894 397.895 344.801 397.706 344.674 397.601C344.547 397.495 344.373 397.442 344.153 397.442C343.916 397.442 343.629 397.505 343.29 397.632L343.112 397.175L346.616 395.753L347.175 395.753Z"/>
<path d="M354.386 389.672L354.386 405.097C354.386 405.825 354.439 406.307 354.545 406.544C354.65 406.781 354.813 406.961 355.033 407.084C355.253 407.207 355.664 407.268 356.265 407.268L356.265 407.725L350.565 407.725L350.565 407.268C351.098 407.268 351.462 407.213 351.656 407.103C351.851 406.993 352.003 406.811 352.113 406.557C352.223 406.303 352.278 405.817 352.278 405.097L352.278 394.535C352.278 393.223 352.249 392.417 352.19 392.116C352.13 391.816 352.035 391.611 351.904 391.5C351.773 391.39 351.606 391.335 351.402 391.335C351.182 391.335 350.903 391.403 350.565 391.539L350.349 391.094L353.815 389.672L354.386 389.672Z"/>
</g>
<g fill="#000000" opacity="1" stroke="none" vectornator:layerName="Text 5">
<path d="M96.3832 305.093L89.7308 290.607L89.7308 302.109C89.7308 303.167 89.8451 303.827 90.0736 304.09C90.3868 304.445 90.8819 304.623 91.559 304.623L92.1683 304.623L92.1683 305.093L86.1762 305.093L86.1762 304.623L86.7855 304.623C87.5134 304.623 88.0297 304.403 88.3344 303.963C88.5206 303.692 88.6137 303.074 88.6137 302.109L88.6137 290.861C88.6137 290.1 88.529 289.549 88.3597 289.211C88.2413 288.965 88.0233 288.76 87.7059 288.595C87.3886 288.43 86.8786 288.348 86.1762 288.348L86.1762 287.878L91.0512 287.878L97.2972 301.348L103.442 287.878L108.317 287.878L108.317 288.348L107.72 288.348C106.984 288.348 106.463 288.568 106.159 289.008C105.972 289.279 105.879 289.896 105.879 290.861L105.879 302.109C105.879 303.167 105.998 303.827 106.235 304.09C106.548 304.445 107.043 304.623 107.72 304.623L108.317 304.623L108.317 305.093L101.004 305.093L101.004 304.623L101.614 304.623C102.35 304.623 102.866 304.403 103.162 303.963C103.349 303.692 103.442 303.074 103.442 302.109L103.442 290.607L96.8021 305.093L96.3832 305.093Z"/>
<path d="M112.633 287.04C112.989 287.04 113.291 287.165 113.541 287.414C113.791 287.664 113.915 287.967 113.915 288.322C113.915 288.678 113.791 288.982 113.541 289.236C113.291 289.49 112.989 289.617 112.633 289.617C112.278 289.617 111.973 289.49 111.719 289.236C111.465 288.982 111.338 288.678 111.338 288.322C111.338 287.967 111.463 287.664 111.713 287.414C111.962 287.165 112.269 287.04 112.633 287.04ZM113.687 293.121L113.687 302.465C113.687 303.193 113.74 303.677 113.846 303.918C113.951 304.16 114.108 304.339 114.315 304.458C114.523 304.576 114.901 304.636 115.452 304.636L115.452 305.093L109.802 305.093L109.802 304.636C110.369 304.636 110.75 304.581 110.945 304.471C111.139 304.361 111.294 304.179 111.408 303.925C111.522 303.671 111.579 303.184 111.579 302.465L111.579 297.983C111.579 296.722 111.541 295.905 111.465 295.533C111.406 295.262 111.313 295.074 111.186 294.968C111.059 294.862 110.885 294.809 110.665 294.809C110.428 294.809 110.141 294.873 109.802 295L109.624 294.543L113.128 293.121L113.687 293.121Z"/>
<path d="M127.004 301.525L126.865 305.093L116.607 305.093L116.607 304.636L124.326 294.352L120.517 294.352C119.696 294.352 119.159 294.405 118.905 294.511C118.651 294.617 118.443 294.818 118.283 295.114C118.054 295.537 117.923 296.062 117.889 296.688L117.381 296.688L117.457 293.464L127.207 293.464L127.207 293.933L119.412 304.242L123.653 304.242C124.541 304.242 125.144 304.168 125.462 304.02C125.779 303.872 126.035 303.612 126.23 303.239C126.365 302.968 126.48 302.397 126.573 301.525L127.004 301.525Z"/>
<path d="M138.544 301.525L138.405 305.093L128.147 305.093L128.147 304.636L135.866 294.352L132.057 294.352C131.236 294.352 130.699 294.405 130.445 294.511C130.191 294.617 129.983 294.818 129.823 295.114C129.594 295.537 129.463 296.062 129.429 296.688L128.921 296.688L128.997 293.464L138.747 293.464L138.747 293.933L130.953 304.242L135.193 304.242C136.081 304.242 136.684 304.168 137.002 304.02C137.319 303.872 137.575 303.612 137.77 303.239C137.905 302.968 138.02 302.397 138.113 301.525L138.544 301.525Z"/>
<path d="M141.934 297.844C141.926 299.57 142.344 300.924 143.191 301.906C144.037 302.888 145.032 303.379 146.174 303.379C146.936 303.379 147.598 303.169 148.161 302.75C148.724 302.331 149.196 301.614 149.577 300.599L149.97 300.852C149.792 302.012 149.276 303.068 148.421 304.02C147.566 304.972 146.496 305.448 145.209 305.448C143.813 305.448 142.617 304.904 141.623 303.817C140.628 302.729 140.131 301.267 140.131 299.431C140.131 297.442 140.641 295.891 141.661 294.778C142.681 293.665 143.961 293.108 145.501 293.108C146.805 293.108 147.875 293.538 148.713 294.397C149.551 295.256 149.97 296.405 149.97 297.844L141.934 297.844ZM141.934 297.107L147.317 297.107C147.274 296.363 147.186 295.838 147.05 295.533C146.839 295.059 146.523 294.687 146.104 294.416C145.685 294.145 145.247 294.01 144.79 294.01C144.088 294.01 143.46 294.283 142.905 294.829C142.351 295.374 142.027 296.134 141.934 297.107Z"/>
<path d="M154.909 295.584C156.271 293.942 157.57 293.121 158.806 293.121C159.441 293.121 159.987 293.28 160.444 293.597C160.901 293.914 161.265 294.437 161.536 295.165C161.722 295.673 161.815 296.451 161.815 297.501L161.815 302.465C161.815 303.201 161.874 303.7 161.993 303.963C162.086 304.174 162.236 304.339 162.443 304.458C162.651 304.576 163.034 304.636 163.592 304.636L163.592 305.093L157.841 305.093L157.841 304.636L158.082 304.636C158.624 304.636 159.003 304.553 159.219 304.388C159.434 304.223 159.585 303.98 159.669 303.658C159.703 303.531 159.72 303.133 159.72 302.465L159.72 297.704C159.72 296.646 159.583 295.878 159.308 295.4C159.032 294.922 158.569 294.683 157.917 294.683C156.91 294.683 155.907 295.233 154.909 296.333L154.909 302.465C154.909 303.252 154.955 303.739 155.048 303.925C155.167 304.17 155.33 304.35 155.537 304.464C155.744 304.579 156.165 304.636 156.8 304.636L156.8 305.093L151.049 305.093L151.049 304.636L151.303 304.636C151.896 304.636 152.295 304.485 152.503 304.185C152.71 303.885 152.814 303.311 152.814 302.465L152.814 298.148C152.814 296.752 152.782 295.901 152.719 295.597C152.655 295.292 152.558 295.085 152.427 294.975C152.295 294.864 152.12 294.809 151.9 294.809C151.663 294.809 151.379 294.873 151.049 295L150.859 294.543L154.363 293.121L154.909 293.121L154.909 295.584Z"/>
<path d="M94.0726 323.225L94.0726 327.186L93.6537 327.186C93.3321 325.942 92.9195 325.096 92.4159 324.647C91.9123 324.199 91.2712 323.975 90.4926 323.975C89.9001 323.975 89.4219 324.131 89.058 324.444C88.6941 324.757 88.5121 325.104 88.5121 325.485C88.5121 325.959 88.6475 326.365 88.9183 326.704C89.1807 327.051 89.7139 327.419 90.518 327.808L92.3715 328.71C94.0896 329.548 94.9486 330.652 94.9486 332.023C94.9486 333.081 94.5487 333.934 93.7489 334.581C92.9491 335.229 92.0541 335.553 91.0639 335.553C90.3529 335.553 89.5404 335.426 88.6264 335.172C88.3471 335.087 88.1185 335.045 87.9408 335.045C87.7461 335.045 87.5938 335.155 87.4838 335.375L87.0648 335.375L87.0648 331.224L87.4838 331.224C87.7208 332.408 88.1736 333.301 88.8422 333.902C89.5108 334.503 90.2598 334.804 91.0892 334.804C91.6732 334.804 92.1493 334.632 92.5175 334.289C92.8856 333.947 93.0697 333.534 93.0697 333.052C93.0697 332.468 92.8645 331.977 92.454 331.579C92.0435 331.181 91.2247 330.678 89.9974 330.068C88.7702 329.459 87.9662 328.909 87.5853 328.418C87.2045 327.935 87.014 327.326 87.014 326.59C87.014 325.633 87.342 324.834 87.9979 324.19C88.6539 323.547 89.5023 323.225 90.5433 323.225C91.0004 323.225 91.5547 323.323 92.2064 323.517C92.6381 323.644 92.9258 323.708 93.0697 323.708C93.2051 323.708 93.3109 323.678 93.3871 323.619C93.4633 323.56 93.5521 323.429 93.6537 323.225L94.0726 323.225Z"/>
<path d="M103.264 333.521C102.071 334.444 101.322 334.977 101.017 335.121C100.56 335.333 100.073 335.438 99.557 335.438C98.753 335.438 98.0907 335.163 97.5702 334.613C97.0497 334.063 96.7894 333.339 96.7894 332.442C96.7894 331.875 96.9164 331.384 97.1703 330.97C97.5173 330.394 98.1203 329.852 98.9794 329.345C99.8384 328.837 101.267 328.219 103.264 327.491L103.264 327.034C103.264 325.875 103.08 325.079 102.712 324.647C102.344 324.216 101.808 324 101.106 324C100.573 324 100.149 324.144 99.8363 324.432C99.5147 324.719 99.3539 325.049 99.3539 325.422L99.3793 326.158C99.3793 326.547 99.2798 326.848 99.0809 327.059C98.882 327.271 98.6218 327.377 98.3002 327.377C97.987 327.377 97.731 327.267 97.5321 327.047C97.3332 326.827 97.2338 326.526 97.2338 326.145C97.2338 325.418 97.6062 324.749 98.351 324.14C99.0958 323.53 100.141 323.225 101.487 323.225C102.519 323.225 103.366 323.399 104.026 323.746C104.525 324.008 104.893 324.419 105.13 324.977C105.283 325.341 105.359 326.086 105.359 327.212L105.359 331.16C105.359 332.269 105.38 332.948 105.422 333.198C105.465 333.447 105.534 333.614 105.632 333.699C105.729 333.784 105.841 333.826 105.968 333.826C106.104 333.826 106.222 333.796 106.324 333.737C106.501 333.627 106.844 333.318 107.352 332.81L107.352 333.521C106.404 334.791 105.498 335.426 104.635 335.426C104.22 335.426 103.89 335.282 103.645 334.994C103.399 334.706 103.273 334.215 103.264 333.521ZM103.264 332.696L103.264 328.266C101.986 328.773 101.161 329.133 100.788 329.345C100.12 329.717 99.6416 330.106 99.3539 330.513C99.0661 330.919 98.9222 331.363 98.9222 331.846C98.9222 332.455 99.1042 332.961 99.4681 333.363C99.8321 333.765 100.251 333.966 100.725 333.966C101.368 333.966 102.215 333.543 103.264 332.696Z"/>
<path d="M111.173 317.144C111.529 317.144 111.831 317.269 112.081 317.519C112.331 317.769 112.455 318.071 112.455 318.427C112.455 318.782 112.331 319.087 112.081 319.341C111.831 319.595 111.529 319.722 111.173 319.722C110.818 319.722 110.513 319.595 110.259 319.341C110.005 319.087 109.878 318.782 109.878 318.427C109.878 318.071 110.003 317.769 110.253 317.519C110.502 317.269 110.809 317.144 111.173 317.144ZM112.227 323.225L112.227 332.569C112.227 333.297 112.28 333.782 112.386 334.023C112.491 334.264 112.648 334.444 112.855 334.562C113.063 334.681 113.441 334.74 113.992 334.74L113.992 335.197L108.342 335.197L108.342 334.74C108.909 334.74 109.29 334.685 109.485 334.575C109.679 334.465 109.834 334.283 109.948 334.029C110.062 333.775 110.12 333.289 110.12 332.569L110.12 328.088C110.12 326.827 110.081 326.01 110.005 325.638C109.946 325.367 109.853 325.178 109.726 325.073C109.599 324.967 109.426 324.914 109.205 324.914C108.968 324.914 108.681 324.977 108.342 325.104L108.164 324.647L111.668 323.225L112.227 323.225Z"/>
<path d="M119.438 317.144L119.438 332.569C119.438 333.297 119.491 333.78 119.597 334.016C119.702 334.253 119.865 334.433 120.085 334.556C120.305 334.679 120.716 334.74 121.317 334.74L121.317 335.197L115.617 335.197L115.617 334.74C116.15 334.74 116.514 334.685 116.708 334.575C116.903 334.465 117.055 334.283 117.165 334.029C117.275 333.775 117.33 333.289 117.33 332.569L117.33 322.007C117.33 320.695 117.301 319.889 117.242 319.588C117.182 319.288 117.087 319.083 116.956 318.973C116.825 318.863 116.658 318.808 116.454 318.808C116.234 318.808 115.955 318.875 115.617 319.011L115.401 318.566L118.867 317.144L119.438 317.144Z"/>
</g>
</g>
<g id="Yawl-rig" vectornator:layerName="Yawl rig" visibility="hidden">
<path d="M153.038 474.378L338.298 30.9226L338.298 474.378L153.038 474.378Z" fill="#dddddd" fill-rule="nonzero" opacity="1" stroke="#000000" stroke-linecap="butt" stroke-linejoin="miter" stroke-width="1" vectornator:layerName="Mainsail"/>
<path d="M518.379 532.02L343.968 30.9226L343.968 431.027L518.379 532.02Z" fill="#dddddd" fill-rule="nonzero" opacity="1" stroke="#000000" stroke-linecap="butt" stroke-linejoin="miter" stroke-width="1" vectornator:layerName="Jib"/>
<path d="M338.298 19.6611L343.968 19.6611L343.968 544.524L338.298 544.524L338.298 19.6611Z" fill="#dddddd" fill-rule="nonzero" opacity="1" stroke="#000000" stroke-linecap="butt" stroke-linejoin="miter" stroke-width="3" vectornator:layerName="Main mast"/>
<path d="M108.454 252.65L113.17 252.65L113.17 544.524L108.454 544.524L108.454 252.65Z" fill="#dddddd" fill-rule="nonzero" opacity="1" stroke="#000000" stroke-linecap="butt" stroke-linejoin="miter" stroke-width="3" vectornator:layerName="Mizzen mast"/>
<path d="M153.038 474.378L338.298 474.378L338.298 480.048L153.038 480.048L153.038 474.378Z" fill="#dddddd" fill-rule="nonzero" opacity="1" stroke="#000000" stroke-linecap="butt" stroke-linejoin="miter" stroke-width="3" vectornator:layerName="Boom"/>
<path d="M14.1338 474.378L108.454 259.371L108.454 474.378L14.1338 474.378Z" fill="#dddddd" fill-rule="nonzero" opacity="1" stroke="#000000" stroke-linecap="butt" stroke-linejoin="miter" stroke-width="1" vectornator:layerName="Mainsail 1"/>
<path d="M14.1338 474.378L107.5 474.378L107.5 480.048L14.1338 480.048L14.1338 474.378Z" fill="#dddddd" fill-rule="nonzero" opacity="1" stroke="#000000" stroke-linecap="butt" stroke-linejoin="miter" stroke-width="3" vectornator:layerName="Boom 1"/>
<path d="M341.133 19.6611L113.17 539.783" fill="none" opacity="1" stroke="#000000" stroke-linecap="butt" stroke-linejoin="miter" stroke-width="1" vectornator:layerName="Curve 1"/>
<g fill="#000000" opacity="1" stroke="none" vectornator:layerName="Text 4">
<path d="M228.709 406.535L222.056 392.05L222.056 403.552C222.056 404.61 222.171 405.27 222.399 405.532C222.712 405.888 223.207 406.065 223.885 406.065L224.494 406.065L224.494 406.535L218.502 406.535L218.502 406.065L219.111 406.065C219.839 406.065 220.355 405.845 220.66 405.405C220.846 405.134 220.939 404.517 220.939 403.552L220.939 392.304C220.939 391.542 220.855 390.992 220.685 390.653C220.567 390.408 220.349 390.203 220.032 390.038C219.714 389.872 219.204 389.79 218.502 389.79L218.502 389.32L223.377 389.32L229.623 402.79L235.767 389.32L240.642 389.32L240.642 389.79L240.046 389.79C239.309 389.79 238.789 390.01 238.484 390.45C238.298 390.721 238.205 391.339 238.205 392.304L238.205 403.552C238.205 404.61 238.323 405.27 238.56 405.532C238.873 405.888 239.369 406.065 240.046 406.065L240.642 406.065L240.642 406.535L233.33 406.535L233.33 406.065L233.939 406.065C234.676 406.065 235.192 405.845 235.488 405.405C235.674 405.134 235.767 404.517 235.767 403.552L235.767 392.05L229.128 406.535L228.709 406.535Z"/>
<path d="M248.59 404.859C247.396 405.782 246.647 406.315 246.343 406.459C245.886 406.67 245.399 406.776 244.883 406.776C244.079 406.776 243.416 406.501 242.896 405.951C242.375 405.401 242.115 404.677 242.115 403.78C242.115 403.213 242.242 402.722 242.496 402.308C242.843 401.732 243.446 401.19 244.305 400.683C245.164 400.175 246.592 399.557 248.59 398.829L248.59 398.372C248.59 397.212 248.406 396.417 248.037 395.985C247.669 395.554 247.134 395.338 246.431 395.338C245.898 395.338 245.475 395.482 245.162 395.769C244.84 396.057 244.679 396.387 244.679 396.76L244.705 397.496C244.705 397.885 244.605 398.186 244.407 398.397C244.208 398.609 243.947 398.715 243.626 398.715C243.313 398.715 243.057 398.605 242.858 398.385C242.659 398.165 242.559 397.864 242.559 397.483C242.559 396.755 242.932 396.087 243.677 395.477C244.421 394.868 245.467 394.563 246.812 394.563C247.845 394.563 248.691 394.737 249.351 395.084C249.851 395.346 250.219 395.757 250.456 396.315C250.608 396.679 250.684 397.424 250.684 398.55L250.684 402.498C250.684 403.607 250.706 404.286 250.748 404.536C250.79 404.785 250.86 404.952 250.957 405.037C251.055 405.122 251.167 405.164 251.294 405.164C251.429 405.164 251.548 405.134 251.649 405.075C251.827 404.965 252.17 404.656 252.678 404.148L252.678 404.859C251.73 406.129 250.824 406.764 249.961 406.764C249.546 406.764 249.216 406.62 248.971 406.332C248.725 406.044 248.598 405.553 248.59 404.859ZM248.59 404.034L248.59 399.603C247.312 400.111 246.486 400.471 246.114 400.683C245.445 401.055 244.967 401.444 244.679 401.851C244.392 402.257 244.248 402.701 244.248 403.184C244.248 403.793 244.43 404.299 244.794 404.701C245.158 405.103 245.577 405.304 246.051 405.304C246.694 405.304 247.54 404.88 248.59 404.034Z"/>
<path d="M256.499 388.482C256.854 388.482 257.157 388.607 257.407 388.857C257.656 389.107 257.781 389.409 257.781 389.765C257.781 390.12 257.656 390.425 257.407 390.679C257.157 390.933 256.854 391.059 256.499 391.059C256.143 391.059 255.839 390.933 255.585 390.679C255.331 390.425 255.204 390.12 255.204 389.765C255.204 389.409 255.329 389.107 255.578 388.857C255.828 388.607 256.135 388.482 256.499 388.482ZM257.553 394.563L257.553 403.907C257.553 404.635 257.605 405.12 257.711 405.361C257.817 405.602 257.974 405.782 258.181 405.9C258.388 406.019 258.767 406.078 259.317 406.078L259.317 406.535L253.668 406.535L253.668 406.078C254.235 406.078 254.616 406.023 254.81 405.913C255.005 405.803 255.159 405.621 255.274 405.367C255.388 405.113 255.445 404.627 255.445 403.907L255.445 399.426C255.445 398.165 255.407 397.348 255.331 396.976C255.272 396.705 255.179 396.516 255.052 396.411C254.925 396.305 254.751 396.252 254.531 396.252C254.294 396.252 254.006 396.315 253.668 396.442L253.49 395.985L256.994 394.563L257.553 394.563Z"/>
<path d="M264.154 397.026C265.517 395.384 266.816 394.563 268.052 394.563C268.686 394.563 269.232 394.722 269.689 395.039C270.146 395.357 270.51 395.879 270.781 396.607C270.967 397.115 271.06 397.894 271.06 398.943L271.06 403.907C271.06 404.643 271.12 405.143 271.238 405.405C271.331 405.617 271.481 405.782 271.689 405.9C271.896 406.019 272.279 406.078 272.838 406.078L272.838 406.535L267.087 406.535L267.087 406.078L267.328 406.078C267.87 406.078 268.248 405.996 268.464 405.83C268.68 405.665 268.83 405.422 268.915 405.101C268.949 404.974 268.966 404.576 268.966 403.907L268.966 399.146C268.966 398.088 268.828 397.32 268.553 396.842C268.278 396.364 267.815 396.125 267.163 396.125C266.156 396.125 265.153 396.675 264.154 397.775L264.154 403.907C264.154 404.694 264.201 405.181 264.294 405.367C264.412 405.613 264.575 405.792 264.783 405.907C264.99 406.021 265.411 406.078 266.046 406.078L266.046 406.535L260.295 406.535L260.295 406.078L260.549 406.078C261.141 406.078 261.541 405.928 261.748 405.627C261.956 405.327 262.059 404.754 262.059 403.907L262.059 399.591C262.059 398.194 262.028 397.344 261.964 397.039C261.901 396.734 261.803 396.527 261.672 396.417C261.541 396.307 261.365 396.252 261.145 396.252C260.908 396.252 260.625 396.315 260.295 396.442L260.104 395.985L263.608 394.563L264.154 394.563L264.154 397.026Z"/>
<path d="M281.28 394.563L281.28 398.524L280.861 398.524C280.54 397.28 280.127 396.434 279.623 395.985C279.12 395.537 278.479 395.312 277.7 395.312C277.108 395.312 276.629 395.469 276.265 395.782C275.901 396.095 275.72 396.442 275.72 396.823C275.72 397.297 275.855 397.703 276.126 398.042C276.388 398.389 276.921 398.757 277.725 399.146L279.579 400.048C281.297 400.886 282.156 401.99 282.156 403.361C282.156 404.419 281.756 405.272 280.956 405.919C280.157 406.567 279.262 406.891 278.271 406.891C277.56 406.891 276.748 406.764 275.834 406.51C275.554 406.425 275.326 406.383 275.148 406.383C274.954 406.383 274.801 406.493 274.691 406.713L274.272 406.713L274.272 402.561L274.691 402.561C274.928 403.746 275.381 404.639 276.05 405.24C276.718 405.841 277.467 406.142 278.297 406.142C278.881 406.142 279.357 405.97 279.725 405.627C280.093 405.285 280.277 404.872 280.277 404.39C280.277 403.806 280.072 403.315 279.661 402.917C279.251 402.519 278.432 402.016 277.205 401.406C275.978 400.797 275.174 400.247 274.793 399.756C274.412 399.273 274.221 398.664 274.221 397.928C274.221 396.971 274.549 396.171 275.205 395.528C275.861 394.885 276.71 394.563 277.751 394.563C278.208 394.563 278.762 394.661 279.414 394.855C279.846 394.982 280.133 395.046 280.277 395.046C280.413 395.046 280.518 395.016 280.595 394.957C280.671 394.898 280.76 394.767 280.861 394.563L281.28 394.563Z"/>
<path d="M290.471 404.859C289.278 405.782 288.529 406.315 288.224 406.459C287.767 406.67 287.281 406.776 286.764 406.776C285.96 406.776 285.298 406.501 284.778 405.951C284.257 405.401 283.997 404.677 283.997 403.78C283.997 403.213 284.124 402.722 284.378 402.308C284.725 401.732 285.328 401.19 286.187 400.683C287.046 400.175 288.474 399.557 290.471 398.829L290.471 398.372C290.471 397.212 290.287 396.417 289.919 395.985C289.551 395.554 289.016 395.338 288.313 395.338C287.78 395.338 287.357 395.482 287.044 395.769C286.722 396.057 286.561 396.387 286.561 396.76L286.587 397.496C286.587 397.885 286.487 398.186 286.288 398.397C286.089 398.609 285.829 398.715 285.508 398.715C285.194 398.715 284.938 398.605 284.74 398.385C284.541 398.165 284.441 397.864 284.441 397.483C284.441 396.755 284.814 396.087 285.558 395.477C286.303 394.868 287.348 394.563 288.694 394.563C289.727 394.563 290.573 394.737 291.233 395.084C291.733 395.346 292.101 395.757 292.338 396.315C292.49 396.679 292.566 397.424 292.566 398.55L292.566 402.498C292.566 403.607 292.587 404.286 292.63 404.536C292.672 404.785 292.742 404.952 292.839 405.037C292.936 405.122 293.049 405.164 293.176 405.164C293.311 405.164 293.429 405.134 293.531 405.075C293.709 404.965 294.052 404.656 294.559 404.148L294.559 404.859C293.611 406.129 292.706 406.764 291.843 406.764C291.428 406.764 291.098 406.62 290.852 406.332C290.607 406.044 290.48 405.553 290.471 404.859ZM290.471 404.034L290.471 399.603C289.193 400.111 288.368 400.471 287.996 400.683C287.327 401.055 286.849 401.444 286.561 401.851C286.274 402.257 286.13 402.701 286.13 403.184C286.13 403.793 286.312 404.299 286.676 404.701C287.04 405.103 287.458 405.304 287.932 405.304C288.576 405.304 289.422 404.88 290.471 404.034Z"/>
<path d="M298.381 388.482C298.736 388.482 299.039 388.607 299.288 388.857C299.538 389.107 299.663 389.409 299.663 389.765C299.663 390.12 299.538 390.425 299.288 390.679C299.039 390.933 298.736 391.059 298.381 391.059C298.025 391.059 297.721 390.933 297.467 390.679C297.213 390.425 297.086 390.12 297.086 389.765C297.086 389.409 297.211 389.107 297.46 388.857C297.71 388.607 298.017 388.482 298.381 388.482ZM299.434 394.563L299.434 403.907C299.434 404.635 299.487 405.12 299.593 405.361C299.699 405.602 299.855 405.782 300.063 405.9C300.27 406.019 300.649 406.078 301.199 406.078L301.199 406.535L295.55 406.535L295.55 406.078C296.117 406.078 296.498 406.023 296.692 405.913C296.887 405.803 297.041 405.621 297.156 405.367C297.27 405.113 297.327 404.627 297.327 403.907L297.327 399.426C297.327 398.165 297.289 397.348 297.213 396.976C297.153 396.705 297.06 396.516 296.933 396.411C296.806 396.305 296.633 396.252 296.413 396.252C296.176 396.252 295.888 396.315 295.55 396.442L295.372 395.985L298.876 394.563L299.434 394.563Z"/>
<path d="M306.645 388.482L306.645 403.907C306.645 404.635 306.698 405.117 306.804 405.354C306.91 405.591 307.073 405.771 307.293 405.894C307.513 406.017 307.923 406.078 308.524 406.078L308.524 406.535L302.824 406.535L302.824 406.078C303.357 406.078 303.721 406.023 303.916 405.913C304.11 405.803 304.263 405.621 304.373 405.367C304.483 405.113 304.538 404.627 304.538 403.907L304.538 393.345C304.538 392.033 304.508 391.227 304.449 390.926C304.39 390.626 304.295 390.42 304.163 390.31C304.032 390.2 303.865 390.145 303.662 390.145C303.442 390.145 303.163 390.213 302.824 390.349L302.608 389.904L306.074 388.482L306.645 388.482Z"/>
</g>
<g fill="#000000" opacity="1" stroke="none" vectornator:layerName="Text 5">
<path d="M390.806 389.79L390.806 389.32L398.182 389.32L398.182 389.79L397.56 389.79C396.857 389.79 396.345 389.997 396.024 390.412C395.821 390.683 395.719 391.335 395.719 392.367L395.719 400.784C395.719 402.079 395.577 403.129 395.294 403.933C395.01 404.737 394.521 405.437 393.827 406.034C393.133 406.63 392.296 406.929 391.314 406.929C390.518 406.929 389.892 406.732 389.435 406.338C388.978 405.945 388.749 405.494 388.749 404.986C388.749 404.572 388.855 404.258 389.067 404.047C389.346 403.784 389.672 403.653 390.044 403.653C390.315 403.653 390.558 403.742 390.774 403.92C390.99 404.098 391.263 404.572 391.593 405.342C391.788 405.799 392.037 406.027 392.342 406.027C392.571 406.027 392.784 405.888 392.983 405.608C393.182 405.329 393.282 404.834 393.282 404.123L393.282 392.367C393.282 391.495 393.227 390.92 393.117 390.641C393.032 390.429 392.854 390.247 392.583 390.095C392.219 389.892 391.834 389.79 391.428 389.79L390.806 389.79Z"/>
<path d="M402.105 388.482C402.46 388.482 402.763 388.607 403.013 388.857C403.262 389.107 403.387 389.409 403.387 389.765C403.387 390.12 403.262 390.425 403.013 390.679C402.763 390.933 402.46 391.059 402.105 391.059C401.749 391.059 401.445 390.933 401.191 390.679C400.937 390.425 400.81 390.12 400.81 389.765C400.81 389.409 400.935 389.107 401.184 388.857C401.434 388.607 401.741 388.482 402.105 388.482ZM403.159 394.563L403.159 403.907C403.159 404.635 403.211 405.12 403.317 405.361C403.423 405.602 403.58 405.782 403.787 405.9C403.994 406.019 404.373 406.078 404.923 406.078L404.923 406.535L399.274 406.535L399.274 406.078C399.841 406.078 400.222 406.023 400.416 405.913C400.611 405.803 400.765 405.621 400.88 405.367C400.994 405.113 401.051 404.627 401.051 403.907L401.051 399.426C401.051 398.165 401.013 397.348 400.937 396.976C400.878 396.705 400.785 396.516 400.658 396.411C400.531 396.305 400.357 396.252 400.137 396.252C399.9 396.252 399.612 396.315 399.274 396.442L399.096 395.985L402.6 394.563L403.159 394.563Z"/>
<path d="M409.557 396.912C410.683 395.346 411.897 394.563 413.201 394.563C414.394 394.563 415.435 395.073 416.324 396.093C417.212 397.113 417.657 398.507 417.657 400.276C417.657 402.341 416.971 404.004 415.6 405.266C414.424 406.349 413.112 406.891 411.664 406.891C410.987 406.891 410.3 406.768 409.601 406.522C408.903 406.277 408.19 405.909 407.462 405.418L407.462 393.37C407.462 392.05 407.431 391.237 407.367 390.933C407.304 390.628 407.204 390.42 407.069 390.31C406.933 390.2 406.764 390.145 406.561 390.145C406.324 390.145 406.028 390.213 405.672 390.349L405.494 389.904L408.986 388.482L409.557 388.482L409.557 396.912ZM409.557 397.725L409.557 404.682C409.989 405.105 410.435 405.424 410.896 405.64C411.358 405.856 411.829 405.964 412.312 405.964C413.082 405.964 413.799 405.541 414.464 404.694C415.128 403.848 415.46 402.616 415.46 401C415.46 399.51 415.128 398.366 414.464 397.566C413.799 396.766 413.044 396.366 412.198 396.366C411.749 396.366 411.3 396.48 410.852 396.709C410.513 396.878 410.082 397.217 409.557 397.725Z"/>
</g>
<g fill="#000000" opacity="1" stroke="none" vectornator:layerName="Text 6">
<path d="M59.33 454.879L43.405 455.568L54.0549 459.912C55.0345 460.312 55.6889 460.455 56.0182 460.343C56.4656 460.187 56.8172 459.796 57.0729 459.169L57.3031 458.604L57.738 458.782L55.4747 464.33L55.0398 464.153L55.27 463.588C55.5449 462.915 55.5361 462.353 55.2437 461.905C55.0633 461.63 54.5263 461.311 53.633 460.946L43.2181 456.698C42.5128 456.41 41.9715 456.281 41.5941 456.31C41.3221 456.327 41.0497 456.451 40.777 456.682C40.5043 456.914 40.2353 457.355 39.97 458.005L39.5351 457.828L41.3764 453.314L56.2075 452.618L46.0564 441.841L47.8977 437.327L48.3326 437.505L48.1072 438.057C47.8291 438.739 47.8363 439.304 48.1287 439.753C48.3092 440.027 48.8461 440.347 49.7394 440.711L60.1543 444.96C61.1339 445.359 61.7899 445.499 62.1223 445.379C62.5697 445.223 62.9213 444.832 63.1771 444.205L63.4024 443.652L63.8374 443.83L61.0754 450.6L60.6405 450.423L60.8706 449.859C61.1487 449.177 61.14 448.616 60.8444 448.175C60.6639 447.901 60.127 447.581 59.2336 447.217L48.5837 442.872L59.4882 454.491L59.33 454.879Z"/>
<path d="M48.7522 433.014C48.8865 432.685 49.1163 432.452 49.4418 432.315C49.7673 432.178 50.0946 432.177 50.4237 432.311C50.7529 432.446 50.9878 432.676 51.1286 433.003C51.2694 433.33 51.2727 433.659 51.1384 433.988C51.0042 434.317 50.7715 434.551 50.4405 434.69C50.1095 434.829 49.7795 434.832 49.4503 434.698C49.1212 434.563 48.8882 434.333 48.7513 434.008C48.6144 433.682 48.6147 433.351 48.7522 433.014ZM54.7808 434.335L63.4324 437.865C64.1064 438.14 64.575 438.274 64.8383 438.267C65.1016 438.26 65.3273 438.183 65.5153 438.036C65.7033 437.888 65.9012 437.56 66.109 437.051L66.5322 437.223L64.3984 442.454L63.9752 442.282C64.1894 441.757 64.2823 441.383 64.2539 441.161C64.2256 440.94 64.1154 440.728 63.9235 440.526C63.7316 440.324 63.3025 440.088 62.6364 439.816L58.4869 438.123C57.3193 437.647 56.5487 437.374 56.1751 437.304C55.9019 437.256 55.6924 437.271 55.5465 437.349C55.4006 437.426 55.2861 437.567 55.203 437.771C55.1135 437.99 55.0635 438.281 55.0532 438.642L54.5629 438.634L54.5698 434.853L54.7808 434.335Z"/>
<path d="M67.5926 425.179L70.843 426.656L66.9685 436.154L66.5454 435.981L59.9393 424.95L58.5008 428.476C58.1907 429.237 58.0367 429.754 58.0387 430.029C58.0408 430.304 58.1486 430.572 58.3621 430.833C58.6677 431.204 59.104 431.524 59.6711 431.792L59.4793 432.262L56.5223 430.974L60.2049 421.946L60.6399 422.123L67.2407 433.235L68.8422 429.308C69.1779 428.486 69.3371 427.899 69.3198 427.549C69.3026 427.2 69.1583 426.864 68.887 426.543C68.6874 426.316 68.2016 425.994 67.4296 425.579L67.5926 425.179Z"/>
<path d="M71.9513 414.494L75.2017 415.97L71.3273 425.468L70.9041 425.296L64.298 414.265L62.8595 417.791C62.5494 418.551 62.3954 419.069 62.3975 419.344C62.3995 419.619 62.5073 419.887 62.7209 420.148C63.0264 420.519 63.4627 420.839 64.0298 421.107L63.838 421.577L60.881 420.289L64.5637 411.261L64.9986 411.438L71.5994 422.549L73.201 418.623C73.5366 417.8 73.6958 417.214 73.6786 416.864C73.6613 416.514 73.517 416.179 73.2457 415.858C73.0461 415.63 72.5603 415.309 71.7883 414.893L71.9513 414.494Z"/>
<path d="M69.8227 409.965C71.4182 410.625 72.8303 410.748 74.059 410.335C75.2877 409.922 76.1178 409.187 76.5494 408.129C76.8371 407.424 76.8933 406.731 76.718 406.052C76.5426 405.373 76.0567 404.665 75.2602 403.929L75.6439 403.66C76.6504 404.263 77.433 405.139 77.9917 406.291C78.5505 407.442 78.5869 408.613 78.101 409.804C77.5736 411.097 76.6185 411.999 75.2359 412.509C73.8533 413.019 72.3117 412.927 70.6112 412.233C68.7695 411.482 67.5261 410.424 66.8808 409.059C66.2355 407.695 66.2037 406.299 66.7855 404.873C67.2778 403.666 68.0799 402.837 69.1918 402.386C70.3037 401.934 71.5258 401.98 72.858 402.524L69.8227 409.965ZM69.1409 409.686L71.174 404.702C70.4684 404.46 69.949 404.344 69.6157 404.355C69.0969 404.372 68.6331 404.523 68.224 404.808C67.815 405.094 67.5242 405.448 67.3516 405.872C67.0863 406.522 67.1016 407.207 67.3977 407.926C67.6938 408.646 68.2749 409.233 69.1409 409.686Z"/>
<path d="M72.6309 397.098C71.6253 395.216 71.3558 393.703 71.8225 392.559C72.0623 391.971 72.4154 391.525 72.8819 391.222C73.3484 390.919 73.9698 390.779 74.746 390.803C75.2865 390.823 76.0427 391.03 77.0144 391.427L81.6106 393.302C82.2924 393.58 82.7771 393.714 83.0648 393.703C83.2959 393.697 83.5054 393.62 83.6935 393.473C83.8815 393.325 84.081 392.993 84.292 392.476L84.7152 392.649L82.543 397.974L82.1198 397.801L82.2109 397.578C82.4155 397.076 82.4822 396.694 82.4109 396.432C82.3396 396.17 82.171 395.939 81.9052 395.739C81.8004 395.66 81.4385 395.494 80.8194 395.241L76.4113 393.443C75.4317 393.044 74.6686 392.881 74.1219 392.955C73.5753 393.029 73.1789 393.368 72.9327 393.971C72.5523 394.904 72.6829 396.04 73.3244 397.38L79.0021 399.696C79.7309 399.994 80.1991 400.134 80.4066 400.119C80.6786 400.102 80.9067 400.019 81.0908 399.87C81.2749 399.721 81.4869 399.353 81.7266 398.765L82.1498 398.938L79.9776 404.263L79.5544 404.09L79.6503 403.855C79.8741 403.306 79.8861 402.879 79.6862 402.574C79.4863 402.268 78.9945 401.956 78.2109 401.636L74.2142 400.006C72.9212 399.478 72.1216 399.186 71.8155 399.13C71.5094 399.074 71.2806 399.086 71.1292 399.165C70.9778 399.245 70.8605 399.387 70.7774 399.591C70.6879 399.81 70.6396 400.097 70.6325 400.45L70.1374 400.454L70.1443 396.673L70.3504 396.167L72.6309 397.098Z"/>
<path d="M79.2741 374.291L82.9416 375.787L82.7834 376.175C81.5099 376.003 80.5704 376.066 79.9649 376.362C79.3593 376.659 78.9095 377.168 78.6154 377.889C78.3917 378.438 78.356 378.94 78.5085 379.395C78.661 379.85 78.9136 380.15 79.2662 380.294C79.7051 380.473 80.1324 380.501 80.5481 380.378C80.9685 380.266 81.5108 379.911 82.175 379.314L83.7097 377.938C85.1344 376.664 86.4816 376.285 87.7511 376.803C88.7307 377.203 89.3692 377.895 89.6666 378.88C89.964 379.865 89.9257 380.816 89.5517 381.733C89.2832 382.392 88.8587 383.096 88.2784 383.846C88.0945 384.073 87.969 384.269 87.9019 384.433C87.8284 384.613 87.8727 384.796 88.0349 384.981L87.8767 385.369L84.0328 383.801L84.191 383.413C85.3777 383.641 86.3755 383.559 87.1844 383.167C87.9933 382.775 88.5545 382.195 88.8677 381.427C89.0883 380.886 89.1094 380.381 88.9311 379.91C88.7528 379.44 88.4403 379.114 87.9936 378.931C87.4529 378.711 86.9208 378.715 86.3975 378.945C85.8741 379.175 85.0985 379.743 84.0708 380.649C83.043 381.555 82.2299 382.092 81.6316 382.259C81.041 382.43 80.4049 382.376 79.7231 382.098C78.8375 381.737 78.2209 381.131 77.873 380.281C77.5252 379.43 77.5479 378.523 77.9411 377.559C78.1137 377.136 78.4132 376.66 78.8396 376.13C79.1202 375.778 79.2876 375.535 79.342 375.402C79.3931 375.277 79.4057 375.168 79.3796 375.075C79.3535 374.982 79.2656 374.85 79.1159 374.679L79.2741 374.291Z"/>
<path d="M92.279 369.67C92.6824 371.123 92.8932 372.018 92.9114 372.354C92.9347 372.858 92.8488 373.348 92.6538 373.826C92.3501 374.571 91.8453 375.08 91.1393 375.354C90.4333 375.628 89.665 375.596 88.8343 375.257C88.3093 375.043 87.9027 374.74 87.6146 374.348C87.2128 373.809 86.939 373.047 86.7933 372.059C86.6475 371.072 86.6149 369.516 86.6954 367.392L86.2722 367.219C85.1986 366.781 84.3924 366.651 83.8537 366.829C83.315 367.007 82.913 367.421 82.6476 368.072C82.4462 368.565 82.4196 369.012 82.5678 369.41C82.7128 369.817 82.9576 370.09 83.3025 370.231L83.9938 370.485C84.3543 370.633 84.595 370.838 84.7157 371.102C84.8365 371.366 84.8362 371.647 84.7147 371.945C84.5964 372.235 84.3979 372.43 84.119 372.531C83.8401 372.633 83.5244 372.611 83.1717 372.467C82.4978 372.192 82.0193 371.595 81.7364 370.675C81.4535 369.755 81.5662 368.673 82.0744 367.426C82.4644 366.47 82.9448 365.752 83.5154 365.272C83.9469 364.909 84.4661 364.723 85.0728 364.715C85.4673 364.711 86.1857 364.922 87.228 365.347L90.8838 366.838C91.9104 367.257 92.5472 367.494 92.7944 367.549C93.0416 367.604 93.2227 367.603 93.3378 367.544C93.453 367.486 93.5345 367.398 93.5825 367.281C93.6336 367.156 93.6509 367.035 93.6344 366.918C93.5997 366.712 93.4431 366.278 93.1647 365.616L93.823 365.885C94.6405 367.242 94.8862 368.32 94.5601 369.119C94.4034 369.503 94.1456 369.755 93.7864 369.873C93.4273 369.992 92.9248 369.924 92.279 369.67ZM91.5149 369.358L87.4124 367.684C87.3999 369.06 87.4213 369.96 87.4766 370.384C87.5688 371.144 87.7487 371.734 88.0162 372.154C88.2836 372.574 88.6407 372.875 89.0874 373.057C89.6516 373.287 90.1886 373.31 90.6983 373.124C91.208 372.939 91.5524 372.627 91.7314 372.188C91.9743 371.593 91.9022 370.649 91.5149 369.358Z"/>
<path d="M80.1025 356.161C80.2367 355.831 80.4666 355.598 80.7921 355.462C81.1176 355.325 81.4449 355.323 81.774 355.458C82.1032 355.592 82.3381 355.823 82.4789 356.15C82.6197 356.477 82.623 356.805 82.4887 357.134C82.3545 357.463 82.1218 357.697 81.7908 357.837C81.4598 357.976 81.1298 357.978 80.8006 357.844C80.4715 357.71 80.2385 357.48 80.1016 357.154C79.9647 356.829 79.965 356.498 80.1025 356.161ZM86.1311 357.482L94.7827 361.011C95.4566 361.286 95.9253 361.42 96.1886 361.413C96.4519 361.406 96.6775 361.329 96.8656 361.182C97.0536 361.035 97.2515 360.706 97.4593 360.197L97.8825 360.37L95.7487 365.601L95.3255 365.428C95.5397 364.903 95.6326 364.529 95.6042 364.308C95.5759 364.086 95.4657 363.874 95.2738 363.672C95.0818 363.471 94.6528 363.234 93.9867 362.962L89.8372 361.27C88.6696 360.793 87.899 360.52 87.5254 360.45C87.2522 360.403 87.0427 360.418 86.8968 360.495C86.7509 360.573 86.6364 360.713 86.5532 360.917C86.4637 361.137 86.4138 361.427 86.4035 361.789L85.9132 361.78L85.9201 357.999L86.1311 357.482Z"/>
<path d="M83.2241 348.508L97.5063 354.334C98.1803 354.609 98.6469 354.742 98.9063 354.734C99.1657 354.725 99.3938 354.643 99.5905 354.485C99.7872 354.328 99.9991 353.971 100.226 353.414L100.649 353.587L98.4963 358.865L98.0731 358.692C98.2745 358.199 98.361 357.841 98.3326 357.619C98.3043 357.397 98.1933 357.188 97.9998 356.99C97.8063 356.792 97.3764 356.557 96.7103 356.286L86.9302 352.296C85.7156 351.801 84.9579 351.523 84.6574 351.465C84.3568 351.406 84.1308 351.417 83.9793 351.497C83.8279 351.577 83.7138 351.711 83.6371 351.899C83.554 352.102 83.5112 352.387 83.5087 352.751L83.0158 352.783L83.0083 349.037L83.2241 348.508Z"/>
</g>
</g>
<clipPath id="ArtboardFrame">
<rect height="595.35" width="586.958" x="0" y="0"/>
</clipPath>
<g clip-path="url(#ArtboardFrame)" id="Hull" vectornator:layerName="Hull">
<path d="M434.784 534.918C434.784 534.918 413.393 522.546 360.301 517.358C307.209 512.171 222.415 514.168 222.415 514.168L203.518 526.16L122.353 526.403L116.969 538.405C116.969 538.405 205.693 545.32 284.054 544.448C362.414 543.576 434.784 534.918 434.784 534.918Z" fill="#dddddd" fill-rule="nonzero" opacity="1" stroke="#000000" stroke-linecap="butt" stroke-linejoin="miter" stroke-width="3" vectornator:layerName="Curve 6"/>
<path d="M466.725 575.765L518.379 532.02C518.379 532.02 419.201 536.85 310.336 538.485C201.471 540.119 82.9199 538.557 82.9199 538.557L70.1167 559.985C70.1167 559.985 76.5464 562.913 81.0304 566.756C85.5143 570.599 88.0525 575.357 88.0525 575.357L466.725 575.765Z" fill="#dddddd" fill-rule="nonzero" opacity="1" stroke="#000000" stroke-linecap="butt" stroke-linejoin="miter" stroke-width="3" vectornator:layerName="Hull"/>
<path d="M0 572.765L586.958 572.765L586.958 595.35L0 595.35L0 572.765Z" fill="#1991e8" fill-rule="nonzero" opacity="1" stroke="none" vectornator:layerName="Rectangle 1"/>
</g>
</svg>
