<?xml version="1.0" encoding="UTF-8" standalone="no"?>
<!DOCTYPE svg PUBLIC "-//W3C//DTD SVG 1.1//EN" "http://www.w3.org/Graphics/SVG/1.1/DTD/svg11.dtd">
<!-- Created with Vectornator (http://vectornator.io/) -->
<svg height="100%" stroke-miterlimit="10" style="fill-rule:nonzero;clip-rule:evenodd;stroke-linecap:round;stroke-linejoin:round;" version="1.1" viewBox="0 0 350 860" width="100%" xml:space="preserve" xmlns="http://www.w3.org/2000/svg" xmlns:vectornator="http://vectornator.io" xmlns:xlink="http://www.w3.org/1999/xlink">
<defs/>
<clipPath id="ArtboardFrame">
<rect height="860" width="350" x="0" y="0"/>
</clipPath>
<g clip-path="url(#ArtboardFrame)" id="Mast" vectornator:layerName="Mast">
<path d="M153.002 860.001L174 860L174 523.5C174 519.396 169.733 4.37006 166.358 2.82874C165.191 2.29572 163.902 1.70611 162.547 1.70611C161.325 1.70611 160.157 2.2407 159.083 2.67915C155.524 4.13206 153.002 518.756 153.002 522.999L153.002 860.001Z" fill="#000000" fill-rule="evenodd" opacity="1" stroke="#000000" stroke-linecap="butt" stroke-linejoin="miter" stroke-width="3" vectornator:layerName="Mast"/>
<g opacity="1" vectornator:layerName="Group 1">
<path d="M72.0249 250.842C72.0249 250.842 107.232 243.64 129.776 240.9C152.321 238.159 161.853 237 161.853 237L163.002 246.451C163.002 246.451 153.466 247.584 130.922 250.324C108.377 253.065 72.5617 255.258 72.5617 255.258C72.5617 255.258 71.068 254.468 70.9338 253.364C70.7996 252.26 72.0249 250.842 72.0249 250.842Z" fill="#000000" fill-rule="nonzero" opacity="1" stroke="#000000" stroke-linecap="butt" stroke-linejoin="miter" stroke-width="3" vectornator:layerName="Rectangle 1"/>
<path d="M254.978 250.842C254.978 250.842 219.771 243.64 197.227 240.9C174.682 238.159 165.15 237 165.15 237L164.001 246.451C164.001 246.451 173.537 247.584 196.081 250.324C218.626 253.065 254.441 255.258 254.441 255.258C254.441 255.258 255.935 254.468 256.069 253.364C256.203 252.26 254.978 250.842 254.978 250.842Z" fill="#000000" fill-rule="nonzero" opacity="1" stroke="#000000" stroke-linecap="butt" stroke-linejoin="miter" stroke-width="3" vectornator:layerName="Rectangle 2"/>
</g>
<g opacity="1" vectornator:layerName="Group 2">
<path d="M34.547 515.852C34.547 515.852 83.9856 504.196 115.643 499.76C147.301 495.324 160.687 493.448 160.687 493.448L162.301 508.745C162.301 508.745 148.91 510.578 117.252 515.014C85.5945 519.45 35.3009 522.999 35.3009 522.999C35.3009 522.999 33.2034 521.721 33.0149 519.934C32.8265 518.147 34.547 515.852 34.547 515.852Z" fill="#000000" fill-rule="nonzero" opacity="1" stroke="#000000" stroke-linecap="butt" stroke-linejoin="miter" stroke-width="3" vectornator:layerName="Rectangle 1"/>
<path d="M291.457 515.852C291.457 515.852 242.018 504.196 210.361 499.76C178.703 495.324 165.317 493.448 165.317 493.448L163.703 508.745C163.703 508.745 177.094 510.578 208.752 515.014C240.409 519.45 290.703 522.999 290.703 522.999C290.703 522.999 292.801 521.721 292.989 519.934C293.178 518.147 291.457 515.852 291.457 515.852Z" fill="#000000" fill-rule="nonzero" opacity="1" stroke="#000000" stroke-linecap="butt" stroke-linejoin="miter" stroke-width="3" vectornator:layerName="Rectangle 2"/>
</g>
</g>
<g clip-path="url(#ArtboardFrame)" id="Rigging" vectornator:layerName="Rigging">
<path d="M35.003 523L73.386 255.258" fill="none" opacity="1" stroke="#000000" stroke-linecap="butt" stroke-linejoin="miter" stroke-width="3" vectornator:layerName="path"/>
<path d="M34.999 523L30 860" fill="none" opacity="1" stroke="#000000" stroke-linecap="butt" stroke-linejoin="miter" stroke-width="3" vectornator:layerName="path"/>
<path d="M163.002 1.70611L73.386 255.258" fill="none" opacity="1" stroke="#000000" stroke-linecap="butt" stroke-linejoin="miter" stroke-width="3" vectornator:layerName="path"/>
<path d="M163.002 1.70611L253.002 255.258" fill="none" opacity="1" stroke="#000000" stroke-linecap="butt" stroke-linejoin="miter" stroke-width="3" vectornator:layerName="path"/>
<path d="M290.001 523L253.002 255.258" fill="none" opacity="1" stroke="#000000" stroke-linecap="butt" stroke-linejoin="miter" stroke-width="3" vectornator:layerName="path"/>
<path d="M289.993 860.001L290.003 523" fill="none" opacity="1" stroke="#000000" stroke-linecap="butt" stroke-linejoin="miter" stroke-width="3" vectornator:layerName="path"/>
<path d="M163.002 246.129L35.003 522.999" fill="none" opacity="1" stroke="#000000" stroke-linecap="butt" stroke-linejoin="miter" stroke-width="3" vectornator:layerName="path"/>
<path d="M163.002 508.224L32.4995 860" fill="none" opacity="1" stroke="#000000" stroke-linecap="butt" stroke-linejoin="miter" stroke-width="3" vectornator:layerName="path 1"/>
<path d="M163.501 508.224L289.993 860" fill="none" opacity="1" stroke="#000000" stroke-linecap="butt" stroke-linejoin="miter" stroke-width="3" vectornator:layerName="path 2"/>
<path d="M163.501 246.129L289.993 522.999" fill="none" opacity="1" stroke="#000000" stroke-linecap="butt" stroke-linejoin="miter" stroke-width="3" vectornator:layerName="path"/>
</g>
<g id="Annotations" vectornator:layerName="Annotations">
<path d="M339.15 563.682L343.823 561.402L344.291 561.402L344.291 577.616C344.291 578.692 344.335 579.362 344.425 579.626C344.515 579.891 344.701 580.094 344.984 580.235C345.268 580.377 345.843 580.457 346.712 580.476L346.712 581L339.49 581L339.49 580.476C340.397 580.457 340.982 580.379 341.246 580.242C341.51 580.106 341.695 579.921 341.798 579.69C341.902 579.459 341.954 578.767 341.954 577.616L341.954 567.25C341.954 565.853 341.907 564.957 341.813 564.56C341.746 564.258 341.626 564.036 341.451 563.895C341.277 563.753 341.067 563.682 340.821 563.682C340.472 563.682 339.986 563.828 339.363 564.121L339.15 563.682Z" fill="#000000" fill-rule="nonzero" opacity="1" stroke="none" vectornator:layerName="text"/>
<path d="M316.048 650.304L314.703 654L303.375 654L303.375 653.476C306.707 650.436 309.053 647.954 310.413 646.028C311.772 644.102 312.452 642.341 312.452 640.746C312.452 639.528 312.079 638.528 311.333 637.744C310.587 636.961 309.695 636.569 308.657 636.569C307.713 636.569 306.866 636.845 306.115 637.397C305.365 637.949 304.81 638.759 304.451 639.826L303.927 639.826C304.163 638.079 304.77 636.739 305.747 635.804C306.724 634.87 307.944 634.402 309.407 634.402C310.965 634.402 312.265 634.903 313.308 635.903C314.352 636.904 314.873 638.084 314.873 639.443C314.873 640.416 314.647 641.388 314.193 642.36C313.495 643.89 312.362 645.509 310.795 647.217C308.444 649.785 306.976 651.333 306.391 651.862L311.404 651.862C312.423 651.862 313.138 651.824 313.549 651.749C313.96 651.673 314.33 651.52 314.661 651.288C314.991 651.057 315.279 650.729 315.524 650.304L316.048 650.304Z" fill="#000000" fill-rule="nonzero" opacity="1" stroke="none" vectornator:layerName="text"/>
<path d="M68.225 638.452C68.772 637.159 69.464 636.161 70.299 635.457C71.135 634.754 72.175 634.402 73.421 634.402C74.96 634.402 76.14 634.903 76.961 635.903C77.585 636.649 77.896 637.447 77.896 638.296C77.896 639.694 77.018 641.138 75.262 642.629C76.442 643.092 77.334 643.753 77.939 644.612C78.543 645.471 78.845 646.481 78.845 647.642C78.845 649.304 78.316 650.743 77.259 651.961C75.881 653.547 73.884 654.34 71.269 654.34C69.976 654.34 69.096 654.179 68.628 653.858C68.161 653.537 67.927 653.193 67.927 652.825C67.927 652.551 68.038 652.31 68.26 652.103C68.482 651.895 68.749 651.791 69.06 651.791C69.296 651.791 69.537 651.829 69.782 651.904C69.943 651.951 70.306 652.124 70.873 652.421C71.439 652.719 71.831 652.896 72.048 652.952C72.397 653.056 72.77 653.108 73.167 653.108C74.129 653.108 74.967 652.735 75.68 651.989C76.393 651.243 76.749 650.361 76.749 649.341C76.749 648.596 76.584 647.869 76.253 647.161C76.008 646.632 75.739 646.231 75.446 645.957C75.04 645.579 74.483 645.237 73.775 644.93C73.067 644.624 72.345 644.47 71.609 644.47L71.156 644.47L71.156 644.045C71.902 643.951 72.65 643.682 73.4 643.238C74.151 642.795 74.696 642.261 75.036 641.638C75.376 641.015 75.545 640.331 75.545 639.585C75.545 638.613 75.241 637.827 74.632 637.227C74.023 636.628 73.266 636.328 72.359 636.328C70.896 636.328 69.674 637.112 68.692 638.679L68.225 638.452Z" fill="#000000" fill-rule="nonzero" opacity="1" stroke="none" vectornator:layerName="text"/>
<path d="M253.002 46.0001C253.002 37.7161 246.286 31.0001 238.002 31.0001C229.718 31.0001 223.002 37.7161 223.002 46.0001C223.002 54.2841 229.718 61.0001 238.002 61.0001C246.286 61.0001 253.002 54.2841 253.002 46.0001Z" fill="#1eb100" fill-rule="evenodd" opacity="1" stroke="none" vectornator:layerName="path"/>
<path d="M102.002 46.0001C102.002 37.7161 95.286 31.0001 87.002 31.0001C78.718 31.0001 72.002 37.7161 72.002 46.0001C72.002 54.2841 78.718 61.0001 87.002 61.0001C95.286 61.0001 102.002 54.2841 102.002 46.0001Z" fill="#ed230d" fill-rule="evenodd" opacity="1" stroke="none" vectornator:layerName="path"/>
</g>
<g clip-path="url(#ArtboardFrame)" id="Flags" vectornator:layerName="Flags">
<path d="M223.002 508.224L223.002 860" fill="none" opacity="1" stroke="#000000" stroke-linecap="butt" stroke-linejoin="miter" stroke-width="3" vectornator:layerName="path"/>
<path d="M102.002 508.224L102.002 860" fill="none" opacity="1" stroke="#000000" stroke-linecap="butt" stroke-linejoin="miter" stroke-width="3" vectornator:layerName="path"/>
<path d="M223.002 677L283.002 677L283.002 617L223.002 617L223.002 677Z" fill="#f9e231" fill-rule="evenodd" opacity="1" stroke="#000000" stroke-linecap="butt" stroke-linejoin="miter" stroke-width="3" vectornator:layerName="Q-Flag"/>
<path d="M200.252 665.519L102.002 639.538L102.002 691.5L200.252 665.519Z" fill="#1eb100" fill-rule="evenodd" opacity="1" stroke="#000000" stroke-linecap="butt" stroke-linejoin="miter" stroke-width="3" vectornator:layerName="Custom pennant"/>
<path d="M102.002 850L139.002 850L139.002 704L102.002 704L102.002 850Z" fill="#3e68ff" fill-rule="evenodd" opacity="1" stroke="#000000" stroke-linecap="butt" stroke-linejoin="miter" stroke-width="3" vectornator:layerName="Custom Banner"/>
<g opacity="1" vectornator:layerName="Group 1">
<path d="M103.002 571.201L202.002 571.201L202.002 628.201L103.002 628.201" fill="#000000" fill-rule="nonzero" opacity="1" stroke="#000000" stroke-linecap="butt" stroke-linejoin="miter" stroke-width="5" vectornator:layerName="Rectangle 1"/>
<g opacity="1" vectornator:layerName="Group 1">
<path d="M103.002 571.201L202.002 571.201L202.002 590.201L103.002 590.201" fill="#000000" fill-rule="nonzero" opacity="1" stroke="none" vectornator:layerName="Rectangle 1"/>
<path d="M103.002 590.201L202.002 590.201L202.002 609.201L103.002 609.201" fill="#ed230d" fill-rule="nonzero" opacity="1" stroke="none" vectornator:layerName="Rectangle 2"/>
<path d="M103.002 609.201L202.002 609.201L202.002 628.201L103.002 628.201" fill="#f7ba00" fill-rule="nonzero" opacity="1" stroke="none" vectornator:layerName="Rectangle 3"/>
</g>
</g>
<g opacity="1" vectornator:layerName="Group 2">
<path d="M224.498 546.245L323.498 546.245L323.498 603.245L224.498 603.245" fill="#000000" fill-rule="nonzero" opacity="1" stroke="#000000" stroke-linecap="butt" stroke-linejoin="miter" stroke-width="5" vectornator:layerName="Rectangle 1"/>
<path d="M224.498 546.245L257.498 546.245L257.498 603.245L224.498 603.245L224.498 546.245Z" fill="#ed230d" fill-rule="nonzero" opacity="1" stroke="none" vectornator:layerName="Rectangle 1"/>
<path d="M257.498 546.245L290.498 546.245L290.498 603.245L257.498 603.245L257.498 546.245Z" fill="#ffffff" fill-rule="nonzero" opacity="1" stroke="none" vectornator:layerName="Rectangle 2"/>
<path d="M290.498 546.245L323.498 546.245L323.498 603.245L290.498 603.245L290.498 546.245Z" fill="#1a00ff" fill-rule="nonzero" opacity="1" stroke="none" vectornator:layerName="Rectangle 3"/>
</g>
</g>
</svg>
