<?xml version="1.0" encoding="UTF-8"?>
<!-- Generated by Pixelmator Pro 3.6.8 -->
<svg width="900" height="600" viewBox="0 0 900 600" xmlns="http://www.w3.org/2000/svg">
    <g id="Final">
        <g id="Boat">
            <g id="Group">
                <path id="Path" fill="#dddddd" stroke="#000000" stroke-width="3.231421" d="M 715.427246 478.555756 C 715.427246 478.555756 696.411438 344.863281 712.114502 258.773926 C 729.128235 165.498962 767.077759 77.357666 767.077759 77.357666 C 767.077759 77.357666 805.027527 165.498962 822.040955 258.773926 C 837.74353 344.863281 818.727661 478.555756 818.727661 478.555756 L 715.427246 478.555756 Z"/>
                <path id="path1" fill="none" stroke="#000000" stroke-width="3.231421" d="M 762.773499 101.09137 L 758.042664 114.041809"/>
                <path id="path2" fill="none" stroke="#000000" stroke-width="3.231421" d="M 717.805176 457.959778 L 719.588867 471.631897"/>
                <path id="path3" fill="none" stroke="#000000" stroke-width="3.231421" d="M 712.225647 296.52121 L 711.546631 310.29245"/>
                <path id="path4" fill="none" stroke="#000000" stroke-width="3.231421" d="M 822.608643 310.29245 L 821.930054 296.52121"/>
                <path id="path5" fill="none" stroke="#000000" stroke-width="3.231421" d="M 816.48291 457.959778 L 814.699219 471.631897"/>
                <path id="path6" fill="none" stroke="#000000" stroke-width="3.231421" d="M 771.382019 101.09137 L 776.112793 114.041809"/>
            </g>
        </g>
        <g id="Stern-to">
            <path id="path7" fill="#dddddd" stroke="#000000" stroke-width="3.231421" d="M 644.433472 503.389221 L 889.721985 503.389221 L 889.721985 595 L 644.433472 595 L 644.433472 503.389221 Z"/>
            <path id="path8" fill="#000000" stroke="#000000" stroke-width="3.231421" d="M 847.525024 519.519409 C 847.525024 516.146851 850.25885 513.411987 853.632385 513.411987 C 857.004944 513.411987 859.739807 516.146851 859.739807 519.519409 C 859.739807 522.891968 857.004944 525.62677 853.632385 525.62677 C 850.25885 525.62677 847.525024 522.891968 847.525024 519.519409 Z"/>
            <path id="path9" fill="#000000" stroke="#000000" stroke-width="3.231421" d="M 674.415588 519.519409 C 674.415588 516.146851 677.150024 513.411987 680.522949 513.411987 C 683.895996 513.411987 686.63031 516.146851 686.63031 519.519409 C 686.63031 522.891968 683.895996 525.62677 680.522949 525.62677 C 677.150024 525.62677 674.415588 522.891968 674.415588 519.519409 Z"/>
            <path id="path10" fill="#000000" stroke="#000000" stroke-width="3.231421" d="M 847.525024 11.107361 C 847.525024 7.734314 850.25885 5 853.632385 5 C 857.004944 5 859.739807 7.734314 859.739807 11.107361 C 859.739807 14.480347 857.004944 17.214783 853.632385 17.214783 C 850.25885 17.214783 847.525024 14.480347 847.525024 11.107361 Z"/>
            <path id="path11" fill="#000000" stroke="#000000" stroke-width="3.231421" d="M 674.415588 11.107361 C 674.415588 7.734314 677.150024 5 680.522949 5 C 683.895996 5 686.63031 7.734314 686.63031 11.107361 C 686.63031 14.480347 683.895996 17.214783 680.522949 17.214783 C 677.150024 17.214783 674.415588 14.480347 674.415588 11.107361 Z"/>
            <path id="path12" fill="none" stroke="#ed230d" stroke-width="3.231421" stroke-linecap="round" d="M 773.535217 106.540619 L 853.632385 11.107361"/>
            <path id="path13" fill="none" stroke="#ed230d" stroke-width="3.231421" stroke-linecap="round" d="M 815.248535 465.005341 L 853.632385 519.519409"/>
            <path id="path14" fill="none" stroke="#ed230d" stroke-width="3.231421" stroke-linecap="round" d="M 718.593201 465.005341 L 680.522949 519.519409"/>
            <path id="path15" fill="none" stroke="#ed230d" stroke-width="3.231421" stroke-linecap="round" d="M 760.848633 106.540619 L 680.522949 11.107361"/>
            <path id="path16" fill="#dddddd" stroke="#141414" stroke-width="3.231421" stroke-linecap="round" d="M 705.90155 211.83429 C 705.90155 207.61731 709.319519 204.199554 713.535767 204.199554 C 717.752014 204.199554 721.170044 207.61731 721.170044 211.83429 C 721.170044 216.050232 717.752014 219.467987 713.535767 219.467987 C 709.319519 219.467987 705.90155 216.050232 705.90155 211.83429 Z"/>
            <path id="path17" fill="#dddddd" stroke="#141414" stroke-width="3.231421" stroke-linecap="round" d="M 829.331055 309.493225 C 829.331055 305.277283 832.74884 301.859528 836.964722 301.859528 C 841.181763 301.859528 844.599487 305.277283 844.599487 309.493225 C 844.599487 313.710205 841.181763 317.12796 836.964722 317.12796 C 832.74884 317.12796 829.331055 313.710205 829.331055 309.493225 Z"/>
            <path id="path18" fill="#dddddd" stroke="#141414" stroke-width="3.231421" stroke-linecap="round" d="M 812.985474 211.83429 C 812.985474 207.61731 816.403198 204.199554 820.619141 204.199554 C 824.836182 204.199554 828.253906 207.61731 828.253906 211.83429 C 828.253906 216.050232 824.836182 219.467987 820.619141 219.467987 C 816.403198 219.467987 812.985474 216.050232 812.985474 211.83429 Z"/>
            <path id="path19" fill="#dddddd" stroke="#141414" stroke-width="3.231421" stroke-linecap="round" d="M 689.555969 309.493225 C 689.555969 305.277283 692.973938 301.859528 697.190186 301.859528 C 701.406433 301.859528 704.824402 305.277283 704.824402 309.493225 C 704.824402 313.710205 701.406433 317.12796 697.190186 317.12796 C 692.973938 317.12796 689.555969 313.710205 689.555969 309.493225 Z"/>
            <path id="path20" fill="#dddddd" stroke="#141414" stroke-width="3.231421" stroke-linecap="round" d="M 714.353455 490.320282 C 714.353455 484.417572 719.13855 479.632904 725.041382 479.632904 C 730.944092 479.632904 735.729309 484.417572 735.729309 490.320282 C 735.729309 496.223022 730.944092 501.008728 725.041382 501.008728 C 719.13855 501.008728 714.353455 496.223022 714.353455 490.320282 Z"/>
            <path id="path21" fill="#dddddd" stroke="#141414" stroke-width="3.231421" stroke-linecap="round" d="M 692.002258 429.623413 C 692.002258 425.407532 695.420105 421.989746 699.636475 421.989746 C 703.852722 421.989746 707.270691 425.407532 707.270691 429.623413 C 707.270691 433.840424 703.852722 437.258179 699.636475 437.258179 C 695.420105 437.258179 692.002258 433.840424 692.002258 429.623413 Z"/>
            <path id="path22" fill="#dddddd" stroke="#141414" stroke-width="3.231421" stroke-linecap="round" d="M 826.884888 429.623413 C 826.884888 425.407532 830.302612 421.989746 834.518555 421.989746 C 838.735535 421.989746 842.15332 425.407532 842.15332 429.623413 C 842.15332 433.840424 838.735535 437.258179 834.518555 437.258179 C 830.302612 437.258179 826.884888 433.840424 826.884888 429.623413 Z"/>
            <path id="path23" fill="#dddddd" stroke="#141414" stroke-width="3.231421" stroke-linecap="round" d="M 798.425781 489.243134 C 798.425781 483.340424 803.211487 478.555756 809.114197 478.555756 C 815.016968 478.555756 819.801575 483.340424 819.801575 489.243134 C 819.801575 495.145874 815.016968 499.93161 809.114197 499.93161 C 803.211487 499.93161 798.425781 495.145874 798.425781 489.243134 Z"/>
            <path id="path24" fill="none" stroke="#ed230d" stroke-width="3.231421" d="M 773.690308 107.055481 C 773.690308 107.055481 843.519165 97.409119 866.039917 164.143921 C 898.920227 261.576874 854.554199 520.229248 854.554199 520.229248"/>
            <path id="Path-copy" fill="none" stroke="#ed230d" stroke-width="3.231421" d="M 756.809448 107.056 C 756.809448 107.056 690.343811 97.3992 668.907776 164.206299 C 637.611145 261.744751 679.840332 520.677307 679.840332 520.677307"/>
        </g>
    </g>
    <g id="Middle">
        <g id="g1">
            <g id="g2">
                <path id="path25" fill="#dddddd" stroke="#000000" stroke-width="3.231421" d="M 397.427246 435.555756 C 397.427246 435.555756 378.411407 301.863281 394.114502 215.773926 C 411.128265 122.498962 449.077728 34.357666 449.077728 34.357666 C 449.077728 34.357666 487.027557 122.498962 504.040985 215.773926 C 519.74353 301.863281 500.727692 435.555756 500.727692 435.555756 L 397.427246 435.555756 Z"/>
                <path id="path26" fill="none" stroke="#000000" stroke-width="3.231421" d="M 444.773499 58.09137 L 440.042694 71.041809"/>
                <path id="path27" fill="none" stroke="#000000" stroke-width="3.231421" d="M 399.805145 414.959778 L 401.588898 428.631897"/>
                <path id="path28" fill="none" stroke="#000000" stroke-width="3.231421" d="M 394.225677 253.52121 L 393.546631 267.29245"/>
                <path id="path29" fill="none" stroke="#000000" stroke-width="3.231421" d="M 504.608612 267.29245 L 503.930023 253.52121"/>
                <path id="path30" fill="none" stroke="#000000" stroke-width="3.231421" d="M 498.48291 414.959778 L 496.699188 428.631897"/>
                <path id="path31" fill="none" stroke="#000000" stroke-width="3.231421" d="M 453.381989 58.09137 L 458.112793 71.041809"/>
            </g>
            <path id="path32" fill="#dddddd" stroke="#141414" stroke-width="3.231421" stroke-linecap="round" d="M 387.90155 168.83429 C 387.90155 164.61731 391.31955 161.199554 395.535797 161.199554 C 399.752045 161.199554 403.170013 164.61731 403.170013 168.83429 C 403.170013 173.050232 399.752045 176.467987 395.535797 176.467987 C 391.31955 176.467987 387.90155 173.050232 387.90155 168.83429 Z"/>
            <path id="path33" fill="#dddddd" stroke="#141414" stroke-width="3.231421" stroke-linecap="round" d="M 511.331055 266.493225 C 511.331055 262.277283 514.74884 258.859528 518.964722 258.859528 C 523.181763 258.859528 526.599487 262.277283 526.599487 266.493225 C 526.599487 270.710205 523.181763 274.12796 518.964722 274.12796 C 514.74884 274.12796 511.331055 270.710205 511.331055 266.493225 Z"/>
            <path id="path34" fill="#dddddd" stroke="#141414" stroke-width="3.231421" stroke-linecap="round" d="M 494.985443 168.83429 C 494.985443 164.61731 498.403229 161.199554 502.619141 161.199554 C 506.836151 161.199554 510.253937 164.61731 510.253937 168.83429 C 510.253937 173.050232 506.836151 176.467987 502.619141 176.467987 C 498.403229 176.467987 494.985443 173.050232 494.985443 168.83429 Z"/>
            <path id="path35" fill="#dddddd" stroke="#141414" stroke-width="3.231421" stroke-linecap="round" d="M 371.555969 266.493225 C 371.555969 262.277283 374.973938 258.859528 379.190186 258.859528 C 383.406433 258.859528 386.824432 262.277283 386.824432 266.493225 C 386.824432 270.710205 383.406433 274.12796 379.190186 274.12796 C 374.973938 274.12796 371.555969 270.710205 371.555969 266.493225 Z"/>
            <path id="path36" fill="#dddddd" stroke="#141414" stroke-width="3.231421" stroke-linecap="round" d="M 396.353455 447.320282 C 396.353455 441.417572 401.13855 436.632874 407.041382 436.632874 C 412.944092 436.632874 417.729309 441.417572 417.729309 447.320282 C 417.729309 453.223022 412.944092 458.008728 407.041382 458.008728 C 401.13855 458.008728 396.353455 453.223022 396.353455 447.320282 Z"/>
            <path id="path37" fill="#dddddd" stroke="#141414" stroke-width="3.231421" stroke-linecap="round" d="M 374.002258 386.623413 C 374.002258 382.407532 377.420135 378.989746 381.636475 378.989746 C 385.852722 378.989746 389.270721 382.407532 389.270721 386.623413 C 389.270721 390.840424 385.852722 394.258179 381.636475 394.258179 C 377.420135 394.258179 374.002258 390.840424 374.002258 386.623413 Z"/>
            <path id="path38" fill="#dddddd" stroke="#141414" stroke-width="3.231421" stroke-linecap="round" d="M 508.884857 386.623413 C 508.884857 382.407532 512.302612 378.989746 516.518555 378.989746 C 520.735535 378.989746 524.15332 382.407532 524.15332 386.623413 C 524.15332 390.840424 520.735535 394.258179 516.518555 394.258179 C 512.302612 394.258179 508.884857 390.840424 508.884857 386.623413 Z"/>
            <path id="path39" fill="#dddddd" stroke="#141414" stroke-width="3.231421" stroke-linecap="round" d="M 480.425751 446.243134 C 480.425751 440.340424 485.211487 435.555756 491.114197 435.555756 C 497.016937 435.555756 501.801605 440.340424 501.801605 446.243134 C 501.801605 452.145874 497.016937 456.93161 491.114197 456.93161 C 485.211487 456.93161 480.425751 452.145874 480.425751 446.243134 Z"/>
        </g>
        <g id="g3">
            <path id="path40" fill="#dddddd" stroke="#000000" stroke-width="3.231421" d="M 327.433472 503.389221 L 572.721985 503.389221 L 572.721985 595 L 327.433472 595 L 327.433472 503.389221 Z"/>
            <path id="path41" fill="#000000" stroke="#000000" stroke-width="3.231421" d="M 530.525024 519.519409 C 530.525024 516.146851 533.25885 513.411987 536.632385 513.411987 C 540.004944 513.411987 542.739807 516.146851 542.739807 519.519409 C 542.739807 522.891968 540.004944 525.62677 536.632385 525.62677 C 533.25885 525.62677 530.525024 522.891968 530.525024 519.519409 Z"/>
            <path id="path42" fill="#000000" stroke="#000000" stroke-width="3.231421" d="M 357.415558 519.519409 C 357.415558 516.146851 360.149994 513.411987 363.522949 513.411987 C 366.896027 513.411987 369.630341 516.146851 369.630341 519.519409 C 369.630341 522.891968 366.896027 525.62677 363.522949 525.62677 C 360.149994 525.62677 357.415558 522.891968 357.415558 519.519409 Z"/>
            <path id="path43" fill="#000000" stroke="#000000" stroke-width="3.231421" d="M 530.525024 11.107361 C 530.525024 7.734314 533.25885 5 536.632385 5 C 540.004944 5 542.739807 7.734314 542.739807 11.107361 C 542.739807 14.480347 540.004944 17.214783 536.632385 17.214783 C 533.25885 17.214783 530.525024 14.480347 530.525024 11.107361 Z"/>
            <path id="path44" fill="#000000" stroke="#000000" stroke-width="3.231421" d="M 357.415558 11.107361 C 357.415558 7.734314 360.149994 5 363.522949 5 C 366.896027 5 369.630341 7.734314 369.630341 11.107361 C 369.630341 14.480347 366.896027 17.214783 363.522949 17.214783 C 360.149994 17.214783 357.415558 14.480347 357.415558 11.107361 Z"/>
            <path id="path45" fill="none" stroke="#ed230d" stroke-width="3.231421" stroke-linecap="round" d="M 457.688904 65.41156 L 536.632385 11.107361"/>
            <path id="path46" fill="none" stroke="#ed230d" stroke-width="3.231421" stroke-linecap="round" d="M 497 421 L 536.632385 519.519409"/>
            <path id="path47" fill="none" stroke="#ed230d" stroke-width="3.231421" stroke-linecap="round" d="M 400.673767 421.199646 L 363.522949 519.519409"/>
            <path id="path48" fill="none" stroke="#ed230d" stroke-width="3.231421" stroke-linecap="round" d="M 441.885559 64.509888 L 363.522949 11.107361"/>
            <path id="path49" fill="none" stroke="#ed230d" stroke-width="3.231421" d="M 458 65.533936 C 458 65.533936 526.953552 54.918152 549.192017 128.359406 C 581.660156 235.583801 537.85022 520.229248 537.85022 520.229248"/>
            <path id="path50" fill="none" stroke="#ed230d" stroke-width="3.231421" d="M 442 65.534424 C 442 65.534424 374.070343 54.908203 352.16214 128.421783 C 320.176147 235.751678 363.33548 520.677307 363.33548 520.677307"/>
        </g>
    </g>
    <g id="Initial">
        <g id="g4">
            <g id="g5">
                <path id="path51" fill="#dddddd" stroke="#000000" stroke-width="3.231421" d="M 80.427246 435.555756 C 80.427246 435.555756 61.411415 301.863281 77.114502 215.773926 C 94.128258 122.498962 132.077744 34.357666 132.077744 34.357666 C 132.077744 34.357666 170.027542 122.498962 187.04097 215.773926 C 202.74353 301.863281 183.727692 435.555756 183.727692 435.555756 L 80.427246 435.555756 Z"/>
                <path id="path52" fill="none" stroke="#000000" stroke-width="3.231421" d="M 127.773483 58.09137 L 123.042686 71.041809"/>
                <path id="path53" fill="none" stroke="#000000" stroke-width="3.231421" d="M 82.805145 414.959778 L 84.58889 428.631897"/>
                <path id="path54" fill="none" stroke="#000000" stroke-width="3.231421" d="M 77.22567 253.52121 L 76.546638 267.29245"/>
                <path id="path55" fill="none" stroke="#000000" stroke-width="3.231421" d="M 187.608612 267.29245 L 186.930023 253.52121"/>
                <path id="path56" fill="none" stroke="#000000" stroke-width="3.231421" d="M 181.482925 414.959778 L 179.699188 428.631897"/>
                <path id="path57" fill="none" stroke="#000000" stroke-width="3.231421" d="M 136.381989 58.09137 L 141.112778 71.041809"/>
            </g>
            <path id="path58" fill="#dddddd" stroke="#141414" stroke-width="3.231421" stroke-linecap="round" d="M 70.901558 168.83429 C 70.901558 164.61731 74.319534 161.199554 78.535797 161.199554 C 82.752045 161.199554 86.170021 164.61731 86.170021 168.83429 C 86.170021 173.050232 82.752045 176.467987 78.535797 176.467987 C 74.319534 176.467987 70.901558 173.050232 70.901558 168.83429 Z"/>
            <path id="path59" fill="#dddddd" stroke="#141414" stroke-width="3.231421" stroke-linecap="round" d="M 194.33107 266.493225 C 194.33107 262.277283 197.74881 258.859528 201.964752 258.859528 C 206.181763 258.859528 209.599518 262.277283 209.599518 266.493225 C 209.599518 270.710205 206.181763 274.12796 201.964752 274.12796 C 197.74881 274.12796 194.33107 270.710205 194.33107 266.493225 Z"/>
            <path id="path60" fill="#dddddd" stroke="#141414" stroke-width="3.231421" stroke-linecap="round" d="M 177.985458 168.83429 C 177.985458 164.61731 181.403229 161.199554 185.619141 161.199554 C 189.836151 161.199554 193.253922 164.61731 193.253922 168.83429 C 193.253922 173.050232 189.836151 176.467987 185.619141 176.467987 C 181.403229 176.467987 177.985458 173.050232 177.985458 168.83429 Z"/>
            <path id="path61" fill="#dddddd" stroke="#141414" stroke-width="3.231421" stroke-linecap="round" d="M 54.555954 266.493225 C 54.555954 262.277283 57.973938 258.859528 62.190189 258.859528 C 66.406441 258.859528 69.824425 262.277283 69.824425 266.493225 C 69.824425 270.710205 66.406441 274.12796 62.190189 274.12796 C 57.973938 274.12796 54.555954 270.710205 54.555954 266.493225 Z"/>
            <path id="path62" fill="#dddddd" stroke="#141414" stroke-width="3.231421" stroke-linecap="round" d="M 79.353447 447.320282 C 79.353447 441.417572 84.138542 436.632874 90.041367 436.632874 C 95.944099 436.632874 100.729294 441.417572 100.729294 447.320282 C 100.729294 453.223022 95.944099 458.008728 90.041367 458.008728 C 84.138542 458.008728 79.353447 453.223022 79.353447 447.320282 Z"/>
            <path id="path63" fill="#dddddd" stroke="#141414" stroke-width="3.231421" stroke-linecap="round" d="M 57.002251 386.623413 C 57.002251 382.407532 60.420124 378.989746 64.636482 378.989746 C 68.85273 378.989746 72.270706 382.407532 72.270706 386.623413 C 72.270706 390.840424 68.85273 394.258179 64.636482 394.258179 C 60.420124 394.258179 57.002251 390.840424 57.002251 386.623413 Z"/>
            <path id="path64" fill="#dddddd" stroke="#141414" stroke-width="3.231421" stroke-linecap="round" d="M 191.884872 386.623413 C 191.884872 382.407532 195.302643 378.989746 199.51857 378.989746 C 203.735565 378.989746 207.153336 382.407532 207.153336 386.623413 C 207.153336 390.840424 203.735565 394.258179 199.51857 394.258179 C 195.302643 394.258179 191.884872 390.840424 191.884872 386.623413 Z"/>
            <path id="path65" fill="#dddddd" stroke="#141414" stroke-width="3.231421" stroke-linecap="round" d="M 163.425751 446.243134 C 163.425751 440.340424 168.211487 435.555756 174.114212 435.555756 C 180.016953 435.555756 184.801605 440.340424 184.801605 446.243134 C 184.801605 452.145874 180.016953 456.93161 174.114212 456.93161 C 168.211487 456.93161 163.425751 452.145874 163.425751 446.243134 Z"/>
        </g>
        <g id="g6">
            <path id="path66" fill="#dddddd" stroke="#000000" stroke-width="3.231421" d="M 10.433476 503.389221 L 255.722 503.389221 L 255.722 595 L 10.433476 595 L 10.433476 503.389221 Z"/>
            <path id="path67" fill="#000000" stroke="#000000" stroke-width="3.231421" d="M 213.525024 519.519409 C 213.525024 516.146851 216.25882 513.411987 219.632416 513.411987 C 223.004944 513.411987 225.739792 516.146851 225.739792 519.519409 C 225.739792 522.891968 223.004944 525.62677 219.632416 525.62677 C 216.25882 525.62677 213.525024 522.891968 213.525024 519.519409 Z"/>
            <path id="path68" fill="#000000" stroke="#000000" stroke-width="3.231421" d="M 40.415565 519.519409 C 40.415565 516.146851 43.149994 513.411987 46.522953 513.411987 C 49.896015 513.411987 52.630337 516.146851 52.630337 519.519409 C 52.630337 522.891968 49.896015 525.62677 46.522953 525.62677 C 43.149994 525.62677 40.415565 522.891968 40.415565 519.519409 Z"/>
            <path id="path69" fill="#000000" stroke="#000000" stroke-width="3.231421" d="M 213.525024 11.107361 C 213.525024 7.734314 216.25882 5 219.632416 5 C 223.004944 5 225.739792 7.734314 225.739792 11.107361 C 225.739792 14.480347 223.004944 17.214783 219.632416 17.214783 C 216.25882 17.214783 213.525024 14.480347 213.525024 11.107361 Z"/>
            <path id="path70" fill="#000000" stroke="#000000" stroke-width="3.231421" d="M 40.415565 11.107361 C 40.415565 7.734314 43.149994 5 46.522953 5 C 49.896015 5 52.630337 7.734314 52.630337 11.107361 C 52.630337 14.480347 49.896015 17.214783 46.522953 17.214783 C 43.149994 17.214783 40.415565 14.480347 40.415565 11.107361 Z"/>
            <path id="path71" fill="none" stroke="#ed230d" stroke-width="3.231421" stroke-linecap="round" d="M 181 423 L 219.632416 519.519409"/>
            <path id="path72" fill="none" stroke="#ed230d" stroke-width="3.231421" stroke-linecap="round" d="M 85 423 L 46.522953 519.519409"/>
            <path id="path73" fill="none" stroke="#ed230d" stroke-width="3.231421" d="M 49 19 C 49 19 71.448944 87.20105 63 145 C 53.08168 212.850983 26.730371 296.124756 22.000002 338 C 9.210466 451.218414 45 518 45 518"/>
            <path id="Path-copy-2" fill="none" stroke="#ed230d" stroke-width="3.231421" d="M 217.139999 17 C 217.139999 17 194.691055 85.20105 203.139999 143 C 213.058319 210.850983 239.409637 294.124756 244.139999 336 C 256.929535 449.218414 221.139999 516 221.139999 516"/>
        </g>
    </g>
    <text id="12" xml:space="preserve" x="96" y="282" font-family="Times" font-size="44" fill="#000000">1+2</text>
    <text id="3" xml:space="preserve" x="437" y="282" font-family="Times" font-size="44" fill="#000000">3</text>
    <text id="4" xml:space="preserve" x="754" y="282" font-family="Times" font-size="44" fill="#000000">4</text>
</svg>
