<?xml version="1.0" encoding="UTF-8" standalone="no"?>
<!DOCTYPE svg PUBLIC "-//W3C//DTD SVG 1.1//EN" "http://www.w3.org/Graphics/SVG/1.1/DTD/svg11.dtd">
<!-- Created with Vectornator (http://vectornator.io/) -->
<svg height="100%" stroke-miterlimit="10" style="fill-rule:nonzero;clip-rule:evenodd;stroke-linecap:round;stroke-linejoin:round;" version="1.1" viewBox="0 0 287.271 595.35" width="100%" xml:space="preserve" xmlns="http://www.w3.org/2000/svg" xmlns:vectornator="http://vectornator.io" xmlns:xlink="http://www.w3.org/1999/xlink">
<defs/>
<g id="Boat" vectornator:layerName="Boat">
<g opacity="1" vectornator:layerName="Group 1">
<path d="M71.9095 487.245C71.9095 487.245 54.2555 363.127 68.834 283.203C84.6293 196.608 119.861 114.779 119.861 114.779C119.861 114.779 155.093 196.608 170.888 283.203C185.466 363.127 167.812 487.245 167.812 487.245L71.9095 487.245Z" fill="#dddddd" fill-rule="nonzero" opacity="1" stroke="#000000" stroke-linecap="butt" stroke-linejoin="miter" stroke-width="3" vectornator:layerName="Curve 1"/>
<path d="M115.865 136.813L111.473 148.836" fill="none" opacity="1" stroke="#000000" stroke-linecap="butt" stroke-linejoin="miter" stroke-width="3" vectornator:layerName="Curve 2"/>
<path d="M74.1171 468.124L75.7731 480.817" fill="none" opacity="1" stroke="#000000" stroke-linecap="butt" stroke-linejoin="miter" stroke-width="3" vectornator:layerName="Curve 4"/>
<path d="M68.9372 318.247L68.3068 331.032" fill="none" opacity="1" stroke="#000000" stroke-linecap="butt" stroke-linejoin="miter" stroke-width="3" vectornator:layerName="Curve 6"/>
<path d="M171.415 331.032L170.785 318.247" fill="none" opacity="1" stroke="#000000" stroke-linecap="butt" stroke-linejoin="miter" stroke-width="3" vectornator:layerName="Curve 7"/>
<path d="M165.728 468.124L164.072 480.817" fill="none" opacity="1" stroke="#000000" stroke-linecap="butt" stroke-linejoin="miter" stroke-width="3" vectornator:layerName="Curve 5"/>
<path d="M123.857 136.813L128.249 148.836" fill="none" opacity="1" stroke="#000000" stroke-linecap="butt" stroke-linejoin="miter" stroke-width="3" vectornator:layerName="Curve 3"/>
</g>
</g>
<g id="Alongside-A" vectornator:layerName="Alongside A" visibility="hidden">
<path d="M197.314 70.7082L282.98 70.7082L282.98 531.315L197.314 531.315L197.314 70.7082Z" fill="#dddddd" fill-rule="nonzero" opacity="1" stroke="#000000" stroke-linecap="butt" stroke-linejoin="miter" stroke-width="3" vectornator:layerName="Rectangle 1"/>
<path d="M205.587 513.935C205.587 510.804 208.125 508.265 211.257 508.265C214.388 508.265 216.927 510.804 216.927 513.935C216.927 517.066 214.388 519.605 211.257 519.605C208.125 519.605 205.587 517.066 205.587 513.935Z" fill="#000000" fill-rule="nonzero" opacity="1" stroke="#000000" stroke-linecap="butt" stroke-linejoin="miter" stroke-width="3" vectornator:layerName="Oval 1"/>
<path d="M205.587 323.203C205.587 320.071 208.125 317.533 211.257 317.533C214.388 317.533 216.927 320.071 216.927 323.203C216.927 326.334 214.388 328.873 211.257 328.873C208.125 328.873 205.587 326.334 205.587 323.203Z" fill="#000000" fill-rule="nonzero" opacity="1" stroke="#000000" stroke-linecap="butt" stroke-linejoin="miter" stroke-width="3" vectornator:layerName="Oval 2"/>
<path d="M205.587 101.994C205.587 98.8626 208.125 96.324 211.257 96.324C214.388 96.324 216.927 98.8626 216.927 101.994C216.927 105.125 214.388 107.664 211.257 107.664C208.125 107.664 205.587 105.125 205.587 101.994Z" fill="#000000" fill-rule="nonzero" opacity="1" stroke="#000000" stroke-linecap="butt" stroke-linejoin="miter" stroke-width="3" vectornator:layerName="Oval 3"/>
<path d="M125.856 141.872L211.257 101.994" fill="none" opacity="1" stroke="#ed230d" stroke-linecap="round" stroke-linejoin="miter" stroke-width="3" vectornator:layerName="Curve 1"/>
<path d="M164.582 474.665L211.761 513.935" fill="none" opacity="1" stroke="#ed230d" stroke-linecap="round" stroke-linejoin="miter" stroke-width="3" vectornator:layerName="Curve 2"/>
<path d="M171.374 324.64L211.761 513.935" fill="none" opacity="1" stroke="#ed230d" stroke-linecap="round" stroke-linejoin="miter" stroke-width="3" vectornator:layerName="Curve 3"/>
<path d="M171.374 324.64L211.257 101.994" fill="none" opacity="1" stroke="#ed230d" stroke-linecap="round" stroke-linejoin="miter" stroke-width="3" vectornator:layerName="Curve 4"/>
<path d="M166.556 254.205C166.556 250.291 169.729 247.118 173.644 247.118C177.558 247.118 180.731 250.291 180.731 254.205C180.731 258.119 177.558 261.293 173.644 261.293C169.729 261.293 166.556 258.119 166.556 254.205Z" fill="#dddddd" fill-rule="nonzero" opacity="1" stroke="#141414" stroke-linecap="round" stroke-linejoin="miter" stroke-width="3" vectornator:layerName="Oval 4"/>
<path d="M177.461 323.322C177.461 319.408 180.634 316.235 184.549 316.235C188.463 316.235 191.636 319.408 191.636 323.322C191.636 327.237 188.463 330.41 184.549 330.41C180.634 330.41 177.461 327.237 177.461 323.322Z" fill="#dddddd" fill-rule="nonzero" opacity="1" stroke="#141414" stroke-linecap="round" stroke-linejoin="miter" stroke-width="3" vectornator:layerName="Oval 5"/>
<path d="M145.407 177.568C145.407 173.654 148.58 170.481 152.495 170.481C156.409 170.481 159.582 173.654 159.582 177.568C159.582 181.483 156.409 184.656 152.495 184.656C148.58 184.656 145.407 181.483 145.407 177.568Z" fill="#dddddd" fill-rule="nonzero" opacity="1" stroke="#141414" stroke-linecap="round" stroke-linejoin="miter" stroke-width="3" vectornator:layerName="Oval 6"/>
<path d="M176.656 391.149C176.656 387.234 179.829 384.061 183.743 384.061C187.658 384.061 190.831 387.234 190.831 391.149C190.831 395.063 187.658 398.236 183.743 398.236C179.829 398.236 176.656 395.063 176.656 391.149Z" fill="#dddddd" fill-rule="nonzero" opacity="1" stroke="#141414" stroke-linecap="round" stroke-linejoin="miter" stroke-width="3" vectornator:layerName="Oval 7"/>
<path d="M173.374 455.26C173.374 451.345 176.547 448.172 180.461 448.172C184.375 448.172 187.549 451.345 187.549 455.26C187.549 459.174 184.375 462.347 180.461 462.347C176.547 462.347 173.374 459.174 173.374 455.26Z" fill="#dddddd" fill-rule="nonzero" opacity="1" stroke="#141414" stroke-linecap="round" stroke-linejoin="miter" stroke-width="3" vectornator:layerName="Oval 8"/>
</g>
<g id="Alongside-B" vectornator:layerName="Alongside B" visibility="hidden">
<path d="M197.314 70.7082L282.98 70.7082L282.98 531.315L197.314 531.315L197.314 70.7082Z" fill="#dddddd" fill-rule="nonzero" opacity="1" stroke="#000000" stroke-linecap="butt" stroke-linejoin="miter" stroke-width="3" vectornator:layerName="Rectangle 1"/>
<path d="M205.587 513.935C205.587 510.804 208.125 508.265 211.257 508.265C214.388 508.265 216.927 510.804 216.927 513.935C216.927 517.066 214.388 519.605 211.257 519.605C208.125 519.605 205.587 517.066 205.587 513.935Z" fill="#000000" fill-rule="nonzero" opacity="1" stroke="#000000" stroke-linecap="butt" stroke-linejoin="miter" stroke-width="3" vectornator:layerName="Oval 1"/>
<path d="M205.587 323.203C205.587 320.071 208.125 317.533 211.257 317.533C214.388 317.533 216.927 320.071 216.927 323.203C216.927 326.334 214.388 328.873 211.257 328.873C208.125 328.873 205.587 326.334 205.587 323.203Z" fill="#000000" fill-rule="nonzero" opacity="1" stroke="#000000" stroke-linecap="butt" stroke-linejoin="miter" stroke-width="3" vectornator:layerName="Oval 2"/>
<path d="M205.587 101.994C205.587 98.8626 208.125 96.324 211.257 96.324C214.388 96.324 216.927 98.8626 216.927 101.994C216.927 105.125 214.388 107.664 211.257 107.664C208.125 107.664 205.587 105.125 205.587 101.994Z" fill="#000000" fill-rule="nonzero" opacity="1" stroke="#000000" stroke-linecap="butt" stroke-linejoin="miter" stroke-width="3" vectornator:layerName="Oval 3"/>
<path d="M166.556 254.205C166.556 250.291 169.729 247.118 173.644 247.118C177.558 247.118 180.731 250.291 180.731 254.205C180.731 258.119 177.558 261.293 173.644 261.293C169.729 261.293 166.556 258.119 166.556 254.205Z" fill="#dddddd" fill-rule="nonzero" opacity="1" stroke="#141414" stroke-linecap="round" stroke-linejoin="miter" stroke-width="3" vectornator:layerName="Oval 4"/>
<path d="M177.461 323.322C177.461 319.408 180.634 316.235 184.549 316.235C188.463 316.235 191.636 319.408 191.636 323.322C191.636 327.237 188.463 330.41 184.549 330.41C180.634 330.41 177.461 327.237 177.461 323.322Z" fill="#dddddd" fill-rule="nonzero" opacity="1" stroke="#141414" stroke-linecap="round" stroke-linejoin="miter" stroke-width="3" vectornator:layerName="Oval 5"/>
<path d="M145.407 177.568C145.407 173.654 148.58 170.481 152.495 170.481C156.409 170.481 159.582 173.654 159.582 177.568C159.582 181.483 156.409 184.656 152.495 184.656C148.58 184.656 145.407 181.483 145.407 177.568Z" fill="#dddddd" fill-rule="nonzero" opacity="1" stroke="#141414" stroke-linecap="round" stroke-linejoin="miter" stroke-width="3" vectornator:layerName="Oval 6"/>
<path d="M176.656 391.149C176.656 387.234 179.829 384.061 183.743 384.061C187.658 384.061 190.831 387.234 190.831 391.149C190.831 395.063 187.658 398.236 183.743 398.236C179.829 398.236 176.656 395.063 176.656 391.149Z" fill="#dddddd" fill-rule="nonzero" opacity="1" stroke="#141414" stroke-linecap="round" stroke-linejoin="miter" stroke-width="3" vectornator:layerName="Oval 7"/>
<path d="M173.374 455.26C173.374 451.345 176.547 448.172 180.461 448.172C184.375 448.172 187.549 451.345 187.549 455.26C187.549 459.174 184.375 462.347 180.461 462.347C176.547 462.347 173.374 459.174 173.374 455.26Z" fill="#dddddd" fill-rule="nonzero" opacity="1" stroke="#141414" stroke-linecap="round" stroke-linejoin="miter" stroke-width="3" vectornator:layerName="Oval 8"/>
<path d="M125.856 141.872L211.257 101.994" fill="none" opacity="1" stroke="#ed230d" stroke-linecap="round" stroke-linejoin="miter" stroke-width="3" vectornator:layerName="Curve 1"/>
<path d="M164.582 474.665L211.761 513.935" fill="none" opacity="1" stroke="#ed230d" stroke-linecap="round" stroke-linejoin="miter" stroke-width="3" vectornator:layerName="Curve 2"/>
<path d="M211.257 323.203L164.582 474.665" fill="none" opacity="1" stroke="#ed230d" stroke-linecap="round" stroke-linejoin="miter" stroke-width="3" vectornator:layerName="Curve 3"/>
<path d="M125.856 141.872L211.257 323.203" fill="none" opacity="1" stroke="#ed230d" stroke-linecap="round" stroke-linejoin="miter" stroke-width="3" vectornator:layerName="Curve 4"/>
</g>
<clipPath id="ArtboardFrame">
<rect height="595.35" width="287.271" x="0" y="0"/>
</clipPath>
<g clip-path="url(#ArtboardFrame)" id="Stern-to" vectornator:layerName="Stern-to">
<path d="M6 510.3L233.722 510.3L233.722 595.35L6 595.35L6 510.3Z" fill="#dddddd" fill-rule="nonzero" opacity="1" stroke="#000000" stroke-linecap="butt" stroke-linejoin="miter" stroke-width="3" vectornator:layerName="Rectangle 1"/>
<path d="M194.547 525.275C194.547 522.144 197.085 519.605 200.217 519.605C203.348 519.605 205.887 522.144 205.887 525.275C205.887 528.406 203.348 530.945 200.217 530.945C197.085 530.945 194.547 528.406 194.547 525.275Z" fill="#000000" fill-rule="nonzero" opacity="1" stroke="#000000" stroke-linecap="butt" stroke-linejoin="miter" stroke-width="3" vectornator:layerName="Oval 1"/>
<path d="M33.8349 525.275C33.8349 522.144 36.3735 519.605 39.5049 519.605C42.6364 519.605 45.1749 522.144 45.1749 525.275C45.1749 528.406 42.6364 530.945 39.5049 530.945C36.3735 530.945 33.8349 528.406 33.8349 525.275Z" fill="#000000" fill-rule="nonzero" opacity="1" stroke="#000000" stroke-linecap="butt" stroke-linejoin="miter" stroke-width="3" vectornator:layerName="Oval 2"/>
<path d="M194.547 53.2733C194.547 50.1418 197.085 47.6033 200.217 47.6033C203.348 47.6033 205.887 50.1418 205.887 53.2733C205.887 56.4047 203.348 58.9433 200.217 58.9433C197.085 58.9433 194.547 56.4047 194.547 53.2733Z" fill="#000000" fill-rule="nonzero" opacity="1" stroke="#000000" stroke-linecap="butt" stroke-linejoin="miter" stroke-width="3" vectornator:layerName="Oval 3"/>
<path d="M33.8349 53.2733C33.8349 50.1418 36.3735 47.6033 39.5049 47.6033C42.6364 47.6033 45.1749 50.1418 45.1749 53.2733C45.1749 56.4047 42.6364 58.9433 39.5049 58.9433C36.3735 58.9433 33.8349 56.4047 33.8349 53.2733Z" fill="#000000" fill-rule="nonzero" opacity="1" stroke="#000000" stroke-linecap="butt" stroke-linejoin="miter" stroke-width="3" vectornator:layerName="Oval 12"/>
<path d="M125.856 141.872L200.217 53.2733" fill="none" opacity="1" stroke="#ed230d" stroke-linecap="round" stroke-linejoin="miter" stroke-width="3" vectornator:layerName="Curve 1"/>
<path d="M164.582 474.665L200.217 525.275" fill="none" opacity="1" stroke="#ed230d" stroke-linecap="round" stroke-linejoin="miter" stroke-width="3" vectornator:layerName="Curve 2"/>
<path d="M74.8487 474.665L39.5049 525.275" fill="none" opacity="1" stroke="#ed230d" stroke-linecap="round" stroke-linejoin="miter" stroke-width="3" vectornator:layerName="Curve 3"/>
<path d="M114.078 141.872L39.5049 53.2733" fill="none" opacity="1" stroke="#ed230d" stroke-linecap="round" stroke-linejoin="miter" stroke-width="3" vectornator:layerName="Curve 4"/>
<path d="M63.066 239.625C63.066 235.71 66.2392 232.537 70.1535 232.537C74.0678 232.537 77.241 235.71 77.241 239.625C77.241 243.539 74.0678 246.712 70.1535 246.712C66.2392 246.712 63.066 243.539 63.066 239.625Z" fill="#dddddd" fill-rule="nonzero" opacity="1" stroke="#141414" stroke-linecap="round" stroke-linejoin="miter" stroke-width="3" vectornator:layerName="Oval 4"/>
<path d="M177.656 330.29C177.656 326.376 180.829 323.203 184.743 323.203C188.658 323.203 191.831 326.376 191.831 330.29C191.831 334.205 188.658 337.378 184.743 337.378C180.829 337.378 177.656 334.205 177.656 330.29Z" fill="#dddddd" fill-rule="nonzero" opacity="1" stroke="#141414" stroke-linecap="round" stroke-linejoin="miter" stroke-width="3" vectornator:layerName="Oval 5"/>
<path d="M162.481 239.625C162.481 235.71 165.654 232.537 169.568 232.537C173.483 232.537 176.656 235.71 176.656 239.625C176.656 243.539 173.483 246.712 169.568 246.712C165.654 246.712 162.481 243.539 162.481 239.625Z" fill="#dddddd" fill-rule="nonzero" opacity="1" stroke="#141414" stroke-linecap="round" stroke-linejoin="miter" stroke-width="3" vectornator:layerName="Oval 6"/>
<path d="M47.891 330.29C47.891 326.376 51.0642 323.203 54.9785 323.203C58.8928 323.203 62.066 326.376 62.066 330.29C62.066 334.205 58.8928 337.378 54.9785 337.378C51.0642 337.378 47.891 334.205 47.891 330.29Z" fill="#dddddd" fill-rule="nonzero" opacity="1" stroke="#141414" stroke-linecap="round" stroke-linejoin="miter" stroke-width="3" vectornator:layerName="Oval 7"/>
<path d="M70.9126 498.167C70.9126 492.687 75.355 488.245 80.8351 488.245C86.3151 488.245 90.7576 492.687 90.7576 498.167C90.7576 503.647 86.3151 508.09 80.8351 508.09C75.355 508.09 70.9126 503.647 70.9126 498.167Z" fill="#dddddd" fill-rule="nonzero" opacity="1" stroke="#141414" stroke-linecap="round" stroke-linejoin="miter" stroke-width="3" vectornator:layerName="Oval 10"/>
<path d="M50.1621 441.817C50.1621 437.903 53.3352 434.73 57.2496 434.73C61.1639 434.73 64.3371 437.903 64.3371 441.817C64.3371 445.732 61.1639 448.905 57.2496 448.905C53.3352 448.905 50.1621 445.732 50.1621 441.817Z" fill="#dddddd" fill-rule="nonzero" opacity="1" stroke="#141414" stroke-linecap="round" stroke-linejoin="miter" stroke-width="3" vectornator:layerName="Oval 9"/>
<path d="M175.385 441.817C175.385 437.903 178.558 434.73 182.472 434.73C186.387 434.73 189.56 437.903 189.56 441.817C189.56 445.732 186.387 448.905 182.472 448.905C178.558 448.905 175.385 445.732 175.385 441.817Z" fill="#dddddd" fill-rule="nonzero" opacity="1" stroke="#141414" stroke-linecap="round" stroke-linejoin="miter" stroke-width="3" vectornator:layerName="Oval 8"/>
<path d="M148.964 497.167C148.964 491.687 153.407 487.245 158.887 487.245C164.367 487.245 168.809 491.687 168.809 497.167C168.809 502.647 164.367 507.09 158.887 507.09C153.407 507.09 148.964 502.647 148.964 497.167Z" fill="#dddddd" fill-rule="nonzero" opacity="1" stroke="#141414" stroke-linecap="round" stroke-linejoin="miter" stroke-width="3" vectornator:layerName="Oval 11"/>
<path d="M164.582 97.5724C164.582 97.5724 201.709 199.844 216.368 301.012C231.027 402.179 201.352 525.934 201.352 525.934" fill="none" opacity="1" stroke="#ed230d" stroke-linecap="butt" stroke-linejoin="miter" stroke-width="1" vectornator:layerName="Curve 5"/>
<path d="M74.8487 97.5724C74.8487 97.5724 37.7223 199.844 23.063 301.012C8.40364 402.179 38.0792 525.934 38.0792 525.934" fill="none" opacity="1" stroke="#ed230d" stroke-linecap="butt" stroke-linejoin="miter" stroke-width="1" vectornator:layerName="Curve 6"/>
</g>
</svg>
