<?xml version="1.0" encoding="UTF-8" standalone="no"?>
<!DOCTYPE svg PUBLIC "-//W3C//DTD SVG 1.1//EN" "http://www.w3.org/Graphics/SVG/1.1/DTD/svg11.dtd">
<!-- Created with Vectornator (http://vectornator.io/) -->
<svg height="100%" stroke-miterlimit="10" style="fill-rule:nonzero;clip-rule:evenodd;stroke-linecap:round;stroke-linejoin:round;" version="1.1" viewBox="0 0 586.958 595.35" width="100%" xml:space="preserve" xmlns="http://www.w3.org/2000/svg" xmlns:vectornator="http://vectornator.io" xmlns:xlink="http://www.w3.org/1999/xlink">
<defs/>
<g id="Sloop-rig" vectornator:layerName="Sloop rig" visibility="hidden">
<path d="M130.472 468.315L335.615 24.8591L335.615 468.315L130.472 468.315Z" fill="#dddddd" fill-rule="nonzero" opacity="1" stroke="#000000" stroke-linecap="butt" stroke-linejoin="miter" stroke-width="1" vectornator:layerName="Mainsail"/>
<path d="M518.379 532.02L341.285 30.9226L341.285 458.845L518.379 532.02Z" fill="#dddddd" fill-rule="nonzero" opacity="1" stroke="#000000" stroke-linecap="butt" stroke-linejoin="miter" stroke-width="1" vectornator:layerName="Jib"/>
<path d="M335.615 19.5851L341.285 19.5851L341.285 544.448L335.615 544.448L335.615 19.5851Z" fill="#dddddd" fill-rule="nonzero" opacity="1" stroke="#000000" stroke-linecap="butt" stroke-linejoin="miter" stroke-width="3" vectornator:layerName="Mast mast"/>
<path d="M127.874 468.315L335.615 468.315L335.615 473.985L127.874 473.985L127.874 468.315Z" fill="#dddddd" fill-rule="nonzero" opacity="1" stroke="#000000" stroke-linecap="butt" stroke-linejoin="miter" stroke-width="3" vectornator:layerName="Boom"/>
<path d="M338.45 19.5851L83.5812 544.448" fill="none" opacity="1" stroke="#000000" stroke-linecap="butt" stroke-linejoin="miter" stroke-width="1" vectornator:layerName="Curve 1"/>
<g fill="#000000" opacity="1" stroke="none" vectornator:layerName="Text 4">
<path d="M220.154 390.168L213.502 375.683L213.502 387.184C213.502 388.242 213.616 388.903 213.845 389.165C214.158 389.52 214.653 389.698 215.33 389.698L215.939 389.698L215.939 390.168L209.947 390.168L209.947 389.698L210.557 389.698C211.284 389.698 211.801 389.478 212.105 389.038C212.292 388.767 212.385 388.149 212.385 387.184L212.385 375.936C212.385 375.175 212.3 374.625 212.131 374.286C212.012 374.041 211.794 373.835 211.477 373.67C211.16 373.505 210.65 373.423 209.947 373.423L209.947 372.953L214.822 372.953L221.068 386.423L227.213 372.953L232.088 372.953L232.088 373.423L231.491 373.423C230.755 373.423 230.234 373.643 229.93 374.083C229.743 374.354 229.65 374.972 229.65 375.936L229.65 387.184C229.65 388.242 229.769 388.903 230.006 389.165C230.319 389.52 230.814 389.698 231.491 389.698L232.088 389.698L232.088 390.168L224.775 390.168L224.775 389.698L225.385 389.698C226.121 389.698 226.637 389.478 226.934 389.038C227.12 388.767 227.213 388.149 227.213 387.184L227.213 375.683L220.573 390.168L220.154 390.168Z"/>
<path d="M240.035 388.492C238.842 389.415 238.093 389.948 237.788 390.092C237.331 390.303 236.844 390.409 236.328 390.409C235.524 390.409 234.862 390.134 234.341 389.584C233.821 389.034 233.561 388.31 233.561 387.413C233.561 386.846 233.687 386.355 233.941 385.94C234.288 385.365 234.891 384.823 235.75 384.315C236.61 383.808 238.038 383.19 240.035 382.462L240.035 382.005C240.035 380.845 239.851 380.05 239.483 379.618C239.115 379.186 238.579 378.971 237.877 378.971C237.344 378.971 236.921 379.115 236.607 379.402C236.286 379.69 236.125 380.02 236.125 380.392L236.15 381.129C236.15 381.518 236.051 381.819 235.852 382.03C235.653 382.242 235.393 382.348 235.071 382.348C234.758 382.348 234.502 382.238 234.303 382.017C234.104 381.797 234.005 381.497 234.005 381.116C234.005 380.388 234.377 379.72 235.122 379.11C235.867 378.501 236.912 378.196 238.258 378.196C239.29 378.196 240.137 378.37 240.797 378.717C241.296 378.979 241.664 379.39 241.901 379.948C242.054 380.312 242.13 381.057 242.13 382.183L242.13 386.131C242.13 387.24 242.151 387.919 242.193 388.168C242.236 388.418 242.305 388.585 242.403 388.67C242.5 388.754 242.612 388.797 242.739 388.797C242.875 388.797 242.993 388.767 243.095 388.708C243.272 388.598 243.615 388.289 244.123 387.781L244.123 388.492C243.175 389.762 242.27 390.396 241.406 390.396C240.992 390.396 240.661 390.253 240.416 389.965C240.171 389.677 240.044 389.186 240.035 388.492ZM240.035 387.667L240.035 383.236C238.757 383.744 237.932 384.104 237.56 384.315C236.891 384.688 236.413 385.077 236.125 385.483C235.837 385.89 235.693 386.334 235.693 386.816C235.693 387.426 235.875 387.931 236.239 388.333C236.603 388.735 237.022 388.936 237.496 388.936C238.139 388.936 238.986 388.513 240.035 387.667Z"/>
<path d="M247.944 372.115C248.3 372.115 248.602 372.24 248.852 372.49C249.102 372.739 249.227 373.042 249.227 373.397C249.227 373.753 249.102 374.058 248.852 374.311C248.602 374.565 248.3 374.692 247.944 374.692C247.589 374.692 247.284 374.565 247.03 374.311C246.776 374.058 246.649 373.753 246.649 373.397C246.649 373.042 246.774 372.739 247.024 372.49C247.274 372.24 247.58 372.115 247.944 372.115ZM248.998 378.196L248.998 387.54C248.998 388.268 249.051 388.752 249.157 388.994C249.263 389.235 249.419 389.415 249.626 389.533C249.834 389.652 250.213 389.711 250.763 389.711L250.763 390.168L245.113 390.168L245.113 389.711C245.68 389.711 246.061 389.656 246.256 389.546C246.45 389.436 246.605 389.254 246.719 389C246.833 388.746 246.891 388.259 246.891 387.54L246.891 383.059C246.891 381.797 246.853 380.981 246.776 380.608C246.717 380.337 246.624 380.149 246.497 380.043C246.37 379.938 246.197 379.885 245.977 379.885C245.74 379.885 245.452 379.948 245.113 380.075L244.936 379.618L248.439 378.196L248.998 378.196Z"/>
<path d="M255.6 380.659C256.962 379.017 258.261 378.196 259.497 378.196C260.132 378.196 260.678 378.355 261.135 378.672C261.592 378.99 261.956 379.512 262.227 380.24C262.413 380.748 262.506 381.527 262.506 382.576L262.506 387.54C262.506 388.276 262.565 388.776 262.684 389.038C262.777 389.25 262.927 389.415 263.134 389.533C263.342 389.652 263.725 389.711 264.283 389.711L264.283 390.168L258.532 390.168L258.532 389.711L258.773 389.711C259.315 389.711 259.694 389.628 259.91 389.463C260.125 389.298 260.276 389.055 260.36 388.733C260.394 388.606 260.411 388.209 260.411 387.54L260.411 382.779C260.411 381.721 260.274 380.953 259.999 380.475C259.723 379.997 259.26 379.758 258.608 379.758C257.601 379.758 256.598 380.308 255.6 381.408L255.6 387.54C255.6 388.327 255.646 388.814 255.739 389C255.858 389.245 256.021 389.425 256.228 389.539C256.435 389.654 256.856 389.711 257.491 389.711L257.491 390.168L251.74 390.168L251.74 389.711L251.994 389.711C252.587 389.711 252.986 389.561 253.194 389.26C253.401 388.96 253.505 388.386 253.505 387.54L253.505 383.224C253.505 381.827 253.473 380.976 253.41 380.672C253.346 380.367 253.249 380.16 253.118 380.05C252.986 379.94 252.811 379.885 252.591 379.885C252.354 379.885 252.07 379.948 251.74 380.075L251.55 379.618L255.054 378.196L255.6 378.196L255.6 380.659Z"/>
<path d="M272.726 378.196L272.726 382.157L272.307 382.157C271.985 380.913 271.572 380.067 271.069 379.618C270.565 379.17 269.924 378.945 269.145 378.945C268.553 378.945 268.075 379.102 267.711 379.415C267.347 379.728 267.165 380.075 267.165 380.456C267.165 380.93 267.3 381.336 267.571 381.675C267.834 382.022 268.367 382.39 269.171 382.779L271.024 383.681C272.742 384.518 273.602 385.623 273.602 386.994C273.602 388.052 273.202 388.905 272.402 389.552C271.602 390.2 270.707 390.523 269.717 390.523C269.006 390.523 268.193 390.396 267.279 390.142C267 390.058 266.771 390.016 266.594 390.016C266.399 390.016 266.247 390.126 266.137 390.346L265.718 390.346L265.718 386.194L266.137 386.194C266.374 387.379 266.826 388.272 267.495 388.873C268.164 389.474 268.913 389.774 269.742 389.774C270.326 389.774 270.802 389.603 271.17 389.26C271.539 388.917 271.723 388.505 271.723 388.022C271.723 387.438 271.517 386.948 271.107 386.55C270.696 386.152 269.878 385.648 268.65 385.039C267.423 384.43 266.619 383.879 266.238 383.389C265.857 382.906 265.667 382.297 265.667 381.56C265.667 380.604 265.995 379.804 266.651 379.161C267.307 378.518 268.155 378.196 269.196 378.196C269.653 378.196 270.208 378.294 270.859 378.488C271.291 378.615 271.579 378.679 271.723 378.679C271.858 378.679 271.964 378.649 272.04 378.59C272.116 378.531 272.205 378.399 272.307 378.196L272.726 378.196Z"/>
<path d="M281.917 388.492C280.724 389.415 279.975 389.948 279.67 390.092C279.213 390.303 278.726 390.409 278.21 390.409C277.406 390.409 276.744 390.134 276.223 389.584C275.703 389.034 275.442 388.31 275.442 387.413C275.442 386.846 275.569 386.355 275.823 385.94C276.17 385.365 276.773 384.823 277.632 384.315C278.491 383.808 279.92 383.19 281.917 382.462L281.917 382.005C281.917 380.845 281.733 380.05 281.365 379.618C280.997 379.186 280.461 378.971 279.759 378.971C279.226 378.971 278.802 379.115 278.489 379.402C278.168 379.69 278.007 380.02 278.007 380.392L278.032 381.129C278.032 381.518 277.933 381.819 277.734 382.03C277.535 382.242 277.275 382.348 276.953 382.348C276.64 382.348 276.384 382.238 276.185 382.017C275.986 381.797 275.887 381.497 275.887 381.116C275.887 380.388 276.259 379.72 277.004 379.11C277.749 378.501 278.794 378.196 280.14 378.196C281.172 378.196 282.019 378.37 282.679 378.717C283.178 378.979 283.546 379.39 283.783 379.948C283.936 380.312 284.012 381.057 284.012 382.183L284.012 386.131C284.012 387.24 284.033 387.919 284.075 388.168C284.117 388.418 284.187 388.585 284.285 388.67C284.382 388.754 284.494 388.797 284.621 388.797C284.756 388.797 284.875 388.767 284.977 388.708C285.154 388.598 285.497 388.289 286.005 387.781L286.005 388.492C285.057 389.762 284.151 390.396 283.288 390.396C282.873 390.396 282.543 390.253 282.298 389.965C282.052 389.677 281.925 389.186 281.917 388.492ZM281.917 387.667L281.917 383.236C280.639 383.744 279.814 384.104 279.441 384.315C278.773 384.688 278.295 385.077 278.007 385.483C277.719 385.89 277.575 386.334 277.575 386.816C277.575 387.426 277.757 387.931 278.121 388.333C278.485 388.735 278.904 388.936 279.378 388.936C280.021 388.936 280.867 388.513 281.917 387.667Z"/>
<path d="M289.826 372.115C290.182 372.115 290.484 372.24 290.734 372.49C290.984 372.739 291.108 373.042 291.108 373.397C291.108 373.753 290.984 374.058 290.734 374.311C290.484 374.565 290.182 374.692 289.826 374.692C289.471 374.692 289.166 374.565 288.912 374.311C288.658 374.058 288.531 373.753 288.531 373.397C288.531 373.042 288.656 372.739 288.906 372.49C289.155 372.24 289.462 372.115 289.826 372.115ZM290.88 378.196L290.88 387.54C290.88 388.268 290.933 388.752 291.039 388.994C291.144 389.235 291.301 389.415 291.508 389.533C291.716 389.652 292.094 389.711 292.645 389.711L292.645 390.168L286.995 390.168L286.995 389.711C287.562 389.711 287.943 389.656 288.138 389.546C288.332 389.436 288.487 389.254 288.601 389C288.715 388.746 288.772 388.259 288.772 387.54L288.772 383.059C288.772 381.797 288.734 380.981 288.658 380.608C288.599 380.337 288.506 380.149 288.379 380.043C288.252 379.938 288.078 379.885 287.858 379.885C287.621 379.885 287.334 379.948 286.995 380.075L286.817 379.618L290.321 378.196L290.88 378.196Z"/>
<path d="M298.091 372.115L298.091 387.54C298.091 388.268 298.144 388.75 298.249 388.987C298.355 389.224 298.518 389.404 298.738 389.527C298.958 389.649 299.369 389.711 299.97 389.711L299.97 390.168L294.27 390.168L294.27 389.711C294.803 389.711 295.167 389.656 295.361 389.546C295.556 389.436 295.708 389.254 295.818 389C295.928 388.746 295.983 388.259 295.983 387.54L295.983 376.977C295.983 375.666 295.954 374.859 295.895 374.559C295.835 374.259 295.74 374.053 295.609 373.943C295.478 373.833 295.311 373.778 295.107 373.778C294.887 373.778 294.608 373.846 294.27 373.981L294.054 373.537L297.52 372.115L298.091 372.115Z"/>
</g>
<g fill="#000000" opacity="1" stroke="none" vectornator:layerName="Text 5">
<path d="M389.79 373.423L389.79 372.953L397.166 372.953L397.166 373.423L396.543 373.423C395.841 373.423 395.329 373.63 395.007 374.045C394.804 374.316 394.703 374.967 394.703 376L394.703 384.417C394.703 385.712 394.561 386.761 394.277 387.565C393.994 388.369 393.505 389.07 392.811 389.666C392.117 390.263 391.279 390.561 390.297 390.561C389.502 390.561 388.875 390.365 388.418 389.971C387.961 389.578 387.733 389.127 387.733 388.619C387.733 388.204 387.839 387.891 388.05 387.68C388.33 387.417 388.655 387.286 389.028 387.286C389.299 387.286 389.542 387.375 389.758 387.553C389.974 387.73 390.247 388.204 390.577 388.975C390.771 389.432 391.021 389.66 391.326 389.66C391.554 389.66 391.768 389.52 391.967 389.241C392.166 388.962 392.265 388.467 392.265 387.756L392.265 376C392.265 375.128 392.21 374.553 392.1 374.273C392.015 374.062 391.838 373.88 391.567 373.727C391.203 373.524 390.818 373.423 390.412 373.423L389.79 373.423Z"/>
<path d="M401.088 372.115C401.444 372.115 401.746 372.24 401.996 372.49C402.246 372.739 402.371 373.042 402.371 373.397C402.371 373.753 402.246 374.058 401.996 374.311C401.746 374.565 401.444 374.692 401.088 374.692C400.733 374.692 400.428 374.565 400.174 374.311C399.92 374.058 399.793 373.753 399.793 373.397C399.793 373.042 399.918 372.739 400.168 372.49C400.418 372.24 400.724 372.115 401.088 372.115ZM402.142 378.196L402.142 387.54C402.142 388.268 402.195 388.752 402.301 388.994C402.407 389.235 402.563 389.415 402.771 389.533C402.978 389.652 403.357 389.711 403.907 389.711L403.907 390.168L398.257 390.168L398.257 389.711C398.824 389.711 399.205 389.656 399.4 389.546C399.595 389.436 399.749 389.254 399.863 389C399.978 388.746 400.035 388.259 400.035 387.54L400.035 383.059C400.035 381.797 399.997 380.981 399.92 380.608C399.861 380.337 399.768 380.149 399.641 380.043C399.514 379.938 399.341 379.885 399.121 379.885C398.884 379.885 398.596 379.948 398.257 380.075L398.08 379.618L401.583 378.196L402.142 378.196Z"/>
<path d="M408.541 380.545C409.666 378.979 410.881 378.196 412.184 378.196C413.377 378.196 414.418 378.706 415.307 379.726C416.196 380.746 416.64 382.14 416.64 383.909C416.64 385.974 415.955 387.637 414.583 388.898C413.407 389.982 412.095 390.523 410.648 390.523C409.971 390.523 409.283 390.401 408.585 390.155C407.887 389.91 407.174 389.542 406.446 389.051L406.446 377.003C406.446 375.683 406.414 374.87 406.351 374.565C406.287 374.261 406.188 374.053 406.052 373.943C405.917 373.833 405.748 373.778 405.544 373.778C405.307 373.778 405.011 373.846 404.656 373.981L404.478 373.537L407.969 372.115L408.541 372.115L408.541 380.545ZM408.541 381.357L408.541 388.314C408.972 388.738 409.419 389.057 409.88 389.273C410.341 389.489 410.813 389.597 411.295 389.597C412.066 389.597 412.783 389.173 413.447 388.327C414.112 387.481 414.444 386.249 414.444 384.633C414.444 383.143 414.112 381.998 413.447 381.199C412.783 380.399 412.028 379.999 411.181 379.999C410.733 379.999 410.284 380.113 409.835 380.342C409.497 380.511 409.065 380.85 408.541 381.357Z"/>
</g>
</g>
<g id="Cutter-rig" vectornator:layerName="Cutter rig">
<path d="M131.081 468.315L312.615 24.8591L312.615 468.315L131.081 468.315Z" fill="#dddddd" fill-rule="nonzero" opacity="1" stroke="#000000" stroke-linecap="butt" stroke-linejoin="miter" stroke-width="1" vectornator:layerName="Mainsail"/>
<path d="M518.379 532.02L318.285 30.9226L318.285 431.027L518.379 532.02Z" fill="#dddddd" fill-rule="nonzero" opacity="1" stroke="#000000" stroke-linecap="butt" stroke-linejoin="miter" stroke-width="1" vectornator:layerName="Jib"/>
<path d="M452.74 532.02L318.285 203.549L318.285 465.819L452.74 532.02Z" fill="#dddddd" fill-rule="nonzero" opacity="1" stroke="#000000" stroke-linecap="butt" stroke-linejoin="miter" stroke-width="1" vectornator:layerName="Staysail"/>
<path d="M312.615 19.5851L318.285 19.5851L318.285 544.448L312.615 544.448L312.615 19.5851Z" fill="#dddddd" fill-rule="nonzero" opacity="1" stroke="#000000" stroke-linecap="butt" stroke-linejoin="miter" stroke-width="3" vectornator:layerName="Main mast"/>
<path d="M128.782 468.315L312.615 468.315L312.615 473.985L128.782 473.985L128.782 468.315Z" fill="#dddddd" fill-rule="nonzero" opacity="1" stroke="#000000" stroke-linecap="butt" stroke-linejoin="miter" stroke-width="3" vectornator:layerName="Boom"/>
<g fill="#000000" opacity="1" stroke="none" vectornator:layerName="Text 2">
<path d="M360.882 382.237L355.449 384.672L355.257 384.244C356.237 383.637 356.956 383.016 357.413 382.38C357.869 381.744 358.13 381.012 358.196 380.185C358.261 379.358 358.134 378.59 357.816 377.879C357.456 377.076 356.913 376.522 356.187 376.216C355.461 375.911 354.785 375.899 354.16 376.179C353.681 376.394 353.319 376.755 353.074 377.264C352.709 378.003 352.448 379.488 352.289 381.72C352.159 383.541 352.004 384.814 351.824 385.539C351.644 386.265 351.333 386.9 350.891 387.446C350.449 387.992 349.916 388.405 349.29 388.685C348.101 389.219 346.869 389.217 345.594 388.68C344.319 388.143 343.356 387.149 342.705 385.697C342.501 385.241 342.344 384.797 342.233 384.364C342.164 384.107 342.083 383.548 341.988 382.686C341.894 381.824 341.802 381.292 341.712 381.092C341.625 380.899 341.499 380.772 341.333 380.712C341.167 380.652 340.89 380.676 340.503 380.785L340.311 380.356L345.698 377.941L345.89 378.37C344.852 379.076 344.13 379.725 343.722 380.316C343.315 380.906 343.082 381.634 343.025 382.5C342.968 383.365 343.126 384.214 343.5 385.048C343.933 386.014 344.529 386.662 345.29 386.994C346.051 387.325 346.779 387.335 347.474 387.023C347.86 386.85 348.202 386.569 348.501 386.18C348.8 385.791 349.018 385.297 349.157 384.696C349.254 384.291 349.378 383.248 349.528 381.567C349.679 379.885 349.851 378.66 350.044 377.892C350.238 377.123 350.539 376.471 350.948 375.936C351.357 375.4 351.886 374.986 352.535 374.696C353.662 374.19 354.827 374.187 356.03 374.687C357.232 375.187 358.133 376.104 358.732 377.441C359.106 378.275 359.298 379.251 359.307 380.369C359.308 380.888 359.348 381.236 359.428 381.414C359.518 381.614 359.652 381.752 359.828 381.825C360.005 381.899 360.292 381.893 360.69 381.808L360.882 382.237Z"/>
<path d="M361.665 389.259L358.178 390.822L359.29 393.301L358.479 393.665L357.367 391.186L350.486 394.271C349.799 394.579 349.38 394.885 349.229 395.189C349.077 395.494 349.071 395.8 349.21 396.109C349.324 396.364 349.514 396.576 349.779 396.744C350.045 396.913 350.362 396.993 350.73 396.986L350.932 397.438C350.054 397.507 349.313 397.38 348.709 397.057C348.105 396.734 347.686 396.31 347.45 395.785C347.291 395.43 347.234 395.038 347.278 394.61C347.323 394.182 347.492 393.804 347.786 393.478C348.081 393.151 348.61 392.816 349.374 392.474L356.511 389.274L355.757 387.595L356.14 387.423C356.5 387.772 356.983 388.077 357.587 388.34C358.192 388.602 358.85 388.782 359.562 388.881C359.935 388.927 360.582 388.933 361.504 388.9L361.665 389.259Z"/>
<path d="M353.365 404.416C352.035 403.705 351.242 403.239 350.986 403.02C350.606 402.69 350.311 402.289 350.099 401.818C349.77 401.084 349.751 400.367 350.04 399.667C350.329 398.967 350.882 398.434 351.701 398.067C352.219 397.835 352.718 397.75 353.201 397.812C353.868 397.893 354.609 398.222 355.424 398.798C356.238 399.374 357.386 400.425 358.868 401.95L359.285 401.763C360.343 401.288 360.993 400.795 361.237 400.282C361.48 399.77 361.458 399.193 361.171 398.552C360.952 398.065 360.648 397.738 360.257 397.57C359.863 397.394 359.496 397.383 359.156 397.535L358.495 397.859C358.14 398.019 357.825 398.051 357.55 397.956C357.276 397.861 357.073 397.667 356.941 397.373C356.813 397.088 356.809 396.809 356.928 396.537C357.048 396.266 357.281 396.052 357.629 395.896C358.293 395.599 359.055 395.665 359.916 396.095C360.777 396.526 361.482 397.355 362.033 398.583C362.455 399.525 362.643 400.368 362.597 401.113C362.562 401.676 362.338 402.179 361.925 402.624C361.655 402.912 361.007 403.286 359.979 403.747L356.377 405.362C355.365 405.815 354.754 406.113 354.543 406.253C354.333 406.394 354.209 406.526 354.171 406.65C354.134 406.773 354.141 406.893 354.193 407.009C354.249 407.132 354.324 407.228 354.42 407.297C354.593 407.414 355.015 407.6 355.686 407.856L355.037 408.147C353.491 407.801 352.541 407.234 352.188 406.447C352.019 406.068 352.015 405.708 352.177 405.366C352.339 405.025 352.735 404.708 353.365 404.416ZM354.118 404.079L358.161 402.266C357.175 401.308 356.509 400.702 356.164 400.449C355.55 399.991 354.999 399.714 354.511 399.618C354.023 399.521 353.558 399.572 353.118 399.769C352.562 400.018 352.175 400.391 351.957 400.888C351.739 401.384 351.727 401.849 351.921 402.281C352.184 402.868 352.916 403.467 354.118 404.079Z"/>
<path d="M364.203 404.26L366.42 409.207L365.992 409.399L365.883 409.156C365.727 408.808 365.535 408.581 365.306 408.475C365.078 408.369 364.851 408.366 364.627 408.466C364.326 408.601 363.966 408.916 363.548 409.41L359.354 414.392L366.28 414.139C366.656 414.129 366.998 414.054 367.307 413.915C367.446 413.853 367.538 413.779 367.583 413.694C367.64 413.594 367.665 413.467 367.656 413.314C367.647 413.16 367.569 412.917 367.42 412.585L367.848 412.393L369.396 415.845L368.967 416.037C368.808 415.765 368.648 415.573 368.486 415.46C368.324 415.347 368.074 415.255 367.736 415.184C367.597 415.163 367.241 415.165 366.668 415.19L354.142 415.615C352.928 415.659 351.907 415.46 351.079 415.02C350.251 414.58 349.697 414.047 349.416 413.421C349.212 412.966 349.175 412.532 349.306 412.121C349.437 411.71 349.673 411.428 350.012 411.276C350.337 411.13 350.645 411.12 350.937 411.244C351.229 411.368 351.459 411.615 351.625 411.986C351.739 412.241 351.81 412.626 351.837 413.143C351.86 413.504 351.889 413.723 351.923 413.8C352.027 414.032 352.26 414.231 352.622 414.398C352.985 414.565 353.572 414.633 354.384 414.603L356.563 414.53L362.86 407.13C363.047 406.907 363.261 406.588 363.502 406.174C363.686 405.86 363.797 405.62 363.834 405.455C363.878 405.222 363.858 404.888 363.774 404.453L364.203 404.26Z"/>
<path d="M373.178 423.443L369.564 425.063L369.392 424.681C370.396 423.879 370.999 423.156 371.203 422.513C371.406 421.87 371.348 421.193 371.03 420.483C370.788 419.942 370.449 419.57 370.014 419.366C369.58 419.162 369.189 419.138 368.841 419.293C368.409 419.487 368.093 419.777 367.895 420.163C367.686 420.544 367.568 421.181 367.542 422.074L367.478 424.134C367.416 426.045 366.759 427.28 365.508 427.841C364.543 428.274 363.601 428.258 362.683 427.793C361.765 427.328 361.104 426.644 360.699 425.74C360.408 425.092 360.191 424.298 360.049 423.36C360.012 423.071 359.957 422.845 359.884 422.683C359.805 422.505 359.642 422.411 359.396 422.401L359.225 422.018L363.013 420.32L363.184 420.703C362.2 421.403 361.571 422.182 361.296 423.038C361.021 423.894 361.053 424.7 361.392 425.457C361.631 425.99 361.982 426.354 362.446 426.55C362.909 426.746 363.361 426.745 363.801 426.548C364.334 426.309 364.698 425.921 364.893 425.383C365.088 424.846 365.213 423.893 365.267 422.524C365.321 421.155 365.494 420.196 365.786 419.647C366.07 419.103 366.549 418.68 367.221 418.378C368.093 417.987 368.957 417.959 369.812 418.295C370.668 418.63 371.308 419.273 371.734 420.223C371.921 420.64 372.059 421.185 372.148 421.86C372.209 422.305 372.269 422.594 372.327 422.725C372.383 422.849 372.453 422.933 372.538 422.978C372.624 423.024 372.78 423.051 373.007 423.061L373.178 423.443Z"/>
<path d="M367.543 436.042C366.213 435.33 365.42 434.865 365.164 434.646C364.784 434.315 364.488 433.915 364.277 433.444C363.948 432.71 363.928 431.993 364.217 431.293C364.506 430.593 365.06 430.059 365.879 429.692C366.396 429.461 366.896 429.376 367.379 429.438C368.046 429.519 368.787 429.847 369.601 430.424C370.416 431 371.564 432.05 373.046 433.575L373.463 433.388C374.521 432.914 375.171 432.42 375.415 431.908C375.658 431.395 375.636 430.819 375.348 430.178C375.13 429.691 374.826 429.364 374.435 429.196C374.041 429.02 373.674 429.008 373.334 429.161L372.673 429.485C372.317 429.644 372.003 429.676 371.728 429.582C371.454 429.487 371.251 429.292 371.119 428.999C370.991 428.713 370.987 428.435 371.106 428.163C371.226 427.891 371.459 427.678 371.807 427.522C372.471 427.224 373.233 427.291 374.094 427.721C374.955 428.151 375.66 428.98 376.211 430.208C376.633 431.151 376.821 431.994 376.775 432.738C376.739 433.301 376.515 433.805 376.103 434.25C375.833 434.538 375.184 434.912 374.157 435.372L370.555 436.987C369.543 437.441 368.932 437.738 368.721 437.879C368.511 438.02 368.387 438.152 368.349 438.275C368.312 438.399 368.319 438.518 368.371 438.634C368.426 438.758 368.502 438.854 368.598 438.922C368.771 439.039 369.193 439.226 369.864 439.481L369.215 439.772C367.669 439.427 366.719 438.86 366.366 438.072C366.196 437.694 366.193 437.334 366.355 436.992C366.517 436.65 366.913 436.334 367.543 436.042ZM368.296 435.704L372.339 433.892C371.353 432.934 370.687 432.328 370.341 432.074C369.728 431.617 369.177 431.34 368.689 431.243C368.2 431.147 367.736 431.197 367.296 431.395C366.74 431.644 366.353 432.017 366.135 432.513C365.917 433.01 365.905 433.474 366.099 433.907C366.362 434.494 367.094 435.093 368.296 435.704Z"/>
<path d="M385.722 436.56C385.868 436.884 385.878 437.211 385.752 437.541C385.626 437.871 385.401 438.109 385.077 438.254C384.752 438.4 384.423 438.41 384.09 438.286C383.756 438.162 383.516 437.938 383.371 437.614C383.225 437.29 383.216 436.96 383.344 436.624C383.472 436.289 383.698 436.048 384.023 435.903C384.347 435.757 384.674 435.747 385.004 435.873C385.334 435.999 385.573 436.228 385.722 436.56ZM380.604 440.009L372.078 443.831C371.414 444.129 370.994 444.375 370.817 444.571C370.64 444.766 370.54 444.982 370.517 445.22C370.493 445.458 370.594 445.827 370.819 446.329L370.402 446.516L368.091 441.361L368.508 441.174C368.74 441.692 368.946 442.017 369.126 442.149C369.306 442.282 369.535 442.349 369.814 442.349C370.092 442.349 370.56 442.202 371.216 441.908L375.305 440.075C376.456 439.559 377.186 439.19 377.495 438.968C377.717 438.803 377.851 438.641 377.896 438.482C377.94 438.323 377.918 438.143 377.828 437.942C377.731 437.726 377.555 437.49 377.301 437.233L377.645 436.883L380.376 439.499L380.604 440.009Z"/>
<path d="M389.103 444.101L375.028 450.411C374.364 450.709 373.945 450.954 373.772 451.148C373.599 451.341 373.502 451.564 373.48 451.815C373.458 452.066 373.57 452.465 373.816 453.014L373.399 453.201L371.067 447.999L371.484 447.812C371.702 448.299 371.901 448.608 372.081 448.741C372.261 448.874 372.49 448.938 372.766 448.935C373.043 448.931 373.51 448.782 374.166 448.488L383.804 444.167C385.001 443.631 385.725 443.274 385.975 443.097C386.225 442.92 386.373 442.749 386.42 442.584C386.466 442.42 386.448 442.245 386.365 442.059C386.275 441.858 386.099 441.631 385.837 441.378L386.154 440.999L388.87 443.58L389.103 444.101Z"/>
</g>
<g fill="#000000" opacity="1" stroke="none" vectornator:layerName="Text 4">
<path d="M202.686 375.732L196.034 361.247L196.034 372.749C196.034 373.807 196.148 374.467 196.377 374.729C196.69 375.085 197.185 375.262 197.862 375.262L198.471 375.262L198.471 375.732L192.479 375.732L192.479 375.262L193.089 375.262C193.816 375.262 194.333 375.042 194.637 374.602C194.824 374.331 194.917 373.714 194.917 372.749L194.917 361.501C194.917 360.739 194.832 360.189 194.663 359.85C194.544 359.605 194.326 359.4 194.009 359.235C193.692 359.07 193.182 358.987 192.479 358.987L192.479 358.517L197.354 358.517L203.6 371.987L209.745 358.517L214.62 358.517L214.62 358.987L214.023 358.987C213.287 358.987 212.766 359.207 212.462 359.647C212.275 359.918 212.182 360.536 212.182 361.501L212.182 372.749C212.182 373.807 212.301 374.467 212.538 374.729C212.851 375.085 213.346 375.262 214.023 375.262L214.62 375.262L214.62 375.732L207.307 375.732L207.307 375.262L207.917 375.262C208.653 375.262 209.169 375.042 209.466 374.602C209.652 374.331 209.745 373.714 209.745 372.749L209.745 361.247L203.105 375.732L202.686 375.732Z"/>
<path d="M222.567 374.056C221.374 374.979 220.625 375.512 220.32 375.656C219.863 375.868 219.376 375.973 218.86 375.973C218.056 375.973 217.394 375.698 216.873 375.148C216.353 374.598 216.092 373.874 216.092 372.977C216.092 372.41 216.219 371.919 216.473 371.505C216.82 370.929 217.423 370.387 218.282 369.88C219.141 369.372 220.57 368.754 222.567 368.026L222.567 367.569C222.567 366.41 222.383 365.614 222.015 365.182C221.647 364.751 221.111 364.535 220.409 364.535C219.876 364.535 219.452 364.679 219.139 364.966C218.818 365.254 218.657 365.584 218.657 365.957L218.682 366.693C218.682 367.082 218.583 367.383 218.384 367.594C218.185 367.806 217.925 367.912 217.603 367.912C217.29 367.912 217.034 367.802 216.835 367.582C216.636 367.362 216.537 367.061 216.537 366.68C216.537 365.953 216.909 365.284 217.654 364.675C218.399 364.065 219.444 363.76 220.79 363.76C221.822 363.76 222.669 363.934 223.329 364.281C223.828 364.543 224.196 364.954 224.433 365.512C224.586 365.876 224.662 366.621 224.662 367.747L224.662 371.695C224.662 372.804 224.683 373.483 224.725 373.733C224.768 373.982 224.837 374.149 224.935 374.234C225.032 374.319 225.144 374.361 225.271 374.361C225.407 374.361 225.525 374.331 225.627 374.272C225.804 374.162 226.147 373.853 226.655 373.345L226.655 374.056C225.707 375.326 224.801 375.961 223.938 375.961C223.523 375.961 223.193 375.817 222.948 375.529C222.702 375.241 222.576 374.75 222.567 374.056ZM222.567 373.231L222.567 368.8C221.289 369.308 220.464 369.668 220.091 369.88C219.423 370.252 218.945 370.641 218.657 371.048C218.369 371.454 218.225 371.898 218.225 372.381C218.225 372.99 218.407 373.496 218.771 373.898C219.135 374.3 219.554 374.501 220.028 374.501C220.671 374.501 221.518 374.078 222.567 373.231Z"/>
<path d="M230.476 357.679C230.832 357.679 231.134 357.804 231.384 358.054C231.634 358.304 231.758 358.606 231.758 358.962C231.758 359.317 231.634 359.622 231.384 359.876C231.134 360.13 230.832 360.257 230.476 360.257C230.121 360.257 229.816 360.13 229.562 359.876C229.308 359.622 229.181 359.317 229.181 358.962C229.181 358.606 229.306 358.304 229.556 358.054C229.806 357.804 230.112 357.679 230.476 357.679ZM231.53 363.76L231.53 373.104C231.53 373.832 231.583 374.317 231.689 374.558C231.794 374.799 231.951 374.979 232.158 375.097C232.366 375.216 232.744 375.275 233.295 375.275L233.295 375.732L227.645 375.732L227.645 375.275C228.212 375.275 228.593 375.22 228.788 375.11C228.982 375 229.137 374.818 229.251 374.564C229.365 374.31 229.423 373.824 229.423 373.104L229.423 368.623C229.423 367.362 229.384 366.545 229.308 366.173C229.249 365.902 229.156 365.713 229.029 365.608C228.902 365.502 228.729 365.449 228.508 365.449C228.271 365.449 227.984 365.512 227.645 365.639L227.467 365.182L230.971 363.76L231.53 363.76Z"/>
<path d="M238.132 366.223C239.494 364.581 240.793 363.76 242.029 363.76C242.664 363.76 243.21 363.919 243.667 364.237C244.124 364.554 244.488 365.077 244.758 365.804C244.945 366.312 245.038 367.091 245.038 368.14L245.038 373.104C245.038 373.841 245.097 374.34 245.216 374.602C245.309 374.814 245.459 374.979 245.666 375.097C245.874 375.216 246.257 375.275 246.815 375.275L246.815 375.732L241.064 375.732L241.064 375.275L241.305 375.275C241.847 375.275 242.226 375.193 242.442 375.028C242.657 374.862 242.808 374.619 242.892 374.298C242.926 374.171 242.943 373.773 242.943 373.104L242.943 368.343C242.943 367.286 242.806 366.517 242.53 366.039C242.255 365.561 241.792 365.322 241.14 365.322C240.133 365.322 239.13 365.872 238.132 366.972L238.132 373.104C238.132 373.891 238.178 374.378 238.271 374.564C238.39 374.81 238.553 374.989 238.76 375.104C238.967 375.218 239.388 375.275 240.023 375.275L240.023 375.732L234.272 375.732L234.272 375.275L234.526 375.275C235.119 375.275 235.518 375.125 235.726 374.824C235.933 374.524 236.037 373.951 236.037 373.104L236.037 368.788C236.037 367.391 236.005 366.541 235.942 366.236C235.878 365.931 235.781 365.724 235.65 365.614C235.518 365.504 235.343 365.449 235.123 365.449C234.886 365.449 234.602 365.512 234.272 365.639L234.082 365.182L237.586 363.76L238.132 363.76L238.132 366.223Z"/>
<path d="M255.257 363.76L255.257 367.721L254.839 367.721C254.517 366.477 254.104 365.631 253.601 365.182C253.097 364.734 252.456 364.509 251.677 364.509C251.085 364.509 250.607 364.666 250.243 364.979C249.879 365.292 249.697 365.639 249.697 366.02C249.697 366.494 249.832 366.9 250.103 367.239C250.366 367.586 250.899 367.954 251.703 368.343L253.556 369.245C255.274 370.083 256.133 371.187 256.133 372.558C256.133 373.616 255.734 374.469 254.934 375.116C254.134 375.764 253.239 376.088 252.249 376.088C251.538 376.088 250.725 375.961 249.811 375.707C249.532 375.622 249.303 375.58 249.126 375.58C248.931 375.58 248.779 375.69 248.669 375.91L248.25 375.91L248.25 371.758L248.669 371.758C248.906 372.943 249.358 373.836 250.027 374.437C250.696 375.038 251.445 375.339 252.274 375.339C252.858 375.339 253.334 375.167 253.702 374.824C254.07 374.482 254.255 374.069 254.255 373.587C254.255 373.003 254.049 372.512 253.639 372.114C253.228 371.716 252.41 371.213 251.182 370.603C249.955 369.994 249.151 369.444 248.77 368.953C248.389 368.47 248.199 367.861 248.199 367.125C248.199 366.168 248.527 365.369 249.183 364.725C249.839 364.082 250.687 363.76 251.728 363.76C252.185 363.76 252.74 363.858 253.391 364.052C253.823 364.179 254.111 364.243 254.255 364.243C254.39 364.243 254.496 364.213 254.572 364.154C254.648 364.095 254.737 363.964 254.839 363.76L255.257 363.76Z"/>
<path d="M264.449 374.056C263.256 374.979 262.507 375.512 262.202 375.656C261.745 375.868 261.258 375.973 260.742 375.973C259.938 375.973 259.276 375.698 258.755 375.148C258.235 374.598 257.974 373.874 257.974 372.977C257.974 372.41 258.101 371.919 258.355 371.505C258.702 370.929 259.305 370.387 260.164 369.88C261.023 369.372 262.452 368.754 264.449 368.026L264.449 367.569C264.449 366.41 264.265 365.614 263.897 365.182C263.528 364.751 262.993 364.535 262.291 364.535C261.757 364.535 261.334 364.679 261.021 364.966C260.7 365.254 260.539 365.584 260.539 365.957L260.564 366.693C260.564 367.082 260.465 367.383 260.266 367.594C260.067 367.806 259.807 367.912 259.485 367.912C259.172 367.912 258.916 367.802 258.717 367.582C258.518 367.362 258.419 367.061 258.419 366.68C258.419 365.953 258.791 365.284 259.536 364.675C260.281 364.065 261.326 363.76 262.672 363.76C263.704 363.76 264.55 363.934 265.211 364.281C265.71 364.543 266.078 364.954 266.315 365.512C266.467 365.876 266.544 366.621 266.544 367.747L266.544 371.695C266.544 372.804 266.565 373.483 266.607 373.733C266.649 373.982 266.719 374.149 266.817 374.234C266.914 374.319 267.026 374.361 267.153 374.361C267.288 374.361 267.407 374.331 267.508 374.272C267.686 374.162 268.029 373.853 268.537 373.345L268.537 374.056C267.589 375.326 266.683 375.961 265.82 375.961C265.405 375.961 265.075 375.817 264.83 375.529C264.584 375.241 264.457 374.75 264.449 374.056ZM264.449 373.231L264.449 368.8C263.171 369.308 262.346 369.668 261.973 369.88C261.305 370.252 260.827 370.641 260.539 371.048C260.251 371.454 260.107 371.898 260.107 372.381C260.107 372.99 260.289 373.496 260.653 373.898C261.017 374.3 261.436 374.501 261.91 374.501C262.553 374.501 263.399 374.078 264.449 373.231Z"/>
<path d="M272.358 357.679C272.714 357.679 273.016 357.804 273.266 358.054C273.515 358.304 273.64 358.606 273.64 358.962C273.64 359.317 273.515 359.622 273.266 359.876C273.016 360.13 272.714 360.257 272.358 360.257C272.003 360.257 271.698 360.13 271.444 359.876C271.19 359.622 271.063 359.317 271.063 358.962C271.063 358.606 271.188 358.304 271.438 358.054C271.687 357.804 271.994 357.679 272.358 357.679ZM273.412 363.76L273.412 373.104C273.412 373.832 273.465 374.317 273.57 374.558C273.676 374.799 273.833 374.979 274.04 375.097C274.248 375.216 274.626 375.275 275.176 375.275L275.176 375.732L269.527 375.732L269.527 375.275C270.094 375.275 270.475 375.22 270.67 375.11C270.864 375 271.019 374.818 271.133 374.564C271.247 374.31 271.304 373.824 271.304 373.104L271.304 368.623C271.304 367.362 271.266 366.545 271.19 366.173C271.131 365.902 271.038 365.713 270.911 365.608C270.784 365.502 270.61 365.449 270.39 365.449C270.153 365.449 269.866 365.512 269.527 365.639L269.349 365.182L272.853 363.76L273.412 363.76Z"/>
<path d="M280.623 357.679L280.623 373.104C280.623 373.832 280.676 374.314 280.781 374.551C280.887 374.788 281.05 374.968 281.27 375.091C281.49 375.214 281.901 375.275 282.502 375.275L282.502 375.732L276.801 375.732L276.801 375.275C277.335 375.275 277.699 375.22 277.893 375.11C278.088 375 278.24 374.818 278.35 374.564C278.46 374.31 278.515 373.824 278.515 373.104L278.515 362.542C278.515 361.23 278.486 360.424 278.426 360.123C278.367 359.823 278.272 359.618 278.141 359.508C278.01 359.397 277.842 359.342 277.639 359.342C277.419 359.342 277.14 359.41 276.801 359.546L276.586 359.101L280.051 357.679L280.623 357.679Z"/>
</g>
<g fill="#000000" opacity="1" stroke="none" vectornator:layerName="Text 3">
<path d="M383.985 254.049L386.642 259.434L386.221 259.642L386.075 259.346C385.977 259.148 385.748 258.903 385.386 258.61C385.024 258.316 384.603 258.094 384.123 257.944C383.643 257.794 382.923 257.673 381.962 257.581L374.262 256.751L370.391 258.66C369.442 259.129 368.903 259.527 368.772 259.855C368.596 260.301 368.661 260.835 368.968 261.458L369.215 261.959L368.794 262.166L365.559 255.609L365.98 255.401L366.249 255.947C366.572 256.6 366.997 256.966 367.527 257.044C367.852 257.091 368.447 256.901 369.313 256.475L372.967 254.671L377.344 247.246C377.856 246.37 378.163 245.797 378.265 245.525C378.367 245.253 378.412 244.77 378.4 244.078C378.401 243.888 378.331 243.649 378.188 243.361L378.61 243.153L381.867 249.757L381.446 249.964L381.278 249.623C381.102 249.266 380.856 248.979 380.541 248.762C380.226 248.544 379.902 248.518 379.568 248.683C379.295 248.817 378.916 249.292 378.431 250.107L375.045 255.784L381.298 256.464C382.236 256.568 382.88 256.533 383.229 256.361C383.441 256.256 383.604 256.108 383.717 255.915C383.829 255.723 383.883 255.501 383.876 255.249C383.87 254.997 383.766 254.666 383.564 254.257L383.985 254.049Z"/>
<path d="M374.998 270.954C373.643 270.292 372.833 269.856 372.57 269.647C372.178 269.331 371.867 268.941 371.639 268.478C371.283 267.757 371.237 267.041 371.5 266.331C371.763 265.621 372.297 265.067 373.101 264.67C373.61 264.42 374.106 264.316 374.591 264.36C375.26 264.417 376.013 264.718 376.848 265.264C377.684 265.809 378.87 266.817 380.406 268.286L380.816 268.084C381.856 267.571 382.488 267.054 382.712 266.533C382.936 266.012 382.893 265.436 382.582 264.806C382.346 264.328 382.03 264.012 381.633 263.858C381.233 263.697 380.866 263.699 380.532 263.864L379.883 264.213C379.534 264.385 379.22 264.429 378.942 264.344C378.665 264.259 378.455 264.072 378.312 263.784C378.174 263.503 378.159 263.225 378.269 262.949C378.378 262.673 378.603 262.451 378.945 262.283C379.598 261.961 380.362 261.999 381.238 262.397C382.114 262.796 382.85 263.598 383.445 264.805C383.902 265.731 384.121 266.567 384.102 267.312C384.087 267.876 383.882 268.388 383.486 268.848C383.227 269.145 382.593 269.543 381.584 270.041L378.043 271.788C377.048 272.279 376.449 272.598 376.244 272.746C376.038 272.895 375.919 273.031 375.886 273.156C375.854 273.281 375.865 273.4 375.921 273.514C375.981 273.636 376.06 273.729 376.158 273.794C376.336 273.904 376.764 274.075 377.445 274.306L376.807 274.62C375.249 274.332 374.279 273.801 373.897 273.026C373.714 272.654 373.697 272.295 373.846 271.947C373.996 271.6 374.38 271.269 374.998 270.954ZM375.738 270.589L379.712 268.629C378.691 267.707 378.003 267.126 377.649 266.886C377.019 266.451 376.458 266.195 375.967 266.116C375.475 266.038 375.013 266.106 374.58 266.319C374.034 266.589 373.661 266.976 373.461 267.48C373.262 267.984 373.267 268.449 373.476 268.874C373.761 269.451 374.515 270.022 375.738 270.589Z"/>
<path d="M385.713 274.969C387.789 275.464 389.1 276.266 389.646 277.374C389.927 277.943 390.027 278.503 389.944 279.053C389.862 279.604 389.554 280.161 389.021 280.726C388.648 281.118 387.991 281.546 387.05 282.01L382.598 284.206C381.938 284.532 381.516 284.806 381.333 285.029C381.185 285.206 381.103 285.413 381.089 285.652C381.074 285.89 381.191 286.26 381.438 286.761L381.028 286.963L378.483 281.806L378.893 281.603L379 281.82C379.24 282.305 379.481 282.609 379.725 282.729C379.968 282.85 380.253 282.877 380.579 282.81C380.708 282.785 381.072 282.624 381.671 282.328L385.941 280.221C386.89 279.753 387.518 279.29 387.825 278.832C388.132 278.374 388.141 277.852 387.853 277.268C387.407 276.365 386.47 275.709 385.042 275.3L379.543 278.013C378.837 278.361 378.421 278.618 378.295 278.784C378.127 278.999 378.038 279.225 378.027 279.461C378.017 279.698 378.152 280.101 378.433 280.67L378.023 280.872L375.478 275.715L375.888 275.512L376.001 275.74C376.263 276.271 376.574 276.564 376.935 276.617C377.297 276.67 377.857 276.509 378.616 276.134L382.487 274.225C383.739 273.607 384.488 273.202 384.733 273.01C384.978 272.818 385.121 272.639 385.162 272.473C385.202 272.307 385.174 272.125 385.077 271.928C384.972 271.715 384.789 271.489 384.529 271.249L384.855 270.876L387.68 273.389L387.922 273.879L385.713 274.969Z"/>
<path d="M399.15 282.892L388.767 288.015L392.5 289.471C393.294 289.778 393.781 289.943 393.963 289.967C394.084 289.983 394.19 289.968 394.281 289.923C394.433 289.849 394.533 289.721 394.581 289.542C394.629 289.362 394.59 289.125 394.463 288.829L394.827 288.649L397.062 293.18L396.698 293.36C396.376 292.745 396.025 292.274 395.647 291.946C395.268 291.619 394.733 291.319 394.042 291.046L390.251 289.59L388.19 293.934C387.623 295.138 387.279 295.931 387.155 296.313C386.978 296.853 386.904 297.286 386.933 297.612C386.95 297.839 387.075 298.188 387.308 298.658L386.898 298.86L384.398 293.794L384.808 293.592C384.958 293.877 385.098 294.05 385.228 294.114C385.358 294.177 385.496 294.173 385.64 294.102C385.814 294.015 386.02 293.725 386.258 293.231L388.767 288.015L385.306 289.722C384.63 290.056 384.209 290.322 384.044 290.522C383.878 290.722 383.793 290.931 383.788 291.151C383.783 291.37 383.921 291.774 384.201 292.362L383.792 292.565L381.174 287.259L381.584 287.057C381.846 287.588 382.107 287.955 382.367 288.157C382.529 288.275 382.718 288.333 382.934 288.33C383.241 288.32 383.701 288.164 384.316 287.861L393.811 283.176C395.018 282.581 395.743 282.19 395.986 282.004C396.23 281.818 396.373 281.639 396.415 281.467C396.458 281.295 396.43 281.11 396.333 280.913C396.254 280.753 396.072 280.546 395.785 280.291L396.088 279.901L398.891 282.368L399.15 282.892Z"/>
<path d="M394.556 297.998C393.004 298.755 391.975 299.73 391.469 300.923C390.963 302.116 390.962 303.225 391.468 304.25C391.805 304.933 392.286 305.434 392.911 305.754C393.535 306.073 394.387 306.179 395.467 306.071L395.413 306.536C394.295 306.89 393.119 306.894 391.887 306.549C390.655 306.204 389.754 305.454 389.185 304.3C388.567 303.048 388.526 301.735 389.061 300.362C389.597 298.989 390.688 297.897 392.335 297.084C394.119 296.204 395.735 295.975 397.184 296.397C398.634 296.819 399.699 297.721 400.381 299.103C400.957 300.271 401.046 301.422 400.646 302.553C400.247 303.685 399.402 304.569 398.111 305.205L394.556 297.998ZM395.216 297.673L397.598 302.5C398.247 302.132 398.678 301.821 398.891 301.564C399.223 301.165 399.417 300.717 399.475 300.222C399.532 299.726 399.46 299.274 399.258 298.864C398.947 298.234 398.424 297.791 397.689 297.535C396.955 297.28 396.13 297.326 395.216 297.673Z"/>
<path d="M399.662 308.347C398.11 309.104 397.08 310.079 396.574 311.272C396.069 312.465 396.068 313.574 396.574 314.599C396.911 315.282 397.392 315.783 398.016 316.103C398.641 316.422 399.493 316.528 400.573 316.42L400.519 316.885C399.4 317.239 398.225 317.243 396.993 316.898C395.761 316.553 394.86 315.803 394.291 314.649C393.673 313.397 393.632 312.084 394.167 310.711C394.703 309.338 395.794 308.246 397.441 307.433C399.225 306.553 400.841 306.324 402.29 306.746C403.74 307.168 404.805 308.07 405.487 309.452C406.063 310.62 406.152 311.771 405.752 312.902C405.353 314.034 404.508 314.918 403.217 315.554L399.662 308.347ZM400.322 308.022L402.704 312.849C403.353 312.481 403.784 312.17 403.997 311.913C404.329 311.514 404.523 311.066 404.581 310.571C404.638 310.075 404.566 309.623 404.364 309.213C404.053 308.583 403.53 308.14 402.795 307.884C402.06 307.629 401.236 307.675 400.322 308.022Z"/>
</g>
<path d="M315.45 19.5851L83.5812 544.448" fill="none" opacity="1" stroke="#000000" stroke-linecap="butt" stroke-linejoin="miter" stroke-width="1" vectornator:layerName="Curve 1"/>
</g>
<g id="Ketch-rig" vectornator:layerName="Ketch rig" visibility="hidden">
<path d="M236.683 474.378L362.298 30.9226L362.298 474.378L236.683 474.378Z" fill="#dddddd" fill-rule="nonzero" opacity="1" stroke="#000000" stroke-linecap="butt" stroke-linejoin="miter" stroke-width="1" vectornator:layerName="Mainsail"/>
<path d="M207.335 197.731L84.2445 538.693" fill="none" opacity="1" stroke="#000000" stroke-linecap="butt" stroke-linejoin="miter" stroke-width="1" vectornator:layerName="Curve 2"/>
<path d="M207.335 197.731L289.735 538.693" fill="none" opacity="1" stroke="#000000" stroke-linecap="butt" stroke-linejoin="miter" stroke-width="1" vectornator:layerName="Curve 3"/>
<path d="M365.133 19.6611L210.17 520.761" fill="none" opacity="1" stroke="#000000" stroke-linecap="butt" stroke-linejoin="miter" stroke-width="1" vectornator:layerName="Curve 4"/>
<path d="M518.379 532.02L367.968 30.9226L367.968 459.105L518.379 532.02Z" fill="#dddddd" fill-rule="nonzero" opacity="1" stroke="#000000" stroke-linecap="butt" stroke-linejoin="miter" stroke-width="1" vectornator:layerName="Jib"/>
<path d="M362.298 19.6611L367.968 19.6611L367.968 544.524L362.298 544.524L362.298 19.6611Z" fill="#dddddd" fill-rule="nonzero" opacity="1" stroke="#000000" stroke-linecap="butt" stroke-linejoin="miter" stroke-width="3" vectornator:layerName="Main mast"/>
<path d="M204.5 197.731L210.17 197.731L210.17 544.524L204.5 544.524L204.5 197.731Z" fill="#dddddd" fill-rule="nonzero" opacity="1" stroke="#000000" stroke-linecap="butt" stroke-linejoin="miter" stroke-width="3" vectornator:layerName="Mizzen mast"/>
<path d="M236.683 474.378L362.298 474.378L362.298 480.048L236.683 480.048L236.683 474.378Z" fill="#dddddd" fill-rule="nonzero" opacity="1" stroke="#000000" stroke-linecap="butt" stroke-linejoin="miter" stroke-width="3" vectornator:layerName="Boom"/>
<path d="M116.969 474.378L204.5 205.716L204.5 474.378L116.969 474.378Z" fill="#dddddd" fill-rule="nonzero" opacity="1" stroke="#000000" stroke-linecap="butt" stroke-linejoin="miter" stroke-width="1" vectornator:layerName="Mainsail 1"/>
<path d="M116.969 474.378L204.5 474.378L204.5 480.048L116.969 480.048L116.969 474.378Z" fill="#dddddd" fill-rule="nonzero" opacity="1" stroke="#000000" stroke-linecap="butt" stroke-linejoin="miter" stroke-width="3" vectornator:layerName="Boom 1"/>
<path d="M207.335 197.731L365.133 19.6611" fill="none" opacity="1" stroke="#000000" stroke-linecap="butt" stroke-linejoin="miter" stroke-width="1" vectornator:layerName="Curve 1"/>
<g fill="#000000" opacity="1" stroke="none" vectornator:layerName="Text 3">
<path d="M405.532 347.278L405.532 346.809L412.908 346.809L412.908 347.278L412.286 347.278C411.583 347.278 411.071 347.486 410.75 347.9C410.547 348.171 410.445 348.823 410.445 349.855L410.445 358.272C410.445 359.567 410.303 360.617 410.02 361.421C409.736 362.225 409.247 362.925 408.553 363.522C407.859 364.119 407.022 364.417 406.04 364.417C405.244 364.417 404.618 364.22 404.161 363.827C403.704 363.433 403.475 362.982 403.475 362.475C403.475 362.06 403.581 361.747 403.793 361.535C404.072 361.273 404.398 361.142 404.77 361.142C405.041 361.142 405.284 361.23 405.5 361.408C405.716 361.586 405.989 362.06 406.319 362.83C406.514 363.287 406.763 363.516 407.068 363.516C407.297 363.516 407.51 363.376 407.709 363.097C407.908 362.817 408.008 362.322 408.008 361.611L408.008 349.855C408.008 348.984 407.953 348.408 407.843 348.129C407.758 347.917 407.58 347.735 407.309 347.583C406.945 347.38 406.56 347.278 406.154 347.278L405.532 347.278Z"/>
<path d="M416.831 345.971C417.186 345.971 417.489 346.095 417.739 346.345C417.988 346.595 418.113 346.897 418.113 347.253C418.113 347.608 417.988 347.913 417.739 348.167C417.489 348.421 417.186 348.548 416.831 348.548C416.475 348.548 416.171 348.421 415.917 348.167C415.663 347.913 415.536 347.608 415.536 347.253C415.536 346.897 415.661 346.595 415.91 346.345C416.16 346.095 416.467 345.971 416.831 345.971ZM417.885 352.052L417.885 361.395C417.885 362.123 417.937 362.608 418.043 362.849C418.149 363.09 418.306 363.27 418.513 363.389C418.72 363.507 419.099 363.566 419.649 363.566L419.649 364.023L414 364.023L414 363.566C414.567 363.566 414.948 363.511 415.142 363.401C415.337 363.291 415.491 363.109 415.606 362.855C415.72 362.601 415.777 362.115 415.777 361.395L415.777 356.914C415.777 355.653 415.739 354.836 415.663 354.464C415.604 354.193 415.511 354.005 415.384 353.899C415.257 353.793 415.083 353.74 414.863 353.74C414.626 353.74 414.338 353.804 414 353.931L413.822 353.474L417.326 352.052L417.885 352.052Z"/>
<path d="M424.283 354.4C425.409 352.835 426.623 352.052 427.927 352.052C429.12 352.052 430.161 352.562 431.05 353.581C431.938 354.601 432.383 355.996 432.383 357.765C432.383 359.83 431.697 361.493 430.326 362.754C429.15 363.837 427.838 364.379 426.39 364.379C425.713 364.379 425.026 364.256 424.327 364.011C423.629 363.765 422.916 363.397 422.188 362.906L422.188 350.858C422.188 349.538 422.157 348.725 422.093 348.421C422.03 348.116 421.93 347.909 421.795 347.799C421.659 347.689 421.49 347.634 421.287 347.634C421.05 347.634 420.754 347.701 420.398 347.837L420.22 347.392L423.712 345.971L424.283 345.971L424.283 354.4ZM424.283 355.213L424.283 362.17C424.715 362.593 425.161 362.913 425.622 363.128C426.084 363.344 426.555 363.452 427.038 363.452C427.808 363.452 428.525 363.029 429.19 362.183C429.854 361.336 430.186 360.105 430.186 358.488C430.186 356.999 429.854 355.854 429.19 355.054C428.525 354.254 427.77 353.854 426.924 353.854C426.475 353.854 426.026 353.969 425.578 354.197C425.239 354.366 424.808 354.705 424.283 355.213Z"/>
</g>
<g fill="#000000" opacity="1" stroke="none" vectornator:layerName="Text 4">
<path d="M276.449 407.725L269.797 393.24L269.797 404.742C269.797 405.8 269.911 406.46 270.14 406.722C270.453 407.078 270.948 407.255 271.625 407.255L272.234 407.255L272.234 407.725L266.242 407.725L266.242 407.255L266.852 407.255C267.58 407.255 268.096 407.035 268.4 406.595C268.587 406.324 268.68 405.707 268.68 404.742L268.68 393.494C268.68 392.732 268.595 392.182 268.426 391.843C268.307 391.598 268.089 391.393 267.772 391.228C267.455 391.062 266.945 390.98 266.242 390.98L266.242 390.51L271.117 390.51L277.363 403.98L283.508 390.51L288.383 390.51L288.383 390.98L287.786 390.98C287.05 390.98 286.529 391.2 286.225 391.64C286.039 391.911 285.945 392.529 285.945 393.494L285.945 404.742C285.945 405.8 286.064 406.46 286.301 406.722C286.614 407.078 287.109 407.255 287.786 407.255L288.383 407.255L288.383 407.725L281.07 407.725L281.07 407.255L281.68 407.255C282.416 407.255 282.932 407.035 283.229 406.595C283.415 406.324 283.508 405.707 283.508 404.742L283.508 393.24L276.868 407.725L276.449 407.725Z"/>
<path d="M296.33 406.049C295.137 406.972 294.388 407.505 294.083 407.649C293.626 407.861 293.139 407.966 292.623 407.966C291.819 407.966 291.157 407.691 290.636 407.141C290.116 406.591 289.856 405.867 289.856 404.97C289.856 404.403 289.983 403.912 290.236 403.498C290.583 402.922 291.186 402.38 292.046 401.873C292.905 401.365 294.333 400.747 296.33 400.019L296.33 399.562C296.33 398.403 296.146 397.607 295.778 397.175C295.41 396.744 294.874 396.528 294.172 396.528C293.639 396.528 293.216 396.672 292.902 396.959C292.581 397.247 292.42 397.577 292.42 397.95L292.445 398.686C292.445 399.075 292.346 399.376 292.147 399.587C291.948 399.799 291.688 399.905 291.366 399.905C291.053 399.905 290.797 399.795 290.598 399.575C290.399 399.355 290.3 399.054 290.3 398.673C290.3 397.945 290.672 397.277 291.417 396.667C292.162 396.058 293.207 395.753 294.553 395.753C295.585 395.753 296.432 395.927 297.092 396.274C297.591 396.536 297.959 396.947 298.196 397.505C298.349 397.869 298.425 398.614 298.425 399.74L298.425 403.688C298.425 404.797 298.446 405.476 298.488 405.726C298.531 405.975 298.601 406.142 298.698 406.227C298.795 406.312 298.907 406.354 299.034 406.354C299.17 406.354 299.288 406.324 299.39 406.265C299.567 406.155 299.91 405.846 300.418 405.338L300.418 406.049C299.47 407.319 298.565 407.954 297.701 407.954C297.287 407.954 296.956 407.81 296.711 407.522C296.466 407.234 296.339 406.743 296.33 406.049ZM296.33 405.224L296.33 400.793C295.052 401.301 294.227 401.661 293.855 401.873C293.186 402.245 292.708 402.634 292.42 403.041C292.132 403.447 291.988 403.891 291.988 404.374C291.988 404.983 292.17 405.489 292.534 405.891C292.898 406.293 293.317 406.494 293.791 406.494C294.434 406.494 295.281 406.07 296.33 405.224Z"/>
<path d="M304.239 389.672C304.595 389.672 304.897 389.797 305.147 390.047C305.397 390.297 305.522 390.599 305.522 390.955C305.522 391.31 305.397 391.615 305.147 391.869C304.897 392.123 304.595 392.25 304.239 392.25C303.884 392.25 303.579 392.123 303.325 391.869C303.071 391.615 302.944 391.31 302.944 390.955C302.944 390.599 303.069 390.297 303.319 390.047C303.569 389.797 303.875 389.672 304.239 389.672ZM305.293 395.753L305.293 405.097C305.293 405.825 305.346 406.31 305.452 406.551C305.558 406.792 305.714 406.972 305.921 407.09C306.129 407.209 306.508 407.268 307.058 407.268L307.058 407.725L301.408 407.725L301.408 407.268C301.975 407.268 302.356 407.213 302.551 407.103C302.746 406.993 302.9 406.811 303.014 406.557C303.129 406.303 303.186 405.817 303.186 405.097L303.186 400.616C303.186 399.355 303.148 398.538 303.071 398.166C303.012 397.895 302.919 397.706 302.792 397.601C302.665 397.495 302.492 397.442 302.272 397.442C302.035 397.442 301.747 397.505 301.408 397.632L301.231 397.175L304.734 395.753L305.293 395.753Z"/>
<path d="M311.895 398.216C313.257 396.574 314.556 395.753 315.792 395.753C316.427 395.753 316.973 395.912 317.43 396.229C317.887 396.547 318.251 397.069 318.522 397.797C318.708 398.305 318.801 399.084 318.801 400.133L318.801 405.097C318.801 405.833 318.86 406.333 318.979 406.595C319.072 406.807 319.222 406.972 319.429 407.09C319.637 407.209 320.02 407.268 320.578 407.268L320.578 407.725L314.827 407.725L314.827 407.268L315.068 407.268C315.61 407.268 315.989 407.186 316.205 407.021C316.421 406.855 316.571 406.612 316.655 406.291C316.689 406.164 316.706 405.766 316.706 405.097L316.706 400.336C316.706 399.278 316.569 398.51 316.294 398.032C316.018 397.554 315.555 397.315 314.903 397.315C313.896 397.315 312.893 397.865 311.895 398.965L311.895 405.097C311.895 405.884 311.941 406.371 312.034 406.557C312.153 406.803 312.316 406.982 312.523 407.097C312.73 407.211 313.151 407.268 313.786 407.268L313.786 407.725L308.035 407.725L308.035 407.268L308.289 407.268C308.882 407.268 309.282 407.118 309.489 406.817C309.696 406.517 309.8 405.944 309.8 405.097L309.8 400.781C309.8 399.384 309.768 398.534 309.705 398.229C309.641 397.924 309.544 397.717 309.413 397.607C309.282 397.497 309.106 397.442 308.886 397.442C308.649 397.442 308.365 397.505 308.035 397.632L307.845 397.175L311.349 395.753L311.895 395.753L311.895 398.216Z"/>
<path d="M329.021 395.753L329.021 399.714L328.602 399.714C328.28 398.47 327.867 397.624 327.364 397.175C326.86 396.727 326.219 396.502 325.441 396.502C324.848 396.502 324.37 396.659 324.006 396.972C323.642 397.285 323.46 397.632 323.46 398.013C323.46 398.487 323.595 398.893 323.866 399.232C324.129 399.579 324.662 399.947 325.466 400.336L327.319 401.238C329.038 402.076 329.897 403.18 329.897 404.551C329.897 405.609 329.497 406.462 328.697 407.109C327.897 407.757 327.002 408.081 326.012 408.081C325.301 408.081 324.488 407.954 323.574 407.7C323.295 407.615 323.067 407.573 322.889 407.573C322.694 407.573 322.542 407.683 322.432 407.903L322.013 407.903L322.013 403.751L322.432 403.751C322.669 404.936 323.122 405.829 323.79 406.43C324.459 407.031 325.208 407.332 326.037 407.332C326.621 407.332 327.097 407.16 327.465 406.817C327.834 406.475 328.018 406.062 328.018 405.58C328.018 404.996 327.812 404.505 327.402 404.107C326.991 403.709 326.173 403.206 324.945 402.596C323.718 401.987 322.914 401.437 322.533 400.946C322.152 400.463 321.962 399.854 321.962 399.118C321.962 398.161 322.29 397.361 322.946 396.718C323.602 396.075 324.45 395.753 325.491 395.753C325.948 395.753 326.503 395.851 327.154 396.045C327.586 396.172 327.874 396.236 328.018 396.236C328.153 396.236 328.259 396.206 328.335 396.147C328.411 396.088 328.5 395.957 328.602 395.753L329.021 395.753Z"/>
<path d="M338.212 406.049C337.019 406.972 336.27 407.505 335.965 407.649C335.508 407.861 335.021 407.966 334.505 407.966C333.701 407.966 333.039 407.691 332.518 407.141C331.998 406.591 331.737 405.867 331.737 404.97C331.737 404.403 331.864 403.912 332.118 403.498C332.465 402.922 333.068 402.38 333.927 401.873C334.786 401.365 336.215 400.747 338.212 400.019L338.212 399.562C338.212 398.403 338.028 397.607 337.66 397.175C337.292 396.744 336.756 396.528 336.054 396.528C335.521 396.528 335.097 396.672 334.784 396.959C334.463 397.247 334.302 397.577 334.302 397.95L334.327 398.686C334.327 399.075 334.228 399.376 334.029 399.587C333.83 399.799 333.57 399.905 333.248 399.905C332.935 399.905 332.679 399.795 332.48 399.575C332.281 399.355 332.182 399.054 332.182 398.673C332.182 397.945 332.554 397.277 333.299 396.667C334.044 396.058 335.089 395.753 336.435 395.753C337.467 395.753 338.314 395.927 338.974 396.274C339.473 396.536 339.841 396.947 340.078 397.505C340.231 397.869 340.307 398.614 340.307 399.74L340.307 403.688C340.307 404.797 340.328 405.476 340.37 405.726C340.413 405.975 340.482 406.142 340.58 406.227C340.677 406.312 340.789 406.354 340.916 406.354C341.052 406.354 341.17 406.324 341.272 406.265C341.449 406.155 341.792 405.846 342.3 405.338L342.3 406.049C341.352 407.319 340.446 407.954 339.583 407.954C339.168 407.954 338.838 407.81 338.593 407.522C338.347 407.234 338.22 406.743 338.212 406.049ZM338.212 405.224L338.212 400.793C336.934 401.301 336.109 401.661 335.736 401.873C335.068 402.245 334.59 402.634 334.302 403.041C334.014 403.447 333.87 403.891 333.87 404.374C333.87 404.983 334.052 405.489 334.416 405.891C334.78 406.293 335.199 406.494 335.673 406.494C336.316 406.494 337.163 406.07 338.212 405.224Z"/>
<path d="M346.121 389.672C346.477 389.672 346.779 389.797 347.029 390.047C347.279 390.297 347.403 390.599 347.403 390.955C347.403 391.31 347.279 391.615 347.029 391.869C346.779 392.123 346.477 392.25 346.121 392.25C345.766 392.25 345.461 392.123 345.207 391.869C344.953 391.615 344.826 391.31 344.826 390.955C344.826 390.599 344.951 390.297 345.201 390.047C345.45 389.797 345.757 389.672 346.121 389.672ZM347.175 395.753L347.175 405.097C347.175 405.825 347.228 406.31 347.334 406.551C347.439 406.792 347.596 406.972 347.803 407.09C348.011 407.209 348.389 407.268 348.94 407.268L348.94 407.725L343.29 407.725L343.29 407.268C343.857 407.268 344.238 407.213 344.433 407.103C344.627 406.993 344.782 406.811 344.896 406.557C345.01 406.303 345.067 405.817 345.067 405.097L345.067 400.616C345.067 399.355 345.029 398.538 344.953 398.166C344.894 397.895 344.801 397.706 344.674 397.601C344.547 397.495 344.373 397.442 344.153 397.442C343.916 397.442 343.629 397.505 343.29 397.632L343.112 397.175L346.616 395.753L347.175 395.753Z"/>
<path d="M354.386 389.672L354.386 405.097C354.386 405.825 354.439 406.307 354.545 406.544C354.65 406.781 354.813 406.961 355.033 407.084C355.253 407.207 355.664 407.268 356.265 407.268L356.265 407.725L350.565 407.725L350.565 407.268C351.098 407.268 351.462 407.213 351.656 407.103C351.851 406.993 352.003 406.811 352.113 406.557C352.223 406.303 352.278 405.817 352.278 405.097L352.278 394.535C352.278 393.223 352.249 392.417 352.19 392.116C352.13 391.816 352.035 391.611 351.904 391.5C351.773 391.39 351.606 391.335 351.402 391.335C351.182 391.335 350.903 391.403 350.565 391.539L350.349 391.094L353.815 389.672L354.386 389.672Z"/>
</g>
<g fill="#000000" opacity="1" stroke="none" vectornator:layerName="Text 5">
<path d="M96.3832 305.093L89.7308 290.607L89.7308 302.109C89.7308 303.167 89.8451 303.827 90.0736 304.09C90.3868 304.445 90.8819 304.623 91.559 304.623L92.1683 304.623L92.1683 305.093L86.1762 305.093L86.1762 304.623L86.7855 304.623C87.5134 304.623 88.0297 304.403 88.3344 303.963C88.5206 303.692 88.6137 303.074 88.6137 302.109L88.6137 290.861C88.6137 290.1 88.529 289.549 88.3597 289.211C88.2413 288.965 88.0233 288.76 87.7059 288.595C87.3886 288.43 86.8786 288.348 86.1762 288.348L86.1762 287.878L91.0512 287.878L97.2972 301.348L103.442 287.878L108.317 287.878L108.317 288.348L107.72 288.348C106.984 288.348 106.463 288.568 106.159 289.008C105.972 289.279 105.879 289.896 105.879 290.861L105.879 302.109C105.879 303.167 105.998 303.827 106.235 304.09C106.548 304.445 107.043 304.623 107.72 304.623L108.317 304.623L108.317 305.093L101.004 305.093L101.004 304.623L101.614 304.623C102.35 304.623 102.866 304.403 103.162 303.963C103.349 303.692 103.442 303.074 103.442 302.109L103.442 290.607L96.8021 305.093L96.3832 305.093Z"/>
<path d="M112.633 287.04C112.989 287.04 113.291 287.165 113.541 287.414C113.791 287.664 113.915 287.967 113.915 288.322C113.915 288.678 113.791 288.982 113.541 289.236C113.291 289.49 112.989 289.617 112.633 289.617C112.278 289.617 111.973 289.49 111.719 289.236C111.465 288.982 111.338 288.678 111.338 288.322C111.338 287.967 111.463 287.664 111.713 287.414C111.962 287.165 112.269 287.04 112.633 287.04ZM113.687 293.121L113.687 302.465C113.687 303.193 113.74 303.677 113.846 303.918C113.951 304.16 114.108 304.339 114.315 304.458C114.523 304.576 114.901 304.636 115.452 304.636L115.452 305.093L109.802 305.093L109.802 304.636C110.369 304.636 110.75 304.581 110.945 304.471C111.139 304.361 111.294 304.179 111.408 303.925C111.522 303.671 111.579 303.184 111.579 302.465L111.579 297.983C111.579 296.722 111.541 295.905 111.465 295.533C111.406 295.262 111.313 295.074 111.186 294.968C111.059 294.862 110.885 294.809 110.665 294.809C110.428 294.809 110.141 294.873 109.802 295L109.624 294.543L113.128 293.121L113.687 293.121Z"/>
<path d="M127.004 301.525L126.865 305.093L116.607 305.093L116.607 304.636L124.326 294.352L120.517 294.352C119.696 294.352 119.159 294.405 118.905 294.511C118.651 294.617 118.443 294.818 118.283 295.114C118.054 295.537 117.923 296.062 117.889 296.688L117.381 296.688L117.457 293.464L127.207 293.464L127.207 293.933L119.412 304.242L123.653 304.242C124.541 304.242 125.144 304.168 125.462 304.02C125.779 303.872 126.035 303.612 126.23 303.239C126.365 302.968 126.48 302.397 126.573 301.525L127.004 301.525Z"/>
<path d="M138.544 301.525L138.405 305.093L128.147 305.093L128.147 304.636L135.866 294.352L132.057 294.352C131.236 294.352 130.699 294.405 130.445 294.511C130.191 294.617 129.983 294.818 129.823 295.114C129.594 295.537 129.463 296.062 129.429 296.688L128.921 296.688L128.997 293.464L138.747 293.464L138.747 293.933L130.953 304.242L135.193 304.242C136.081 304.242 136.684 304.168 137.002 304.02C137.319 303.872 137.575 303.612 137.77 303.239C137.905 302.968 138.02 302.397 138.113 301.525L138.544 301.525Z"/>
<path d="M141.934 297.844C141.926 299.57 142.344 300.924 143.191 301.906C144.037 302.888 145.032 303.379 146.174 303.379C146.936 303.379 147.598 303.169 148.161 302.75C148.724 302.331 149.196 301.614 149.577 300.599L149.97 300.852C149.792 302.012 149.276 303.068 148.421 304.02C147.566 304.972 146.496 305.448 145.209 305.448C143.813 305.448 142.617 304.904 141.623 303.817C140.628 302.729 140.131 301.267 140.131 299.431C140.131 297.442 140.641 295.891 141.661 294.778C142.681 293.665 143.961 293.108 145.501 293.108C146.805 293.108 147.875 293.538 148.713 294.397C149.551 295.256 149.97 296.405 149.97 297.844L141.934 297.844ZM141.934 297.107L147.317 297.107C147.274 296.363 147.186 295.838 147.05 295.533C146.839 295.059 146.523 294.687 146.104 294.416C145.685 294.145 145.247 294.01 144.79 294.01C144.088 294.01 143.46 294.283 142.905 294.829C142.351 295.374 142.027 296.134 141.934 297.107Z"/>
<path d="M154.909 295.584C156.271 293.942 157.57 293.121 158.806 293.121C159.441 293.121 159.987 293.28 160.444 293.597C160.901 293.914 161.265 294.437 161.536 295.165C161.722 295.673 161.815 296.451 161.815 297.501L161.815 302.465C161.815 303.201 161.874 303.7 161.993 303.963C162.086 304.174 162.236 304.339 162.443 304.458C162.651 304.576 163.034 304.636 163.592 304.636L163.592 305.093L157.841 305.093L157.841 304.636L158.082 304.636C158.624 304.636 159.003 304.553 159.219 304.388C159.434 304.223 159.585 303.98 159.669 303.658C159.703 303.531 159.72 303.133 159.72 302.465L159.72 297.704C159.72 296.646 159.583 295.878 159.308 295.4C159.032 294.922 158.569 294.683 157.917 294.683C156.91 294.683 155.907 295.233 154.909 296.333L154.909 302.465C154.909 303.252 154.955 303.739 155.048 303.925C155.167 304.17 155.33 304.35 155.537 304.464C155.744 304.579 156.165 304.636 156.8 304.636L156.8 305.093L151.049 305.093L151.049 304.636L151.303 304.636C151.896 304.636 152.295 304.485 152.503 304.185C152.71 303.885 152.814 303.311 152.814 302.465L152.814 298.148C152.814 296.752 152.782 295.901 152.719 295.597C152.655 295.292 152.558 295.085 152.427 294.975C152.295 294.864 152.12 294.809 151.9 294.809C151.663 294.809 151.379 294.873 151.049 295L150.859 294.543L154.363 293.121L154.909 293.121L154.909 295.584Z"/>
<path d="M94.0726 323.225L94.0726 327.186L93.6537 327.186C93.3321 325.942 92.9195 325.096 92.4159 324.647C91.9123 324.199 91.2712 323.975 90.4926 323.975C89.9001 323.975 89.4219 324.131 89.058 324.444C88.6941 324.757 88.5121 325.104 88.5121 325.485C88.5121 325.959 88.6475 326.365 88.9183 326.704C89.1807 327.051 89.7139 327.419 90.518 327.808L92.3715 328.71C94.0896 329.548 94.9486 330.652 94.9486 332.023C94.9486 333.081 94.5487 333.934 93.7489 334.581C92.9491 335.229 92.0541 335.553 91.0639 335.553C90.3529 335.553 89.5404 335.426 88.6264 335.172C88.3471 335.087 88.1185 335.045 87.9408 335.045C87.7461 335.045 87.5938 335.155 87.4838 335.375L87.0648 335.375L87.0648 331.224L87.4838 331.224C87.7208 332.408 88.1736 333.301 88.8422 333.902C89.5108 334.503 90.2598 334.804 91.0892 334.804C91.6732 334.804 92.1493 334.632 92.5175 334.289C92.8856 333.947 93.0697 333.534 93.0697 333.052C93.0697 332.468 92.8645 331.977 92.454 331.579C92.0435 331.181 91.2247 330.678 89.9974 330.068C88.7702 329.459 87.9662 328.909 87.5853 328.418C87.2045 327.935 87.014 327.326 87.014 326.59C87.014 325.633 87.342 324.834 87.9979 324.19C88.6539 323.547 89.5023 323.225 90.5433 323.225C91.0004 323.225 91.5547 323.323 92.2064 323.517C92.6381 323.644 92.9258 323.708 93.0697 323.708C93.2051 323.708 93.3109 323.678 93.3871 323.619C93.4633 323.56 93.5521 323.429 93.6537 323.225L94.0726 323.225Z"/>
<path d="M103.264 333.521C102.071 334.444 101.322 334.977 101.017 335.121C100.56 335.333 100.073 335.438 99.557 335.438C98.753 335.438 98.0907 335.163 97.5702 334.613C97.0497 334.063 96.7894 333.339 96.7894 332.442C96.7894 331.875 96.9164 331.384 97.1703 330.97C97.5173 330.394 98.1203 329.852 98.9794 329.345C99.8384 328.837 101.267 328.219 103.264 327.491L103.264 327.034C103.264 325.875 103.08 325.079 102.712 324.647C102.344 324.216 101.808 324 101.106 324C100.573 324 100.149 324.144 99.8363 324.432C99.5147 324.719 99.3539 325.049 99.3539 325.422L99.3793 326.158C99.3793 326.547 99.2798 326.848 99.0809 327.059C98.882 327.271 98.6218 327.377 98.3002 327.377C97.987 327.377 97.731 327.267 97.5321 327.047C97.3332 326.827 97.2338 326.526 97.2338 326.145C97.2338 325.418 97.6062 324.749 98.351 324.14C99.0958 323.53 100.141 323.225 101.487 323.225C102.519 323.225 103.366 323.399 104.026 323.746C104.525 324.008 104.893 324.419 105.13 324.977C105.283 325.341 105.359 326.086 105.359 327.212L105.359 331.16C105.359 332.269 105.38 332.948 105.422 333.198C105.465 333.447 105.534 333.614 105.632 333.699C105.729 333.784 105.841 333.826 105.968 333.826C106.104 333.826 106.222 333.796 106.324 333.737C106.501 333.627 106.844 333.318 107.352 332.81L107.352 333.521C106.404 334.791 105.498 335.426 104.635 335.426C104.22 335.426 103.89 335.282 103.645 334.994C103.399 334.706 103.273 334.215 103.264 333.521ZM103.264 332.696L103.264 328.266C101.986 328.773 101.161 329.133 100.788 329.345C100.12 329.717 99.6416 330.106 99.3539 330.513C99.0661 330.919 98.9222 331.363 98.9222 331.846C98.9222 332.455 99.1042 332.961 99.4681 333.363C99.8321 333.765 100.251 333.966 100.725 333.966C101.368 333.966 102.215 333.543 103.264 332.696Z"/>
<path d="M111.173 317.144C111.529 317.144 111.831 317.269 112.081 317.519C112.331 317.769 112.455 318.071 112.455 318.427C112.455 318.782 112.331 319.087 112.081 319.341C111.831 319.595 111.529 319.722 111.173 319.722C110.818 319.722 110.513 319.595 110.259 319.341C110.005 319.087 109.878 318.782 109.878 318.427C109.878 318.071 110.003 317.769 110.253 317.519C110.502 317.269 110.809 317.144 111.173 317.144ZM112.227 323.225L112.227 332.569C112.227 333.297 112.28 333.782 112.386 334.023C112.491 334.264 112.648 334.444 112.855 334.562C113.063 334.681 113.441 334.74 113.992 334.74L113.992 335.197L108.342 335.197L108.342 334.74C108.909 334.74 109.29 334.685 109.485 334.575C109.679 334.465 109.834 334.283 109.948 334.029C110.062 333.775 110.12 333.289 110.12 332.569L110.12 328.088C110.12 326.827 110.081 326.01 110.005 325.638C109.946 325.367 109.853 325.178 109.726 325.073C109.599 324.967 109.426 324.914 109.205 324.914C108.968 324.914 108.681 324.977 108.342 325.104L108.164 324.647L111.668 323.225L112.227 323.225Z"/>
<path d="M119.438 317.144L119.438 332.569C119.438 333.297 119.491 333.78 119.597 334.016C119.702 334.253 119.865 334.433 120.085 334.556C120.305 334.679 120.716 334.74 121.317 334.74L121.317 335.197L115.617 335.197L115.617 334.74C116.15 334.74 116.514 334.685 116.708 334.575C116.903 334.465 117.055 334.283 117.165 334.029C117.275 333.775 117.33 333.289 117.33 332.569L117.33 322.007C117.33 320.695 117.301 319.889 117.242 319.588C117.182 319.288 117.087 319.083 116.956 318.973C116.825 318.863 116.658 318.808 116.454 318.808C116.234 318.808 115.955 318.875 115.617 319.011L115.401 318.566L118.867 317.144L119.438 317.144Z"/>
</g>
</g>
<g id="Yawl-rig" vectornator:layerName="Yawl rig" visibility="hidden">
<path d="M153.038 474.378L338.298 30.9226L338.298 474.378L153.038 474.378Z" fill="#dddddd" fill-rule="nonzero" opacity="1" stroke="#000000" stroke-linecap="butt" stroke-linejoin="miter" stroke-width="1" vectornator:layerName="Mainsail"/>
<path d="M518.379 532.02L343.968 30.9226L343.968 431.027L518.379 532.02Z" fill="#dddddd" fill-rule="nonzero" opacity="1" stroke="#000000" stroke-linecap="butt" stroke-linejoin="miter" stroke-width="1" vectornator:layerName="Jib"/>
<path d="M338.298 19.6611L343.968 19.6611L343.968 544.524L338.298 544.524L338.298 19.6611Z" fill="#dddddd" fill-rule="nonzero" opacity="1" stroke="#000000" stroke-linecap="butt" stroke-linejoin="miter" stroke-width="3" vectornator:layerName="Main mast"/>
<path d="M108.454 252.65L113.17 252.65L113.17 544.524L108.454 544.524L108.454 252.65Z" fill="#dddddd" fill-rule="nonzero" opacity="1" stroke="#000000" stroke-linecap="butt" stroke-linejoin="miter" stroke-width="3" vectornator:layerName="Mizzen mast"/>
<path d="M153.038 474.378L338.298 474.378L338.298 480.048L153.038 480.048L153.038 474.378Z" fill="#dddddd" fill-rule="nonzero" opacity="1" stroke="#000000" stroke-linecap="butt" stroke-linejoin="miter" stroke-width="3" vectornator:layerName="Boom"/>
<path d="M14.1338 474.378L108.454 259.371L108.454 474.378L14.1338 474.378Z" fill="#dddddd" fill-rule="nonzero" opacity="1" stroke="#000000" stroke-linecap="butt" stroke-linejoin="miter" stroke-width="1" vectornator:layerName="Mainsail 1"/>
<path d="M14.1338 474.378L107.5 474.378L107.5 480.048L14.1338 480.048L14.1338 474.378Z" fill="#dddddd" fill-rule="nonzero" opacity="1" stroke="#000000" stroke-linecap="butt" stroke-linejoin="miter" stroke-width="3" vectornator:layerName="Boom 1"/>
<path d="M341.133 19.6611L113.17 539.783" fill="none" opacity="1" stroke="#000000" stroke-linecap="butt" stroke-linejoin="miter" stroke-width="1" vectornator:layerName="Curve 1"/>
<g fill="#000000" opacity="1" stroke="none" vectornator:layerName="Text 4">
<path d="M228.709 406.535L222.056 392.05L222.056 403.552C222.056 404.61 222.171 405.27 222.399 405.532C222.712 405.888 223.207 406.065 223.885 406.065L224.494 406.065L224.494 406.535L218.502 406.535L218.502 406.065L219.111 406.065C219.839 406.065 220.355 405.845 220.66 405.405C220.846 405.134 220.939 404.517 220.939 403.552L220.939 392.304C220.939 391.542 220.855 390.992 220.685 390.653C220.567 390.408 220.349 390.203 220.032 390.038C219.714 389.872 219.204 389.79 218.502 389.79L218.502 389.32L223.377 389.32L229.623 402.79L235.767 389.32L240.642 389.32L240.642 389.79L240.046 389.79C239.309 389.79 238.789 390.01 238.484 390.45C238.298 390.721 238.205 391.339 238.205 392.304L238.205 403.552C238.205 404.61 238.323 405.27 238.56 405.532C238.873 405.888 239.369 406.065 240.046 406.065L240.642 406.065L240.642 406.535L233.33 406.535L233.33 406.065L233.939 406.065C234.676 406.065 235.192 405.845 235.488 405.405C235.674 405.134 235.767 404.517 235.767 403.552L235.767 392.05L229.128 406.535L228.709 406.535Z"/>
<path d="M248.59 404.859C247.396 405.782 246.647 406.315 246.343 406.459C245.886 406.67 245.399 406.776 244.883 406.776C244.079 406.776 243.416 406.501 242.896 405.951C242.375 405.401 242.115 404.677 242.115 403.78C242.115 403.213 242.242 402.722 242.496 402.308C242.843 401.732 243.446 401.19 244.305 400.683C245.164 400.175 246.592 399.557 248.59 398.829L248.59 398.372C248.59 397.212 248.406 396.417 248.037 395.985C247.669 395.554 247.134 395.338 246.431 395.338C245.898 395.338 245.475 395.482 245.162 395.769C244.84 396.057 244.679 396.387 244.679 396.76L244.705 397.496C244.705 397.885 244.605 398.186 244.407 398.397C244.208 398.609 243.947 398.715 243.626 398.715C243.313 398.715 243.057 398.605 242.858 398.385C242.659 398.165 242.559 397.864 242.559 397.483C242.559 396.755 242.932 396.087 243.677 395.477C244.421 394.868 245.467 394.563 246.812 394.563C247.845 394.563 248.691 394.737 249.351 395.084C249.851 395.346 250.219 395.757 250.456 396.315C250.608 396.679 250.684 397.424 250.684 398.55L250.684 402.498C250.684 403.607 250.706 404.286 250.748 404.536C250.79 404.785 250.86 404.952 250.957 405.037C251.055 405.122 251.167 405.164 251.294 405.164C251.429 405.164 251.548 405.134 251.649 405.075C251.827 404.965 252.17 404.656 252.678 404.148L252.678 404.859C251.73 406.129 250.824 406.764 249.961 406.764C249.546 406.764 249.216 406.62 248.971 406.332C248.725 406.044 248.598 405.553 248.59 404.859ZM248.59 404.034L248.59 399.603C247.312 400.111 246.486 400.471 246.114 400.683C245.445 401.055 244.967 401.444 244.679 401.851C244.392 402.257 244.248 402.701 244.248 403.184C244.248 403.793 244.43 404.299 244.794 404.701C245.158 405.103 245.577 405.304 246.051 405.304C246.694 405.304 247.54 404.88 248.59 404.034Z"/>
<path d="M256.499 388.482C256.854 388.482 257.157 388.607 257.407 388.857C257.656 389.107 257.781 389.409 257.781 389.765C257.781 390.12 257.656 390.425 257.407 390.679C257.157 390.933 256.854 391.059 256.499 391.059C256.143 391.059 255.839 390.933 255.585 390.679C255.331 390.425 255.204 390.12 255.204 389.765C255.204 389.409 255.329 389.107 255.578 388.857C255.828 388.607 256.135 388.482 256.499 388.482ZM257.553 394.563L257.553 403.907C257.553 404.635 257.605 405.12 257.711 405.361C257.817 405.602 257.974 405.782 258.181 405.9C258.388 406.019 258.767 406.078 259.317 406.078L259.317 406.535L253.668 406.535L253.668 406.078C254.235 406.078 254.616 406.023 254.81 405.913C255.005 405.803 255.159 405.621 255.274 405.367C255.388 405.113 255.445 404.627 255.445 403.907L255.445 399.426C255.445 398.165 255.407 397.348 255.331 396.976C255.272 396.705 255.179 396.516 255.052 396.411C254.925 396.305 254.751 396.252 254.531 396.252C254.294 396.252 254.006 396.315 253.668 396.442L253.49 395.985L256.994 394.563L257.553 394.563Z"/>
<path d="M264.154 397.026C265.517 395.384 266.816 394.563 268.052 394.563C268.686 394.563 269.232 394.722 269.689 395.039C270.146 395.357 270.51 395.879 270.781 396.607C270.967 397.115 271.06 397.894 271.06 398.943L271.06 403.907C271.06 404.643 271.12 405.143 271.238 405.405C271.331 405.617 271.481 405.782 271.689 405.9C271.896 406.019 272.279 406.078 272.838 406.078L272.838 406.535L267.087 406.535L267.087 406.078L267.328 406.078C267.87 406.078 268.248 405.996 268.464 405.83C268.68 405.665 268.83 405.422 268.915 405.101C268.949 404.974 268.966 404.576 268.966 403.907L268.966 399.146C268.966 398.088 268.828 397.32 268.553 396.842C268.278 396.364 267.815 396.125 267.163 396.125C266.156 396.125 265.153 396.675 264.154 397.775L264.154 403.907C264.154 404.694 264.201 405.181 264.294 405.367C264.412 405.613 264.575 405.792 264.783 405.907C264.99 406.021 265.411 406.078 266.046 406.078L266.046 406.535L260.295 406.535L260.295 406.078L260.549 406.078C261.141 406.078 261.541 405.928 261.748 405.627C261.956 405.327 262.059 404.754 262.059 403.907L262.059 399.591C262.059 398.194 262.028 397.344 261.964 397.039C261.901 396.734 261.803 396.527 261.672 396.417C261.541 396.307 261.365 396.252 261.145 396.252C260.908 396.252 260.625 396.315 260.295 396.442L260.104 395.985L263.608 394.563L264.154 394.563L264.154 397.026Z"/>
<path d="M281.28 394.563L281.28 398.524L280.861 398.524C280.54 397.28 280.127 396.434 279.623 395.985C279.12 395.537 278.479 395.312 277.7 395.312C277.108 395.312 276.629 395.469 276.265 395.782C275.901 396.095 275.72 396.442 275.72 396.823C275.72 397.297 275.855 397.703 276.126 398.042C276.388 398.389 276.921 398.757 277.725 399.146L279.579 400.048C281.297 400.886 282.156 401.99 282.156 403.361C282.156 404.419 281.756 405.272 280.956 405.919C280.157 406.567 279.262 406.891 278.271 406.891C277.56 406.891 276.748 406.764 275.834 406.51C275.554 406.425 275.326 406.383 275.148 406.383C274.954 406.383 274.801 406.493 274.691 406.713L274.272 406.713L274.272 402.561L274.691 402.561C274.928 403.746 275.381 404.639 276.05 405.24C276.718 405.841 277.467 406.142 278.297 406.142C278.881 406.142 279.357 405.97 279.725 405.627C280.093 405.285 280.277 404.872 280.277 404.39C280.277 403.806 280.072 403.315 279.661 402.917C279.251 402.519 278.432 402.016 277.205 401.406C275.978 400.797 275.174 400.247 274.793 399.756C274.412 399.273 274.221 398.664 274.221 397.928C274.221 396.971 274.549 396.171 275.205 395.528C275.861 394.885 276.71 394.563 277.751 394.563C278.208 394.563 278.762 394.661 279.414 394.855C279.846 394.982 280.133 395.046 280.277 395.046C280.413 395.046 280.518 395.016 280.595 394.957C280.671 394.898 280.76 394.767 280.861 394.563L281.28 394.563Z"/>
<path d="M290.471 404.859C289.278 405.782 288.529 406.315 288.224 406.459C287.767 406.67 287.281 406.776 286.764 406.776C285.96 406.776 285.298 406.501 284.778 405.951C284.257 405.401 283.997 404.677 283.997 403.78C283.997 403.213 284.124 402.722 284.378 402.308C284.725 401.732 285.328 401.19 286.187 400.683C287.046 400.175 288.474 399.557 290.471 398.829L290.471 398.372C290.471 397.212 290.287 396.417 289.919 395.985C289.551 395.554 289.016 395.338 288.313 395.338C287.78 395.338 287.357 395.482 287.044 395.769C286.722 396.057 286.561 396.387 286.561 396.76L286.587 397.496C286.587 397.885 286.487 398.186 286.288 398.397C286.089 398.609 285.829 398.715 285.508 398.715C285.194 398.715 284.938 398.605 284.74 398.385C284.541 398.165 284.441 397.864 284.441 397.483C284.441 396.755 284.814 396.087 285.558 395.477C286.303 394.868 287.348 394.563 288.694 394.563C289.727 394.563 290.573 394.737 291.233 395.084C291.733 395.346 292.101 395.757 292.338 396.315C292.49 396.679 292.566 397.424 292.566 398.55L292.566 402.498C292.566 403.607 292.587 404.286 292.63 404.536C292.672 404.785 292.742 404.952 292.839 405.037C292.936 405.122 293.049 405.164 293.176 405.164C293.311 405.164 293.429 405.134 293.531 405.075C293.709 404.965 294.052 404.656 294.559 404.148L294.559 404.859C293.611 406.129 292.706 406.764 291.843 406.764C291.428 406.764 291.098 406.62 290.852 406.332C290.607 406.044 290.48 405.553 290.471 404.859ZM290.471 404.034L290.471 399.603C289.193 400.111 288.368 400.471 287.996 400.683C287.327 401.055 286.849 401.444 286.561 401.851C286.274 402.257 286.13 402.701 286.13 403.184C286.13 403.793 286.312 404.299 286.676 404.701C287.04 405.103 287.458 405.304 287.932 405.304C288.576 405.304 289.422 404.88 290.471 404.034Z"/>
<path d="M298.381 388.482C298.736 388.482 299.039 388.607 299.288 388.857C299.538 389.107 299.663 389.409 299.663 389.765C299.663 390.12 299.538 390.425 299.288 390.679C299.039 390.933 298.736 391.059 298.381 391.059C298.025 391.059 297.721 390.933 297.467 390.679C297.213 390.425 297.086 390.12 297.086 389.765C297.086 389.409 297.211 389.107 297.46 388.857C297.71 388.607 298.017 388.482 298.381 388.482ZM299.434 394.563L299.434 403.907C299.434 404.635 299.487 405.12 299.593 405.361C299.699 405.602 299.855 405.782 300.063 405.9C300.27 406.019 300.649 406.078 301.199 406.078L301.199 406.535L295.55 406.535L295.55 406.078C296.117 406.078 296.498 406.023 296.692 405.913C296.887 405.803 297.041 405.621 297.156 405.367C297.27 405.113 297.327 404.627 297.327 403.907L297.327 399.426C297.327 398.165 297.289 397.348 297.213 396.976C297.153 396.705 297.06 396.516 296.933 396.411C296.806 396.305 296.633 396.252 296.413 396.252C296.176 396.252 295.888 396.315 295.55 396.442L295.372 395.985L298.876 394.563L299.434 394.563Z"/>
<path d="M306.645 388.482L306.645 403.907C306.645 404.635 306.698 405.117 306.804 405.354C306.91 405.591 307.073 405.771 307.293 405.894C307.513 406.017 307.923 406.078 308.524 406.078L308.524 406.535L302.824 406.535L302.824 406.078C303.357 406.078 303.721 406.023 303.916 405.913C304.11 405.803 304.263 405.621 304.373 405.367C304.483 405.113 304.538 404.627 304.538 403.907L304.538 393.345C304.538 392.033 304.508 391.227 304.449 390.926C304.39 390.626 304.295 390.42 304.163 390.31C304.032 390.2 303.865 390.145 303.662 390.145C303.442 390.145 303.163 390.213 302.824 390.349L302.608 389.904L306.074 388.482L306.645 388.482Z"/>
</g>
<g fill="#000000" opacity="1" stroke="none" vectornator:layerName="Text 5">
<path d="M390.806 389.79L390.806 389.32L398.182 389.32L398.182 389.79L397.56 389.79C396.857 389.79 396.345 389.997 396.024 390.412C395.821 390.683 395.719 391.335 395.719 392.367L395.719 400.784C395.719 402.079 395.577 403.129 395.294 403.933C395.01 404.737 394.521 405.437 393.827 406.034C393.133 406.63 392.296 406.929 391.314 406.929C390.518 406.929 389.892 406.732 389.435 406.338C388.978 405.945 388.749 405.494 388.749 404.986C388.749 404.572 388.855 404.258 389.067 404.047C389.346 403.784 389.672 403.653 390.044 403.653C390.315 403.653 390.558 403.742 390.774 403.92C390.99 404.098 391.263 404.572 391.593 405.342C391.788 405.799 392.037 406.027 392.342 406.027C392.571 406.027 392.784 405.888 392.983 405.608C393.182 405.329 393.282 404.834 393.282 404.123L393.282 392.367C393.282 391.495 393.227 390.92 393.117 390.641C393.032 390.429 392.854 390.247 392.583 390.095C392.219 389.892 391.834 389.79 391.428 389.79L390.806 389.79Z"/>
<path d="M402.105 388.482C402.46 388.482 402.763 388.607 403.013 388.857C403.262 389.107 403.387 389.409 403.387 389.765C403.387 390.12 403.262 390.425 403.013 390.679C402.763 390.933 402.46 391.059 402.105 391.059C401.749 391.059 401.445 390.933 401.191 390.679C400.937 390.425 400.81 390.12 400.81 389.765C400.81 389.409 400.935 389.107 401.184 388.857C401.434 388.607 401.741 388.482 402.105 388.482ZM403.159 394.563L403.159 403.907C403.159 404.635 403.211 405.12 403.317 405.361C403.423 405.602 403.58 405.782 403.787 405.9C403.994 406.019 404.373 406.078 404.923 406.078L404.923 406.535L399.274 406.535L399.274 406.078C399.841 406.078 400.222 406.023 400.416 405.913C400.611 405.803 400.765 405.621 400.88 405.367C400.994 405.113 401.051 404.627 401.051 403.907L401.051 399.426C401.051 398.165 401.013 397.348 400.937 396.976C400.878 396.705 400.785 396.516 400.658 396.411C400.531 396.305 400.357 396.252 400.137 396.252C399.9 396.252 399.612 396.315 399.274 396.442L399.096 395.985L402.6 394.563L403.159 394.563Z"/>
<path d="M409.557 396.912C410.683 395.346 411.897 394.563 413.201 394.563C414.394 394.563 415.435 395.073 416.324 396.093C417.212 397.113 417.657 398.507 417.657 400.276C417.657 402.341 416.971 404.004 415.6 405.266C414.424 406.349 413.112 406.891 411.664 406.891C410.987 406.891 410.3 406.768 409.601 406.522C408.903 406.277 408.19 405.909 407.462 405.418L407.462 393.37C407.462 392.05 407.431 391.237 407.367 390.933C407.304 390.628 407.204 390.42 407.069 390.31C406.933 390.2 406.764 390.145 406.561 390.145C406.324 390.145 406.028 390.213 405.672 390.349L405.494 389.904L408.986 388.482L409.557 388.482L409.557 396.912ZM409.557 397.725L409.557 404.682C409.989 405.105 410.435 405.424 410.896 405.64C411.358 405.856 411.829 405.964 412.312 405.964C413.082 405.964 413.799 405.541 414.464 404.694C415.128 403.848 415.46 402.616 415.46 401C415.46 399.51 415.128 398.366 414.464 397.566C413.799 396.766 413.044 396.366 412.198 396.366C411.749 396.366 411.3 396.48 410.852 396.709C410.513 396.878 410.082 397.217 409.557 397.725Z"/>
</g>
<g fill="#000000" opacity="1" stroke="none" vectornator:layerName="Text 6">
<path d="M59.33 454.879L43.405 455.568L54.0549 459.912C55.0345 460.312 55.6889 460.455 56.0182 460.343C56.4656 460.187 56.8172 459.796 57.0729 459.169L57.3031 458.604L57.738 458.782L55.4747 464.33L55.0398 464.153L55.27 463.588C55.5449 462.915 55.5361 462.353 55.2437 461.905C55.0633 461.63 54.5263 461.311 53.633 460.946L43.2181 456.698C42.5128 456.41 41.9715 456.281 41.5941 456.31C41.3221 456.327 41.0497 456.451 40.777 456.682C40.5043 456.914 40.2353 457.355 39.97 458.005L39.5351 457.828L41.3764 453.314L56.2075 452.618L46.0564 441.841L47.8977 437.327L48.3326 437.505L48.1072 438.057C47.8291 438.739 47.8363 439.304 48.1287 439.753C48.3092 440.027 48.8461 440.347 49.7394 440.711L60.1543 444.96C61.1339 445.359 61.7899 445.499 62.1223 445.379C62.5697 445.223 62.9213 444.832 63.1771 444.205L63.4024 443.652L63.8374 443.83L61.0754 450.6L60.6405 450.423L60.8706 449.859C61.1487 449.177 61.14 448.616 60.8444 448.175C60.6639 447.901 60.127 447.581 59.2336 447.217L48.5837 442.872L59.4882 454.491L59.33 454.879Z"/>
<path d="M48.7522 433.014C48.8865 432.685 49.1163 432.452 49.4418 432.315C49.7673 432.178 50.0946 432.177 50.4237 432.311C50.7529 432.446 50.9878 432.676 51.1286 433.003C51.2694 433.33 51.2727 433.659 51.1384 433.988C51.0042 434.317 50.7715 434.551 50.4405 434.69C50.1095 434.829 49.7795 434.832 49.4503 434.698C49.1212 434.563 48.8882 434.333 48.7513 434.008C48.6144 433.682 48.6147 433.351 48.7522 433.014ZM54.7808 434.335L63.4324 437.865C64.1064 438.14 64.575 438.274 64.8383 438.267C65.1016 438.26 65.3273 438.183 65.5153 438.036C65.7033 437.888 65.9012 437.56 66.109 437.051L66.5322 437.223L64.3984 442.454L63.9752 442.282C64.1894 441.757 64.2823 441.383 64.2539 441.161C64.2256 440.94 64.1154 440.728 63.9235 440.526C63.7316 440.324 63.3025 440.088 62.6364 439.816L58.4869 438.123C57.3193 437.647 56.5487 437.374 56.1751 437.304C55.9019 437.256 55.6924 437.271 55.5465 437.349C55.4006 437.426 55.2861 437.567 55.203 437.771C55.1135 437.99 55.0635 438.281 55.0532 438.642L54.5629 438.634L54.5698 434.853L54.7808 434.335Z"/>
<path d="M67.5926 425.179L70.843 426.656L66.9685 436.154L66.5454 435.981L59.9393 424.95L58.5008 428.476C58.1907 429.237 58.0367 429.754 58.0387 430.029C58.0408 430.304 58.1486 430.572 58.3621 430.833C58.6677 431.204 59.104 431.524 59.6711 431.792L59.4793 432.262L56.5223 430.974L60.2049 421.946L60.6399 422.123L67.2407 433.235L68.8422 429.308C69.1779 428.486 69.3371 427.899 69.3198 427.549C69.3026 427.2 69.1583 426.864 68.887 426.543C68.6874 426.316 68.2016 425.994 67.4296 425.579L67.5926 425.179Z"/>
<path d="M71.9513 414.494L75.2017 415.97L71.3273 425.468L70.9041 425.296L64.298 414.265L62.8595 417.791C62.5494 418.551 62.3954 419.069 62.3975 419.344C62.3995 419.619 62.5073 419.887 62.7209 420.148C63.0264 420.519 63.4627 420.839 64.0298 421.107L63.838 421.577L60.881 420.289L64.5637 411.261L64.9986 411.438L71.5994 422.549L73.201 418.623C73.5366 417.8 73.6958 417.214 73.6786 416.864C73.6613 416.514 73.517 416.179 73.2457 415.858C73.0461 415.63 72.5603 415.309 71.7883 414.893L71.9513 414.494Z"/>
<path d="M69.8227 409.965C71.4182 410.625 72.8303 410.748 74.059 410.335C75.2877 409.922 76.1178 409.187 76.5494 408.129C76.8371 407.424 76.8933 406.731 76.718 406.052C76.5426 405.373 76.0567 404.665 75.2602 403.929L75.6439 403.66C76.6504 404.263 77.433 405.139 77.9917 406.291C78.5505 407.442 78.5869 408.613 78.101 409.804C77.5736 411.097 76.6185 411.999 75.2359 412.509C73.8533 413.019 72.3117 412.927 70.6112 412.233C68.7695 411.482 67.5261 410.424 66.8808 409.059C66.2355 407.695 66.2037 406.299 66.7855 404.873C67.2778 403.666 68.0799 402.837 69.1918 402.386C70.3037 401.934 71.5258 401.98 72.858 402.524L69.8227 409.965ZM69.1409 409.686L71.174 404.702C70.4684 404.46 69.949 404.344 69.6157 404.355C69.0969 404.372 68.6331 404.523 68.224 404.808C67.815 405.094 67.5242 405.448 67.3516 405.872C67.0863 406.522 67.1016 407.207 67.3977 407.926C67.6938 408.646 68.2749 409.233 69.1409 409.686Z"/>
<path d="M72.6309 397.098C71.6253 395.216 71.3558 393.703 71.8225 392.559C72.0623 391.971 72.4154 391.525 72.8819 391.222C73.3484 390.919 73.9698 390.779 74.746 390.803C75.2865 390.823 76.0427 391.03 77.0144 391.427L81.6106 393.302C82.2924 393.58 82.7771 393.714 83.0648 393.703C83.2959 393.697 83.5054 393.62 83.6935 393.473C83.8815 393.325 84.081 392.993 84.292 392.476L84.7152 392.649L82.543 397.974L82.1198 397.801L82.2109 397.578C82.4155 397.076 82.4822 396.694 82.4109 396.432C82.3396 396.17 82.171 395.939 81.9052 395.739C81.8004 395.66 81.4385 395.494 80.8194 395.241L76.4113 393.443C75.4317 393.044 74.6686 392.881 74.1219 392.955C73.5753 393.029 73.1789 393.368 72.9327 393.971C72.5523 394.904 72.6829 396.04 73.3244 397.38L79.0021 399.696C79.7309 399.994 80.1991 400.134 80.4066 400.119C80.6786 400.102 80.9067 400.019 81.0908 399.87C81.2749 399.721 81.4869 399.353 81.7266 398.765L82.1498 398.938L79.9776 404.263L79.5544 404.09L79.6503 403.855C79.8741 403.306 79.8861 402.879 79.6862 402.574C79.4863 402.268 78.9945 401.956 78.2109 401.636L74.2142 400.006C72.9212 399.478 72.1216 399.186 71.8155 399.13C71.5094 399.074 71.2806 399.086 71.1292 399.165C70.9778 399.245 70.8605 399.387 70.7774 399.591C70.6879 399.81 70.6396 400.097 70.6325 400.45L70.1374 400.454L70.1443 396.673L70.3504 396.167L72.6309 397.098Z"/>
<path d="M79.2741 374.291L82.9416 375.787L82.7834 376.175C81.5099 376.003 80.5704 376.066 79.9649 376.362C79.3593 376.659 78.9095 377.168 78.6154 377.889C78.3917 378.438 78.356 378.94 78.5085 379.395C78.661 379.85 78.9136 380.15 79.2662 380.294C79.7051 380.473 80.1324 380.501 80.5481 380.378C80.9685 380.266 81.5108 379.911 82.175 379.314L83.7097 377.938C85.1344 376.664 86.4816 376.285 87.7511 376.803C88.7307 377.203 89.3692 377.895 89.6666 378.88C89.964 379.865 89.9257 380.816 89.5517 381.733C89.2832 382.392 88.8587 383.096 88.2784 383.846C88.0945 384.073 87.969 384.269 87.9019 384.433C87.8284 384.613 87.8727 384.796 88.0349 384.981L87.8767 385.369L84.0328 383.801L84.191 383.413C85.3777 383.641 86.3755 383.559 87.1844 383.167C87.9933 382.775 88.5545 382.195 88.8677 381.427C89.0883 380.886 89.1094 380.381 88.9311 379.91C88.7528 379.44 88.4403 379.114 87.9936 378.931C87.4529 378.711 86.9208 378.715 86.3975 378.945C85.8741 379.175 85.0985 379.743 84.0708 380.649C83.043 381.555 82.2299 382.092 81.6316 382.259C81.041 382.43 80.4049 382.376 79.7231 382.098C78.8375 381.737 78.2209 381.131 77.873 380.281C77.5252 379.43 77.5479 378.523 77.9411 377.559C78.1137 377.136 78.4132 376.66 78.8396 376.13C79.1202 375.778 79.2876 375.535 79.342 375.402C79.3931 375.277 79.4057 375.168 79.3796 375.075C79.3535 374.982 79.2656 374.85 79.1159 374.679L79.2741 374.291Z"/>
<path d="M92.279 369.67C92.6824 371.123 92.8932 372.018 92.9114 372.354C92.9347 372.858 92.8488 373.348 92.6538 373.826C92.3501 374.571 91.8453 375.08 91.1393 375.354C90.4333 375.628 89.665 375.596 88.8343 375.257C88.3093 375.043 87.9027 374.74 87.6146 374.348C87.2128 373.809 86.939 373.047 86.7933 372.059C86.6475 371.072 86.6149 369.516 86.6954 367.392L86.2722 367.219C85.1986 366.781 84.3924 366.651 83.8537 366.829C83.315 367.007 82.913 367.421 82.6476 368.072C82.4462 368.565 82.4196 369.012 82.5678 369.41C82.7128 369.817 82.9576 370.09 83.3025 370.231L83.9938 370.485C84.3543 370.633 84.595 370.838 84.7157 371.102C84.8365 371.366 84.8362 371.647 84.7147 371.945C84.5964 372.235 84.3979 372.43 84.119 372.531C83.8401 372.633 83.5244 372.611 83.1717 372.467C82.4978 372.192 82.0193 371.595 81.7364 370.675C81.4535 369.755 81.5662 368.673 82.0744 367.426C82.4644 366.47 82.9448 365.752 83.5154 365.272C83.9469 364.909 84.4661 364.723 85.0728 364.715C85.4673 364.711 86.1857 364.922 87.228 365.347L90.8838 366.838C91.9104 367.257 92.5472 367.494 92.7944 367.549C93.0416 367.604 93.2227 367.603 93.3378 367.544C93.453 367.486 93.5345 367.398 93.5825 367.281C93.6336 367.156 93.6509 367.035 93.6344 366.918C93.5997 366.712 93.4431 366.278 93.1647 365.616L93.823 365.885C94.6405 367.242 94.8862 368.32 94.5601 369.119C94.4034 369.503 94.1456 369.755 93.7864 369.873C93.4273 369.992 92.9248 369.924 92.279 369.67ZM91.5149 369.358L87.4124 367.684C87.3999 369.06 87.4213 369.96 87.4766 370.384C87.5688 371.144 87.7487 371.734 88.0162 372.154C88.2836 372.574 88.6407 372.875 89.0874 373.057C89.6516 373.287 90.1886 373.31 90.6983 373.124C91.208 372.939 91.5524 372.627 91.7314 372.188C91.9743 371.593 91.9022 370.649 91.5149 369.358Z"/>
<path d="M80.1025 356.161C80.2367 355.831 80.4666 355.598 80.7921 355.462C81.1176 355.325 81.4449 355.323 81.774 355.458C82.1032 355.592 82.3381 355.823 82.4789 356.15C82.6197 356.477 82.623 356.805 82.4887 357.134C82.3545 357.463 82.1218 357.697 81.7908 357.837C81.4598 357.976 81.1298 357.978 80.8006 357.844C80.4715 357.71 80.2385 357.48 80.1016 357.154C79.9647 356.829 79.965 356.498 80.1025 356.161ZM86.1311 357.482L94.7827 361.011C95.4566 361.286 95.9253 361.42 96.1886 361.413C96.4519 361.406 96.6775 361.329 96.8656 361.182C97.0536 361.035 97.2515 360.706 97.4593 360.197L97.8825 360.37L95.7487 365.601L95.3255 365.428C95.5397 364.903 95.6326 364.529 95.6042 364.308C95.5759 364.086 95.4657 363.874 95.2738 363.672C95.0818 363.471 94.6528 363.234 93.9867 362.962L89.8372 361.27C88.6696 360.793 87.899 360.52 87.5254 360.45C87.2522 360.403 87.0427 360.418 86.8968 360.495C86.7509 360.573 86.6364 360.713 86.5532 360.917C86.4637 361.137 86.4138 361.427 86.4035 361.789L85.9132 361.78L85.9201 357.999L86.1311 357.482Z"/>
<path d="M83.2241 348.508L97.5063 354.334C98.1803 354.609 98.6469 354.742 98.9063 354.734C99.1657 354.725 99.3938 354.643 99.5905 354.485C99.7872 354.328 99.9991 353.971 100.226 353.414L100.649 353.587L98.4963 358.865L98.0731 358.692C98.2745 358.199 98.361 357.841 98.3326 357.619C98.3043 357.397 98.1933 357.188 97.9998 356.99C97.8063 356.792 97.3764 356.557 96.7103 356.286L86.9302 352.296C85.7156 351.801 84.9579 351.523 84.6574 351.465C84.3568 351.406 84.1308 351.417 83.9793 351.497C83.8279 351.577 83.7138 351.711 83.6371 351.899C83.554 352.102 83.5112 352.387 83.5087 352.751L83.0158 352.783L83.0083 349.037L83.2241 348.508Z"/>
</g>
</g>
<clipPath id="ArtboardFrame">
<rect height="595.35" width="586.958" x="0" y="0"/>
</clipPath>
<g clip-path="url(#ArtboardFrame)" id="Hull" vectornator:layerName="Hull">
<path d="M434.784 534.918C434.784 534.918 413.393 522.546 360.301 517.358C307.209 512.171 222.415 514.168 222.415 514.168L203.518 526.16L122.353 526.403L116.969 538.405C116.969 538.405 205.693 545.32 284.054 544.448C362.414 543.576 434.784 534.918 434.784 534.918Z" fill="#dddddd" fill-rule="nonzero" opacity="1" stroke="#000000" stroke-linecap="butt" stroke-linejoin="miter" stroke-width="3" vectornator:layerName="Curve 6"/>
<path d="M466.725 575.765L518.379 532.02C518.379 532.02 419.201 536.85 310.336 538.485C201.471 540.119 82.9199 538.557 82.9199 538.557L70.1167 559.985C70.1167 559.985 76.5464 562.913 81.0304 566.756C85.5143 570.599 88.0525 575.357 88.0525 575.357L466.725 575.765Z" fill="#dddddd" fill-rule="nonzero" opacity="1" stroke="#000000" stroke-linecap="butt" stroke-linejoin="miter" stroke-width="3" vectornator:layerName="Hull"/>
<path d="M0 572.765L586.958 572.765L586.958 595.35L0 595.35L0 572.765Z" fill="#1991e8" fill-rule="nonzero" opacity="1" stroke="none" vectornator:layerName="Rectangle 1"/>
</g>
</svg>
