<?xml version="1.0" encoding="UTF-8" standalone="no"?>
<!DOCTYPE svg PUBLIC "-//W3C//DTD SVG 1.1//EN" "http://www.w3.org/Graphics/SVG/1.1/DTD/svg11.dtd">
<!-- Created with Vectornator (http://vectornator.io/) -->
<svg height="100%" stroke-miterlimit="10" style="fill-rule:nonzero;clip-rule:evenodd;stroke-linecap:round;stroke-linejoin:round;" version="1.1" viewBox="0 0 586.958 595.35" width="100%" xml:space="preserve" xmlns="http://www.w3.org/2000/svg" xmlns:vectornator="http://vectornator.io" xmlns:xlink="http://www.w3.org/1999/xlink">
<defs/>
<g id="Sloop-rig" vectornator:layerName="Sloop rig" visibility="hidden">
<path d="M130.472 468.315L335.615 24.8591L335.615 468.315L130.472 468.315Z" fill="#dddddd" fill-rule="nonzero" opacity="1" stroke="#000000" stroke-linecap="butt" stroke-linejoin="miter" stroke-width="1" vectornator:layerName="Mainsail"/>
<path d="M518.379 532.02L341.285 30.9226L341.285 458.845L518.379 532.02Z" fill="#dddddd" fill-rule="nonzero" opacity="1" stroke="#000000" stroke-linecap="butt" stroke-linejoin="miter" stroke-width="1" vectornator:layerName="Jib"/>
<path d="M335.615 19.5851L341.285 19.5851L341.285 544.448L335.615 544.448L335.615 19.5851Z" fill="#dddddd" fill-rule="nonzero" opacity="1" stroke="#000000" stroke-linecap="butt" stroke-linejoin="miter" stroke-width="3" vectornator:layerName="Mast mast"/>
<path d="M127.874 468.315L335.615 468.315L335.615 473.985L127.874 473.985L127.874 468.315Z" fill="#dddddd" fill-rule="nonzero" opacity="1" stroke="#000000" stroke-linecap="butt" stroke-linejoin="miter" stroke-width="3" vectornator:layerName="Boom"/>
<path d="M338.45 19.5851L83.5812 544.448" fill="none" opacity="1" stroke="#000000" stroke-linecap="butt" stroke-linejoin="miter" stroke-width="1" vectornator:layerName="Curve 1"/>
<g fill="#000000" opacity="1" stroke="none" vectornator:layerName="Text 4">
<path d="M205.255 420.168L189.904 386.74L189.904 413.283C189.904 415.725 190.167 417.248 190.695 417.853C191.417 418.674 192.56 419.084 194.122 419.084L195.529 419.084L195.529 420.168L181.7 420.168L181.7 419.084L183.107 419.084C184.786 419.084 185.978 418.576 186.681 417.56C187.111 416.935 187.325 415.51 187.325 413.283L187.325 387.326C187.325 385.568 187.13 384.299 186.74 383.517C186.466 382.951 185.963 382.477 185.231 382.097C184.498 381.716 183.322 381.525 181.7 381.525L181.7 380.441L192.95 380.441L207.365 411.525L221.544 380.441L232.794 380.441L232.794 381.525L231.417 381.525C229.718 381.525 228.517 382.033 227.814 383.049C227.384 383.674 227.169 385.1 227.169 387.326L227.169 413.283C227.169 415.725 227.443 417.248 227.99 417.853C228.712 418.674 229.855 419.084 231.417 419.084L232.794 419.084L232.794 420.168L215.919 420.168L215.919 419.084L217.325 419.084C219.025 419.084 220.216 418.576 220.9 417.56C221.329 416.935 221.544 415.51 221.544 413.283L221.544 386.74L206.222 420.168L205.255 420.168Z"/>
<path d="M251.134 416.301C248.38 418.43 246.652 419.66 245.949 419.992C244.894 420.48 243.771 420.725 242.579 420.725C240.724 420.725 239.196 420.09 237.994 418.82C236.793 417.551 236.193 415.881 236.193 413.81C236.193 412.502 236.486 411.369 237.072 410.412C237.872 409.084 239.264 407.834 241.246 406.662C243.229 405.49 246.525 404.064 251.134 402.385L251.134 401.33C251.134 398.654 250.709 396.818 249.86 395.822C249.01 394.826 247.775 394.328 246.154 394.328C244.923 394.328 243.947 394.66 243.224 395.324C242.482 395.988 242.111 396.75 242.111 397.609L242.169 399.309C242.169 400.207 241.94 400.9 241.481 401.389C241.022 401.877 240.421 402.121 239.679 402.121C238.956 402.121 238.365 401.867 237.907 401.359C237.448 400.851 237.218 400.158 237.218 399.279C237.218 397.6 238.077 396.057 239.796 394.65C241.515 393.244 243.927 392.541 247.032 392.541C249.415 392.541 251.368 392.941 252.892 393.742C254.044 394.348 254.894 395.295 255.441 396.584C255.792 397.424 255.968 399.142 255.968 401.74L255.968 410.851C255.968 413.41 256.017 414.977 256.115 415.554C256.212 416.13 256.373 416.516 256.598 416.711C256.823 416.906 257.081 417.004 257.374 417.004C257.687 417.004 257.96 416.935 258.195 416.799C258.605 416.545 259.396 415.832 260.568 414.66L260.568 416.301C258.38 419.23 256.29 420.695 254.298 420.695C253.341 420.695 252.579 420.363 252.013 419.699C251.447 419.035 251.154 417.902 251.134 416.301ZM251.134 414.396L251.134 404.172C248.185 405.344 246.281 406.174 245.421 406.662C243.878 407.521 242.775 408.42 242.111 409.357C241.447 410.295 241.115 411.32 241.115 412.434C241.115 413.84 241.534 415.007 242.374 415.934C243.214 416.862 244.181 417.326 245.275 417.326C246.759 417.326 248.712 416.35 251.134 414.396Z"/>
<path d="M269.386 378.508C270.206 378.508 270.905 378.796 271.481 379.372C272.057 379.948 272.345 380.646 272.345 381.467C272.345 382.287 272.057 382.99 271.481 383.576C270.905 384.162 270.206 384.455 269.386 384.455C268.566 384.455 267.863 384.162 267.277 383.576C266.691 382.99 266.398 382.287 266.398 381.467C266.398 380.646 266.686 379.948 267.262 379.372C267.838 378.796 268.546 378.508 269.386 378.508ZM271.818 392.541L271.818 414.103C271.818 415.783 271.94 416.901 272.184 417.458C272.428 418.015 272.789 418.43 273.268 418.703C273.746 418.976 274.62 419.113 275.89 419.113L275.89 420.168L262.853 420.168L262.853 419.113C264.161 419.113 265.04 418.986 265.49 418.732C265.939 418.478 266.295 418.059 266.559 417.473C266.823 416.887 266.954 415.764 266.954 414.103L266.954 403.762C266.954 400.851 266.866 398.967 266.691 398.107C266.554 397.482 266.339 397.048 266.046 396.804C265.753 396.559 265.353 396.437 264.845 396.437C264.298 396.437 263.634 396.584 262.853 396.877L262.443 395.822L270.529 392.541L271.818 392.541Z"/>
<path d="M287.052 398.225C290.197 394.435 293.195 392.541 296.046 392.541C297.511 392.541 298.771 392.907 299.825 393.64C300.88 394.372 301.72 395.578 302.345 397.258C302.775 398.43 302.99 400.226 302.99 402.648L302.99 414.103C302.99 415.803 303.126 416.955 303.4 417.56C303.615 418.049 303.961 418.43 304.44 418.703C304.918 418.976 305.802 419.113 307.091 419.113L307.091 420.168L293.82 420.168L293.82 419.113L294.376 419.113C295.626 419.113 296.5 418.923 296.998 418.542C297.496 418.161 297.843 417.6 298.038 416.857C298.116 416.564 298.156 415.646 298.156 414.103L298.156 403.117C298.156 400.676 297.838 398.903 297.203 397.8C296.569 396.696 295.499 396.144 293.995 396.144C291.671 396.144 289.357 397.414 287.052 399.953L287.052 414.103C287.052 415.92 287.159 417.043 287.374 417.473C287.648 418.039 288.024 418.454 288.502 418.718C288.981 418.981 289.952 419.113 291.417 419.113L291.417 420.168L278.146 420.168L278.146 419.113L278.732 419.113C280.099 419.113 281.022 418.767 281.5 418.073C281.979 417.38 282.218 416.057 282.218 414.103L282.218 404.142C282.218 400.92 282.145 398.957 281.998 398.254C281.852 397.551 281.627 397.072 281.324 396.818C281.022 396.564 280.616 396.437 280.109 396.437C279.562 396.437 278.907 396.584 278.146 396.877L277.706 395.822L285.792 392.541L287.052 392.541L287.052 398.225Z"/>
<path d="M314.855 414.484C315.773 414.484 316.544 414.802 317.169 415.436C317.794 416.071 318.107 416.838 318.107 417.736C318.107 418.635 317.789 419.401 317.155 420.036C316.52 420.671 315.753 420.988 314.855 420.988C313.956 420.988 313.19 420.671 312.555 420.036C311.92 419.401 311.603 418.635 311.603 417.736C311.603 416.818 311.92 416.047 312.555 415.422C313.19 414.797 313.956 414.484 314.855 414.484Z"/>
</g>
<g fill="#000000" opacity="1" stroke="none" vectornator:layerName="Text 5">
<path d="M369.241 381.525L369.241 380.441L386.262 380.441L386.262 381.525L384.827 381.525C383.206 381.525 382.024 382.004 381.282 382.961C380.813 383.586 380.579 385.09 380.579 387.473L380.579 406.896C380.579 409.885 380.252 412.307 379.597 414.162C378.943 416.017 377.815 417.634 376.214 419.011C374.612 420.388 372.678 421.076 370.413 421.076C368.577 421.076 367.132 420.622 366.077 419.714C365.022 418.806 364.495 417.766 364.495 416.594C364.495 415.637 364.739 414.914 365.227 414.426C365.872 413.82 366.624 413.517 367.483 413.517C368.108 413.517 368.67 413.723 369.168 414.133C369.666 414.543 370.296 415.637 371.057 417.414C371.507 418.469 372.083 418.996 372.786 418.996C373.313 418.996 373.806 418.674 374.265 418.029C374.724 417.385 374.954 416.242 374.954 414.601L374.954 387.473C374.954 385.461 374.827 384.133 374.573 383.488C374.378 383 373.968 382.58 373.343 382.228C372.503 381.76 371.614 381.525 370.677 381.525L369.241 381.525Z"/>
<path d="M395.315 378.508C396.136 378.508 396.834 378.796 397.41 379.372C397.986 379.948 398.274 380.646 398.274 381.467C398.274 382.287 397.986 382.99 397.41 383.576C396.834 384.162 396.136 384.455 395.315 384.455C394.495 384.455 393.792 384.162 393.206 383.576C392.62 382.99 392.327 382.287 392.327 381.467C392.327 380.646 392.615 379.948 393.191 379.372C393.767 378.796 394.475 378.508 395.315 378.508ZM397.747 392.541L397.747 414.103C397.747 415.783 397.869 416.901 398.113 417.458C398.357 418.015 398.719 418.43 399.197 418.703C399.676 418.976 400.55 419.113 401.819 419.113L401.819 420.168L388.782 420.168L388.782 419.113C390.091 419.113 390.969 418.986 391.419 418.732C391.868 418.478 392.224 418.059 392.488 417.473C392.752 416.887 392.884 415.764 392.884 414.103L392.884 403.762C392.884 400.851 392.796 398.967 392.62 398.107C392.483 397.482 392.268 397.048 391.975 396.804C391.682 396.559 391.282 396.437 390.774 396.437C390.227 396.437 389.563 396.584 388.782 396.877L388.372 395.822L396.458 392.541L397.747 392.541Z"/>
<path d="M412.512 397.961C415.11 394.348 417.913 392.541 420.921 392.541C423.675 392.541 426.077 393.718 428.128 396.071C430.178 398.425 431.204 401.642 431.204 405.725C431.204 410.49 429.622 414.328 426.458 417.238C423.743 419.738 420.716 420.988 417.376 420.988C415.813 420.988 414.226 420.705 412.615 420.139C411.004 419.572 409.358 418.723 407.678 417.59L407.678 389.787C407.678 386.74 407.605 384.865 407.459 384.162C407.312 383.459 407.083 382.98 406.77 382.726C406.458 382.473 406.067 382.346 405.598 382.346C405.052 382.346 404.368 382.502 403.548 382.814L403.137 381.789L411.194 378.508L412.512 378.508L412.512 397.961ZM412.512 399.836L412.512 415.891C413.509 416.867 414.539 417.604 415.603 418.102C416.668 418.601 417.757 418.85 418.87 418.85C420.647 418.85 422.303 417.873 423.836 415.92C425.369 413.967 426.136 411.125 426.136 407.394C426.136 403.957 425.369 401.315 423.836 399.47C422.303 397.624 420.559 396.701 418.606 396.701C417.571 396.701 416.536 396.965 415.501 397.492C414.719 397.883 413.723 398.664 412.512 399.836Z"/>
</g>
</g>
<g id="Cutter-rig" vectornator:layerName="Cutter rig" visibility="hidden">
<path d="M131.081 468.315L312.615 24.8591L312.615 468.315L131.081 468.315Z" fill="#dddddd" fill-rule="nonzero" opacity="1" stroke="#000000" stroke-linecap="butt" stroke-linejoin="miter" stroke-width="1" vectornator:layerName="Mainsail"/>
<path d="M518.379 532.02L318.285 30.9226L318.285 431.027L518.379 532.02Z" fill="#dddddd" fill-rule="nonzero" opacity="1" stroke="#000000" stroke-linecap="butt" stroke-linejoin="miter" stroke-width="1" vectornator:layerName="Jib"/>
<path d="M452.74 532.02L318.285 203.549L318.285 465.819L452.74 532.02Z" fill="#dddddd" fill-rule="nonzero" opacity="1" stroke="#000000" stroke-linecap="butt" stroke-linejoin="miter" stroke-width="1" vectornator:layerName="Staysail"/>
<path d="M312.615 19.5851L318.285 19.5851L318.285 544.448L312.615 544.448L312.615 19.5851Z" fill="#dddddd" fill-rule="nonzero" opacity="1" stroke="#000000" stroke-linecap="butt" stroke-linejoin="miter" stroke-width="3" vectornator:layerName="Main mast"/>
<path d="M128.782 468.315L312.615 468.315L312.615 473.985L128.782 473.985L128.782 468.315Z" fill="#dddddd" fill-rule="nonzero" opacity="1" stroke="#000000" stroke-linecap="butt" stroke-linejoin="miter" stroke-width="3" vectornator:layerName="Boom"/>
<g opacity="1" vectornator:layerName="Group 1">
<g fill="#000000" opacity="1" stroke="none" vectornator:layerName="Text 2">
<path d="M377.94 383.082L365.402 388.703L364.959 387.714C367.221 386.314 368.879 384.881 369.934 383.413C370.988 381.945 371.59 380.257 371.741 378.348C371.891 376.44 371.599 374.666 370.864 373.027C370.033 371.173 368.78 369.894 367.105 369.189C365.43 368.485 363.871 368.456 362.427 369.103C361.322 369.599 360.487 370.433 359.922 371.607C359.08 373.311 358.476 376.739 358.11 381.89C357.81 386.092 357.453 389.029 357.037 390.703C356.621 392.377 355.903 393.844 354.884 395.104C353.864 396.363 352.633 397.317 351.189 397.964C348.445 399.194 345.601 399.19 342.66 397.951C339.718 396.712 337.496 394.418 335.993 391.067C335.522 390.016 335.159 388.99 334.904 387.992C334.745 387.399 334.557 386.108 334.34 384.119C334.122 382.13 333.909 380.903 333.702 380.44C333.502 379.994 333.21 379.702 332.827 379.564C332.444 379.425 331.806 379.481 330.912 379.732L330.469 378.743L342.9 373.17L343.343 374.159C340.949 375.789 339.281 377.286 338.341 378.649C337.4 380.013 336.864 381.693 336.731 383.689C336.599 385.685 336.964 387.646 337.827 389.571C338.826 391.799 340.203 393.295 341.958 394.06C343.714 394.824 345.394 394.847 346.998 394.128C347.889 393.729 348.679 393.08 349.368 392.183C350.057 391.285 350.562 390.144 350.883 388.758C351.106 387.824 351.391 385.416 351.739 381.536C352.086 377.656 352.483 374.829 352.93 373.056C353.376 371.283 354.071 369.778 355.015 368.541C355.959 367.305 357.18 366.351 358.677 365.68C361.279 364.513 363.968 364.507 366.743 365.66C369.518 366.813 371.596 368.931 372.979 372.014C373.842 373.939 374.284 376.191 374.306 378.771C374.308 379.969 374.401 380.773 374.585 381.183C374.792 381.646 375.1 381.963 375.508 382.133C375.916 382.304 376.579 382.29 377.497 382.093L377.94 383.082Z"/>
<path d="M379.747 399.288L371.701 402.895L374.265 408.616L372.394 409.455L369.829 403.734L353.95 410.853C352.364 411.564 351.396 412.271 351.047 412.973C350.699 413.675 350.684 414.383 351.004 415.096C351.267 415.684 351.706 416.172 352.319 416.561C352.932 416.95 353.663 417.136 354.511 417.119L354.979 418.162C352.952 418.321 351.243 418.028 349.849 417.283C348.455 416.538 347.487 415.559 346.944 414.347C346.576 413.527 346.444 412.624 346.547 411.636C346.65 410.648 347.041 409.777 347.719 409.023C348.398 408.269 349.62 407.497 351.384 406.706L367.852 399.323L366.114 395.447L366.996 395.051C367.828 395.856 368.941 396.561 370.336 397.166C371.731 397.771 373.25 398.187 374.893 398.414C375.754 398.521 377.248 398.536 379.376 398.459L379.747 399.288Z"/>
<path d="M360.593 434.266C357.524 432.624 355.694 431.55 355.103 431.045C354.226 430.282 353.544 429.357 353.057 428.27C352.298 426.577 352.252 424.922 352.919 423.307C353.586 421.692 354.864 420.46 356.753 419.614C357.947 419.078 359.101 418.882 360.214 419.025C361.753 419.213 363.463 419.971 365.344 421.301C367.224 422.63 369.873 425.055 373.291 428.574L374.254 428.142C376.696 427.047 378.197 425.909 378.758 424.726C379.32 423.543 379.269 422.212 378.606 420.733C378.102 419.61 377.4 418.855 376.498 418.467C375.589 418.062 374.742 418.035 373.958 418.386L372.431 419.135C371.611 419.502 370.885 419.576 370.251 419.357C369.618 419.138 369.15 418.69 368.846 418.013C368.55 417.353 368.54 416.71 368.816 416.084C369.092 415.457 369.63 414.964 370.432 414.605C371.965 413.918 373.725 414.071 375.711 415.064C377.697 416.057 379.326 417.97 380.596 420.804C381.571 422.978 382.004 424.924 381.897 426.642C381.816 427.941 381.299 429.104 380.346 430.13C379.724 430.795 378.227 431.658 375.857 432.721L367.543 436.448C365.208 437.495 363.798 438.181 363.312 438.505C362.826 438.83 362.54 439.135 362.454 439.42C362.368 439.705 362.384 439.981 362.504 440.248C362.632 440.533 362.806 440.755 363.027 440.913C363.426 441.183 364.401 441.613 365.949 442.203L364.452 442.874C360.884 442.077 358.692 440.769 357.877 438.951C357.486 438.078 357.477 437.247 357.852 436.458C358.226 435.67 359.14 434.939 360.593 434.266ZM362.331 433.487L371.661 429.305C369.385 427.093 367.848 425.695 367.051 425.11C365.636 424.054 364.365 423.414 363.238 423.192C362.111 422.97 361.039 423.086 360.023 423.541C358.74 424.117 357.847 424.977 357.344 426.123C356.841 427.269 356.813 428.341 357.26 429.339C357.868 430.694 359.558 432.076 362.331 433.487Z"/>
<path d="M385.603 433.906L390.72 445.321L389.731 445.765L389.48 445.203C389.12 444.401 388.677 443.878 388.149 443.633C387.622 443.387 387.1 443.381 386.583 443.612C385.888 443.924 385.057 444.649 384.091 445.789L374.413 457.287L390.397 456.703C391.264 456.679 392.053 456.507 392.766 456.187C393.087 456.043 393.3 455.873 393.404 455.676C393.536 455.446 393.592 455.153 393.572 454.798C393.552 454.443 393.371 453.883 393.027 453.116L394.016 452.673L397.588 460.64L396.598 461.083C396.232 460.456 395.861 460.012 395.488 459.751C395.114 459.49 394.537 459.278 393.757 459.114C393.436 459.065 392.614 459.07 391.291 459.128L362.387 460.11C359.585 460.211 357.228 459.753 355.317 458.736C353.406 457.72 352.127 456.49 351.48 455.047C351.009 453.995 350.924 452.995 351.227 452.046C351.529 451.097 352.072 450.447 352.856 450.096C353.605 449.76 354.316 449.735 354.99 450.022C355.665 450.308 356.193 450.879 356.577 451.734C356.841 452.323 357.004 453.213 357.067 454.404C357.12 455.237 357.186 455.742 357.266 455.921C357.505 456.455 358.043 456.915 358.879 457.3C359.716 457.685 361.071 457.843 362.944 457.773L367.974 457.606L382.504 440.529C382.936 440.014 383.431 439.278 383.987 438.323C384.411 437.598 384.666 437.044 384.752 436.663C384.853 436.126 384.807 435.354 384.614 434.35L385.603 433.906Z"/>
<path d="M379.904 472.902C380.279 473.739 380.305 474.573 379.982 475.403C379.658 476.233 379.087 476.832 378.267 477.199C377.447 477.567 376.618 477.591 375.779 477.271C374.94 476.952 374.337 476.382 373.969 475.562C373.602 474.742 373.578 473.913 373.897 473.074C374.217 472.235 374.786 471.632 375.606 471.264C376.444 470.889 377.278 470.863 378.108 471.186C378.938 471.51 379.536 472.082 379.904 472.902Z"/>
</g>
</g>
<g fill="#000000" opacity="1" stroke="none" vectornator:layerName="Text 4">
<path d="M191.015 444.844L175.664 411.416L175.664 437.959C175.664 440.4 175.928 441.924 176.455 442.529C177.178 443.35 178.32 443.76 179.883 443.76L181.289 443.76L181.289 444.844L167.461 444.844L167.461 443.76L168.867 443.76C170.547 443.76 171.738 443.252 172.441 442.236C172.871 441.611 173.086 440.186 173.086 437.959L173.086 412.002C173.086 410.244 172.89 408.975 172.5 408.193C172.226 407.627 171.723 407.153 170.991 406.772C170.259 406.392 169.082 406.201 167.461 406.201L167.461 405.117L178.711 405.117L193.125 436.201L207.304 405.117L218.554 405.117L218.554 406.201L217.178 406.201C215.478 406.201 214.277 406.709 213.574 407.725C213.144 408.35 212.929 409.775 212.929 412.002L212.929 437.959C212.929 440.4 213.203 441.924 213.75 442.529C214.472 443.35 215.615 443.76 217.178 443.76L218.554 443.76L218.554 444.844L201.679 444.844L201.679 443.76L203.086 443.76C204.785 443.76 205.976 443.252 206.66 442.236C207.09 441.611 207.304 440.186 207.304 437.959L207.304 411.416L191.982 444.844L191.015 444.844Z"/>
<path d="M236.894 440.977C234.14 443.105 232.412 444.336 231.709 444.668C230.654 445.156 229.531 445.4 228.34 445.4C226.484 445.4 224.956 444.766 223.755 443.496C222.554 442.227 221.953 440.557 221.953 438.486C221.953 437.178 222.246 436.045 222.832 435.088C223.633 433.76 225.024 432.51 227.007 431.338C228.989 430.166 232.285 428.74 236.894 427.061L236.894 426.006C236.894 423.33 236.47 421.494 235.62 420.498C234.77 419.502 233.535 419.004 231.914 419.004C230.683 419.004 229.707 419.336 228.984 420C228.242 420.664 227.871 421.426 227.871 422.285L227.929 423.984C227.929 424.883 227.7 425.576 227.241 426.064C226.782 426.553 226.181 426.797 225.439 426.797C224.717 426.797 224.126 426.543 223.667 426.035C223.208 425.527 222.978 424.834 222.978 423.955C222.978 422.275 223.838 420.732 225.556 419.326C227.275 417.92 229.687 417.217 232.793 417.217C235.176 417.217 237.129 417.617 238.652 418.418C239.804 419.023 240.654 419.971 241.201 421.26C241.553 422.1 241.728 423.818 241.728 426.416L241.728 435.527C241.728 438.086 241.777 439.653 241.875 440.23C241.972 440.806 242.134 441.191 242.358 441.387C242.583 441.582 242.842 441.68 243.135 441.68C243.447 441.68 243.721 441.611 243.955 441.475C244.365 441.221 245.156 440.508 246.328 439.336L246.328 440.977C244.14 443.906 242.051 445.371 240.058 445.371C239.101 445.371 238.34 445.039 237.773 444.375C237.207 443.711 236.914 442.578 236.894 440.977ZM236.894 439.072L236.894 428.848C233.945 430.02 232.041 430.85 231.181 431.338C229.638 432.197 228.535 433.096 227.871 434.033C227.207 434.971 226.875 435.996 226.875 437.109C226.875 438.516 227.295 439.683 228.135 440.61C228.974 441.538 229.941 442.002 231.035 442.002C232.519 442.002 234.472 441.025 236.894 439.072Z"/>
<path d="M255.146 403.184C255.967 403.184 256.665 403.472 257.241 404.048C257.817 404.624 258.105 405.322 258.105 406.143C258.105 406.963 257.817 407.666 257.241 408.252C256.665 408.838 255.967 409.131 255.146 409.131C254.326 409.131 253.623 408.838 253.037 408.252C252.451 407.666 252.158 406.963 252.158 406.143C252.158 405.322 252.446 404.624 253.022 404.048C253.598 403.472 254.306 403.184 255.146 403.184ZM257.578 417.217L257.578 438.779C257.578 440.459 257.7 441.577 257.944 442.134C258.188 442.69 258.55 443.105 259.028 443.379C259.507 443.652 260.381 443.789 261.65 443.789L261.65 444.844L248.613 444.844L248.613 443.789C249.922 443.789 250.801 443.662 251.25 443.408C251.699 443.154 252.055 442.734 252.319 442.148C252.583 441.563 252.715 440.439 252.715 438.779L252.715 428.438C252.715 425.527 252.627 423.643 252.451 422.783C252.314 422.158 252.099 421.724 251.806 421.48C251.513 421.235 251.113 421.113 250.605 421.113C250.058 421.113 249.394 421.26 248.613 421.553L248.203 420.498L256.289 417.217L257.578 417.217Z"/>
<path d="M272.812 422.9C275.957 419.111 278.955 417.217 281.806 417.217C283.271 417.217 284.531 417.583 285.586 418.315C286.64 419.048 287.48 420.254 288.105 421.934C288.535 423.105 288.75 424.902 288.75 427.324L288.75 438.779C288.75 440.479 288.887 441.631 289.16 442.236C289.375 442.725 289.721 443.105 290.2 443.379C290.679 443.652 291.562 443.789 292.851 443.789L292.851 444.844L279.58 444.844L279.58 443.789L280.137 443.789C281.387 443.789 282.261 443.599 282.759 443.218C283.257 442.837 283.603 442.275 283.799 441.533C283.877 441.24 283.916 440.322 283.916 438.779L283.916 427.793C283.916 425.352 283.598 423.579 282.964 422.476C282.329 421.372 281.26 420.82 279.756 420.82C277.431 420.82 275.117 422.09 272.812 424.629L272.812 438.779C272.812 440.596 272.92 441.719 273.135 442.148C273.408 442.715 273.784 443.13 274.262 443.394C274.741 443.657 275.713 443.789 277.178 443.789L277.178 444.844L263.906 444.844L263.906 443.789L264.492 443.789C265.859 443.789 266.782 443.442 267.261 442.749C267.739 442.056 267.978 440.732 267.978 438.779L267.978 428.818C267.978 425.596 267.905 423.633 267.759 422.93C267.612 422.227 267.387 421.748 267.085 421.494C266.782 421.24 266.377 421.113 265.869 421.113C265.322 421.113 264.668 421.26 263.906 421.553L263.467 420.498L271.553 417.217L272.812 417.217L272.812 422.9Z"/>
<path d="M300.615 439.16C301.533 439.16 302.304 439.478 302.929 440.112C303.554 440.747 303.867 441.514 303.867 442.412C303.867 443.311 303.55 444.077 302.915 444.712C302.28 445.347 301.513 445.664 300.615 445.664C299.717 445.664 298.95 445.347 298.315 444.712C297.68 444.077 297.363 443.311 297.363 442.412C297.363 441.494 297.68 440.723 298.315 440.098C298.95 439.473 299.717 439.16 300.615 439.16Z"/>
</g>
<g fill="#000000" opacity="1" stroke="none" vectornator:layerName="Text 3">
<path d="M406.344 279.469L411.647 292.272L410.645 292.687L410.354 291.983C410.159 291.514 409.668 290.914 408.879 290.184C408.09 289.454 407.155 288.879 406.073 288.461C404.99 288.042 403.35 287.654 401.151 287.296L383.546 284.218L374.343 288.03C372.087 288.964 370.784 289.799 370.434 290.536C369.96 291.536 370.03 292.776 370.642 294.255L371.136 295.446L370.134 295.861L363.677 280.27L364.679 279.855L365.217 281.155C365.859 282.707 366.784 283.613 367.992 283.874C368.734 284.032 370.133 283.685 372.19 282.833L380.879 279.234L392.083 262.798C393.394 260.86 394.188 259.585 394.463 258.974C394.739 258.363 394.916 257.26 394.994 255.663C395.025 255.227 394.899 254.666 394.615 253.981L395.616 253.566L402.118 269.265L401.117 269.68L400.78 268.868C400.429 268.02 399.907 267.321 399.215 266.773C398.523 266.225 397.78 266.115 396.986 266.444C396.336 266.713 395.391 267.749 394.151 269.552L385.495 282.111L399.791 284.625C401.936 285.005 403.423 285.024 404.253 284.68C404.758 284.471 405.155 284.153 405.444 283.727C405.732 283.301 405.889 282.797 405.912 282.217C405.936 281.636 405.746 280.859 405.343 279.884L406.344 279.469Z"/>
<path d="M383.09 317.037C380.069 315.307 378.271 314.181 377.695 313.658C376.84 312.871 376.185 311.926 375.729 310.826C375.019 309.111 375.021 307.457 375.734 305.861C376.448 304.266 377.761 303.072 379.673 302.28C380.882 301.779 382.041 301.616 383.149 301.791C384.683 302.023 386.37 302.83 388.211 304.213C390.053 305.597 392.631 308.096 395.947 311.712L396.921 311.308C399.393 310.285 400.927 309.19 401.522 308.024C402.117 306.858 402.105 305.526 401.485 304.028C401.014 302.891 400.333 302.116 399.443 301.702C398.546 301.271 397.7 301.219 396.906 301.548L395.359 302.252C394.528 302.596 393.8 302.649 393.173 302.412C392.547 302.175 392.091 301.714 391.807 301.028C391.531 300.36 391.539 299.717 391.833 299.099C392.126 298.48 392.679 298.003 393.491 297.667C395.043 297.024 396.797 297.228 398.754 298.278C400.711 299.327 402.284 301.287 403.472 304.156C404.384 306.358 404.761 308.315 404.604 310.029C404.486 311.326 403.936 312.473 402.954 313.471C402.312 314.118 400.792 314.938 398.392 315.932L389.974 319.418C387.61 320.397 386.18 321.042 385.686 321.352C385.191 321.663 384.896 321.96 384.801 322.242C384.707 322.524 384.716 322.8 384.828 323.071C384.947 323.36 385.115 323.586 385.331 323.751C385.723 324.032 386.684 324.49 388.215 325.125L386.699 325.752C383.155 324.852 381.002 323.482 380.24 321.642C379.874 320.757 379.889 319.927 380.286 319.149C380.683 318.372 381.617 317.668 383.09 317.037ZM384.849 316.308L394.296 312.396C392.084 310.119 390.589 308.678 389.809 308.071C388.425 306.974 387.172 306.298 386.052 306.043C384.932 305.788 383.857 305.874 382.829 306.3C381.53 306.838 380.612 307.673 380.076 308.803C379.54 309.934 379.482 311.005 379.9 312.016C380.468 313.387 382.118 314.818 384.849 316.308Z"/>
<path d="M407.155 327.904C411.859 329.359 414.757 331.404 415.848 334.039C416.408 335.392 416.552 336.696 416.279 337.951C416.006 339.205 415.213 340.443 413.9 341.663C412.982 342.508 411.404 343.394 409.166 344.321L398.583 348.704C397.013 349.354 396.001 349.921 395.546 350.406C395.177 350.791 394.958 351.257 394.888 351.804C394.819 352.35 395.03 353.219 395.524 354.41L394.549 354.814L389.471 342.552L390.446 342.149L390.659 342.663C391.137 343.818 391.647 344.553 392.19 344.867C392.732 345.181 393.384 345.287 394.144 345.183C394.445 345.143 395.308 344.828 396.733 344.238L406.883 340.034C409.139 339.1 410.655 338.129 411.432 337.12C412.208 336.111 412.309 334.912 411.734 333.523C410.844 331.375 408.786 329.723 405.558 328.565L392.485 333.979C390.806 334.674 389.81 335.203 389.495 335.566C389.076 336.036 388.837 336.542 388.776 337.085C388.716 337.628 388.966 338.576 389.526 339.929L388.552 340.333L383.474 328.071L384.448 327.668L384.672 328.209C385.196 329.472 385.869 330.192 386.693 330.369C387.516 330.546 388.83 330.26 390.635 329.513L399.838 325.702C402.815 324.469 404.601 323.65 405.194 323.246C405.788 322.841 406.144 322.451 406.263 322.074C406.382 321.697 406.344 321.274 406.149 320.805C405.94 320.3 405.555 319.751 404.992 319.159L405.799 318.35L411.924 324.565L412.406 325.729L407.155 327.904Z"/>
<path d="M436.895 348.185L412.21 358.408L420.587 362.327C422.367 363.154 423.464 363.609 423.879 363.691C424.155 363.745 424.402 363.728 424.618 363.638C424.979 363.489 425.229 363.211 425.367 362.805C425.505 362.399 425.451 361.845 425.203 361.145L426.069 360.786L430.53 371.559L429.664 371.918C429.015 370.453 428.28 369.315 427.457 368.503C426.635 367.692 425.449 366.92 423.898 366.188L415.39 362.26L409.986 371.95C408.498 374.637 407.584 376.411 407.243 377.271C406.753 378.489 406.517 379.475 406.533 380.229C406.54 380.755 406.775 381.577 407.238 382.696L406.263 383.099L401.275 371.054L402.25 370.651C402.552 371.329 402.848 371.751 403.138 371.916C403.428 372.081 403.745 372.093 404.088 371.951C404.503 371.779 405.021 371.141 405.643 370.038L412.21 358.408L403.981 361.816C402.375 362.481 401.366 363.031 400.954 363.466C400.543 363.901 400.314 364.37 400.27 364.875C400.225 365.38 400.481 366.331 401.039 367.727L400.064 368.131L394.841 355.518L395.815 355.114C396.338 356.377 396.884 357.261 397.452 357.766C397.808 358.062 398.234 358.224 398.731 358.251C399.439 358.275 400.523 357.984 401.985 357.379L424.559 348.03C427.428 346.841 429.157 346.051 429.745 345.66C430.334 345.268 430.69 344.878 430.814 344.488C430.938 344.098 430.903 343.669 430.709 343.2C430.552 342.821 430.163 342.316 429.542 341.685L430.299 340.833L436.38 346.94L436.895 348.185Z"/>
<path d="M424.028 382.274C420.34 383.781 417.822 385.87 416.476 388.541C415.131 391.213 414.962 393.766 415.971 396.202C416.644 397.826 417.675 399.053 419.065 399.884C420.455 400.714 422.401 401.086 424.903 401.002L424.709 402.065C422.08 402.71 419.373 402.541 416.588 401.559C413.803 400.578 411.843 398.715 410.707 395.972C409.474 392.995 409.578 389.966 411.018 386.885C412.459 383.805 415.137 381.454 419.053 379.832C423.294 378.076 427.051 377.794 430.324 378.985C433.597 380.177 435.914 382.415 437.274 385.699C438.425 388.478 438.455 391.14 437.363 393.685C436.271 396.23 434.192 398.138 431.124 399.408L424.028 382.274ZM425.598 381.624L430.351 393.101C431.902 392.353 432.942 391.7 433.472 391.142C434.296 390.273 434.811 389.272 435.019 388.139C435.226 387.007 435.128 385.954 434.725 384.979C434.105 383.481 432.968 382.383 431.314 381.683C429.661 380.983 427.756 380.963 425.598 381.624Z"/>
<path d="M434.218 406.879C430.529 408.385 428.012 410.474 426.666 413.145C425.32 415.817 425.152 418.371 426.161 420.807C426.833 422.431 427.865 423.658 429.255 424.488C430.645 425.318 432.591 425.691 435.093 425.606L434.899 426.669C432.27 427.314 429.563 427.146 426.778 426.164C423.993 425.182 422.033 423.32 420.897 420.577C419.664 417.599 419.767 414.57 421.208 411.49C422.649 408.409 425.327 406.058 429.243 404.436C433.483 402.68 437.24 402.398 440.514 403.59C443.787 404.781 446.104 407.019 447.464 410.303C448.615 413.082 448.645 415.744 447.553 418.289C446.461 420.834 444.382 422.742 441.314 424.012L434.218 406.879ZM435.788 406.228L440.541 417.705C442.091 416.957 443.132 416.304 443.662 415.747C444.486 414.877 445.001 413.876 445.209 412.744C445.416 411.611 445.318 410.558 444.915 409.583C444.294 408.086 443.157 406.987 441.504 406.287C439.851 405.587 437.945 405.568 435.788 406.228Z"/>
</g>
<path d="M315.45 19.5851L83.5812 544.448" fill="none" opacity="1" stroke="#000000" stroke-linecap="butt" stroke-linejoin="miter" stroke-width="1" vectornator:layerName="Curve 1"/>
</g>
<g id="Ketch-rig" vectornator:layerName="Ketch rig">
<path d="M236.683 474.378L362.298 30.9226L362.298 474.378L236.683 474.378Z" fill="#dddddd" fill-rule="nonzero" opacity="1" stroke="#000000" stroke-linecap="butt" stroke-linejoin="miter" stroke-width="1" vectornator:layerName="Mainsail"/>
<path d="M207.335 197.731L84.2445 538.693" fill="none" opacity="1" stroke="#000000" stroke-linecap="butt" stroke-linejoin="miter" stroke-width="1" vectornator:layerName="Curve 2"/>
<path d="M207.335 197.731L289.735 538.693" fill="none" opacity="1" stroke="#000000" stroke-linecap="butt" stroke-linejoin="miter" stroke-width="1" vectornator:layerName="Curve 3"/>
<path d="M365.133 19.6611L210.17 520.761" fill="none" opacity="1" stroke="#000000" stroke-linecap="butt" stroke-linejoin="miter" stroke-width="1" vectornator:layerName="Curve 4"/>
<path d="M518.379 532.02L367.968 30.9226L367.968 459.105L518.379 532.02Z" fill="#dddddd" fill-rule="nonzero" opacity="1" stroke="#000000" stroke-linecap="butt" stroke-linejoin="miter" stroke-width="1" vectornator:layerName="Jib"/>
<path d="M362.298 19.6611L367.968 19.6611L367.968 544.524L362.298 544.524L362.298 19.6611Z" fill="#dddddd" fill-rule="nonzero" opacity="1" stroke="#000000" stroke-linecap="butt" stroke-linejoin="miter" stroke-width="3" vectornator:layerName="Main mast"/>
<path d="M204.5 197.731L210.17 197.731L210.17 544.524L204.5 544.524L204.5 197.731Z" fill="#dddddd" fill-rule="nonzero" opacity="1" stroke="#000000" stroke-linecap="butt" stroke-linejoin="miter" stroke-width="3" vectornator:layerName="Mizzen mast"/>
<path d="M236.683 474.378L362.298 474.378L362.298 480.048L236.683 480.048L236.683 474.378Z" fill="#dddddd" fill-rule="nonzero" opacity="1" stroke="#000000" stroke-linecap="butt" stroke-linejoin="miter" stroke-width="3" vectornator:layerName="Boom"/>
<path d="M116.969 474.378L204.5 205.716L204.5 474.378L116.969 474.378Z" fill="#dddddd" fill-rule="nonzero" opacity="1" stroke="#000000" stroke-linecap="butt" stroke-linejoin="miter" stroke-width="1" vectornator:layerName="Mainsail 1"/>
<path d="M116.969 474.378L204.5 474.378L204.5 480.048L116.969 480.048L116.969 474.378Z" fill="#dddddd" fill-rule="nonzero" opacity="1" stroke="#000000" stroke-linecap="butt" stroke-linejoin="miter" stroke-width="3" vectornator:layerName="Boom 1"/>
<path d="M207.335 197.731L365.133 19.6611" fill="none" opacity="1" stroke="#000000" stroke-linecap="butt" stroke-linejoin="miter" stroke-width="1" vectornator:layerName="Curve 1"/>
<g fill="#000000" opacity="1" stroke="none" vectornator:layerName="Text 3">
<path d="M388.207 364.605L388.207 363.521L405.228 363.521L405.228 364.605L403.793 364.605C402.172 364.605 400.99 365.084 400.248 366.041C399.779 366.666 399.545 368.17 399.545 370.553L399.545 389.976C399.545 392.965 399.218 395.387 398.563 397.242C397.909 399.098 396.781 400.714 395.18 402.091C393.578 403.468 391.644 404.156 389.379 404.156C387.543 404.156 386.098 403.702 385.043 402.794C383.988 401.886 383.461 400.846 383.461 399.674C383.461 398.717 383.705 397.994 384.193 397.506C384.838 396.9 385.59 396.598 386.449 396.598C387.074 396.598 387.636 396.803 388.134 397.213C388.632 397.623 389.262 398.717 390.023 400.494C390.473 401.549 391.049 402.076 391.752 402.076C392.279 402.076 392.772 401.754 393.231 401.109C393.69 400.465 393.92 399.322 393.92 397.682L393.92 370.553C393.92 368.541 393.793 367.213 393.539 366.568C393.344 366.08 392.933 365.66 392.308 365.308C391.469 364.84 390.58 364.605 389.642 364.605L388.207 364.605Z"/>
<path d="M414.281 361.588C415.101 361.588 415.8 361.876 416.376 362.452C416.952 363.028 417.24 363.726 417.24 364.547C417.24 365.367 416.952 366.07 416.376 366.656C415.8 367.242 415.101 367.535 414.281 367.535C413.461 367.535 412.758 367.242 412.172 366.656C411.586 366.07 411.293 365.367 411.293 364.547C411.293 363.726 411.581 363.028 412.157 362.452C412.733 361.876 413.441 361.588 414.281 361.588ZM416.713 375.621L416.713 397.183C416.713 398.863 416.835 399.981 417.079 400.538C417.323 401.095 417.684 401.51 418.163 401.783C418.642 402.057 419.516 402.193 420.785 402.193L420.785 403.248L407.748 403.248L407.748 402.193C409.057 402.193 409.935 402.066 410.385 401.812C410.834 401.558 411.19 401.139 411.454 400.553C411.718 399.967 411.85 398.844 411.85 397.183L411.85 386.842C411.85 383.932 411.762 382.047 411.586 381.187C411.449 380.562 411.234 380.128 410.941 379.884C410.648 379.64 410.248 379.517 409.74 379.517C409.193 379.517 408.529 379.664 407.748 379.957L407.338 378.902L415.424 375.621L416.713 375.621Z"/>
<path d="M431.478 381.041C434.076 377.428 436.879 375.621 439.887 375.621C442.641 375.621 445.043 376.798 447.094 379.151C449.144 381.505 450.17 384.723 450.17 388.805C450.17 393.57 448.588 397.408 445.424 400.318C442.709 402.818 439.682 404.068 436.342 404.068C434.779 404.068 433.192 403.785 431.581 403.219C429.97 402.652 428.324 401.803 426.644 400.67L426.644 372.867C426.644 369.82 426.571 367.945 426.425 367.242C426.278 366.539 426.049 366.06 425.736 365.807C425.424 365.553 425.033 365.426 424.564 365.426C424.017 365.426 423.334 365.582 422.514 365.894L422.103 364.869L430.16 361.588L431.478 361.588L431.478 381.041ZM431.478 382.916L431.478 398.971C432.475 399.947 433.505 400.684 434.569 401.183C435.634 401.681 436.723 401.93 437.836 401.93C439.613 401.93 441.268 400.953 442.802 399C444.335 397.047 445.101 394.205 445.101 390.475C445.101 387.037 444.335 384.395 442.802 382.55C441.268 380.704 439.525 379.781 437.572 379.781C436.537 379.781 435.502 380.045 434.467 380.572C433.685 380.963 432.689 381.744 431.478 382.916Z"/>
</g>
<g fill="#000000" opacity="1" stroke="none" vectornator:layerName="Text 4">
<path d="M340.652 419.797L307.224 435.148L333.767 435.148C336.208 435.148 337.732 434.885 338.337 434.357C339.158 433.635 339.568 432.492 339.568 430.93L339.568 429.523L340.652 429.523L340.652 443.351L339.568 443.351L339.568 441.945C339.568 440.266 339.06 439.074 338.044 438.371C337.419 437.941 335.994 437.726 333.767 437.726L307.81 437.726C306.052 437.726 304.783 437.922 304.001 438.312C303.435 438.586 302.961 439.089 302.58 439.821C302.2 440.554 302.009 441.73 302.009 443.351L300.925 443.351L300.925 432.101L332.009 417.687L300.925 403.508L300.925 392.258L302.009 392.258L302.009 393.635C302.009 395.334 302.517 396.535 303.533 397.238C304.158 397.668 305.583 397.883 307.81 397.883L333.767 397.883C336.208 397.883 337.732 397.609 338.337 397.062C339.158 396.34 339.568 395.197 339.568 393.635L339.568 392.258L340.652 392.258L340.652 409.133L339.568 409.133L339.568 407.726C339.568 406.027 339.06 404.836 338.044 404.152C337.419 403.723 335.994 403.508 333.767 403.508L307.224 403.508L340.652 418.83L340.652 419.797Z"/>
<path d="M336.785 373.918C338.913 376.672 340.144 378.4 340.476 379.103C340.964 380.158 341.208 381.281 341.208 382.473C341.208 384.328 340.574 385.856 339.304 387.058C338.035 388.259 336.365 388.859 334.294 388.859C332.986 388.859 331.853 388.566 330.896 387.98C329.568 387.18 328.318 385.788 327.146 383.806C325.974 381.823 324.548 378.527 322.869 373.918L321.814 373.918C319.138 373.918 317.302 374.343 316.306 375.192C315.31 376.042 314.812 377.277 314.812 378.898C314.812 380.129 315.144 381.105 315.808 381.828C316.472 382.57 317.234 382.941 318.093 382.941L319.792 382.883C320.691 382.883 321.384 383.112 321.872 383.571C322.361 384.03 322.605 384.631 322.605 385.373C322.605 386.096 322.351 386.686 321.843 387.145C321.335 387.604 320.642 387.834 319.763 387.834C318.083 387.834 316.54 386.975 315.134 385.256C313.728 383.537 313.025 381.125 313.025 378.019C313.025 375.637 313.425 373.683 314.226 372.16C314.831 371.008 315.779 370.158 317.068 369.611C317.908 369.26 319.626 369.084 322.224 369.084L331.335 369.084C333.894 369.084 335.461 369.035 336.037 368.937C336.614 368.84 336.999 368.679 337.195 368.454C337.39 368.229 337.488 367.971 337.488 367.678C337.488 367.365 337.419 367.092 337.283 366.857C337.029 366.447 336.316 365.656 335.144 364.484L336.785 364.484C339.714 366.672 341.179 368.762 341.179 370.754C341.179 371.711 340.847 372.473 340.183 373.039C339.519 373.605 338.386 373.898 336.785 373.918ZM334.88 373.918L324.656 373.918C325.827 376.867 326.658 378.771 327.146 379.631C328.005 381.174 328.904 382.277 329.841 382.941C330.779 383.605 331.804 383.937 332.917 383.937C334.324 383.937 335.491 383.517 336.418 382.678C337.346 381.838 337.81 380.871 337.81 379.777C337.81 378.293 336.833 376.34 334.88 373.918Z"/>
<path d="M298.992 355.666C298.992 354.846 299.28 354.147 299.856 353.571C300.432 352.995 301.13 352.707 301.951 352.707C302.771 352.707 303.474 352.995 304.06 353.571C304.646 354.147 304.939 354.846 304.939 355.666C304.939 356.486 304.646 357.189 304.06 357.775C303.474 358.361 302.771 358.654 301.951 358.654C301.13 358.654 300.432 358.366 299.856 357.79C299.28 357.214 298.992 356.506 298.992 355.666ZM313.025 353.234L334.587 353.234C336.267 353.234 337.385 353.112 337.942 352.868C338.498 352.624 338.913 352.263 339.187 351.784C339.46 351.306 339.597 350.432 339.597 349.162L340.652 349.162L340.652 362.199L339.597 362.199C339.597 360.891 339.47 360.012 339.216 359.562C338.962 359.113 338.542 358.757 337.956 358.493C337.37 358.229 336.247 358.098 334.587 358.098L324.245 358.098C321.335 358.098 319.451 358.185 318.591 358.361C317.966 358.498 317.532 358.713 317.287 359.006C317.043 359.299 316.921 359.699 316.921 360.207C316.921 360.754 317.068 361.418 317.361 362.199L316.306 362.609L313.025 354.523L313.025 353.234Z"/>
<path d="M318.708 338C314.919 334.855 313.025 331.857 313.025 329.006C313.025 327.541 313.391 326.281 314.123 325.226C314.856 324.172 316.062 323.332 317.742 322.707C318.913 322.277 320.71 322.062 323.132 322.062L334.587 322.062C336.286 322.062 337.439 321.926 338.044 321.652C338.533 321.437 338.913 321.091 339.187 320.612C339.46 320.134 339.597 319.25 339.597 317.961L340.652 317.961L340.652 331.232L339.597 331.232L339.597 330.676C339.597 329.426 339.407 328.552 339.026 328.054C338.645 327.556 338.083 327.209 337.341 327.014C337.048 326.935 336.13 326.896 334.587 326.896L323.601 326.896C321.16 326.896 319.387 327.214 318.284 327.849C317.18 328.483 316.628 329.553 316.628 331.057C316.628 333.381 317.898 335.695 320.437 338L334.587 338C336.404 338 337.527 337.892 337.956 337.678C338.523 337.404 338.938 337.028 339.202 336.55C339.465 336.071 339.597 335.1 339.597 333.635L340.652 333.635L340.652 346.906L339.597 346.906L339.597 346.32C339.597 344.953 339.25 344.03 338.557 343.552C337.864 343.073 336.54 342.834 334.587 342.834L324.626 342.834C321.404 342.834 319.441 342.907 318.738 343.054C318.035 343.2 317.556 343.425 317.302 343.727C317.048 344.03 316.921 344.435 316.921 344.943C316.921 345.49 317.068 346.144 317.361 346.906L316.306 347.346L313.025 339.26L313.025 338L318.708 338Z"/>
<path d="M334.968 310.197C334.968 309.279 335.286 308.508 335.92 307.883C336.555 307.258 337.322 306.945 338.22 306.945C339.119 306.945 339.885 307.263 340.52 307.897C341.155 308.532 341.472 309.299 341.472 310.197C341.472 311.096 341.155 311.862 340.52 312.497C339.885 313.132 339.119 313.449 338.22 313.449C337.302 313.449 336.531 313.132 335.906 312.497C335.281 311.862 334.968 311.096 334.968 310.197Z"/>
</g>
<g fill="#000000" opacity="1" stroke="none" vectornator:layerName="Text 5">
<path d="M113.368 409.024L76.7206 412.197L101.707 421.153C104.005 421.976 105.528 422.242 106.276 421.95C107.292 421.547 108.064 420.609 108.591 419.139L109.066 417.815L110.086 418.18L105.42 431.198L104.4 430.832L104.874 429.508C105.441 427.927 105.365 426.634 104.646 425.63C104.203 425.014 102.933 424.331 100.837 423.58L76.4023 414.821C74.7476 414.228 73.4866 413.984 72.6194 414.088C71.9939 414.154 71.3784 414.468 70.7727 415.029C70.1671 415.59 69.5908 416.633 69.0438 418.159L68.0234 417.793L71.8193 407.203L105.944 404.123L81.4671 380.286L85.263 369.696L86.2834 370.062L85.8188 371.358C85.2455 372.958 85.3182 374.26 86.037 375.264C86.4804 375.88 87.7501 376.563 89.8461 377.314L114.281 386.072C116.579 386.896 118.106 387.153 118.86 386.842C119.876 386.439 120.648 385.502 121.175 384.031L121.639 382.734L122.66 383.1L116.966 398.986L115.946 398.62L116.42 397.296C116.993 395.697 116.917 394.404 116.192 393.417C115.749 392.802 114.479 392.119 112.383 391.367L87.3966 382.412L113.694 408.114L113.368 409.024Z"/>
<path d="M86.8037 359.667C87.0805 358.895 87.5873 358.335 88.3241 357.987C89.0609 357.639 89.8154 357.603 90.5876 357.88C91.3598 358.157 91.9245 358.665 92.2816 359.405C92.6388 360.145 92.679 360.901 92.4022 361.673C92.1254 362.446 91.6124 363.009 90.8631 363.363C90.1138 363.716 89.3531 363.755 88.5809 363.478C87.8087 363.201 87.2486 362.695 86.9006 361.958C86.5526 361.221 86.5203 360.457 86.8037 359.667ZM100.834 362.113L121.132 369.388C122.714 369.955 123.807 370.217 124.414 370.175C125.02 370.133 125.533 369.933 125.952 369.575C126.371 369.217 126.794 368.44 127.222 367.245L128.215 367.601L123.816 379.873L122.824 379.518C123.265 378.286 123.442 377.416 123.355 376.907C123.267 376.398 122.992 375.921 122.53 375.475C122.067 375.029 121.054 374.526 119.492 373.966L109.756 370.477C107.017 369.495 105.213 368.942 104.345 368.817C103.71 368.735 103.228 368.791 102.9 368.984C102.571 369.177 102.321 369.513 102.15 369.991C101.965 370.506 101.879 371.181 101.891 372.015L100.76 372.045L100.399 363.326L100.834 362.113Z"/>
<path d="M129.461 339.726L137.102 342.808L129.115 365.091L128.122 364.735L111.793 339.961L108.828 348.234C108.189 350.018 107.885 351.226 107.917 351.86C107.949 352.494 108.224 353.101 108.743 353.681C109.484 354.507 110.522 355.201 111.856 355.762L111.461 356.865L104.515 354.189L112.107 333.008L113.127 333.374L129.452 358.334L132.753 349.123C133.445 347.192 133.754 345.825 133.679 345.02C133.605 344.215 133.239 343.456 132.581 342.743C132.098 342.238 130.946 341.545 129.125 340.664L129.461 339.726Z"/>
<path d="M138.447 314.657L146.088 317.738L138.1 340.022L137.108 339.666L120.779 314.891L117.813 323.165C117.174 324.948 116.871 326.157 116.903 326.791C116.935 327.425 117.21 328.032 117.728 328.612C118.47 329.438 119.507 330.131 120.842 330.693L120.446 331.796L113.5 329.12L121.092 307.939L122.113 308.305L138.437 333.265L141.739 324.054C142.431 322.123 142.739 320.755 142.665 319.951C142.59 319.146 142.224 318.387 141.567 317.674C141.084 317.169 139.932 316.476 138.111 315.595L138.447 314.657Z"/>
<path d="M133.088 304.427C136.832 305.79 140.1 305.934 142.892 304.86C145.684 303.786 147.524 302.008 148.414 299.526C149.007 297.871 149.068 296.269 148.596 294.72C148.124 293.171 146.933 291.588 145.024 289.97L145.882 289.312C148.262 290.601 150.154 292.545 151.556 295.143C152.959 297.742 153.16 300.438 152.158 303.233C151.071 306.267 148.959 308.44 145.822 309.754C142.685 311.067 139.122 311.009 135.132 309.579C130.811 308.03 127.839 305.715 126.215 302.633C124.592 299.551 124.38 296.337 125.579 292.99C126.594 290.159 128.361 288.168 130.879 287.016C133.398 285.865 136.22 285.849 139.345 286.97L133.088 304.427ZM131.489 303.854L135.68 292.16C134.029 291.672 132.82 291.457 132.052 291.514C130.858 291.604 129.804 291.999 128.889 292.698C127.975 293.398 127.339 294.244 126.983 295.237C126.436 296.763 126.54 298.34 127.294 299.97C128.049 301.599 129.447 302.894 131.489 303.854Z"/>
<path d="M138.282 274.482C135.776 270.243 135.004 266.782 135.966 264.098C136.46 262.719 137.23 261.656 138.275 260.911C139.321 260.165 140.739 259.781 142.532 259.76C143.78 259.751 145.544 260.155 147.824 260.972L158.607 264.837C160.206 265.41 161.337 265.67 162 265.617C162.532 265.58 163.007 265.382 163.426 265.024C163.845 264.665 164.272 263.88 164.707 262.666L165.7 263.022L161.222 275.515L160.229 275.159L160.417 274.635C160.838 273.459 160.954 272.572 160.764 271.974C160.573 271.377 160.161 270.861 159.529 270.427C159.279 270.254 158.428 269.908 156.976 269.387L146.634 265.68C144.336 264.857 142.56 264.557 141.307 264.783C140.054 265.008 139.174 265.828 138.666 267.244C137.882 269.432 138.296 272.039 139.909 275.065L153.229 279.84C154.939 280.453 156.033 280.73 156.51 280.673C157.135 280.607 157.653 280.393 158.062 280.031C158.472 279.67 158.924 278.8 159.418 277.421L160.411 277.777L155.933 290.27L154.94 289.914L155.138 289.362C155.599 288.075 155.584 287.09 155.093 286.405C154.602 285.721 153.437 285.049 151.598 284.39L142.222 281.029C139.188 279.942 137.315 279.349 136.604 279.249C135.893 279.15 135.366 279.2 135.025 279.399C134.684 279.598 134.428 279.937 134.257 280.415C134.072 280.93 133.989 281.595 134.008 282.411L132.867 282.469L132.506 273.75L132.931 272.564L138.282 274.482Z"/>
<path d="M162.969 253.796C163.279 252.932 163.838 252.313 164.646 251.938C165.455 251.564 166.282 251.529 167.127 251.832C167.973 252.135 168.588 252.692 168.971 253.504C169.354 254.316 169.394 255.145 169.091 255.99C168.788 256.836 168.231 257.451 167.419 257.834C166.607 258.217 165.779 258.258 164.933 257.954C164.069 257.645 163.45 257.086 163.075 256.277C162.701 255.469 162.666 254.642 162.969 253.796Z"/>
</g>
</g>
<g id="Yawl-rig" vectornator:layerName="Yawl rig" visibility="hidden">
<path d="M153.038 474.378L338.298 30.9226L338.298 474.378L153.038 474.378Z" fill="#dddddd" fill-rule="nonzero" opacity="1" stroke="#000000" stroke-linecap="butt" stroke-linejoin="miter" stroke-width="1" vectornator:layerName="Mainsail"/>
<path d="M518.379 532.02L343.968 30.9226L343.968 431.027L518.379 532.02Z" fill="#dddddd" fill-rule="nonzero" opacity="1" stroke="#000000" stroke-linecap="butt" stroke-linejoin="miter" stroke-width="1" vectornator:layerName="Jib"/>
<path d="M338.298 19.6611L343.968 19.6611L343.968 544.524L338.298 544.524L338.298 19.6611Z" fill="#dddddd" fill-rule="nonzero" opacity="1" stroke="#000000" stroke-linecap="butt" stroke-linejoin="miter" stroke-width="3" vectornator:layerName="Main mast"/>
<path d="M108.454 252.65L113.17 252.65L113.17 544.524L108.454 544.524L108.454 252.65Z" fill="#dddddd" fill-rule="nonzero" opacity="1" stroke="#000000" stroke-linecap="butt" stroke-linejoin="miter" stroke-width="3" vectornator:layerName="Mizzen mast"/>
<path d="M153.038 474.378L338.298 474.378L338.298 480.048L153.038 480.048L153.038 474.378Z" fill="#dddddd" fill-rule="nonzero" opacity="1" stroke="#000000" stroke-linecap="butt" stroke-linejoin="miter" stroke-width="3" vectornator:layerName="Boom"/>
<path d="M14.1338 474.378L108.454 259.371L108.454 474.378L14.1338 474.378Z" fill="#dddddd" fill-rule="nonzero" opacity="1" stroke="#000000" stroke-linecap="butt" stroke-linejoin="miter" stroke-width="1" vectornator:layerName="Mainsail 1"/>
<path d="M14.1338 474.378L107.5 474.378L107.5 480.048L14.1338 480.048L14.1338 474.378Z" fill="#dddddd" fill-rule="nonzero" opacity="1" stroke="#000000" stroke-linecap="butt" stroke-linejoin="miter" stroke-width="3" vectornator:layerName="Boom 1"/>
<path d="M341.133 19.6611L113.17 539.783" fill="none" opacity="1" stroke="#000000" stroke-linecap="butt" stroke-linejoin="miter" stroke-width="1" vectornator:layerName="Curve 1"/>
<g fill="#000000" opacity="1" stroke="none" vectornator:layerName="Text 4">
<path d="M228.709 406.535L222.056 392.05L222.056 403.552C222.056 404.61 222.171 405.27 222.399 405.532C222.712 405.888 223.207 406.065 223.885 406.065L224.494 406.065L224.494 406.535L218.502 406.535L218.502 406.065L219.111 406.065C219.839 406.065 220.355 405.845 220.66 405.405C220.846 405.134 220.939 404.517 220.939 403.552L220.939 392.304C220.939 391.542 220.855 390.992 220.685 390.653C220.567 390.408 220.349 390.203 220.032 390.038C219.714 389.872 219.204 389.79 218.502 389.79L218.502 389.32L223.377 389.32L229.623 402.79L235.767 389.32L240.642 389.32L240.642 389.79L240.046 389.79C239.309 389.79 238.789 390.01 238.484 390.45C238.298 390.721 238.205 391.339 238.205 392.304L238.205 403.552C238.205 404.61 238.323 405.27 238.56 405.532C238.873 405.888 239.369 406.065 240.046 406.065L240.642 406.065L240.642 406.535L233.33 406.535L233.33 406.065L233.939 406.065C234.676 406.065 235.192 405.845 235.488 405.405C235.674 405.134 235.767 404.517 235.767 403.552L235.767 392.05L229.128 406.535L228.709 406.535Z"/>
<path d="M248.59 404.859C247.396 405.782 246.647 406.315 246.343 406.459C245.886 406.67 245.399 406.776 244.883 406.776C244.079 406.776 243.416 406.501 242.896 405.951C242.375 405.401 242.115 404.677 242.115 403.78C242.115 403.213 242.242 402.722 242.496 402.308C242.843 401.732 243.446 401.19 244.305 400.683C245.164 400.175 246.592 399.557 248.59 398.829L248.59 398.372C248.59 397.212 248.406 396.417 248.037 395.985C247.669 395.554 247.134 395.338 246.431 395.338C245.898 395.338 245.475 395.482 245.162 395.769C244.84 396.057 244.679 396.387 244.679 396.76L244.705 397.496C244.705 397.885 244.605 398.186 244.407 398.397C244.208 398.609 243.947 398.715 243.626 398.715C243.313 398.715 243.057 398.605 242.858 398.385C242.659 398.165 242.559 397.864 242.559 397.483C242.559 396.755 242.932 396.087 243.677 395.477C244.421 394.868 245.467 394.563 246.812 394.563C247.845 394.563 248.691 394.737 249.351 395.084C249.851 395.346 250.219 395.757 250.456 396.315C250.608 396.679 250.684 397.424 250.684 398.55L250.684 402.498C250.684 403.607 250.706 404.286 250.748 404.536C250.79 404.785 250.86 404.952 250.957 405.037C251.055 405.122 251.167 405.164 251.294 405.164C251.429 405.164 251.548 405.134 251.649 405.075C251.827 404.965 252.17 404.656 252.678 404.148L252.678 404.859C251.73 406.129 250.824 406.764 249.961 406.764C249.546 406.764 249.216 406.62 248.971 406.332C248.725 406.044 248.598 405.553 248.59 404.859ZM248.59 404.034L248.59 399.603C247.312 400.111 246.486 400.471 246.114 400.683C245.445 401.055 244.967 401.444 244.679 401.851C244.392 402.257 244.248 402.701 244.248 403.184C244.248 403.793 244.43 404.299 244.794 404.701C245.158 405.103 245.577 405.304 246.051 405.304C246.694 405.304 247.54 404.88 248.59 404.034Z"/>
<path d="M256.499 388.482C256.854 388.482 257.157 388.607 257.407 388.857C257.656 389.107 257.781 389.409 257.781 389.765C257.781 390.12 257.656 390.425 257.407 390.679C257.157 390.933 256.854 391.059 256.499 391.059C256.143 391.059 255.839 390.933 255.585 390.679C255.331 390.425 255.204 390.12 255.204 389.765C255.204 389.409 255.329 389.107 255.578 388.857C255.828 388.607 256.135 388.482 256.499 388.482ZM257.553 394.563L257.553 403.907C257.553 404.635 257.605 405.12 257.711 405.361C257.817 405.602 257.974 405.782 258.181 405.9C258.388 406.019 258.767 406.078 259.317 406.078L259.317 406.535L253.668 406.535L253.668 406.078C254.235 406.078 254.616 406.023 254.81 405.913C255.005 405.803 255.159 405.621 255.274 405.367C255.388 405.113 255.445 404.627 255.445 403.907L255.445 399.426C255.445 398.165 255.407 397.348 255.331 396.976C255.272 396.705 255.179 396.516 255.052 396.411C254.925 396.305 254.751 396.252 254.531 396.252C254.294 396.252 254.006 396.315 253.668 396.442L253.49 395.985L256.994 394.563L257.553 394.563Z"/>
<path d="M264.154 397.026C265.517 395.384 266.816 394.563 268.052 394.563C268.686 394.563 269.232 394.722 269.689 395.039C270.146 395.357 270.51 395.879 270.781 396.607C270.967 397.115 271.06 397.894 271.06 398.943L271.06 403.907C271.06 404.643 271.12 405.143 271.238 405.405C271.331 405.617 271.481 405.782 271.689 405.9C271.896 406.019 272.279 406.078 272.838 406.078L272.838 406.535L267.087 406.535L267.087 406.078L267.328 406.078C267.87 406.078 268.248 405.996 268.464 405.83C268.68 405.665 268.83 405.422 268.915 405.101C268.949 404.974 268.966 404.576 268.966 403.907L268.966 399.146C268.966 398.088 268.828 397.32 268.553 396.842C268.278 396.364 267.815 396.125 267.163 396.125C266.156 396.125 265.153 396.675 264.154 397.775L264.154 403.907C264.154 404.694 264.201 405.181 264.294 405.367C264.412 405.613 264.575 405.792 264.783 405.907C264.99 406.021 265.411 406.078 266.046 406.078L266.046 406.535L260.295 406.535L260.295 406.078L260.549 406.078C261.141 406.078 261.541 405.928 261.748 405.627C261.956 405.327 262.059 404.754 262.059 403.907L262.059 399.591C262.059 398.194 262.028 397.344 261.964 397.039C261.901 396.734 261.803 396.527 261.672 396.417C261.541 396.307 261.365 396.252 261.145 396.252C260.908 396.252 260.625 396.315 260.295 396.442L260.104 395.985L263.608 394.563L264.154 394.563L264.154 397.026Z"/>
<path d="M281.28 394.563L281.28 398.524L280.861 398.524C280.54 397.28 280.127 396.434 279.623 395.985C279.12 395.537 278.479 395.312 277.7 395.312C277.108 395.312 276.629 395.469 276.265 395.782C275.901 396.095 275.72 396.442 275.72 396.823C275.72 397.297 275.855 397.703 276.126 398.042C276.388 398.389 276.921 398.757 277.725 399.146L279.579 400.048C281.297 400.886 282.156 401.99 282.156 403.361C282.156 404.419 281.756 405.272 280.956 405.919C280.157 406.567 279.262 406.891 278.271 406.891C277.56 406.891 276.748 406.764 275.834 406.51C275.554 406.425 275.326 406.383 275.148 406.383C274.954 406.383 274.801 406.493 274.691 406.713L274.272 406.713L274.272 402.561L274.691 402.561C274.928 403.746 275.381 404.639 276.05 405.24C276.718 405.841 277.467 406.142 278.297 406.142C278.881 406.142 279.357 405.97 279.725 405.627C280.093 405.285 280.277 404.872 280.277 404.39C280.277 403.806 280.072 403.315 279.661 402.917C279.251 402.519 278.432 402.016 277.205 401.406C275.978 400.797 275.174 400.247 274.793 399.756C274.412 399.273 274.221 398.664 274.221 397.928C274.221 396.971 274.549 396.171 275.205 395.528C275.861 394.885 276.71 394.563 277.751 394.563C278.208 394.563 278.762 394.661 279.414 394.855C279.846 394.982 280.133 395.046 280.277 395.046C280.413 395.046 280.518 395.016 280.595 394.957C280.671 394.898 280.76 394.767 280.861 394.563L281.28 394.563Z"/>
<path d="M290.471 404.859C289.278 405.782 288.529 406.315 288.224 406.459C287.767 406.67 287.281 406.776 286.764 406.776C285.96 406.776 285.298 406.501 284.778 405.951C284.257 405.401 283.997 404.677 283.997 403.78C283.997 403.213 284.124 402.722 284.378 402.308C284.725 401.732 285.328 401.19 286.187 400.683C287.046 400.175 288.474 399.557 290.471 398.829L290.471 398.372C290.471 397.212 290.287 396.417 289.919 395.985C289.551 395.554 289.016 395.338 288.313 395.338C287.78 395.338 287.357 395.482 287.044 395.769C286.722 396.057 286.561 396.387 286.561 396.76L286.587 397.496C286.587 397.885 286.487 398.186 286.288 398.397C286.089 398.609 285.829 398.715 285.508 398.715C285.194 398.715 284.938 398.605 284.74 398.385C284.541 398.165 284.441 397.864 284.441 397.483C284.441 396.755 284.814 396.087 285.558 395.477C286.303 394.868 287.348 394.563 288.694 394.563C289.727 394.563 290.573 394.737 291.233 395.084C291.733 395.346 292.101 395.757 292.338 396.315C292.49 396.679 292.566 397.424 292.566 398.55L292.566 402.498C292.566 403.607 292.587 404.286 292.63 404.536C292.672 404.785 292.742 404.952 292.839 405.037C292.936 405.122 293.049 405.164 293.176 405.164C293.311 405.164 293.429 405.134 293.531 405.075C293.709 404.965 294.052 404.656 294.559 404.148L294.559 404.859C293.611 406.129 292.706 406.764 291.843 406.764C291.428 406.764 291.098 406.62 290.852 406.332C290.607 406.044 290.48 405.553 290.471 404.859ZM290.471 404.034L290.471 399.603C289.193 400.111 288.368 400.471 287.996 400.683C287.327 401.055 286.849 401.444 286.561 401.851C286.274 402.257 286.13 402.701 286.13 403.184C286.13 403.793 286.312 404.299 286.676 404.701C287.04 405.103 287.458 405.304 287.932 405.304C288.576 405.304 289.422 404.88 290.471 404.034Z"/>
<path d="M298.381 388.482C298.736 388.482 299.039 388.607 299.288 388.857C299.538 389.107 299.663 389.409 299.663 389.765C299.663 390.12 299.538 390.425 299.288 390.679C299.039 390.933 298.736 391.059 298.381 391.059C298.025 391.059 297.721 390.933 297.467 390.679C297.213 390.425 297.086 390.12 297.086 389.765C297.086 389.409 297.211 389.107 297.46 388.857C297.71 388.607 298.017 388.482 298.381 388.482ZM299.434 394.563L299.434 403.907C299.434 404.635 299.487 405.12 299.593 405.361C299.699 405.602 299.855 405.782 300.063 405.9C300.27 406.019 300.649 406.078 301.199 406.078L301.199 406.535L295.55 406.535L295.55 406.078C296.117 406.078 296.498 406.023 296.692 405.913C296.887 405.803 297.041 405.621 297.156 405.367C297.27 405.113 297.327 404.627 297.327 403.907L297.327 399.426C297.327 398.165 297.289 397.348 297.213 396.976C297.153 396.705 297.06 396.516 296.933 396.411C296.806 396.305 296.633 396.252 296.413 396.252C296.176 396.252 295.888 396.315 295.55 396.442L295.372 395.985L298.876 394.563L299.434 394.563Z"/>
<path d="M306.645 388.482L306.645 403.907C306.645 404.635 306.698 405.117 306.804 405.354C306.91 405.591 307.073 405.771 307.293 405.894C307.513 406.017 307.923 406.078 308.524 406.078L308.524 406.535L302.824 406.535L302.824 406.078C303.357 406.078 303.721 406.023 303.916 405.913C304.11 405.803 304.263 405.621 304.373 405.367C304.483 405.113 304.538 404.627 304.538 403.907L304.538 393.345C304.538 392.033 304.508 391.227 304.449 390.926C304.39 390.626 304.295 390.42 304.163 390.31C304.032 390.2 303.865 390.145 303.662 390.145C303.442 390.145 303.163 390.213 302.824 390.349L302.608 389.904L306.074 388.482L306.645 388.482Z"/>
</g>
<g fill="#000000" opacity="1" stroke="none" vectornator:layerName="Text 5">
<path d="M390.806 389.79L390.806 389.32L398.182 389.32L398.182 389.79L397.56 389.79C396.857 389.79 396.345 389.997 396.024 390.412C395.821 390.683 395.719 391.335 395.719 392.367L395.719 400.784C395.719 402.079 395.577 403.129 395.294 403.933C395.01 404.737 394.521 405.437 393.827 406.034C393.133 406.63 392.296 406.929 391.314 406.929C390.518 406.929 389.892 406.732 389.435 406.338C388.978 405.945 388.749 405.494 388.749 404.986C388.749 404.572 388.855 404.258 389.067 404.047C389.346 403.784 389.672 403.653 390.044 403.653C390.315 403.653 390.558 403.742 390.774 403.92C390.99 404.098 391.263 404.572 391.593 405.342C391.788 405.799 392.037 406.027 392.342 406.027C392.571 406.027 392.784 405.888 392.983 405.608C393.182 405.329 393.282 404.834 393.282 404.123L393.282 392.367C393.282 391.495 393.227 390.92 393.117 390.641C393.032 390.429 392.854 390.247 392.583 390.095C392.219 389.892 391.834 389.79 391.428 389.79L390.806 389.79Z"/>
<path d="M402.105 388.482C402.46 388.482 402.763 388.607 403.013 388.857C403.262 389.107 403.387 389.409 403.387 389.765C403.387 390.12 403.262 390.425 403.013 390.679C402.763 390.933 402.46 391.059 402.105 391.059C401.749 391.059 401.445 390.933 401.191 390.679C400.937 390.425 400.81 390.12 400.81 389.765C400.81 389.409 400.935 389.107 401.184 388.857C401.434 388.607 401.741 388.482 402.105 388.482ZM403.159 394.563L403.159 403.907C403.159 404.635 403.211 405.12 403.317 405.361C403.423 405.602 403.58 405.782 403.787 405.9C403.994 406.019 404.373 406.078 404.923 406.078L404.923 406.535L399.274 406.535L399.274 406.078C399.841 406.078 400.222 406.023 400.416 405.913C400.611 405.803 400.765 405.621 400.88 405.367C400.994 405.113 401.051 404.627 401.051 403.907L401.051 399.426C401.051 398.165 401.013 397.348 400.937 396.976C400.878 396.705 400.785 396.516 400.658 396.411C400.531 396.305 400.357 396.252 400.137 396.252C399.9 396.252 399.612 396.315 399.274 396.442L399.096 395.985L402.6 394.563L403.159 394.563Z"/>
<path d="M409.557 396.912C410.683 395.346 411.897 394.563 413.201 394.563C414.394 394.563 415.435 395.073 416.324 396.093C417.212 397.113 417.657 398.507 417.657 400.276C417.657 402.341 416.971 404.004 415.6 405.266C414.424 406.349 413.112 406.891 411.664 406.891C410.987 406.891 410.3 406.768 409.601 406.522C408.903 406.277 408.19 405.909 407.462 405.418L407.462 393.37C407.462 392.05 407.431 391.237 407.367 390.933C407.304 390.628 407.204 390.42 407.069 390.31C406.933 390.2 406.764 390.145 406.561 390.145C406.324 390.145 406.028 390.213 405.672 390.349L405.494 389.904L408.986 388.482L409.557 388.482L409.557 396.912ZM409.557 397.725L409.557 404.682C409.989 405.105 410.435 405.424 410.896 405.64C411.358 405.856 411.829 405.964 412.312 405.964C413.082 405.964 413.799 405.541 414.464 404.694C415.128 403.848 415.46 402.616 415.46 401C415.46 399.51 415.128 398.366 414.464 397.566C413.799 396.766 413.044 396.366 412.198 396.366C411.749 396.366 411.3 396.48 410.852 396.709C410.513 396.878 410.082 397.217 409.557 397.725Z"/>
</g>
<g fill="#000000" opacity="1" stroke="none" vectornator:layerName="Text 6">
<path d="M59.33 454.879L43.405 455.568L54.0549 459.912C55.0345 460.312 55.6889 460.455 56.0182 460.343C56.4656 460.187 56.8172 459.796 57.0729 459.169L57.3031 458.604L57.738 458.782L55.4747 464.33L55.0398 464.153L55.27 463.588C55.5449 462.915 55.5361 462.353 55.2437 461.905C55.0633 461.63 54.5263 461.311 53.633 460.946L43.2181 456.698C42.5128 456.41 41.9715 456.281 41.5941 456.31C41.3221 456.327 41.0497 456.451 40.777 456.682C40.5043 456.914 40.2353 457.355 39.97 458.005L39.5351 457.828L41.3764 453.314L56.2075 452.618L46.0564 441.841L47.8977 437.327L48.3326 437.505L48.1072 438.057C47.8291 438.739 47.8363 439.304 48.1287 439.753C48.3092 440.027 48.8461 440.347 49.7394 440.711L60.1543 444.96C61.1339 445.359 61.7899 445.499 62.1223 445.379C62.5697 445.223 62.9213 444.832 63.1771 444.205L63.4024 443.652L63.8374 443.83L61.0754 450.6L60.6405 450.423L60.8706 449.859C61.1487 449.177 61.14 448.616 60.8444 448.175C60.6639 447.901 60.127 447.581 59.2336 447.217L48.5837 442.872L59.4882 454.491L59.33 454.879Z"/>
<path d="M48.7522 433.014C48.8865 432.685 49.1163 432.452 49.4418 432.315C49.7673 432.178 50.0946 432.177 50.4237 432.311C50.7529 432.446 50.9878 432.676 51.1286 433.003C51.2694 433.33 51.2727 433.659 51.1384 433.988C51.0042 434.317 50.7715 434.551 50.4405 434.69C50.1095 434.829 49.7795 434.832 49.4503 434.698C49.1212 434.563 48.8882 434.333 48.7513 434.008C48.6144 433.682 48.6147 433.351 48.7522 433.014ZM54.7808 434.335L63.4324 437.865C64.1064 438.14 64.575 438.274 64.8383 438.267C65.1016 438.26 65.3273 438.183 65.5153 438.036C65.7033 437.888 65.9012 437.56 66.109 437.051L66.5322 437.223L64.3984 442.454L63.9752 442.282C64.1894 441.757 64.2823 441.383 64.2539 441.161C64.2256 440.94 64.1154 440.728 63.9235 440.526C63.7316 440.324 63.3025 440.088 62.6364 439.816L58.4869 438.123C57.3193 437.647 56.5487 437.374 56.1751 437.304C55.9019 437.256 55.6924 437.271 55.5465 437.349C55.4006 437.426 55.2861 437.567 55.203 437.771C55.1135 437.99 55.0635 438.281 55.0532 438.642L54.5629 438.634L54.5698 434.853L54.7808 434.335Z"/>
<path d="M67.5926 425.179L70.843 426.656L66.9685 436.154L66.5454 435.981L59.9393 424.95L58.5008 428.476C58.1907 429.237 58.0367 429.754 58.0387 430.029C58.0408 430.304 58.1486 430.572 58.3621 430.833C58.6677 431.204 59.104 431.524 59.6711 431.792L59.4793 432.262L56.5223 430.974L60.2049 421.946L60.6399 422.123L67.2407 433.235L68.8422 429.308C69.1779 428.486 69.3371 427.899 69.3198 427.549C69.3026 427.2 69.1583 426.864 68.887 426.543C68.6874 426.316 68.2016 425.994 67.4296 425.579L67.5926 425.179Z"/>
<path d="M71.9513 414.494L75.2017 415.97L71.3273 425.468L70.9041 425.296L64.298 414.265L62.8595 417.791C62.5494 418.551 62.3954 419.069 62.3975 419.344C62.3995 419.619 62.5073 419.887 62.7209 420.148C63.0264 420.519 63.4627 420.839 64.0298 421.107L63.838 421.577L60.881 420.289L64.5637 411.261L64.9986 411.438L71.5994 422.549L73.201 418.623C73.5366 417.8 73.6958 417.214 73.6786 416.864C73.6613 416.514 73.517 416.179 73.2457 415.858C73.0461 415.63 72.5603 415.309 71.7883 414.893L71.9513 414.494Z"/>
<path d="M69.8227 409.965C71.4182 410.625 72.8303 410.748 74.059 410.335C75.2877 409.922 76.1178 409.187 76.5494 408.129C76.8371 407.424 76.8933 406.731 76.718 406.052C76.5426 405.373 76.0567 404.665 75.2602 403.929L75.6439 403.66C76.6504 404.263 77.433 405.139 77.9917 406.291C78.5505 407.442 78.5869 408.613 78.101 409.804C77.5736 411.097 76.6185 411.999 75.2359 412.509C73.8533 413.019 72.3117 412.927 70.6112 412.233C68.7695 411.482 67.5261 410.424 66.8808 409.059C66.2355 407.695 66.2037 406.299 66.7855 404.873C67.2778 403.666 68.0799 402.837 69.1918 402.386C70.3037 401.934 71.5258 401.98 72.858 402.524L69.8227 409.965ZM69.1409 409.686L71.174 404.702C70.4684 404.46 69.949 404.344 69.6157 404.355C69.0969 404.372 68.6331 404.523 68.224 404.808C67.815 405.094 67.5242 405.448 67.3516 405.872C67.0863 406.522 67.1016 407.207 67.3977 407.926C67.6938 408.646 68.2749 409.233 69.1409 409.686Z"/>
<path d="M72.6309 397.098C71.6253 395.216 71.3558 393.703 71.8225 392.559C72.0623 391.971 72.4154 391.525 72.8819 391.222C73.3484 390.919 73.9698 390.779 74.746 390.803C75.2865 390.823 76.0427 391.03 77.0144 391.427L81.6106 393.302C82.2924 393.58 82.7771 393.714 83.0648 393.703C83.2959 393.697 83.5054 393.62 83.6935 393.473C83.8815 393.325 84.081 392.993 84.292 392.476L84.7152 392.649L82.543 397.974L82.1198 397.801L82.2109 397.578C82.4155 397.076 82.4822 396.694 82.4109 396.432C82.3396 396.17 82.171 395.939 81.9052 395.739C81.8004 395.66 81.4385 395.494 80.8194 395.241L76.4113 393.443C75.4317 393.044 74.6686 392.881 74.1219 392.955C73.5753 393.029 73.1789 393.368 72.9327 393.971C72.5523 394.904 72.6829 396.04 73.3244 397.38L79.0021 399.696C79.7309 399.994 80.1991 400.134 80.4066 400.119C80.6786 400.102 80.9067 400.019 81.0908 399.87C81.2749 399.721 81.4869 399.353 81.7266 398.765L82.1498 398.938L79.9776 404.263L79.5544 404.09L79.6503 403.855C79.8741 403.306 79.8861 402.879 79.6862 402.574C79.4863 402.268 78.9945 401.956 78.2109 401.636L74.2142 400.006C72.9212 399.478 72.1216 399.186 71.8155 399.13C71.5094 399.074 71.2806 399.086 71.1292 399.165C70.9778 399.245 70.8605 399.387 70.7774 399.591C70.6879 399.81 70.6396 400.097 70.6325 400.45L70.1374 400.454L70.1443 396.673L70.3504 396.167L72.6309 397.098Z"/>
<path d="M79.2741 374.291L82.9416 375.787L82.7834 376.175C81.5099 376.003 80.5704 376.066 79.9649 376.362C79.3593 376.659 78.9095 377.168 78.6154 377.889C78.3917 378.438 78.356 378.94 78.5085 379.395C78.661 379.85 78.9136 380.15 79.2662 380.294C79.7051 380.473 80.1324 380.501 80.5481 380.378C80.9685 380.266 81.5108 379.911 82.175 379.314L83.7097 377.938C85.1344 376.664 86.4816 376.285 87.7511 376.803C88.7307 377.203 89.3692 377.895 89.6666 378.88C89.964 379.865 89.9257 380.816 89.5517 381.733C89.2832 382.392 88.8587 383.096 88.2784 383.846C88.0945 384.073 87.969 384.269 87.9019 384.433C87.8284 384.613 87.8727 384.796 88.0349 384.981L87.8767 385.369L84.0328 383.801L84.191 383.413C85.3777 383.641 86.3755 383.559 87.1844 383.167C87.9933 382.775 88.5545 382.195 88.8677 381.427C89.0883 380.886 89.1094 380.381 88.9311 379.91C88.7528 379.44 88.4403 379.114 87.9936 378.931C87.4529 378.711 86.9208 378.715 86.3975 378.945C85.8741 379.175 85.0985 379.743 84.0708 380.649C83.043 381.555 82.2299 382.092 81.6316 382.259C81.041 382.43 80.4049 382.376 79.7231 382.098C78.8375 381.737 78.2209 381.131 77.873 380.281C77.5252 379.43 77.5479 378.523 77.9411 377.559C78.1137 377.136 78.4132 376.66 78.8396 376.13C79.1202 375.778 79.2876 375.535 79.342 375.402C79.3931 375.277 79.4057 375.168 79.3796 375.075C79.3535 374.982 79.2656 374.85 79.1159 374.679L79.2741 374.291Z"/>
<path d="M92.279 369.67C92.6824 371.123 92.8932 372.018 92.9114 372.354C92.9347 372.858 92.8488 373.348 92.6538 373.826C92.3501 374.571 91.8453 375.08 91.1393 375.354C90.4333 375.628 89.665 375.596 88.8343 375.257C88.3093 375.043 87.9027 374.74 87.6146 374.348C87.2128 373.809 86.939 373.047 86.7933 372.059C86.6475 371.072 86.6149 369.516 86.6954 367.392L86.2722 367.219C85.1986 366.781 84.3924 366.651 83.8537 366.829C83.315 367.007 82.913 367.421 82.6476 368.072C82.4462 368.565 82.4196 369.012 82.5678 369.41C82.7128 369.817 82.9576 370.09 83.3025 370.231L83.9938 370.485C84.3543 370.633 84.595 370.838 84.7157 371.102C84.8365 371.366 84.8362 371.647 84.7147 371.945C84.5964 372.235 84.3979 372.43 84.119 372.531C83.8401 372.633 83.5244 372.611 83.1717 372.467C82.4978 372.192 82.0193 371.595 81.7364 370.675C81.4535 369.755 81.5662 368.673 82.0744 367.426C82.4644 366.47 82.9448 365.752 83.5154 365.272C83.9469 364.909 84.4661 364.723 85.0728 364.715C85.4673 364.711 86.1857 364.922 87.228 365.347L90.8838 366.838C91.9104 367.257 92.5472 367.494 92.7944 367.549C93.0416 367.604 93.2227 367.603 93.3378 367.544C93.453 367.486 93.5345 367.398 93.5825 367.281C93.6336 367.156 93.6509 367.035 93.6344 366.918C93.5997 366.712 93.4431 366.278 93.1647 365.616L93.823 365.885C94.6405 367.242 94.8862 368.32 94.5601 369.119C94.4034 369.503 94.1456 369.755 93.7864 369.873C93.4273 369.992 92.9248 369.924 92.279 369.67ZM91.5149 369.358L87.4124 367.684C87.3999 369.06 87.4213 369.96 87.4766 370.384C87.5688 371.144 87.7487 371.734 88.0162 372.154C88.2836 372.574 88.6407 372.875 89.0874 373.057C89.6516 373.287 90.1886 373.31 90.6983 373.124C91.208 372.939 91.5524 372.627 91.7314 372.188C91.9743 371.593 91.9022 370.649 91.5149 369.358Z"/>
<path d="M80.1025 356.161C80.2367 355.831 80.4666 355.598 80.7921 355.462C81.1176 355.325 81.4449 355.323 81.774 355.458C82.1032 355.592 82.3381 355.823 82.4789 356.15C82.6197 356.477 82.623 356.805 82.4887 357.134C82.3545 357.463 82.1218 357.697 81.7908 357.837C81.4598 357.976 81.1298 357.978 80.8006 357.844C80.4715 357.71 80.2385 357.48 80.1016 357.154C79.9647 356.829 79.965 356.498 80.1025 356.161ZM86.1311 357.482L94.7827 361.011C95.4566 361.286 95.9253 361.42 96.1886 361.413C96.4519 361.406 96.6775 361.329 96.8656 361.182C97.0536 361.035 97.2515 360.706 97.4593 360.197L97.8825 360.37L95.7487 365.601L95.3255 365.428C95.5397 364.903 95.6326 364.529 95.6042 364.308C95.5759 364.086 95.4657 363.874 95.2738 363.672C95.0818 363.471 94.6528 363.234 93.9867 362.962L89.8372 361.27C88.6696 360.793 87.899 360.52 87.5254 360.45C87.2522 360.403 87.0427 360.418 86.8968 360.495C86.7509 360.573 86.6364 360.713 86.5532 360.917C86.4637 361.137 86.4138 361.427 86.4035 361.789L85.9132 361.78L85.9201 357.999L86.1311 357.482Z"/>
<path d="M83.2241 348.508L97.5063 354.334C98.1803 354.609 98.6469 354.742 98.9063 354.734C99.1657 354.725 99.3938 354.643 99.5905 354.485C99.7872 354.328 99.9991 353.971 100.226 353.414L100.649 353.587L98.4963 358.865L98.0731 358.692C98.2745 358.199 98.361 357.841 98.3326 357.619C98.3043 357.397 98.1933 357.188 97.9998 356.99C97.8063 356.792 97.3764 356.557 96.7103 356.286L86.9302 352.296C85.7156 351.801 84.9579 351.523 84.6574 351.465C84.3568 351.406 84.1308 351.417 83.9793 351.497C83.8279 351.577 83.7138 351.711 83.6371 351.899C83.554 352.102 83.5112 352.387 83.5087 352.751L83.0158 352.783L83.0083 349.037L83.2241 348.508Z"/>
</g>
</g>
<clipPath id="ArtboardFrame">
<rect height="595.35" width="586.958" x="0" y="0"/>
</clipPath>
<g clip-path="url(#ArtboardFrame)" id="Hull" vectornator:layerName="Hull">
<path d="M434.784 534.918C434.784 534.918 413.393 522.546 360.301 517.358C307.209 512.171 222.415 514.168 222.415 514.168L203.518 526.16L122.353 526.403L116.969 538.405C116.969 538.405 205.693 545.32 284.054 544.448C362.414 543.576 434.784 534.918 434.784 534.918Z" fill="#dddddd" fill-rule="nonzero" opacity="1" stroke="#000000" stroke-linecap="butt" stroke-linejoin="miter" stroke-width="3" vectornator:layerName="Curve 6"/>
<path d="M466.725 575.765L518.379 532.02C518.379 532.02 419.201 536.85 310.336 538.485C201.471 540.119 82.9199 538.557 82.9199 538.557L70.1167 559.985C70.1167 559.985 76.5464 562.913 81.0304 566.756C85.5143 570.599 88.0525 575.357 88.0525 575.357L466.725 575.765Z" fill="#dddddd" fill-rule="nonzero" opacity="1" stroke="#000000" stroke-linecap="butt" stroke-linejoin="miter" stroke-width="3" vectornator:layerName="Hull"/>
<path d="M0 572.765L586.958 572.765L586.958 595.35L0 595.35L0 572.765Z" fill="#1991e8" fill-rule="nonzero" opacity="1" stroke="none" vectornator:layerName="Rectangle 1"/>
</g>
</svg>
